<?xml version="1.0" encoding="utf-8"?>
<!-- Generator: Adobe Illustrator 16.0.4, SVG Export Plug-In . SVG Version: 6.00 Build 0)  -->
<!DOCTYPE svg PUBLIC "-//W3C//DTD SVG 1.1//EN" "http://www.w3.org/Graphics/SVG/1.1/DTD/svg11.dtd">
<svg version="1.1" xmlns="http://www.w3.org/2000/svg" xmlns:xlink="http://www.w3.org/1999/xlink" x="0px" y="0px" width="328px"
	 height="244px" viewBox="0 0 328 244" enable-background="new 0 0 328 244" xml:space="preserve">
<g id="Layer_2">
	<rect fill="#F2F2F2" width="328" height="244"/>
</g>
<g id="Layer_1">
	<g>
		<path d="M110.745,40.865c-4.055-0.675-7.285-1.013-9.688-1.013c-2.404,0-4.225,0.563-5.464,1.689
			c-1.239,1.126-1.858,2.704-1.858,4.731c0,1.277,0.366,2.225,1.098,2.844s2.497,1.493,5.294,2.619
			c2.797,1.126,4.731,2.329,5.802,3.604c1.069,1.277,1.605,3.155,1.605,5.633c0,4.244-1.286,7.529-3.858,9.857
			c-2.573,2.329-6.055,3.493-10.449,3.493c-1.689,0-3.492-0.16-5.406-0.479c-1.916-0.319-3.399-0.648-4.451-0.986l-1.633-0.507
			l1.014-4.562c4.317,0.713,7.83,1.07,10.533,1.07c5.219,0,7.829-2.384,7.829-7.153c0-1.314-0.357-2.281-1.07-2.901
			c-0.713-0.619-2.412-1.473-5.097-2.563c-2.685-1.089-4.619-2.299-5.802-3.633c-1.183-1.332-1.774-3.219-1.774-5.66
			c0-3.718,1.201-6.721,3.604-9.012c2.403-2.29,5.632-3.436,9.688-3.436c1.689,0,3.464,0.15,5.322,0.451
			c1.859,0.301,3.294,0.602,4.309,0.902l1.577,0.506L110.745,40.865z"/>
		<path d="M120.094,61.029c-0.338,1.502-0.506,2.892-0.506,4.168c0,2.441,1.915,3.661,5.745,3.661c2.591,0,4.478-0.601,5.661-1.803
			c1.183-1.201,2.093-3.154,2.732-5.857l6.026-26.079h6.309l-6.027,26.079c-1.052,4.582-2.77,7.913-5.154,9.998
			c-2.384,2.083-5.567,3.126-9.547,3.126c-7.998,0-11.998-2.815-11.998-8.448c0-1.577,0.225-3.493,0.676-5.745l5.802-25.008h6.308
			L120.094,61.029z"/>
		<path d="M159.014,61.762h-6.364l-2.76,11.94h-6.308l8.956-38.583h11.547c3.792,0,6.552,0.808,8.279,2.421
			c1.727,1.615,2.591,4.188,2.591,7.717c0,5.181-1.408,9.228-4.225,12.138C167.915,60.307,164.009,61.762,159.014,61.762z
			 M159.916,56.298c2.741,0,4.862-0.995,6.366-2.985c1.5-1.99,2.252-4.655,2.252-7.999c0-1.614-0.385-2.806-1.154-3.577
			c-0.77-0.77-2.037-1.155-3.802-1.155h-6.082l-3.605,15.715L159.916,56.298L159.916,56.298z"/>
		<path d="M174.392,73.702l8.898-38.583h22.137l-1.296,5.464h-15.827l-2.479,10.927h12.729l-1.296,5.52h-12.673l-2.59,11.209h15.883
			l-1.295,5.463L174.392,73.702L174.392,73.702z"/>
		<path d="M222.943,35.12c3.754,0,6.534,0.808,8.337,2.422c1.802,1.615,2.702,4.252,2.702,7.913s-0.892,6.723-2.675,9.181
			c-1.784,2.46-3.952,4.122-6.506,4.985l3.605,14.081h-6.253L219,60.466h-7.097l-3.042,13.236h-6.308l8.956-38.583H222.943z
			 M225.365,52.355c1.427-1.802,2.141-3.839,2.141-6.111c0-2.271-0.376-3.793-1.127-4.562c-0.751-0.77-2.047-1.155-3.886-1.155
			h-5.97l-3.381,14.533h6.479C222.022,55.06,223.938,54.158,225.365,52.355z"/>
		<path d="M233.476,61.48l1.408-5.52h14.082l-1.353,5.52H233.476z"/>
		<path d="M92.271,141.292H78.583l8.957-38.582h12.222c7.886,0,11.829,3.868,11.829,11.603c0,6.646-1.54,12.672-4.619,18.08
			c-1.502,2.667-3.53,4.816-6.083,6.449C98.334,140.476,95.462,141.292,92.271,141.292z M102.269,128
			c0.919-2.254,1.624-4.562,2.112-6.929c0.488-2.365,0.732-4.627,0.732-6.787c0-2.159-0.535-3.717-1.605-4.675
			c-1.07-0.958-2.732-1.436-4.985-1.436h-6.027l-6.308,27.656h6.703c2.027,0,3.867-0.74,5.52-2.225
			C100.062,132.121,101.347,130.254,102.269,128z"/>
		<path d="M119.476,128.619c-0.338,1.503-0.507,2.893-0.507,4.169c0,2.44,1.916,3.66,5.745,3.66c2.59,0,4.478-0.6,5.661-1.802
			c1.183-1.201,2.093-3.155,2.732-5.858l6.026-26.079h6.308l-6.026,26.079c-1.052,4.582-2.77,7.913-5.154,9.997
			s-5.568,3.127-9.548,3.127c-7.997,0-11.997-2.815-11.997-8.448c0-1.577,0.225-3.492,0.676-5.745l5.802-25.008h6.309
			L119.476,128.619z"/>
		<path d="M158.395,129.352h-6.365l-2.759,11.94h-6.308l8.956-38.583h11.547c3.793,0,6.553,0.809,8.281,2.423
			c1.726,1.615,2.59,4.188,2.59,7.716c0,5.182-1.407,9.229-4.225,12.139C167.295,127.896,163.389,129.352,158.395,129.352z
			 M159.296,123.888c2.741,0,4.862-0.994,6.365-2.985c1.501-1.99,2.254-4.655,2.254-7.999c0-1.614-0.386-2.806-1.155-3.576
			c-0.77-0.769-2.038-1.154-3.801-1.154h-6.083l-3.604,15.714H159.296L159.296,123.888z"/>
		<path d="M174.842,141.292l8.898-38.582h22.136l-1.295,5.464h-15.827l-2.478,10.927h12.729l-1.295,5.52h-12.674l-2.591,11.209
			h15.884l-1.296,5.464h-22.191V141.292z"/>
		<path d="M223.395,102.709c3.754,0,6.533,0.808,8.336,2.423s2.703,4.252,2.703,7.913s-0.892,6.722-2.675,9.181
			c-1.785,2.459-3.952,4.121-6.507,4.984l3.605,14.081h-6.251l-3.155-13.235h-7.097l-3.042,13.235h-6.308l8.956-38.582
			L223.395,102.709L223.395,102.709z M225.816,119.945c1.427-1.803,2.141-3.839,2.141-6.112c0-2.271-0.376-3.792-1.127-4.562
			c-0.751-0.769-2.047-1.154-3.886-1.154h-5.971l-3.38,14.531h6.479C222.473,122.649,224.389,121.748,225.816,119.945z"/>
		<path d="M233.927,129.07l1.408-5.521h14.081l-1.352,5.521H233.927z"/>
		<path d="M120.771,170.3c6.496,0,9.744,2.667,9.744,7.998c0,4.694-2.253,8.261-6.759,10.701c1.54,0.752,2.61,1.644,3.21,2.677
			c0.6,1.032,0.901,2.355,0.901,3.97c0,3.905-1.286,7.088-3.857,9.546c-2.573,2.461-6.281,3.691-11.125,3.691H98.86l8.9-38.583
			H120.771L120.771,170.3z M116.546,191.984h-7.491l-2.646,11.491h7.716c2.254,0,4.028-0.695,5.323-2.086
			c1.295-1.388,1.943-3.247,1.943-5.575C121.391,193.263,119.776,191.984,116.546,191.984z M119.757,175.707h-6.928l-2.59,10.983
			h7.041c1.951,0,3.576-0.677,4.872-2.027c1.295-1.352,1.943-3.08,1.943-5.183c0-1.313-0.348-2.271-1.042-2.872
			C122.357,176.008,121.258,175.707,119.757,175.707z"/>
		<path d="M151.074,208.882h-19.827l8.956-38.582h6.252l-7.604,33.119h13.461L151.074,208.882z"/>
		<path d="M178.729,206.179c-2.854,2.217-6.309,3.323-10.363,3.323c-4.056,0-7.098-0.938-9.125-2.816
			c-2.028-1.878-3.042-4.824-3.042-8.843c0-4.882,0.76-9.521,2.281-13.913s3.726-7.847,6.619-10.363
			c2.891-2.591,6.421-3.886,10.589-3.886c8.186,0,12.279,3.886,12.279,11.659c0,5.106-0.781,9.912-2.338,14.419
			C184.069,200.265,181.771,203.738,178.729,206.179z M162.676,196.462c0,2.986,0.488,4.995,1.465,6.027
			c0.976,1.033,2.591,1.549,4.845,1.549c2.253,0,4.167-0.694,5.744-2.084c2.103-1.877,3.755-4.749,4.957-8.617
			c1.201-3.868,1.803-7.68,1.803-11.435c0-2.402-0.489-4.13-1.464-5.182c-0.978-1.051-2.584-1.577-4.816-1.577
			c-2.234,0-4.047,0.619-5.436,1.858c-2.178,1.991-3.905,4.985-5.182,8.984S162.676,193.477,162.676,196.462z"/>
		<path d="M203.455,209.502c-8.187,0-12.278-3.867-12.278-11.604c0-5.97,1.031-11.32,3.098-16.052
			c2.289-5.106,5.52-8.637,9.688-10.59c2.29-1.051,4.544-1.576,6.759-1.576c4.018,0,7.585,0.507,10.702,1.521l1.521,0.506
			l-1.464,4.562c-3.755-0.751-7.304-1.127-10.646-1.127c-2.254,0-4.253,0.732-5.998,2.198c-1.746,1.463-3.127,3.359-4.14,5.688
			c-2.028,4.657-3.042,9.632-3.042,14.928c0,4.054,2.178,6.081,6.533,6.081c1.503,0,2.929-0.148,4.281-0.449l0.677-0.114
			l2.365-10.193h-4.563l1.239-5.239h10.814l-4.676,19.995C211.472,209.014,207.85,209.502,203.455,209.502z"/>
	</g>
</g>
</svg>
