<?xml version="1.0" encoding="utf-8"?>
<!-- Generator: Adobe Illustrator 16.0.4, SVG Export Plug-In . SVG Version: 6.00 Build 0)  -->
<svg version="1.2" baseProfile="tiny" id="Layer_1" xmlns="http://www.w3.org/2000/svg" xmlns:xlink="http://www.w3.org/1999/xlink"
	 x="0px" y="0px" width="358px" height="388px" viewBox="0 0 358 388" xml:space="preserve">
<g>
	<path fill="#FFFFFF" d="M92.907,62.835c-6.556-1.092-11.777-1.638-15.661-1.638c-3.886,0-6.83,0.911-8.833,2.731
		c-2.003,1.821-3.005,4.371-3.005,7.649c0,2.064,0.592,3.596,1.776,4.598c1.184,1.002,4.036,2.413,8.559,4.234
		c4.521,1.821,7.648,3.765,9.379,5.827c1.729,2.064,2.595,5.1,2.595,9.106c0,6.86-2.08,12.171-6.237,15.935
		c-4.159,3.765-9.788,5.646-16.891,5.646c-2.731,0-5.646-0.259-8.741-0.773c-3.096-0.515-5.495-1.048-7.194-1.594l-2.641-0.819
		l1.639-7.375c6.98,1.153,12.657,1.73,17.027,1.73c8.438,0,12.657-3.854,12.657-11.564c0-2.124-0.578-3.688-1.73-4.69
		c-1.153-1.001-3.9-2.381-8.24-4.143c-4.34-1.76-7.467-3.717-9.379-5.873c-1.912-2.154-2.868-5.204-2.868-9.151
		c0-6.01,1.942-10.865,5.827-14.569c3.885-3.702,9.105-5.554,15.662-5.554c2.731,0,5.6,0.243,8.604,0.729
		c3.005,0.486,5.326,0.972,6.966,1.457l2.55,0.819L92.907,62.835z"/>
	<path fill="#FFFFFF" d="M108.021,95.433c-0.547,2.429-0.819,4.675-0.819,6.738c0,3.946,3.096,5.918,9.287,5.918
		c4.188,0,7.238-0.971,9.151-2.914c1.912-1.942,3.383-5.099,4.416-9.47l9.743-42.159h10.198l-9.743,42.159
		c-1.7,7.407-4.478,12.793-8.332,16.163c-3.855,3.369-9,5.054-15.434,5.054c-12.93,0-19.395-4.552-19.395-13.658
		c0-2.549,0.364-5.646,1.093-9.287l9.379-40.429h10.198L108.021,95.433z"/>
	<path fill="#FFFFFF" d="M170.94,96.617h-10.289l-4.461,19.303h-10.198l14.478-62.373h18.667c6.131,0,10.592,1.306,13.385,3.915
		c2.791,2.611,4.188,6.769,4.188,12.475c0,8.376-2.276,14.918-6.829,19.622C185.329,94.265,179.014,96.617,170.94,96.617z
		 M172.397,87.785c4.431,0,7.86-1.608,10.29-4.826c2.427-3.217,3.642-7.526,3.642-12.931c0-2.609-0.623-4.537-1.866-5.782
		c-1.244-1.244-3.294-1.867-6.146-1.867h-9.833l-5.828,25.405L172.397,87.785L172.397,87.785z"/>
	<path fill="#FFFFFF" d="M195.8,115.92l14.386-62.373h35.785l-2.095,8.833H218.29l-4.007,17.665h20.579l-2.095,8.923H212.28
		l-4.188,18.121h25.677l-2.094,8.832H195.8z"/>
	<path fill="#FFFFFF" d="M274.289,53.548c6.069,0,10.562,1.306,13.476,3.915c2.914,2.611,4.37,6.875,4.37,12.793
		c0,5.918-1.441,10.867-4.324,14.842c-2.885,3.976-6.39,6.663-10.518,8.059l5.828,22.764h-10.107l-5.1-21.398h-11.473l-4.917,21.398
		h-10.197l14.478-62.373H274.289z M278.204,81.411c2.306-2.914,3.46-6.207,3.46-9.88c0-3.672-0.607-6.131-1.821-7.375
		c-1.215-1.244-3.309-1.867-6.282-1.867h-9.651l-5.464,23.493h10.472C272.801,85.782,275.896,84.325,278.204,81.411z"/>
	<path fill="#FFFFFF" d="M291.315,96.162l2.277-8.923h22.764l-2.186,8.923H291.315z"/>
	<path fill="#FFFFFF" d="M63.042,225.188H40.915l14.479-62.373h19.759c12.748,0,19.122,6.253,19.122,18.757
		c0,10.744-2.489,20.487-7.467,29.229c-2.429,4.311-5.706,7.785-9.833,10.426C72.844,223.867,68.2,225.188,63.042,225.188z
		 M79.204,203.698c1.486-3.644,2.625-7.376,3.415-11.201c0.788-3.824,1.184-7.48,1.184-10.972c0-3.49-0.865-6.01-2.595-7.558
		c-1.73-1.548-4.416-2.322-8.059-2.322h-9.743l-10.198,44.708h10.836c3.278,0,6.251-1.197,8.923-3.596
		C75.637,210.361,77.715,207.342,79.204,203.698z"/>
	<path fill="#FFFFFF" d="M107.021,204.7c-0.547,2.429-0.82,4.675-0.82,6.739c0,3.945,3.097,5.916,9.287,5.916
		c4.188,0,7.239-0.969,9.151-2.912c1.913-1.941,3.384-5.1,4.417-9.471l9.742-42.158h10.198l-9.743,42.158
		c-1.7,7.408-4.477,12.793-8.331,16.162c-3.855,3.369-9.001,5.055-15.435,5.055c-12.929,0-19.395-4.553-19.395-13.658
		c0-2.549,0.364-5.645,1.093-9.287l9.379-40.429h10.199L107.021,204.7z"/>
	<path fill="#FFFFFF" d="M169.939,205.884h-10.29l-4.461,19.304H144.99l14.478-62.374h18.667c6.131,0,10.593,1.307,13.386,3.916
		c2.791,2.611,4.188,6.77,4.188,12.475c0,8.377-2.276,14.919-6.829,19.623C184.326,203.531,178.012,205.884,169.939,205.884z
		 M171.396,197.051c4.431,0,7.86-1.607,10.289-4.826c2.427-3.216,3.644-7.526,3.644-12.93c0-2.609-0.624-4.537-1.867-5.782
		c-1.245-1.243-3.294-1.866-6.146-1.866h-9.834l-5.827,25.404H171.396L171.396,197.051z"/>
	<path fill="#FFFFFF" d="M196.527,225.188l14.386-62.373h35.785l-2.094,8.833h-25.587l-4.006,17.665h20.578l-2.094,8.923h-20.487
		l-4.189,18.121h25.678l-2.095,8.832H196.527z"/>
	<path fill="#FFFFFF" d="M275.017,162.814c6.07,0,10.562,1.306,13.477,3.916c2.914,2.611,4.37,6.875,4.37,12.793
		s-1.441,10.867-4.324,14.842c-2.885,3.976-6.39,6.663-10.518,8.059l5.828,22.764h-10.107l-5.1-21.398H257.17l-4.917,21.398h-10.197
		l14.478-62.373H275.017z M278.933,190.677c2.306-2.914,3.46-6.207,3.46-9.88c0-3.672-0.607-6.13-1.821-7.375
		c-1.215-1.243-3.309-1.866-6.282-1.866h-9.651l-5.464,23.492h10.472C273.528,195.048,276.624,193.591,278.933,190.677z"/>
	<path fill="#FFFFFF" d="M292.044,205.429l2.277-8.924h22.764l-2.186,8.924H292.044z"/>
	<path fill="#FFFFFF" d="M109.115,272.08c10.501,0,15.753,4.312,15.753,12.93c0,7.59-3.642,13.355-10.927,17.301
		c2.489,1.215,4.219,2.656,5.189,4.326s1.457,3.809,1.457,6.418c0,6.314-2.079,11.459-6.236,15.434
		c-4.159,3.977-10.153,5.965-17.984,5.965H73.695l14.387-62.373H109.115L109.115,272.08z M102.286,307.137h-12.11l-4.279,18.576
		h12.475c3.643,0,6.511-1.123,8.604-3.371c2.095-2.244,3.141-5.25,3.141-9.014C110.117,309.203,107.507,307.137,102.286,307.137z
		 M107.477,280.822H96.277l-4.188,17.756h11.382c3.154,0,5.781-1.094,7.876-3.277c2.094-2.186,3.141-4.979,3.141-8.379
		c0-2.123-0.562-3.672-1.685-4.643C111.679,281.309,109.904,280.822,107.477,280.822z"/>
	<path fill="#FFFFFF" d="M158.104,334.453h-32.052l14.478-62.373h10.107l-12.292,53.541h21.762L158.104,334.453z"/>
	<path fill="#FFFFFF" d="M202.812,330.084c-4.614,3.582-10.198,5.371-16.754,5.371c-6.557,0-11.474-1.518-14.751-4.553
		c-3.278-3.035-4.917-7.799-4.917-14.295c0-7.891,1.229-15.391,3.688-22.492c2.459-7.102,6.023-12.686,10.699-16.754
		c4.674-4.188,10.38-6.281,17.119-6.281c13.232,0,19.85,6.281,19.85,18.848c0,8.256-1.261,16.025-3.779,23.311
		C211.445,320.521,207.728,326.139,202.812,330.084z M176.859,314.375c0,4.828,0.789,8.074,2.368,9.744
		c1.577,1.67,4.189,2.504,7.831,2.504c3.643,0,6.738-1.123,9.288-3.369c3.398-3.035,6.069-7.678,8.013-13.932
		c1.942-6.252,2.914-12.414,2.914-18.484c0-3.885-0.79-6.676-2.367-8.377c-1.579-1.699-4.176-2.549-7.786-2.549
		c-3.611,0-6.541,1-8.786,3.004c-3.522,3.219-6.315,8.059-8.378,14.523C177.892,303.904,176.859,309.549,176.859,314.375z"/>
	<path fill="#FFFFFF" d="M242.784,335.455c-13.234,0-19.851-6.252-19.851-18.758c0-9.65,1.669-18.301,5.008-25.949
		c3.702-8.256,8.924-13.963,15.662-17.119c3.701-1.699,7.345-2.549,10.926-2.549c6.495,0,12.262,0.82,17.301,2.459l2.459,0.818
		l-2.367,7.375c-6.071-1.213-11.807-1.82-17.21-1.82c-3.643,0-6.875,1.184-9.697,3.553c-2.822,2.365-5.054,5.432-6.692,9.195
		c-3.278,7.527-4.917,15.57-4.917,24.131c0,6.555,3.52,9.832,10.562,9.832c2.428,0,4.734-0.24,6.92-0.727l1.094-0.184l3.824-16.48
		h-7.376l2.003-8.469h17.483l-7.558,32.324C255.743,334.666,249.886,335.455,242.784,335.455z"/>
</g>
</svg>
