<?xml version="1.0" encoding="utf-8"?>
<!-- Generator: Adobe Illustrator 16.0.4, SVG Export Plug-In . SVG Version: 6.00 Build 0)  -->
<svg version="1.2" baseProfile="tiny" id="Layer_1" xmlns="http://www.w3.org/2000/svg" xmlns:xlink="http://www.w3.org/1999/xlink"
	 x="0px" y="0px" width="111px" height="111px" viewBox="0 0 111 111" xml:space="preserve">
<g>
	<polyline fill="none" stroke="#5EFF00" stroke-width="0.25" stroke-linecap="round" stroke-linejoin="round" points="
		56.543,72.203 66.271,50.086 65.271,46.532 55.068,69.651 	"/>
	<polyline fill="none" stroke="#5EFF00" stroke-width="0.25" stroke-linecap="round" stroke-linejoin="round" points="
		65.543,35.557 64.898,33.185 34.608,101.239 37.24,107.07 	"/>
	
		<line fill="none" stroke="#5EFF00" stroke-width="0.25" stroke-linecap="round" stroke-linejoin="round" x1="64.891" y1="33.182" x2="34.598" y2="101.235"/>
	
		<line fill="none" stroke="#5EFF00" stroke-width="0.25" stroke-linecap="round" stroke-linejoin="round" x1="56.538" y1="72.189" x2="66.26" y2="50.083"/>
	
		<line fill="none" stroke="#5EFF00" stroke-width="0.25" stroke-linecap="round" stroke-linejoin="round" x1="65.261" y1="46.53" x2="55.058" y2="69.646"/>
	
		<line fill="none" stroke="#5EFF00" stroke-width="0.25" stroke-linecap="round" stroke-linejoin="round" x1="69.23" y1="45.729" x2="60.132" y2="66.446"/>
	
		<line fill="none" stroke="#5EFF00" stroke-width="0.25" stroke-linecap="round" stroke-linejoin="round" x1="45.932" y1="73.707" x2="56.536" y2="49.916"/>
	
		<line fill="none" stroke="#5EFF00" stroke-width="0.25" stroke-linecap="round" stroke-linejoin="round" x1="56.536" y1="49.916" x2="55.051" y2="45.14"/>
	
		<line fill="none" stroke="#5EFF00" stroke-width="0.25" stroke-linecap="round" stroke-linejoin="round" x1="55.051" y1="45.14" x2="33.952" y2="92.251"/>
	
		<line fill="none" stroke="#5EFF00" stroke-width="0.25" stroke-linecap="round" stroke-linejoin="round" x1="56.309" y1="57.984" x2="62.805" y2="43.343"/>
	
		<line fill="none" stroke="#5EFF00" stroke-width="0.25" stroke-linecap="round" stroke-linejoin="round" x1="62.538" y1="42.405" x2="56.021" y2="57.082"/>
	
		<line fill="none" stroke="#5EFF00" stroke-width="0.25" stroke-linecap="round" stroke-linejoin="round" x1="56.021" y1="57.082" x2="56.309" y2="57.984"/>
	
		<line fill="none" stroke="#5EFF00" stroke-width="0.25" stroke-linecap="round" stroke-linejoin="round" x1="56.309" y1="57.984" x2="56.415" y2="58.018"/>
	
		<line fill="none" stroke="#5EFF00" stroke-width="0.25" stroke-linecap="round" stroke-linejoin="round" x1="56.415" y1="58.018" x2="62.909" y2="43.373"/>
	
		<line fill="none" stroke="#5EFF00" stroke-width="0.25" stroke-linecap="round" stroke-linejoin="round" x1="62.645" y1="42.438" x2="56.127" y2="57.114"/>
	
		<line fill="none" stroke="#5EFF00" stroke-width="0.25" stroke-linecap="round" stroke-linejoin="round" x1="56.127" y1="57.114" x2="56.021" y2="57.082"/>
	
		<line fill="none" stroke="#5EFF00" stroke-width="0.25" stroke-linecap="round" stroke-linejoin="round" x1="56.127" y1="57.114" x2="56.415" y2="58.018"/>
	
		<line fill="none" stroke="#5EFF00" stroke-width="0.25" stroke-linecap="round" stroke-linejoin="round" x1="54.924" y1="62.701" x2="54.329" y2="60.891"/>
	
		<line fill="none" stroke="#5EFF00" stroke-width="0.25" stroke-linecap="round" stroke-linejoin="round" x1="54.329" y1="60.891" x2="45.319" y2="81.18"/>
	
		<line fill="none" stroke="#5EFF00" stroke-width="0.25" stroke-linecap="round" stroke-linejoin="round" x1="44.027" y1="46.104" x2="56.536" y2="49.916"/>
	
		<line fill="none" stroke="#5EFF00" stroke-width="0.25" stroke-linecap="round" stroke-linejoin="round" x1="58.835" y1="57.021" x2="59.438" y2="58.962"/>
	
		<line fill="none" stroke="#5EFF00" stroke-width="0.25" stroke-linecap="round" stroke-linejoin="round" x1="57.163" y1="56.506" x2="57.775" y2="58.447"/>
	
		<line fill="none" stroke="#5EFF00" stroke-width="0.25" stroke-linecap="round" stroke-linejoin="round" x1="62.973" y1="47.668" x2="58.835" y2="57.021"/>
	
		<line fill="none" stroke="#5EFF00" stroke-width="0.25" stroke-linecap="round" stroke-linejoin="round" x1="57.163" y1="56.506" x2="58.835" y2="57.021"/>
	
		<line fill="none" stroke="#5EFF00" stroke-width="0.25" stroke-linecap="round" stroke-linejoin="round" x1="61.307" y1="47.165" x2="57.163" y2="56.506"/>
	
		<line fill="none" stroke="#5EFF00" stroke-width="0.25" stroke-linecap="round" stroke-linejoin="round" x1="57.775" y1="58.447" x2="59.438" y2="58.962"/>
	
		<line fill="none" stroke="#5EFF00" stroke-width="0.25" stroke-linecap="round" stroke-linejoin="round" x1="59.438" y1="58.962" x2="63.546" y2="49.654"/>
	
		<line fill="none" stroke="#5EFF00" stroke-width="0.25" stroke-linecap="round" stroke-linejoin="round" x1="57.775" y1="58.447" x2="61.891" y2="49.152"/>
	
		<line fill="none" stroke="#5EFF00" stroke-width="0.25" stroke-linecap="round" stroke-linejoin="round" x1="56.455" y1="64.02" x2="64.311" y2="46.244"/>
	
		<line fill="none" stroke="#5EFF00" stroke-width="0.25" stroke-linecap="round" stroke-linejoin="round" x1="55.029" y1="62.733" x2="54.435" y2="60.924"/>
	
		<line fill="none" stroke="#5EFF00" stroke-width="0.25" stroke-linecap="round" stroke-linejoin="round" x1="54.435" y1="60.924" x2="54.329" y2="60.891"/>
	
		<line fill="none" stroke="#5EFF00" stroke-width="0.25" stroke-linecap="round" stroke-linejoin="round" x1="54.435" y1="60.924" x2="45.426" y2="81.217"/>
	
		<line fill="none" stroke="#5EFF00" stroke-width="0.25" stroke-linecap="round" stroke-linejoin="round" x1="60.75" y1="48.414" x2="66.26" y2="50.083"/>
	
		<line fill="none" stroke="#5EFF00" stroke-width="0.25" stroke-linecap="round" stroke-linejoin="round" x1="54.149" y1="63.301" x2="57.163" y2="56.506"/>
	
		<line fill="none" stroke="#5EFF00" stroke-width="0.25" stroke-linecap="round" stroke-linejoin="round" x1="57.441" y1="47.923" x2="63.545" y2="49.774"/>
	
		<line fill="none" stroke="#5EFF00" stroke-width="0.25" stroke-linecap="round" stroke-linejoin="round" x1="51.486" y1="74.818" x2="64.143" y2="46.192"/>
	
		<line fill="none" stroke="#5EFF00" stroke-width="0.25" stroke-linecap="round" stroke-linejoin="round" x1="58.929" y1="42.283" x2="50.711" y2="60.698"/>
	
		<line fill="none" stroke="#5EFF00" stroke-width="0.25" stroke-linecap="round" stroke-linejoin="round" x1="51.993" y1="64.465" x2="60.1" y2="46.23"/>
	<polygon fill="none" stroke="#5EFF00" stroke-width="0.25" stroke-linecap="round" stroke-linejoin="round" points="57.578,75.77 
		74.156,37.94 73.5,35.282 56.771,73.357 	"/>
	
		<line fill="none" stroke="#5EFF00" stroke-width="0.25" stroke-linecap="round" stroke-linejoin="round" x1="77.048" y1="3.93" x2="55.717" y2="51.793"/>
	
		<line fill="none" stroke="#5EFF00" stroke-width="0.25" stroke-linecap="round" stroke-linejoin="round" x1="64.611" y1="55.49" x2="56.764" y2="73.355"/>
	
		<line fill="none" stroke="#5EFF00" stroke-width="0.25" stroke-linecap="round" stroke-linejoin="round" x1="67.279" y1="33.457" x2="50.469" y2="71.352"/>
	
		<line fill="none" stroke="#5EFF00" stroke-width="0.25" stroke-linecap="round" stroke-linejoin="round" x1="51.322" y1="73.77" x2="67.98" y2="36.12"/>
	
		<line fill="none" stroke="#5EFF00" stroke-width="0.25" stroke-linecap="round" stroke-linejoin="round" x1="51.497" y1="74.821" x2="64.152" y2="46.195"/>
	
		<line fill="none" stroke="#5EFF00" stroke-width="0.25" stroke-linecap="round" stroke-linejoin="round" x1="60.743" y1="48.4" x2="52.699" y2="66.535"/>
	
		<line fill="none" stroke="#5EFF00" stroke-width="0.25" stroke-linecap="round" stroke-linejoin="round" x1="54.003" y1="46.357" x2="45.919" y2="64.398"/>
	
		<line fill="none" stroke="#5EFF00" stroke-width="0.25" stroke-linecap="round" stroke-linejoin="round" x1="62.35" y1="53.822" x2="60.747" y2="48.415"/>
	
		<line fill="none" stroke="#5EFF00" stroke-width="0.25" stroke-linecap="round" stroke-linejoin="round" x1="55.717" y1="51.793" x2="54.003" y2="46.357"/>
	
		<line fill="none" stroke="#5EFF00" stroke-width="0.25" stroke-linecap="round" stroke-linejoin="round" x1="54.46" y1="71.708" x2="62.35" y2="53.822"/>
	
		<line fill="none" stroke="#5EFF00" stroke-width="0.25" stroke-linecap="round" stroke-linejoin="round" x1="55.717" y1="51.793" x2="62.35" y2="53.822"/>
	
		<line fill="none" stroke="#5EFF00" stroke-width="0.25" stroke-linecap="round" stroke-linejoin="round" x1="47.787" y1="69.586" x2="55.717" y2="51.793"/>
</g>
</svg>
