<?xml version="1.0" encoding="utf-8"?>
<!-- Generator: Adobe Illustrator 16.0.4, SVG Export Plug-In . SVG Version: 6.00 Build 0)  -->
<svg version="1.2" baseProfile="tiny" id="Layer_1" xmlns="http://www.w3.org/2000/svg" xmlns:xlink="http://www.w3.org/1999/xlink"
	 x="0px" y="0px" width="53px" height="53px" viewBox="0 0 53 53" xml:space="preserve">
<g>
	<polyline fill="none" stroke="#5EFF00" stroke-width="0.1" stroke-linecap="round" stroke-linejoin="round" points="4.095,29.766 
		3.111,30.893 47.822,23.254 49.889,19.952 	"/>
	
		<line fill="none" stroke="#5EFF00" stroke-width="0.1" stroke-linecap="round" stroke-linejoin="round" x1="3.111" y1="30.899" x2="47.825" y2="23.261"/>
	
		<line fill="none" stroke="#5EFF00" stroke-width="0.1" stroke-linecap="round" stroke-linejoin="round" x1="30.05" y1="26.817" x2="14.413" y2="29.48"/>
	
		<line fill="none" stroke="#5EFF00" stroke-width="0.1" stroke-linecap="round" stroke-linejoin="round" x1="12.495" y1="31.846" x2="43.491" y2="26.623"/>
	
		<line fill="none" stroke="#5EFF00" stroke-width="0.1" stroke-linecap="round" stroke-linejoin="round" x1="29.259" y1="28.791" x2="24.086" y2="29.664"/>
	
		<line fill="none" stroke="#5EFF00" stroke-width="0.1" stroke-linecap="round" stroke-linejoin="round" x1="24.086" y1="29.664" x2="23.463" y2="30.495"/>
	
		<line fill="none" stroke="#5EFF00" stroke-width="0.1" stroke-linecap="round" stroke-linejoin="round" x1="23.463" y1="30.495" x2="28.661" y2="29.621"/>
	
		<line fill="none" stroke="#5EFF00" stroke-width="0.1" stroke-linecap="round" stroke-linejoin="round" x1="29.24" y1="28.727" x2="24.065" y2="29.6"/>
	
		<line fill="none" stroke="#5EFF00" stroke-width="0.1" stroke-linecap="round" stroke-linejoin="round" x1="24.065" y1="29.6" x2="24.086" y2="29.664"/>
	
		<line fill="none" stroke="#5EFF00" stroke-width="0.1" stroke-linecap="round" stroke-linejoin="round" x1="24.065" y1="29.6" x2="23.443" y2="30.431"/>
	
		<line fill="none" stroke="#5EFF00" stroke-width="0.1" stroke-linecap="round" stroke-linejoin="round" x1="23.443" y1="30.431" x2="23.463" y2="30.495"/>
	
		<line fill="none" stroke="#5EFF00" stroke-width="0.1" stroke-linecap="round" stroke-linejoin="round" x1="23.443" y1="30.431" x2="28.642" y2="29.557"/>
	
		<line fill="none" stroke="#5EFF00" stroke-width="0.1" stroke-linecap="round" stroke-linejoin="round" x1="21.844" y1="28.79" x2="23.319" y2="26.867"/>
	
		<line fill="none" stroke="#5EFF00" stroke-width="0.1" stroke-linecap="round" stroke-linejoin="round" x1="9.738" y1="30.845" x2="21.844" y2="28.79"/>
	
		<line fill="none" stroke="#5EFF00" stroke-width="0.1" stroke-linecap="round" stroke-linejoin="round" x1="23.083" y1="33.014" x2="21.844" y2="28.79"/>
	
		<line fill="none" stroke="#5EFF00" stroke-width="0.1" stroke-linecap="round" stroke-linejoin="round" x1="24.539" y1="31.048" x2="23.319" y2="26.867"/>
	
		<line fill="none" stroke="#5EFF00" stroke-width="0.1" stroke-linecap="round" stroke-linejoin="round" x1="23.319" y1="26.867" x2="11.343" y2="28.918"/>
	
		<line fill="none" stroke="#5EFF00" stroke-width="0.1" stroke-linecap="round" stroke-linejoin="round" x1="24.539" y1="31.048" x2="12.597" y2="33.048"/>
	
		<line fill="none" stroke="#5EFF00" stroke-width="0.1" stroke-linecap="round" stroke-linejoin="round" x1="25.338" y1="29.967" x2="24.13" y2="25.81"/>
	
		<line fill="none" stroke="#5EFF00" stroke-width="0.1" stroke-linecap="round" stroke-linejoin="round" x1="13.467" y1="31.965" x2="25.338" y2="29.967"/>
	
		<line fill="none" stroke="#5EFF00" stroke-width="0.1" stroke-linecap="round" stroke-linejoin="round" x1="27.334" y1="27.27" x2="15.641" y2="29.261"/>
</g>
</svg>
