<?xml version="1.0" encoding="utf-8"?>
<!-- Generator: Adobe Illustrator 16.0.4, SVG Export Plug-In . SVG Version: 6.00 Build 0)  -->
<svg version="1.2" baseProfile="tiny" id="Layer_1" xmlns="http://www.w3.org/2000/svg" xmlns:xlink="http://www.w3.org/1999/xlink"
	 x="0px" y="0px" width="53px" height="53px" viewBox="0 0 53 53" overflow="visible" xml:space="preserve">
<g>
	<polyline fill="none" stroke="#5EFF00" stroke-width="0.1" stroke-linecap="round" stroke-linejoin="round" points="27.876,21.517 
		27.98,21.561 30.031,20.774 	"/>
	<polyline fill="none" stroke="#5EFF00" stroke-width="0.1" stroke-linecap="round" stroke-linejoin="round" points="4.593,15.014 
		3.124,15.466 46.293,32.903 49.877,31.133 	"/>
	
		<line fill="none" stroke="#5EFF00" stroke-width="0.1" stroke-linecap="round" stroke-linejoin="round" x1="3.123" y1="15.474" x2="46.29" y2="32.909"/>
	
		<line fill="none" stroke="#5EFF00" stroke-width="0.1" stroke-linecap="round" stroke-linejoin="round" x1="29.039" y1="24.289" x2="30.03" y2="20.78"/>
	
		<line fill="none" stroke="#5EFF00" stroke-width="0.1" stroke-linecap="round" stroke-linejoin="round" x1="26.987" y1="25.112" x2="27.979" y2="21.566"/>
	
		<line fill="none" stroke="#5EFF00" stroke-width="0.1" stroke-linecap="round" stroke-linejoin="round" x1="26.987" y1="25.112" x2="29.039" y2="24.289"/>
	
		<line fill="none" stroke="#5EFF00" stroke-width="0.1" stroke-linecap="round" stroke-linejoin="round" x1="27.979" y1="21.566" x2="30.03" y2="20.78"/>
	
		<line fill="none" stroke="#5EFF00" stroke-width="0.1" stroke-linecap="round" stroke-linejoin="round" x1="25.954" y1="21.402" x2="26.239" y2="20.375"/>
	
		<line fill="none" stroke="#5EFF00" stroke-width="0.1" stroke-linecap="round" stroke-linejoin="round" x1="25.954" y1="21.402" x2="27.153" y2="21.883"/>
	
		<line fill="none" stroke="#5EFF00" stroke-width="0.1" stroke-linecap="round" stroke-linejoin="round" x1="27.153" y1="21.883" x2="27.442" y2="20.854"/>
	
		<line fill="none" stroke="#5EFF00" stroke-width="0.1" stroke-linecap="round" stroke-linejoin="round" x1="26.239" y1="20.375" x2="27.442" y2="20.854"/>
	
		<line fill="none" stroke="#5EFF00" stroke-width="0.1" stroke-linecap="round" stroke-linejoin="round" x1="27.153" y1="21.883" x2="27.979" y2="21.566"/>
	
		<line fill="none" stroke="#5EFF00" stroke-width="0.1" stroke-linecap="round" stroke-linejoin="round" x1="27.442" y1="20.854" x2="31.115" y2="19.463"/>
	<path fill="none" stroke="#5EFF00" stroke-width="0.1" stroke-linecap="round" stroke-linejoin="round" d="M43.277,32.265"/>
	<path fill="none" stroke="#5EFF00" stroke-width="0.1" stroke-linecap="round" stroke-linejoin="round" d="M13.757,20.327"/>
	
		<line fill="none" stroke="#5EFF00" stroke-width="0.1" stroke-linecap="round" stroke-linejoin="round" x1="10.807" y1="21.359" x2="40.692" y2="33.509"/>
	
		<line fill="none" stroke="#5EFF00" stroke-width="0.1" stroke-linecap="round" stroke-linejoin="round" x1="34.585" y1="26.203" x2="21.778" y2="21.055"/>
	
		<line fill="none" stroke="#5EFF00" stroke-width="0.1" stroke-linecap="round" stroke-linejoin="round" x1="20.66" y1="21.467" x2="33.529" y2="26.65"/>
	
		<line fill="none" stroke="#5EFF00" stroke-width="0.1" stroke-linecap="round" stroke-linejoin="round" x1="27.095" y1="27.729" x2="22.104" y2="25.7"/>
	
		<line fill="none" stroke="#5EFF00" stroke-width="0.1" stroke-linecap="round" stroke-linejoin="round" x1="22.104" y1="25.7" x2="21.114" y2="26.092"/>
	
		<line fill="none" stroke="#5EFF00" stroke-width="0.1" stroke-linecap="round" stroke-linejoin="round" x1="21.114" y1="26.092" x2="26.124" y2="28.133"/>
	
		<line fill="none" stroke="#5EFF00" stroke-width="0.1" stroke-linecap="round" stroke-linejoin="round" x1="26.124" y1="28.133" x2="27.095" y2="27.729"/>
	
		<line fill="none" stroke="#5EFF00" stroke-width="0.1" stroke-linecap="round" stroke-linejoin="round" x1="24.034" y1="22.274" x2="24.456" y2="22.113"/>
	
		<line fill="none" stroke="#5EFF00" stroke-width="0.1" stroke-linecap="round" stroke-linejoin="round" x1="24.034" y1="22.274" x2="24.437" y2="20.818"/>
	
		<line fill="none" stroke="#5EFF00" stroke-width="0.1" stroke-linecap="round" stroke-linejoin="round" x1="22.169" y1="21.525" x2="24.034" y2="22.274"/>
	
		<line fill="none" stroke="#5EFF00" stroke-width="0.1" stroke-linecap="round" stroke-linejoin="round" x1="24.456" y1="22.113" x2="24.858" y2="20.662"/>
	
		<line fill="none" stroke="#5EFF00" stroke-width="0.1" stroke-linecap="round" stroke-linejoin="round" x1="24.456" y1="22.113" x2="22.594" y2="21.366"/>
	
		<line fill="none" stroke="#5EFF00" stroke-width="0.1" stroke-linecap="round" stroke-linejoin="round" x1="27.095" y1="27.729" x2="27.113" y2="27.663"/>
	
		<line fill="none" stroke="#5EFF00" stroke-width="0.1" stroke-linecap="round" stroke-linejoin="round" x1="27.113" y1="27.663" x2="22.123" y2="25.635"/>
	
		<line fill="none" stroke="#5EFF00" stroke-width="0.1" stroke-linecap="round" stroke-linejoin="round" x1="22.123" y1="25.635" x2="22.104" y2="25.7"/>
	
		<line fill="none" stroke="#5EFF00" stroke-width="0.1" stroke-linecap="round" stroke-linejoin="round" x1="22.123" y1="25.635" x2="21.132" y2="26.026"/>
	
		<line fill="none" stroke="#5EFF00" stroke-width="0.1" stroke-linecap="round" stroke-linejoin="round" x1="21.132" y1="26.026" x2="26.144" y2="28.064"/>
	
		<line fill="none" stroke="#5EFF00" stroke-width="0.1" stroke-linecap="round" stroke-linejoin="round" x1="26.144" y1="28.064" x2="26.124" y2="28.133"/>
	
		<line fill="none" stroke="#5EFF00" stroke-width="0.1" stroke-linecap="round" stroke-linejoin="round" x1="26.144" y1="28.064" x2="27.113" y2="27.663"/>
	
		<line fill="none" stroke="#5EFF00" stroke-width="0.1" stroke-linecap="round" stroke-linejoin="round" x1="34.604" y1="26.137" x2="21.796" y2="20.987"/>
	
		<line fill="none" stroke="#5EFF00" stroke-width="0.1" stroke-linecap="round" stroke-linejoin="round" x1="20.677" y1="21.398" x2="33.549" y2="26.584"/>
	
		<line fill="none" stroke="#5EFF00" stroke-width="0.1" stroke-linecap="round" stroke-linejoin="round" x1="29.65" y1="20.002" x2="25.954" y2="21.402"/>
	
		<line fill="none" stroke="#5EFF00" stroke-width="0.1" stroke-linecap="round" stroke-linejoin="round" x1="29.453" y1="28.163" x2="30.301" y2="28.509"/>
	
		<line fill="none" stroke="#5EFF00" stroke-width="0.1" stroke-linecap="round" stroke-linejoin="round" x1="28.706" y1="27.86" x2="29.22" y2="28.068"/>
	
		<line fill="none" stroke="#5EFF00" stroke-width="0.1" stroke-linecap="round" stroke-linejoin="round" x1="27.686" y1="31.471" x2="28.706" y2="27.86"/>
	
		<line fill="none" stroke="#5EFF00" stroke-width="0.1" stroke-linecap="round" stroke-linejoin="round" x1="46.355" y1="33.527" x2="30.494" y2="27.111"/>
	
		<line fill="none" stroke="#5EFF00" stroke-width="0.1" stroke-linecap="round" stroke-linejoin="round" x1="29.478" y1="30.689" x2="30.494" y2="27.111"/>
	
		<line fill="none" stroke="#5EFF00" stroke-width="0.1" stroke-linecap="round" stroke-linejoin="round" x1="26.115" y1="20.819" x2="27.979" y2="21.566"/>
	
		<line fill="none" stroke="#5EFF00" stroke-width="0.1" stroke-linecap="round" stroke-linejoin="round" x1="30.03" y1="20.78" x2="27.67" y2="19.838"/>
	
		<line fill="none" stroke="#5EFF00" stroke-width="0.1" stroke-linecap="round" stroke-linejoin="round" x1="29.039" y1="24.289" x2="24.034" y2="22.274"/>
	
		<line fill="none" stroke="#5EFF00" stroke-width="0.1" stroke-linecap="round" stroke-linejoin="round" x1="30.494" y1="27.111" x2="29.748" y2="27.423"/>
	
		<line fill="none" stroke="#5EFF00" stroke-width="0.1" stroke-linecap="round" stroke-linejoin="round" x1="29.418" y1="27.562" x2="28.706" y2="27.86"/>
	
		<line fill="none" stroke="#5EFF00" stroke-width="0.1" stroke-linecap="round" stroke-linejoin="round" x1="29.421" y1="22.938" x2="11.265" y2="15.656"/>
	
		<line fill="none" stroke="#5EFF00" stroke-width="0.1" stroke-linecap="round" stroke-linejoin="round" x1="47.333" y1="39.521" x2="19.423" y2="28.087"/>
	
		<line fill="none" stroke="#5EFF00" stroke-width="0.1" stroke-linecap="round" stroke-linejoin="round" x1="20.62" y1="23.729" x2="22.944" y2="22.846"/>
	
		<line fill="none" stroke="#5EFF00" stroke-width="0.1" stroke-linecap="round" stroke-linejoin="round" x1="8.937" y1="18.997" x2="20.62" y2="23.729"/>
	
		<line fill="none" stroke="#5EFF00" stroke-width="0.1" stroke-linecap="round" stroke-linejoin="round" x1="19.423" y1="28.087" x2="20.62" y2="23.729"/>
	
		<line fill="none" stroke="#5EFF00" stroke-width="0.1" stroke-linecap="round" stroke-linejoin="round" x1="21.753" y1="27.153" x2="22.944" y2="22.846"/>
	
		<line fill="none" stroke="#5EFF00" stroke-width="0.1" stroke-linecap="round" stroke-linejoin="round" x1="22.944" y1="22.846" x2="11.377" y2="18.18"/>
	
		<line fill="none" stroke="#5EFF00" stroke-width="0.1" stroke-linecap="round" stroke-linejoin="round" x1="23.765" y1="28.444" x2="24.092" y2="28.31"/>
	
		<line fill="none" stroke="#5EFF00" stroke-width="0.1" stroke-linecap="round" stroke-linejoin="round" x1="23.58" y1="29.108" x2="23.906" y2="28.974"/>
	
		<line fill="none" stroke="#5EFF00" stroke-width="0.1" stroke-linecap="round" stroke-linejoin="round" x1="21.733" y1="27.613" x2="23.765" y2="28.444"/>
	
		<line fill="none" stroke="#5EFF00" stroke-width="0.1" stroke-linecap="round" stroke-linejoin="round" x1="23.58" y1="29.108" x2="23.765" y2="28.444"/>
	
		<line fill="none" stroke="#5EFF00" stroke-width="0.1" stroke-linecap="round" stroke-linejoin="round" x1="21.55" y1="28.278" x2="23.58" y2="29.108"/>
	
		<line fill="none" stroke="#5EFF00" stroke-width="0.1" stroke-linecap="round" stroke-linejoin="round" x1="22.061" y1="27.48" x2="21.733" y2="27.613"/>
	
		<line fill="none" stroke="#5EFF00" stroke-width="0.1" stroke-linecap="round" stroke-linejoin="round" x1="23.906" y1="28.974" x2="24.092" y2="28.31"/>
	
		<line fill="none" stroke="#5EFF00" stroke-width="0.1" stroke-linecap="round" stroke-linejoin="round" x1="24.092" y1="28.31" x2="22.061" y2="27.48"/>
	
		<line fill="none" stroke="#5EFF00" stroke-width="0.1" stroke-linecap="round" stroke-linejoin="round" x1="21.878" y1="28.146" x2="22.061" y2="27.48"/>
	
		<line fill="none" stroke="#5EFF00" stroke-width="0.1" stroke-linecap="round" stroke-linejoin="round" x1="23.906" y1="28.974" x2="21.878" y2="28.146"/>
	
		<line fill="none" stroke="#5EFF00" stroke-width="0.1" stroke-linecap="round" stroke-linejoin="round" x1="28.93" y1="26.451" x2="35.491" y2="29.105"/>
	
		<line fill="none" stroke="#5EFF00" stroke-width="0.1" stroke-linecap="round" stroke-linejoin="round" x1="26.235" y1="25.361" x2="28.87" y2="26.428"/>
	<polyline fill="none" stroke="#5EFF00" stroke-width="0.1" stroke-linecap="round" stroke-linejoin="round" points="46.356,33.521 
		30.497,27.104 29.703,27.438 29.56,27.498 28.707,27.854 29.237,28.069 29.475,28.167 44.701,34.345 46.356,33.521 	"/>
	
		<line fill="none" stroke="#5EFF00" stroke-width="0.1" stroke-linecap="round" stroke-linejoin="round" x1="38.038" y1="27.979" x2="27.279" y2="23.648"/>
	
		<line fill="none" stroke="#5EFF00" stroke-width="0.1" stroke-linecap="round" stroke-linejoin="round" x1="27.279" y1="23.648" x2="28.771" y2="23.062"/>
	
		<line fill="none" stroke="#5EFF00" stroke-width="0.1" stroke-linecap="round" stroke-linejoin="round" x1="27.279" y1="23.648" x2="28.393" y2="19.673"/>
	
		<line fill="none" stroke="#5EFF00" stroke-width="0.1" stroke-linecap="round" stroke-linejoin="round" x1="3.243" y1="13.975" x2="27.279" y2="23.648"/>
	
		<line fill="none" stroke="#5EFF00" stroke-width="0.1" stroke-linecap="round" stroke-linejoin="round" x1="28.771" y1="23.062" x2="29.88" y2="19.116"/>
	
		<line fill="none" stroke="#5EFF00" stroke-width="0.1" stroke-linecap="round" stroke-linejoin="round" x1="28.771" y1="23.062" x2="4.89" y2="13.479"/>
	
		<line fill="none" stroke="#5EFF00" stroke-width="0.1" stroke-linecap="round" stroke-linejoin="round" x1="29.423" y1="22.933" x2="11.265" y2="15.648"/>
	
		<line fill="none" stroke="#5EFF00" stroke-width="0.1" stroke-linecap="round" stroke-linejoin="round" x1="30.031" y1="20.774" x2="27.677" y2="19.836"/>
	
		<line fill="none" stroke="#5EFF00" stroke-width="0.1" stroke-linecap="round" stroke-linejoin="round" x1="26.116" y1="20.812" x2="27.876" y2="21.517"/>
	
		<line fill="none" stroke="#5EFF00" stroke-width="0.1" stroke-linecap="round" stroke-linejoin="round" x1="24.222" y1="22.36" x2="27.413" y2="21.147"/>
	
		<line fill="none" stroke="#5EFF00" stroke-width="0.1" stroke-linecap="round" stroke-linejoin="round" x1="23.034" y1="26.642" x2="26.235" y2="25.361"/>
	
		<line fill="none" stroke="#5EFF00" stroke-width="0.1" stroke-linecap="round" stroke-linejoin="round" x1="12.717" y1="17.732" x2="24.222" y2="22.36"/>
	
		<line fill="none" stroke="#5EFF00" stroke-width="0.1" stroke-linecap="round" stroke-linejoin="round" x1="23.034" y1="26.642" x2="24.222" y2="22.36"/>
	
		<line fill="none" stroke="#5EFF00" stroke-width="0.1" stroke-linecap="round" stroke-linejoin="round" x1="11.591" y1="21.986" x2="23.034" y2="26.642"/>
	
		<line fill="none" stroke="#5EFF00" stroke-width="0.1" stroke-linecap="round" stroke-linejoin="round" x1="26.235" y1="25.361" x2="27.413" y2="21.147"/>
	
		<line fill="none" stroke="#5EFF00" stroke-width="0.1" stroke-linecap="round" stroke-linejoin="round" x1="27.413" y1="21.147" x2="16.071" y2="16.61"/>
	
		<line fill="none" stroke="#5EFF00" stroke-width="0.1" stroke-linecap="round" stroke-linejoin="round" x1="26.235" y1="25.361" x2="14.948" y2="20.797"/>
</g>
</svg>
