<?xml version="1.0" encoding="utf-8"?>
<!-- Generator: Adobe Illustrator 16.0.4, SVG Export Plug-In . SVG Version: 6.00 Build 0)  -->
<svg version="1.2" baseProfile="tiny" id="Layer_1" xmlns="http://www.w3.org/2000/svg" xmlns:xlink="http://www.w3.org/1999/xlink"
	 x="0px" y="0px" width="53px" height="53px" viewBox="0 0 53 53" xml:space="preserve">
<g>
	<polyline fill="none" stroke="#5EFF00" stroke-width="0.1" stroke-linecap="round" stroke-linejoin="round" points="46.504,42.885 
		48.206,42.939 9.248,9.08 4.85,9.643 	"/>
	
		<line fill="none" stroke="#5EFF00" stroke-width="0.1" stroke-linecap="round" stroke-linejoin="round" x1="48.209" y1="42.934" x2="9.253" y2="9.074"/>
	
		<line fill="none" stroke="#5EFF00" stroke-width="0.1" stroke-linecap="round" stroke-linejoin="round" x1="25.195" y1="22.162" x2="38.814" y2="34.01"/>
	
		<line fill="none" stroke="#5EFF00" stroke-width="0.1" stroke-linecap="round" stroke-linejoin="round" x1="42.279" y1="33.991" x2="15.337" y2="10.466"/>
	
		<line fill="none" stroke="#5EFF00" stroke-width="0.1" stroke-linecap="round" stroke-linejoin="round" x1="19.103" y1="20.328" x2="30.668" y2="30.348"/>
	
		<line fill="none" stroke="#5EFF00" stroke-width="0.1" stroke-linecap="round" stroke-linejoin="round" x1="31.988" y1="30.322" x2="20.369" y2="20.242"/>
	
		<line fill="none" stroke="#5EFF00" stroke-width="0.1" stroke-linecap="round" stroke-linejoin="round" x1="27.505" y1="21.434" x2="32.005" y2="25.359"/>
	
		<line fill="none" stroke="#5EFF00" stroke-width="0.1" stroke-linecap="round" stroke-linejoin="round" x1="32.005" y1="25.359" x2="33.183" y2="25.308"/>
	
		<line fill="none" stroke="#5EFF00" stroke-width="0.1" stroke-linecap="round" stroke-linejoin="round" x1="33.183" y1="25.308" x2="28.667" y2="21.362"/>
	
		<line fill="none" stroke="#5EFF00" stroke-width="0.1" stroke-linecap="round" stroke-linejoin="round" x1="30.428" y1="29.715" x2="28.744" y2="28.256"/>
	
		<line fill="none" stroke="#5EFF00" stroke-width="0.1" stroke-linecap="round" stroke-linejoin="round" x1="28.245" y1="28.271" x2="29.924" y2="29.727"/>
	
		<line fill="none" stroke="#5EFF00" stroke-width="0.1" stroke-linecap="round" stroke-linejoin="round" x1="27.461" y1="21.497" x2="31.959" y2="25.422"/>
	
		<line fill="none" stroke="#5EFF00" stroke-width="0.1" stroke-linecap="round" stroke-linejoin="round" x1="31.959" y1="25.422" x2="32.005" y2="25.359"/>
	
		<line fill="none" stroke="#5EFF00" stroke-width="0.1" stroke-linecap="round" stroke-linejoin="round" x1="31.959" y1="25.422" x2="33.141" y2="25.373"/>
	
		<line fill="none" stroke="#5EFF00" stroke-width="0.1" stroke-linecap="round" stroke-linejoin="round" x1="33.141" y1="25.373" x2="33.183" y2="25.308"/>
	
		<line fill="none" stroke="#5EFF00" stroke-width="0.1" stroke-linecap="round" stroke-linejoin="round" x1="33.141" y1="25.373" x2="28.623" y2="21.424"/>
	
		<line fill="none" stroke="#5EFF00" stroke-width="0.1" stroke-linecap="round" stroke-linejoin="round" x1="19.058" y1="20.394" x2="30.625" y2="30.412"/>
	
		<line fill="none" stroke="#5EFF00" stroke-width="0.1" stroke-linecap="round" stroke-linejoin="round" x1="31.945" y1="30.385" x2="20.324" y2="20.306"/>
	
		<line fill="none" stroke="#5EFF00" stroke-width="0.1" stroke-linecap="round" stroke-linejoin="round" x1="32.849" y1="27.963" x2="30.093" y2="28.049"/>
	
		<line fill="none" stroke="#5EFF00" stroke-width="0.1" stroke-linecap="round" stroke-linejoin="round" x1="35.674" y1="23.828" x2="32.896" y2="23.963"/>
	
		<line fill="none" stroke="#5EFF00" stroke-width="0.1" stroke-linecap="round" stroke-linejoin="round" x1="43.386" y1="37.141" x2="32.849" y2="27.963"/>
	
		<line fill="none" stroke="#5EFF00" stroke-width="0.1" stroke-linecap="round" stroke-linejoin="round" x1="35.674" y1="23.828" x2="32.849" y2="27.963"/>
	
		<line fill="none" stroke="#5EFF00" stroke-width="0.1" stroke-linecap="round" stroke-linejoin="round" x1="32.896" y1="23.963" x2="30.093" y2="28.049"/>
	
		<line fill="none" stroke="#5EFF00" stroke-width="0.1" stroke-linecap="round" stroke-linejoin="round" x1="30.093" y1="28.049" x2="40.533" y2="37.117"/>
	
		<line fill="none" stroke="#5EFF00" stroke-width="0.1" stroke-linecap="round" stroke-linejoin="round" x1="32.896" y1="23.963" x2="43.264" y2="33.035"/>
	
		<line fill="none" stroke="#5EFF00" stroke-width="0.1" stroke-linecap="round" stroke-linejoin="round" x1="47.543" y1="44.459" x2="25.838" y2="25.645"/>
	
		<line fill="none" stroke="#5EFF00" stroke-width="0.1" stroke-linecap="round" stroke-linejoin="round" x1="31.367" y1="24.038" x2="27.552" y2="24.226"/>
	
		<line fill="none" stroke="#5EFF00" stroke-width="0.1" stroke-linecap="round" stroke-linejoin="round" x1="38.965" y1="37.102" x2="28.578" y2="28.098"/>
	
		<line fill="none" stroke="#5EFF00" stroke-width="0.1" stroke-linecap="round" stroke-linejoin="round" x1="31.367" y1="24.038" x2="28.578" y2="28.098"/>
	
		<line fill="none" stroke="#5EFF00" stroke-width="0.1" stroke-linecap="round" stroke-linejoin="round" x1="41.685" y1="33.049" x2="31.367" y2="24.038"/>
	
		<line fill="none" stroke="#5EFF00" stroke-width="0.1" stroke-linecap="round" stroke-linejoin="round" x1="27.552" y1="24.226" x2="37.736" y2="33.084"/>
</g>
</svg>
