<?xml version="1.0" encoding="utf-8"?>
<!-- Generator: Adobe Illustrator 16.0.4, SVG Export Plug-In . SVG Version: 6.00 Build 0)  -->
<svg version="1.2" baseProfile="tiny" id="Layer_1" xmlns="http://www.w3.org/2000/svg" xmlns:xlink="http://www.w3.org/1999/xlink"
	 x="0px" y="0px" width="111px" height="111px" viewBox="0 0 111 111" overflow="scroll" xml:space="preserve">
<g>
	
		<line fill="none" stroke="#00AEFF" stroke-width="0.25" stroke-linecap="round" stroke-linejoin="round" x1="104.49" y1="66.302" x2="81.133" y2="45.407"/>
	
		<line fill="none" stroke="#00AEFF" stroke-width="0.25" stroke-linecap="round" stroke-linejoin="round" x1="81.133" y1="45.407" x2="91.213" y2="33.119"/>
	
		<line fill="none" stroke="#00AEFF" stroke-width="0.25" stroke-linecap="round" stroke-linejoin="round" x1="56.322" y1="28.295" x2="79.014" y2="48.611"/>
	
		<line fill="none" stroke="#00AEFF" stroke-width="0.25" stroke-linecap="round" stroke-linejoin="round" x1="67.26" y1="48.523" x2="71.245" y2="52.097"/>
	
		<line fill="none" stroke="#00AEFF" stroke-width="0.25" stroke-linecap="round" stroke-linejoin="round" x1="71.245" y1="52.097" x2="71.887" y2="51.544"/>
	
		<line fill="none" stroke="#00AEFF" stroke-width="0.25" stroke-linecap="round" stroke-linejoin="round" x1="70.74" y1="54.675" x2="70.678" y2="54.73"/>
	
		<line fill="none" stroke="#00AEFF" stroke-width="0.25" stroke-linecap="round" stroke-linejoin="round" x1="73.639" y1="51.133" x2="70.74" y2="54.675"/>
	
		<line fill="none" stroke="#00AEFF" stroke-width="0.25" stroke-linecap="round" stroke-linejoin="round" x1="73.639" y1="51.133" x2="73.575" y2="51.188"/>
	
		<line fill="none" stroke="#00AEFF" stroke-width="0.25" stroke-linecap="round" stroke-linejoin="round" x1="63.956" y1="42.456" x2="73.639" y2="51.133"/>
	
		<line fill="none" stroke="#00AEFF" stroke-width="0.25" stroke-linecap="round" stroke-linejoin="round" x1="63.891" y1="42.508" x2="63.956" y2="42.456"/>
	
		<line fill="none" stroke="#00AEFF" stroke-width="0.25" stroke-linecap="round" stroke-linejoin="round" x1="67.908" y1="47.976" x2="71.887" y2="51.544"/>
	
		<line fill="none" stroke="#00AEFF" stroke-width="0.25" stroke-linecap="round" stroke-linejoin="round" x1="67.26" y1="48.523" x2="67.908" y2="47.976"/>
	
		<line fill="none" stroke="#00AEFF" stroke-width="0.25" stroke-linecap="round" stroke-linejoin="round" x1="71.245" y1="52.097" x2="70.273" y2="53.285"/>
	
		<line fill="none" stroke="#00AEFF" stroke-width="0.25" stroke-linecap="round" stroke-linejoin="round" x1="70.273" y1="53.285" x2="70.917" y2="52.731"/>
	
		<line fill="none" stroke="#00AEFF" stroke-width="0.25" stroke-linecap="round" stroke-linejoin="round" x1="71.887" y1="51.544" x2="70.917" y2="52.731"/>
	
		<line fill="none" stroke="#00AEFF" stroke-width="0.25" stroke-linecap="round" stroke-linejoin="round" x1="70.273" y1="53.285" x2="66.295" y2="49.716"/>
	
		<line fill="none" stroke="#00AEFF" stroke-width="0.25" stroke-linecap="round" stroke-linejoin="round" x1="66.295" y1="49.716" x2="67.26" y2="48.523"/>
	
		<line fill="none" stroke="#00AEFF" stroke-width="0.25" stroke-linecap="round" stroke-linejoin="round" x1="77.244" y1="50.151" x2="100.508" y2="70.989"/>
	
		<line fill="none" stroke="#00AEFF" stroke-width="0.25" stroke-linecap="round" stroke-linejoin="round" x1="81.34" y1="46.588" x2="92.527" y2="56.597"/>
	
		<line fill="none" stroke="#00AEFF" stroke-width="0.25" stroke-linecap="round" stroke-linejoin="round" x1="77.244" y1="50.151" x2="81.34" y2="46.588"/>
	
		<line fill="none" stroke="#00AEFF" stroke-width="0.25" stroke-linecap="round" stroke-linejoin="round" x1="93.463" y1="79.284" x2="70.362" y2="58.544"/>
	
		<line fill="none" stroke="#00AEFF" stroke-width="0.25" stroke-linecap="round" stroke-linejoin="round" x1="70.362" y1="58.544" x2="77.244" y2="50.151"/>
	
		<line fill="none" stroke="#00AEFF" stroke-width="0.25" stroke-linecap="round" stroke-linejoin="round" x1="54.33" y1="44.152" x2="70.362" y2="58.544"/>
	
		<line fill="none" stroke="#00AEFF" stroke-width="0.25" stroke-linecap="round" stroke-linejoin="round" x1="86.555" y1="97.649" x2="6.51" y2="25.518"/>
	
		<line fill="none" stroke="#00AEFF" stroke-width="0.25" stroke-linecap="round" stroke-linejoin="round" x1="61.021" y1="46.068" x2="63.891" y2="42.508"/>
	
		<line fill="none" stroke="#00AEFF" stroke-width="0.25" stroke-linecap="round" stroke-linejoin="round" x1="70.678" y1="54.73" x2="61.021" y2="46.068"/>
	
		<line fill="none" stroke="#00AEFF" stroke-width="0.25" stroke-linecap="round" stroke-linejoin="round" x1="73.575" y1="51.188" x2="70.678" y2="54.73"/>
	
		<line fill="none" stroke="#00AEFF" stroke-width="0.25" stroke-linecap="round" stroke-linejoin="round" x1="63.891" y1="42.508" x2="73.575" y2="51.188"/>
	
		<line fill="none" stroke="#00AEFF" stroke-width="0.25" stroke-linecap="round" stroke-linejoin="round" x1="75.434" y1="52.359" x2="60.057" y2="38.576"/>
	
		<line fill="none" stroke="#00AEFF" stroke-width="0.25" stroke-linecap="round" stroke-linejoin="round" x1="56.256" y1="28.346" x2="78.952" y2="48.664"/>
	
		<line fill="none" stroke="#00AEFF" stroke-width="0.25" stroke-linecap="round" stroke-linejoin="round" x1="59.708" y1="37.433" x2="54.332" y2="44.154"/>
	
		<line fill="none" stroke="#00AEFF" stroke-width="0.25" stroke-linecap="round" stroke-linejoin="round" x1="54.332" y1="44.154" x2="57.889" y2="41.282"/>
	
		<line fill="none" stroke="#00AEFF" stroke-width="0.25" stroke-linecap="round" stroke-linejoin="round" x1="63.237" y1="34.608" x2="57.889" y2="41.282"/>
	
		<line fill="none" stroke="#00AEFF" stroke-width="0.25" stroke-linecap="round" stroke-linejoin="round" x1="54.33" y1="44.152" x2="24.314" y2="17.206"/>
	
		<line fill="none" stroke="#00AEFF" stroke-width="0.25" stroke-linecap="round" stroke-linejoin="round" x1="65.379" y1="81.562" x2="12.489" y2="33.881"/>
	
		<line fill="none" stroke="#00AEFF" stroke-width="0.25" stroke-linecap="round" stroke-linejoin="round" x1="73.115" y1="72.242" x2="66.803" y2="79.849"/>
	
		<line fill="none" stroke="#00AEFF" stroke-width="0.25" stroke-linecap="round" stroke-linejoin="round" x1="19.81" y1="24.307" x2="73.115" y2="72.242"/>
	
		<line fill="none" stroke="#00AEFF" stroke-width="0.25" stroke-linecap="round" stroke-linejoin="round" x1="65.805" y1="78.95" x2="73.115" y2="72.242"/>
	
		<line fill="none" stroke="#00AEFF" stroke-width="0.25" stroke-linecap="round" stroke-linejoin="round" x1="77.036" y1="60.804" x2="80.391" y2="56.747"/>
	
		<line fill="none" stroke="#00AEFF" stroke-width="0.25" stroke-linecap="round" stroke-linejoin="round" x1="76.083" y1="61.659" x2="79.441" y2="57.593"/>
	
		<line fill="none" stroke="#00AEFF" stroke-width="0.25" stroke-linecap="round" stroke-linejoin="round" x1="88.268" y1="70.882" x2="77.036" y2="60.804"/>
	
		<line fill="none" stroke="#00AEFF" stroke-width="0.25" stroke-linecap="round" stroke-linejoin="round" x1="76.083" y1="61.659" x2="77.036" y2="60.804"/>
	
		<line fill="none" stroke="#00AEFF" stroke-width="0.25" stroke-linecap="round" stroke-linejoin="round" x1="79.441" y1="57.593" x2="80.391" y2="56.747"/>
	
		<line fill="none" stroke="#00AEFF" stroke-width="0.25" stroke-linecap="round" stroke-linejoin="round" x1="80.391" y1="56.747" x2="91.661" y2="66.845"/>
	
		<line fill="none" stroke="#00AEFF" stroke-width="0.25" stroke-linecap="round" stroke-linejoin="round" x1="79.441" y1="57.593" x2="90.739" y2="67.718"/>
	
		<line fill="none" stroke="#00AEFF" stroke-width="0.25" stroke-linecap="round" stroke-linejoin="round" x1="65.865" y1="50.145" x2="67.057" y2="48.675"/>
	
		<line fill="none" stroke="#00AEFF" stroke-width="0.25" stroke-linecap="round" stroke-linejoin="round" x1="64.52" y1="51.281" x2="65.715" y2="49.812"/>
	
		<line fill="none" stroke="#00AEFF" stroke-width="0.25" stroke-linecap="round" stroke-linejoin="round" x1="69.329" y1="53.253" x2="65.865" y2="50.145"/>
	
		<line fill="none" stroke="#00AEFF" stroke-width="0.25" stroke-linecap="round" stroke-linejoin="round" x1="64.52" y1="51.281" x2="65.865" y2="50.145"/>
	
		<line fill="none" stroke="#00AEFF" stroke-width="0.25" stroke-linecap="round" stroke-linejoin="round" x1="67.994" y1="54.4" x2="69.329" y2="53.253"/>
	
		<line fill="none" stroke="#00AEFF" stroke-width="0.25" stroke-linecap="round" stroke-linejoin="round" x1="69.192" y1="52.931" x2="67.994" y2="54.4"/>
	
		<line fill="none" stroke="#00AEFF" stroke-width="0.25" stroke-linecap="round" stroke-linejoin="round" x1="65.715" y1="49.812" x2="67.057" y2="48.675"/>
	
		<line fill="none" stroke="#00AEFF" stroke-width="0.25" stroke-linecap="round" stroke-linejoin="round" x1="67.057" y1="48.675" x2="70.526" y2="51.786"/>
	
		<line fill="none" stroke="#00AEFF" stroke-width="0.25" stroke-linecap="round" stroke-linejoin="round" x1="69.192" y1="52.931" x2="70.526" y2="51.786"/>
	
		<line fill="none" stroke="#00AEFF" stroke-width="0.25" stroke-linecap="round" stroke-linejoin="round" x1="65.715" y1="49.812" x2="69.192" y2="52.931"/>
	
		<line fill="none" stroke="#00AEFF" stroke-width="0.25" stroke-linecap="round" stroke-linejoin="round" x1="96.697" y1="72.55" x2="71.795" y2="50.229"/>
	
		<line fill="none" stroke="#00AEFF" stroke-width="0.25" stroke-linecap="round" stroke-linejoin="round" x1="98.43" y1="70.858" x2="73.639" y2="48.647"/>
	
		<line fill="none" stroke="#00AEFF" stroke-width="0.25" stroke-linecap="round" stroke-linejoin="round" x1="69.329" y1="53.253" x2="94.167" y2="75.534"/>
	
		<line fill="none" stroke="#00AEFF" stroke-width="0.25" stroke-linecap="round" stroke-linejoin="round" x1="73.639" y1="48.647" x2="71.795" y2="50.229"/>
	
		<line fill="none" stroke="#00AEFF" stroke-width="0.25" stroke-linecap="round" stroke-linejoin="round" x1="71.795" y1="50.229" x2="69.329" y2="53.253"/>
	
		<line fill="none" stroke="#00AEFF" stroke-width="0.25" stroke-linecap="round" stroke-linejoin="round" x1="71.18" y1="51.658" x2="69.329" y2="53.253"/>
	
		<line fill="none" stroke="#00AEFF" stroke-width="0.25" stroke-linecap="round" stroke-linejoin="round" x1="73.639" y1="48.647" x2="71.18" y2="51.658"/>
	
		<line fill="none" stroke="#00AEFF" stroke-width="0.25" stroke-linecap="round" stroke-linejoin="round" x1="51.496" y1="49.551" x2="61.778" y2="36.719"/>
	
		<line fill="none" stroke="#00AEFF" stroke-width="0.25" stroke-linecap="round" stroke-linejoin="round" x1="58.553" y1="40.335" x2="60.848" y2="37.467"/>
	
		<line fill="none" stroke="#00AEFF" stroke-width="0.25" stroke-linecap="round" stroke-linejoin="round" x1="50.55" y1="50.322" x2="52.815" y2="47.497"/>
	
		<line fill="none" stroke="#00AEFF" stroke-width="0.25" stroke-linecap="round" stroke-linejoin="round" x1="53.631" y1="51.47" x2="51.496" y2="49.551"/>
	
		<line fill="none" stroke="#00AEFF" stroke-width="0.25" stroke-linecap="round" stroke-linejoin="round" x1="50.55" y1="50.322" x2="51.496" y2="49.551"/>
	
		<line fill="none" stroke="#00AEFF" stroke-width="0.25" stroke-linecap="round" stroke-linejoin="round" x1="52.69" y1="52.246" x2="50.55" y2="50.322"/>
	
		<line fill="none" stroke="#00AEFF" stroke-width="0.25" stroke-linecap="round" stroke-linejoin="round" x1="63.934" y1="38.653" x2="53.631" y2="51.47"/>
	
		<line fill="none" stroke="#00AEFF" stroke-width="0.25" stroke-linecap="round" stroke-linejoin="round" x1="52.69" y1="52.246" x2="53.631" y2="51.47"/>
	
		<line fill="none" stroke="#00AEFF" stroke-width="0.25" stroke-linecap="round" stroke-linejoin="round" x1="63.008" y1="39.404" x2="52.69" y2="52.246"/>
	
		<line fill="none" stroke="#00AEFF" stroke-width="0.25" stroke-linecap="round" stroke-linejoin="round" x1="63.008" y1="39.404" x2="63.934" y2="38.653"/>
	
		<line fill="none" stroke="#00AEFF" stroke-width="0.25" stroke-linecap="round" stroke-linejoin="round" x1="60.848" y1="37.467" x2="63.008" y2="39.404"/>
	
		<line fill="none" stroke="#00AEFF" stroke-width="0.25" stroke-linecap="round" stroke-linejoin="round" x1="57.889" y1="41.282" x2="28.115" y2="14.579"/>
	
		<line fill="none" stroke="#00AEFF" stroke-width="0.25" stroke-linecap="round" stroke-linejoin="round" x1="83.67" y1="56.368" x2="100.643" y2="71.577"/>
	
		<line fill="none" stroke="#00AEFF" stroke-width="0.25" stroke-linecap="round" stroke-linejoin="round" x1="99.016" y1="73.493" x2="82.066" y2="58.302"/>
	
		<line fill="none" stroke="#00AEFF" stroke-width="0.25" stroke-linecap="round" stroke-linejoin="round" x1="82.066" y1="58.302" x2="83.67" y2="56.368"/>
	
		<line fill="none" stroke="#00AEFF" stroke-width="0.25" stroke-linecap="round" stroke-linejoin="round" x1="83.67" y1="56.368" x2="83.729" y2="56.314"/>
	
		<line fill="none" stroke="#00AEFF" stroke-width="0.25" stroke-linecap="round" stroke-linejoin="round" x1="83.729" y1="56.314" x2="100.697" y2="71.515"/>
	
		<line fill="none" stroke="#00AEFF" stroke-width="0.25" stroke-linecap="round" stroke-linejoin="round" x1="100.299" y1="74.529" x2="82.129" y2="58.248"/>
	
		<line fill="none" stroke="#00AEFF" stroke-width="0.25" stroke-linecap="round" stroke-linejoin="round" x1="52.815" y1="47.497" x2="58.553" y2="40.335"/>
	
		<line fill="none" stroke="#00AEFF" stroke-width="0.25" stroke-linecap="round" stroke-linejoin="round" x1="49.501" y1="50.187" x2="54.33" y2="44.152"/>
	
		<line fill="none" stroke="#00AEFF" stroke-width="0.25" stroke-linecap="round" stroke-linejoin="round" x1="82.96" y1="74.579" x2="52.815" y2="47.497"/>
	
		<line fill="none" stroke="#00AEFF" stroke-width="0.25" stroke-linecap="round" stroke-linejoin="round" x1="49.501" y1="50.187" x2="52.815" y2="47.497"/>
	
		<line fill="none" stroke="#00AEFF" stroke-width="0.25" stroke-linecap="round" stroke-linejoin="round" x1="79.877" y1="77.499" x2="82.96" y2="74.579"/>
	
		<line fill="none" stroke="#00AEFF" stroke-width="0.25" stroke-linecap="round" stroke-linejoin="round" x1="85.825" y1="70.403" x2="79.877" y2="77.499"/>
	
		<line fill="none" stroke="#00AEFF" stroke-width="0.25" stroke-linecap="round" stroke-linejoin="round" x1="55.27" y1="42.979" x2="58.553" y2="40.335"/>
	
		<line fill="none" stroke="#00AEFF" stroke-width="0.25" stroke-linecap="round" stroke-linejoin="round" x1="58.553" y1="40.335" x2="88.877" y2="67.527"/>
	
		<line fill="none" stroke="#00AEFF" stroke-width="0.25" stroke-linecap="round" stroke-linejoin="round" x1="55.27" y1="42.979" x2="85.825" y2="70.403"/>
	
		<line fill="none" stroke="#00AEFF" stroke-width="0.25" stroke-linecap="round" stroke-linejoin="round" x1="82.129" y1="58.248" x2="82.096" y2="58.275"/>
	
		<line fill="none" stroke="#00AEFF" stroke-width="0.25" stroke-linecap="round" stroke-linejoin="round" x1="82.129" y1="58.248" x2="83.729" y2="56.314"/>
	
		<line fill="none" stroke="#00AEFF" stroke-width="0.25" stroke-linecap="round" stroke-linejoin="round" x1="78.952" y1="48.664" x2="80.658" y2="50.194"/>
	
		<line fill="none" stroke="#00AEFF" stroke-width="0.25" stroke-linecap="round" stroke-linejoin="round" x1="80.658" y1="50.194" x2="77.418" y2="54.135"/>
	
		<line fill="none" stroke="#00AEFF" stroke-width="0.25" stroke-linecap="round" stroke-linejoin="round" x1="77.418" y1="54.135" x2="75.434" y2="52.359"/>
	
		<line fill="none" stroke="#00AEFF" stroke-width="0.25" stroke-linecap="round" stroke-linejoin="round" x1="93.936" y1="90.142" x2="15.357" y2="19.484"/>
	
		<line fill="none" stroke="#00AEFF" stroke-width="0.25" stroke-linecap="round" stroke-linejoin="round" x1="35.236" y1="13.351" x2="101.693" y2="72.884"/>
	
		<line fill="none" stroke="#00AEFF" stroke-width="0.25" stroke-linecap="round" stroke-linejoin="round" x1="74.506" y1="54.913" x2="81.34" y2="46.588"/>
	
		<line fill="none" stroke="#00AEFF" stroke-width="0.25" stroke-linecap="round" stroke-linejoin="round" x1="97.375" y1="75.423" x2="74.506" y2="54.913"/>
	
		<line fill="none" stroke="#00AEFF" stroke-width="0.25" stroke-linecap="round" stroke-linejoin="round" x1="70.362" y1="58.544" x2="74.506" y2="54.913"/>
	
		<line fill="none" stroke="#00AEFF" stroke-width="0.25" stroke-linecap="round" stroke-linejoin="round" x1="66.943" y1="49.167" x2="67.908" y2="47.976"/>
	
		<line fill="none" stroke="#00AEFF" stroke-width="0.25" stroke-linecap="round" stroke-linejoin="round" x1="70.917" y1="52.731" x2="66.943" y2="49.167"/>
	
		<line fill="none" stroke="#00AEFF" stroke-width="0.25" stroke-linecap="round" stroke-linejoin="round" x1="66.295" y1="49.716" x2="66.943" y2="49.167"/>
	
		<line fill="none" stroke="#00AEFF" stroke-width="0.25" stroke-linecap="round" stroke-linejoin="round" x1="70.74" y1="54.675" x2="61.086" y2="46.014"/>
	
		<line fill="none" stroke="#00AEFF" stroke-width="0.25" stroke-linecap="round" stroke-linejoin="round" x1="61.086" y1="46.014" x2="61.021" y2="46.068"/>
	
		<line fill="none" stroke="#00AEFF" stroke-width="0.25" stroke-linecap="round" stroke-linejoin="round" x1="61.086" y1="46.014" x2="63.956" y2="42.456"/>
	
		<line fill="none" stroke="#00AEFF" stroke-width="0.25" stroke-linecap="round" stroke-linejoin="round" x1="79.014" y1="48.611" x2="80.719" y2="50.139"/>
	
		<line fill="none" stroke="#00AEFF" stroke-width="0.25" stroke-linecap="round" stroke-linejoin="round" x1="80.719" y1="50.139" x2="80.658" y2="50.194"/>
	
		<line fill="none" stroke="#00AEFF" stroke-width="0.25" stroke-linecap="round" stroke-linejoin="round" x1="80.719" y1="50.139" x2="77.479" y2="54.081"/>
	
		<line fill="none" stroke="#00AEFF" stroke-width="0.25" stroke-linecap="round" stroke-linejoin="round" x1="77.479" y1="54.081" x2="77.418" y2="54.135"/>
	
		<line fill="none" stroke="#00AEFF" stroke-width="0.25" stroke-linecap="round" stroke-linejoin="round" x1="77.479" y1="54.081" x2="53.16" y2="32.285"/>
	
		<line fill="none" stroke="#00AEFF" stroke-width="0.25" stroke-linecap="round" stroke-linejoin="round" x1="96.434" y1="51.919" x2="85.203" y2="41.882"/>
	
		<line fill="none" stroke="#00AEFF" stroke-width="0.25" stroke-linecap="round" stroke-linejoin="round" x1="81.133" y1="45.407" x2="85.203" y2="41.882"/>
</g>
</svg>
