<?xml version="1.0" encoding="utf-8"?>
<!-- Generator: Adobe Illustrator 16.0.4, SVG Export Plug-In . SVG Version: 6.00 Build 0)  -->
<svg version="1.2" baseProfile="tiny" id="Layer_1" xmlns="http://www.w3.org/2000/svg" xmlns:xlink="http://www.w3.org/1999/xlink"
	 x="0px" y="0px" width="111px" height="111px" viewBox="0 0 111 111" xml:space="preserve">
<g>
	
		<line fill="none" stroke="#00AEFF" stroke-width="0.25" stroke-linecap="round" stroke-linejoin="round" x1="58.374" y1="55.82" x2="50.941" y2="52.846"/>
	
		<line fill="none" stroke="#00AEFF" stroke-width="0.25" stroke-linecap="round" stroke-linejoin="round" x1="59.418" y1="52.938" x2="59.442" y2="52.946"/>
	
		<line fill="none" stroke="#00AEFF" stroke-width="0.25" stroke-linecap="round" stroke-linejoin="round" x1="46.286" y1="41.987" x2="61.038" y2="47.865"/>
	
		<line fill="none" stroke="#00AEFF" stroke-width="0.25" stroke-linecap="round" stroke-linejoin="round" x1="61.038" y1="47.865" x2="58.256" y2="55.369"/>
	
		<line fill="none" stroke="#00AEFF" stroke-width="0.25" stroke-linecap="round" stroke-linejoin="round" x1="58.256" y1="55.369" x2="59.419" y2="52.937"/>
	
		<line fill="none" stroke="#00AEFF" stroke-width="0.25" stroke-linecap="round" stroke-linejoin="round" x1="61.266" y1="47.957" x2="59.419" y2="52.937"/>
	
		<line fill="none" stroke="#00AEFF" stroke-width="0.25" stroke-linecap="round" stroke-linejoin="round" x1="58.256" y1="55.369" x2="43.64" y2="49.521"/>
	
		<line fill="none" stroke="#00AEFF" stroke-width="0.25" stroke-linecap="round" stroke-linejoin="round" x1="43.64" y1="49.521" x2="46.286" y2="41.987"/>
	
		<line fill="none" stroke="#00AEFF" stroke-width="0.25" stroke-linecap="round" stroke-linejoin="round" x1="52.055" y1="32.486" x2="84.905" y2="45.486"/>
	
		<line fill="none" stroke="#00AEFF" stroke-width="0.25" stroke-linecap="round" stroke-linejoin="round" x1="83.411" y1="49.239" x2="50.716" y2="36.27"/>
	
		<line fill="none" stroke="#00AEFF" stroke-width="0.25" stroke-linecap="round" stroke-linejoin="round" x1="67.762" y1="70.112" x2="70.372" y2="71.165"/>
	
		<line fill="none" stroke="#00AEFF" stroke-width="0.25" stroke-linecap="round" stroke-linejoin="round" x1="67.745" y1="70.153" x2="67.762" y2="70.112"/>
	
		<line fill="none" stroke="#00AEFF" stroke-width="0.25" stroke-linecap="round" stroke-linejoin="round" x1="102.844" y1="64.521" x2="61.038" y2="47.865"/>
	
		<line fill="none" stroke="#00AEFF" stroke-width="0.25" stroke-linecap="round" stroke-linejoin="round" x1="42.619" y1="52.428" x2="57.181" y2="58.268"/>
	
		<line fill="none" stroke="#00AEFF" stroke-width="0.25" stroke-linecap="round" stroke-linejoin="round" x1="57.181" y1="58.268" x2="58.351" y2="55.812"/>
	
		<line fill="none" stroke="#00AEFF" stroke-width="0.25" stroke-linecap="round" stroke-linejoin="round" x1="43.94" y1="50.042" x2="50.942" y2="52.845"/>
	
		<line fill="none" stroke="#00AEFF" stroke-width="0.25" stroke-linecap="round" stroke-linejoin="round" x1="57.181" y1="58.268" x2="55.28" y2="63.393"/>
	
		<line fill="none" stroke="#00AEFF" stroke-width="0.25" stroke-linecap="round" stroke-linejoin="round" x1="55.28" y1="63.393" x2="56.464" y2="60.899"/>
	
		<line fill="none" stroke="#00AEFF" stroke-width="0.25" stroke-linecap="round" stroke-linejoin="round" x1="58.351" y1="55.812" x2="56.464" y2="60.899"/>
	
		<line fill="none" stroke="#00AEFF" stroke-width="0.25" stroke-linecap="round" stroke-linejoin="round" x1="55.28" y1="63.393" x2="40.812" y2="57.571"/>
	
		<line fill="none" stroke="#00AEFF" stroke-width="0.25" stroke-linecap="round" stroke-linejoin="round" x1="55.28" y1="63.393" x2="58.401" y2="64.649"/>
	
		<line fill="none" stroke="#00AEFF" stroke-width="0.25" stroke-linecap="round" stroke-linejoin="round" x1="58.401" y1="64.649" x2="60.554" y2="59.956"/>
	
		<line fill="none" stroke="#00AEFF" stroke-width="0.25" stroke-linecap="round" stroke-linejoin="round" x1="58.067" y1="58.958" x2="60.554" y2="59.956"/>
	
		<line fill="none" stroke="#00AEFF" stroke-width="0.25" stroke-linecap="round" stroke-linejoin="round" x1="83.704" y1="43.64" x2="70.153" y2="38.279"/>
	
		<line fill="none" stroke="#00AEFF" stroke-width="0.25" stroke-linecap="round" stroke-linejoin="round" x1="58.401" y1="64.649" x2="55.176" y2="73.251"/>
	
		<line fill="none" stroke="#00AEFF" stroke-width="0.25" stroke-linecap="round" stroke-linejoin="round" x1="55.176" y1="73.251" x2="56.062" y2="71.308"/>
	
		<line fill="none" stroke="#00AEFF" stroke-width="0.25" stroke-linecap="round" stroke-linejoin="round" x1="60.554" y1="59.956" x2="58.696" y2="64.903"/>
	
		<line fill="none" stroke="#00AEFF" stroke-width="0.25" stroke-linecap="round" stroke-linejoin="round" x1="55.176" y1="73.251" x2="4.995" y2="52.953"/>
	
		<line fill="none" stroke="#00AEFF" stroke-width="0.25" stroke-linecap="round" stroke-linejoin="round" x1="74.268" y1="53.135" x2="72.184" y2="58.499"/>
	
		<line fill="none" stroke="#00AEFF" stroke-width="0.25" stroke-linecap="round" stroke-linejoin="round" x1="72.184" y1="58.499" x2="73.045" y2="56.403"/>
	
		<line fill="none" stroke="#00AEFF" stroke-width="0.25" stroke-linecap="round" stroke-linejoin="round" x1="72.184" y1="58.499" x2="62.284" y2="54.543"/>
	
		<line fill="none" stroke="#00AEFF" stroke-width="0.25" stroke-linecap="round" stroke-linejoin="round" x1="62.284" y1="54.543" x2="64.302" y2="49.165"/>
	
		<line fill="none" stroke="#00AEFF" stroke-width="0.25" stroke-linecap="round" stroke-linejoin="round" x1="105.278" y1="69.271" x2="73.005" y2="56.388"/>
	
		<line fill="none" stroke="#00AEFF" stroke-width="0.25" stroke-linecap="round" stroke-linejoin="round" x1="58.132" y1="58.792" x2="58.114" y2="58.829"/>
	
		<line fill="none" stroke="#00AEFF" stroke-width="0.25" stroke-linecap="round" stroke-linejoin="round" x1="57.36" y1="58.483" x2="58.132" y2="58.792"/>
	
		<line fill="none" stroke="#00AEFF" stroke-width="0.25" stroke-linecap="round" stroke-linejoin="round" x1="57.673" y1="60.014" x2="56.907" y2="59.705"/>
	
		<line fill="none" stroke="#00AEFF" stroke-width="0.25" stroke-linecap="round" stroke-linejoin="round" x1="58.114" y1="58.829" x2="57.673" y2="60.014"/>
	
		<line fill="none" stroke="#00AEFF" stroke-width="0.25" stroke-linecap="round" stroke-linejoin="round" x1="57.347" y1="58.522" x2="58.114" y2="58.829"/>
	
		<line fill="none" stroke="#00AEFF" stroke-width="0.25" stroke-linecap="round" stroke-linejoin="round" x1="59.256" y1="63.411" x2="61.667" y2="64.381"/>
	
		<line fill="none" stroke="#00AEFF" stroke-width="0.25" stroke-linecap="round" stroke-linejoin="round" x1="57.577" y1="66.845" x2="75.655" y2="74.128"/>
	
		<line fill="none" stroke="#00AEFF" stroke-width="0.25" stroke-linecap="round" stroke-linejoin="round" x1="58.502" y1="64.825" x2="76.431" y2="72.039"/>
	
		<line fill="none" stroke="#00AEFF" stroke-width="0.25" stroke-linecap="round" stroke-linejoin="round" x1="57.577" y1="66.845" x2="58.502" y2="64.825"/>
	
		<line fill="none" stroke="#00AEFF" stroke-width="0.25" stroke-linecap="round" stroke-linejoin="round" x1="73.901" y1="78.514" x2="55.925" y2="71.252"/>
	
		<line fill="none" stroke="#00AEFF" stroke-width="0.25" stroke-linecap="round" stroke-linejoin="round" x1="61.667" y1="64.381" x2="62.368" y2="64.661"/>
	
		<line fill="none" stroke="#00AEFF" stroke-width="0.25" stroke-linecap="round" stroke-linejoin="round" x1="62.368" y1="64.661" x2="62.497" y2="64.37"/>
	
		<line fill="none" stroke="#00AEFF" stroke-width="0.25" stroke-linecap="round" stroke-linejoin="round" x1="61.796" y1="64.089" x2="62.497" y2="64.37"/>
	
		<line fill="none" stroke="#00AEFF" stroke-width="0.25" stroke-linecap="round" stroke-linejoin="round" x1="61.667" y1="64.381" x2="61.796" y2="64.089"/>
	
		<line fill="none" stroke="#00AEFF" stroke-width="0.25" stroke-linecap="round" stroke-linejoin="round" x1="62.368" y1="64.661" x2="61.802" y2="66.153"/>
	
		<line fill="none" stroke="#00AEFF" stroke-width="0.25" stroke-linecap="round" stroke-linejoin="round" x1="62.497" y1="64.37" x2="61.817" y2="66.159"/>
	
		<line fill="none" stroke="#00AEFF" stroke-width="0.25" stroke-linecap="round" stroke-linejoin="round" x1="61.102" y1="65.872" x2="61.667" y2="64.381"/>
	
		<line fill="none" stroke="#00AEFF" stroke-width="0.25" stroke-linecap="round" stroke-linejoin="round" x1="51.385" y1="60.319" x2="44.352" y2="57.491"/>
	
		<line fill="none" stroke="#00AEFF" stroke-width="0.25" stroke-linecap="round" stroke-linejoin="round" x1="51.099" y1="60.896" x2="50.15" y2="60.515"/>
	
		<line fill="none" stroke="#00AEFF" stroke-width="0.25" stroke-linecap="round" stroke-linejoin="round" x1="52.293" y1="57.833" x2="51.385" y2="60.319"/>
	
		<line fill="none" stroke="#00AEFF" stroke-width="0.25" stroke-linecap="round" stroke-linejoin="round" x1="51.099" y1="60.896" x2="51.385" y2="60.319"/>
	
		<line fill="none" stroke="#00AEFF" stroke-width="0.25" stroke-linecap="round" stroke-linejoin="round" x1="52.008" y1="58.403" x2="51.099" y2="60.896"/>
	
		<line fill="none" stroke="#00AEFF" stroke-width="0.25" stroke-linecap="round" stroke-linejoin="round" x1="45.238" y1="55.001" x2="52.293" y2="57.833"/>
	
		<line fill="none" stroke="#00AEFF" stroke-width="0.25" stroke-linecap="round" stroke-linejoin="round" x1="52.008" y1="58.403" x2="52.293" y2="57.833"/>
	
		<line fill="none" stroke="#00AEFF" stroke-width="0.25" stroke-linecap="round" stroke-linejoin="round" x1="44.935" y1="55.563" x2="52.008" y2="58.403"/>
	
		<line fill="none" stroke="#00AEFF" stroke-width="0.25" stroke-linecap="round" stroke-linejoin="round" x1="60.799" y1="66.72" x2="61.796" y2="64.089"/>
	
		<line fill="none" stroke="#00AEFF" stroke-width="0.25" stroke-linecap="round" stroke-linejoin="round" x1="60.668" y1="67.016" x2="61.102" y2="65.872"/>
	
		<line fill="none" stroke="#00AEFF" stroke-width="0.25" stroke-linecap="round" stroke-linejoin="round" x1="61.497" y1="67" x2="60.799" y2="66.72"/>
	
		<line fill="none" stroke="#00AEFF" stroke-width="0.25" stroke-linecap="round" stroke-linejoin="round" x1="60.668" y1="67.016" x2="60.799" y2="66.72"/>
	
		<line fill="none" stroke="#00AEFF" stroke-width="0.25" stroke-linecap="round" stroke-linejoin="round" x1="61.366" y1="67.297" x2="60.668" y2="67.016"/>
	
		<line fill="none" stroke="#00AEFF" stroke-width="0.25" stroke-linecap="round" stroke-linejoin="round" x1="61.817" y1="66.159" x2="61.497" y2="67"/>
	
		<line fill="none" stroke="#00AEFF" stroke-width="0.25" stroke-linecap="round" stroke-linejoin="round" x1="61.366" y1="67.297" x2="61.497" y2="67"/>
	
		<line fill="none" stroke="#00AEFF" stroke-width="0.25" stroke-linecap="round" stroke-linejoin="round" x1="61.802" y1="66.153" x2="61.366" y2="67.297"/>
	
		<line fill="none" stroke="#00AEFF" stroke-width="0.25" stroke-linecap="round" stroke-linejoin="round" x1="55.649" y1="59.659" x2="40.06" y2="53.4"/>
	
		<line fill="none" stroke="#00AEFF" stroke-width="0.25" stroke-linecap="round" stroke-linejoin="round" x1="56.178" y1="58.563" x2="40.659" y2="52.338"/>
	
		<line fill="none" stroke="#00AEFF" stroke-width="0.25" stroke-linecap="round" stroke-linejoin="round" x1="54.969" y1="61.503" x2="55.649" y2="59.659"/>
	
		<line fill="none" stroke="#00AEFF" stroke-width="0.25" stroke-linecap="round" stroke-linejoin="round" x1="56.178" y1="58.563" x2="55.649" y2="59.659"/>
	
		<line fill="none" stroke="#00AEFF" stroke-width="0.25" stroke-linecap="round" stroke-linejoin="round" x1="55.497" y1="60.399" x2="56.178" y2="58.563"/>
	
		<line fill="none" stroke="#00AEFF" stroke-width="0.25" stroke-linecap="round" stroke-linejoin="round" x1="39.415" y1="55.251" x2="54.969" y2="61.503"/>
	
		<line fill="none" stroke="#00AEFF" stroke-width="0.25" stroke-linecap="round" stroke-linejoin="round" x1="55.497" y1="60.399" x2="54.969" y2="61.503"/>
	
		<line fill="none" stroke="#00AEFF" stroke-width="0.25" stroke-linecap="round" stroke-linejoin="round" x1="51.095" y1="58.631" x2="55.497" y2="60.399"/>
	
		<line fill="none" stroke="#00AEFF" stroke-width="0.25" stroke-linecap="round" stroke-linejoin="round" x1="56.858" y1="69.206" x2="58.502" y2="64.825"/>
	
		<line fill="none" stroke="#00AEFF" stroke-width="0.25" stroke-linecap="round" stroke-linejoin="round" x1="74.688" y1="76.401" x2="56.858" y2="69.206"/>
	
		<line fill="none" stroke="#00AEFF" stroke-width="0.25" stroke-linecap="round" stroke-linejoin="round" x1="55.925" y1="71.252" x2="56.858" y2="69.206"/>
	
		<line fill="none" stroke="#00AEFF" stroke-width="0.25" stroke-linecap="round" stroke-linejoin="round" x1="55.261" y1="61.807" x2="59.256" y2="63.411"/>
	
		<line fill="none" stroke="#00AEFF" stroke-width="0.25" stroke-linecap="round" stroke-linejoin="round" x1="60.668" y1="67.016" x2="54.283" y2="64.444"/>
	
		<line fill="none" stroke="#00AEFF" stroke-width="0.25" stroke-linecap="round" stroke-linejoin="round" x1="54.283" y1="64.444" x2="55.261" y2="61.807"/>
	
		<line fill="none" stroke="#00AEFF" stroke-width="0.25" stroke-linecap="round" stroke-linejoin="round" x1="46.72" y1="54.259" x2="57.347" y2="58.522"/>
	
		<line fill="none" stroke="#00AEFF" stroke-width="0.25" stroke-linecap="round" stroke-linejoin="round" x1="56.907" y1="59.705" x2="46.296" y2="55.446"/>
	
		<line fill="none" stroke="#00AEFF" stroke-width="0.25" stroke-linecap="round" stroke-linejoin="round" x1="46.296" y1="55.446" x2="46.72" y2="54.259"/>
	
		<line fill="none" stroke="#00AEFF" stroke-width="0.25" stroke-linecap="round" stroke-linejoin="round" x1="46.72" y1="54.259" x2="46.74" y2="54.223"/>
	
		<line fill="none" stroke="#00AEFF" stroke-width="0.25" stroke-linecap="round" stroke-linejoin="round" x1="46.74" y1="54.223" x2="57.36" y2="58.483"/>
	
		<line fill="none" stroke="#00AEFF" stroke-width="0.25" stroke-linecap="round" stroke-linejoin="round" x1="57.688" y1="59.976" x2="46.317" y2="55.41"/>
	
		<line fill="none" stroke="#00AEFF" stroke-width="0.25" stroke-linecap="round" stroke-linejoin="round" x1="49.514" y1="62.978" x2="30.632" y2="55.37"/>
	
		<line fill="none" stroke="#00AEFF" stroke-width="0.25" stroke-linecap="round" stroke-linejoin="round" x1="51.095" y1="58.631" x2="49.514" y2="62.978"/>
	
		<line fill="none" stroke="#00AEFF" stroke-width="0.25" stroke-linecap="round" stroke-linejoin="round" x1="48.561" y1="64.886" x2="49.514" y2="62.978"/>
	
		<line fill="none" stroke="#00AEFF" stroke-width="0.25" stroke-linecap="round" stroke-linejoin="round" x1="50.15" y1="60.515" x2="48.561" y2="64.886"/>
	
		<line fill="none" stroke="#00AEFF" stroke-width="0.25" stroke-linecap="round" stroke-linejoin="round" x1="32.109" y1="51.007" x2="51.095" y2="58.631"/>
	
		<line fill="none" stroke="#00AEFF" stroke-width="0.25" stroke-linecap="round" stroke-linejoin="round" x1="50.15" y1="60.515" x2="51.095" y2="58.631"/>
	
		<line fill="none" stroke="#00AEFF" stroke-width="0.25" stroke-linecap="round" stroke-linejoin="round" x1="31.013" y1="52.819" x2="50.15" y2="60.515"/>
	
		<line fill="none" stroke="#00AEFF" stroke-width="0.25" stroke-linecap="round" stroke-linejoin="round" x1="65.518" y1="51.179" x2="67.243" y2="46.61"/>
	
		<line fill="none" stroke="#00AEFF" stroke-width="0.25" stroke-linecap="round" stroke-linejoin="round" x1="65.083" y1="52.138" x2="66.812" y2="47.554"/>
	
		<line fill="none" stroke="#00AEFF" stroke-width="0.25" stroke-linecap="round" stroke-linejoin="round" x1="67.233" y1="51.86" x2="65.518" y2="51.179"/>
	
		<line fill="none" stroke="#00AEFF" stroke-width="0.25" stroke-linecap="round" stroke-linejoin="round" x1="65.083" y1="52.138" x2="65.518" y2="51.179"/>
	
		<line fill="none" stroke="#00AEFF" stroke-width="0.25" stroke-linecap="round" stroke-linejoin="round" x1="66.804" y1="52.821" x2="65.083" y2="52.138"/>
	
		<line fill="none" stroke="#00AEFF" stroke-width="0.25" stroke-linecap="round" stroke-linejoin="round" x1="68.966" y1="47.295" x2="67.233" y2="51.86"/>
	
		<line fill="none" stroke="#00AEFF" stroke-width="0.25" stroke-linecap="round" stroke-linejoin="round" x1="66.804" y1="52.821" x2="67.233" y2="51.86"/>
	
		<line fill="none" stroke="#00AEFF" stroke-width="0.25" stroke-linecap="round" stroke-linejoin="round" x1="68.543" y1="48.24" x2="66.804" y2="52.821"/>
	
		<line fill="none" stroke="#00AEFF" stroke-width="0.25" stroke-linecap="round" stroke-linejoin="round" x1="66.812" y1="47.554" x2="67.243" y2="46.61"/>
	
		<line fill="none" stroke="#00AEFF" stroke-width="0.25" stroke-linecap="round" stroke-linejoin="round" x1="67.243" y1="46.61" x2="68.966" y2="47.295"/>
	
		<line fill="none" stroke="#00AEFF" stroke-width="0.25" stroke-linecap="round" stroke-linejoin="round" x1="68.543" y1="48.24" x2="68.966" y2="47.295"/>
	
		<line fill="none" stroke="#00AEFF" stroke-width="0.25" stroke-linecap="round" stroke-linejoin="round" x1="70.506" y1="53.167" x2="72.26" y2="48.604"/>
	
		<line fill="none" stroke="#00AEFF" stroke-width="0.25" stroke-linecap="round" stroke-linejoin="round" x1="70.091" y1="54.133" x2="71.848" y2="49.557"/>
	
		<line fill="none" stroke="#00AEFF" stroke-width="0.25" stroke-linecap="round" stroke-linejoin="round" x1="73.819" y1="54.487" x2="70.506" y2="53.167"/>
	
		<line fill="none" stroke="#00AEFF" stroke-width="0.25" stroke-linecap="round" stroke-linejoin="round" x1="70.091" y1="54.133" x2="70.506" y2="53.167"/>
	
		<line fill="none" stroke="#00AEFF" stroke-width="0.25" stroke-linecap="round" stroke-linejoin="round" x1="73.415" y1="55.461" x2="70.091" y2="54.133"/>
	
		<line fill="none" stroke="#00AEFF" stroke-width="0.25" stroke-linecap="round" stroke-linejoin="round" x1="75.591" y1="49.927" x2="73.819" y2="54.487"/>
	
		<line fill="none" stroke="#00AEFF" stroke-width="0.25" stroke-linecap="round" stroke-linejoin="round" x1="73.415" y1="55.461" x2="73.819" y2="54.487"/>
	
		<line fill="none" stroke="#00AEFF" stroke-width="0.25" stroke-linecap="round" stroke-linejoin="round" x1="71.848" y1="49.557" x2="72.26" y2="48.604"/>
	
		<line fill="none" stroke="#00AEFF" stroke-width="0.25" stroke-linecap="round" stroke-linejoin="round" x1="72.26" y1="48.604" x2="75.591" y2="49.927"/>
	
		<line fill="none" stroke="#00AEFF" stroke-width="0.25" stroke-linecap="round" stroke-linejoin="round" x1="74.101" y1="53.726" x2="75.354" y2="50.5"/>
	
		<line fill="none" stroke="#00AEFF" stroke-width="0.25" stroke-linecap="round" stroke-linejoin="round" x1="106.005" y1="66.438" x2="74.101" y2="53.726"/>
	
		<line fill="none" stroke="#00AEFF" stroke-width="0.25" stroke-linecap="round" stroke-linejoin="round" x1="73.081" y1="56.194" x2="74.101" y2="53.726"/>
	
		<line fill="none" stroke="#00AEFF" stroke-width="0.25" stroke-linecap="round" stroke-linejoin="round" x1="46.317" y1="55.41" x2="46.306" y2="55.43"/>
	
		<line fill="none" stroke="#00AEFF" stroke-width="0.25" stroke-linecap="round" stroke-linejoin="round" x1="46.317" y1="55.41" x2="46.74" y2="54.223"/>
	
		<line fill="none" stroke="#00AEFF" stroke-width="0.25" stroke-linecap="round" stroke-linejoin="round" x1="63.321" y1="52.299" x2="65.325" y2="46.962"/>
	
		<line fill="none" stroke="#00AEFF" stroke-width="0.25" stroke-linecap="round" stroke-linejoin="round" x1="73.124" y1="56.211" x2="63.321" y2="52.299"/>
	
		<line fill="none" stroke="#00AEFF" stroke-width="0.25" stroke-linecap="round" stroke-linejoin="round" x1="62.284" y1="54.543" x2="63.321" y2="52.299"/>
	
		<line fill="none" stroke="#00AEFF" stroke-width="0.25" stroke-linecap="round" stroke-linejoin="round" x1="75.194" y1="50.886" x2="73.124" y2="56.211"/>
	
		<line fill="none" stroke="#00AEFF" stroke-width="0.25" stroke-linecap="round" stroke-linejoin="round" x1="73.045" y1="56.403" x2="73.124" y2="56.211"/>
	
		<line fill="none" stroke="#00AEFF" stroke-width="0.25" stroke-linecap="round" stroke-linejoin="round" x1="74.073" y1="49.633" x2="82.136" y2="52.839"/>
	
		<line fill="none" stroke="#00AEFF" stroke-width="0.25" stroke-linecap="round" stroke-linejoin="round" x1="64.302" y1="49.165" x2="65.325" y2="46.962"/>
	
		<line fill="none" stroke="#00AEFF" stroke-width="0.25" stroke-linecap="round" stroke-linejoin="round" x1="65.325" y1="46.962" x2="75.194" y2="50.886"/>
	
		<line fill="none" stroke="#00AEFF" stroke-width="0.25" stroke-linecap="round" stroke-linejoin="round" x1="74.268" y1="53.135" x2="75.194" y2="50.886"/>
	
		<line fill="none" stroke="#00AEFF" stroke-width="0.25" stroke-linecap="round" stroke-linejoin="round" x1="81.811" y1="53.655" x2="73.759" y2="50.45"/>
	
		<line fill="none" stroke="#00AEFF" stroke-width="0.25" stroke-linecap="round" stroke-linejoin="round" x1="73.759" y1="50.45" x2="74.073" y2="49.633"/>
	
		<line fill="none" stroke="#00AEFF" stroke-width="0.25" stroke-linecap="round" stroke-linejoin="round" x1="57.368" y1="68.437" x2="8.136" y2="48.585"/>
	
		<line fill="none" stroke="#00AEFF" stroke-width="0.25" stroke-linecap="round" stroke-linejoin="round" x1="58.696" y1="64.903" x2="57.368" y2="68.437"/>
	
		<line fill="none" stroke="#00AEFF" stroke-width="0.25" stroke-linecap="round" stroke-linejoin="round" x1="56.062" y1="71.308" x2="57.368" y2="68.437"/>
	
		<line fill="none" stroke="#00AEFF" stroke-width="0.25" stroke-linecap="round" stroke-linejoin="round" x1="16.468" y1="42.274" x2="58.067" y2="58.958"/>
	
		<line fill="none" stroke="#00AEFF" stroke-width="0.25" stroke-linecap="round" stroke-linejoin="round" x1="56.464" y1="60.899" x2="42.144" y2="55.146"/>
	
		<line fill="none" stroke="#00AEFF" stroke-width="0.25" stroke-linecap="round" stroke-linejoin="round" x1="103.97" y1="60.377" x2="36.773" y2="33.674"/>
	
		<line fill="none" stroke="#00AEFF" stroke-width="0.25" stroke-linecap="round" stroke-linejoin="round" x1="66.868" y1="40.026" x2="51.924" y2="34.106"/>
	
		<line fill="none" stroke="#00AEFF" stroke-width="0.25" stroke-linecap="round" stroke-linejoin="round" x1="66.868" y1="40.026" x2="68.268" y2="36.286"/>
	
		<line fill="none" stroke="#00AEFF" stroke-width="0.25" stroke-linecap="round" stroke-linejoin="round" x1="93.897" y1="48.922" x2="67.585" y2="38.509"/>
	
		<line fill="none" stroke="#00AEFF" stroke-width="0.25" stroke-linecap="round" stroke-linejoin="round" x1="66.868" y1="40.026" x2="67.585" y2="38.509"/>
	
		<line fill="none" stroke="#00AEFF" stroke-width="0.25" stroke-linecap="round" stroke-linejoin="round" x1="84.325" y1="46.942" x2="66.868" y2="40.026"/>
	
		<line fill="none" stroke="#00AEFF" stroke-width="0.25" stroke-linecap="round" stroke-linejoin="round" x1="83.72" y1="43.603" x2="70.169" y2="38.244"/>
	
		<line fill="none" stroke="#00AEFF" stroke-width="0.25" stroke-linecap="round" stroke-linejoin="round" x1="74.073" y1="49.633" x2="74.09" y2="49.596"/>
	
		<line fill="none" stroke="#00AEFF" stroke-width="0.25" stroke-linecap="round" stroke-linejoin="round" x1="44.955" y1="47.157" x2="47.584" y2="39.686"/>
	
		<line fill="none" stroke="#00AEFF" stroke-width="0.25" stroke-linecap="round" stroke-linejoin="round" x1="74.09" y1="49.596" x2="82.151" y2="52.803"/>
	
		<line fill="none" stroke="#00AEFF" stroke-width="0.25" stroke-linecap="round" stroke-linejoin="round" x1="51.981" y1="49.966" x2="44.955" y2="47.157"/>
	
		<line fill="none" stroke="#00AEFF" stroke-width="0.25" stroke-linecap="round" stroke-linejoin="round" x1="43.64" y1="49.521" x2="44.955" y2="47.157"/>
	
		<line fill="none" stroke="#00AEFF" stroke-width="0.25" stroke-linecap="round" stroke-linejoin="round" x1="81.825" y1="53.617" x2="73.774" y2="50.416"/>
	
		<line fill="none" stroke="#00AEFF" stroke-width="0.25" stroke-linecap="round" stroke-linejoin="round" x1="62.182" y1="45.491" x2="61.266" y2="47.957"/>
	
		<line fill="none" stroke="#00AEFF" stroke-width="0.25" stroke-linecap="round" stroke-linejoin="round" x1="47.584" y1="39.686" x2="62.182" y2="45.491"/>
	
		<line fill="none" stroke="#00AEFF" stroke-width="0.25" stroke-linecap="round" stroke-linejoin="round" x1="61.038" y1="47.865" x2="62.182" y2="45.491"/>
	
		<line fill="none" stroke="#00AEFF" stroke-width="0.25" stroke-linecap="round" stroke-linejoin="round" x1="51.981" y1="49.966" x2="59.418" y2="52.938"/>
</g>
</svg>
