<?xml version="1.0" encoding="utf-8"?>
<!-- Generator: Adobe Illustrator 16.0.4, SVG Export Plug-In . SVG Version: 6.00 Build 0)  -->
<svg version="1.2" baseProfile="tiny" id="Layer_1" xmlns="http://www.w3.org/2000/svg" xmlns:xlink="http://www.w3.org/1999/xlink"
	 x="0px" y="0px" width="111px" height="111px" viewBox="0 0 111 111" overflow="scroll" xml:space="preserve">
<g>
	
		<line fill="none" stroke="#00AEFF" stroke-width="0.25" stroke-linecap="round" stroke-linejoin="round" x1="51.021" y1="56.988" x2="58.331" y2="51.446"/>
	
		<line fill="none" stroke="#00AEFF" stroke-width="0.25" stroke-linecap="round" stroke-linejoin="round" x1="71.735" y1="53.28" x2="57.264" y2="64.298"/>
	
		<line fill="none" stroke="#00AEFF" stroke-width="0.25" stroke-linecap="round" stroke-linejoin="round" x1="51.535" y1="57.137" x2="65.901" y2="46.237"/>
	
		<line fill="none" stroke="#00AEFF" stroke-width="0.25" stroke-linecap="round" stroke-linejoin="round" x1="65.901" y1="46.237" x2="71.735" y2="53.28"/>
	
		<line fill="none" stroke="#00AEFF" stroke-width="0.25" stroke-linecap="round" stroke-linejoin="round" x1="88.468" y1="50.521" x2="74.737" y2="61.005"/>
	
		<line fill="none" stroke="#00AEFF" stroke-width="0.25" stroke-linecap="round" stroke-linejoin="round" x1="71.735" y1="53.28" x2="83.312" y2="44.469"/>
	
		<line fill="none" stroke="#00AEFF" stroke-width="0.25" stroke-linecap="round" stroke-linejoin="round" x1="78.291" y1="34.103" x2="64.323" y2="44.688"/>
	
		<line fill="none" stroke="#00AEFF" stroke-width="0.25" stroke-linecap="round" stroke-linejoin="round" x1="78.271" y1="34.06" x2="78.291" y2="34.103"/>
	
		<line fill="none" stroke="#00AEFF" stroke-width="0.25" stroke-linecap="round" stroke-linejoin="round" x1="83.312" y1="44.469" x2="88.468" y2="50.521"/>
	
		<line fill="none" stroke="#00AEFF" stroke-width="0.25" stroke-linecap="round" stroke-linejoin="round" x1="65.664" y1="38.06" x2="63.209" y2="39.918"/>
	
		<line fill="none" stroke="#00AEFF" stroke-width="0.25" stroke-linecap="round" stroke-linejoin="round" x1="63.209" y1="39.918" x2="63.451" y2="40.341"/>
	
		<line fill="none" stroke="#00AEFF" stroke-width="0.25" stroke-linecap="round" stroke-linejoin="round" x1="61.808" y1="39.35" x2="61.782" y2="39.307"/>
	
		<line fill="none" stroke="#00AEFF" stroke-width="0.25" stroke-linecap="round" stroke-linejoin="round" x1="63.489" y1="41.376" x2="61.808" y2="39.35"/>
	
		<line fill="none" stroke="#00AEFF" stroke-width="0.25" stroke-linecap="round" stroke-linejoin="round" x1="63.489" y1="41.376" x2="63.465" y2="41.335"/>
	
		<line fill="none" stroke="#00AEFF" stroke-width="0.25" stroke-linecap="round" stroke-linejoin="round" x1="69.455" y1="36.86" x2="63.489" y2="41.376"/>
	
		<line fill="none" stroke="#00AEFF" stroke-width="0.25" stroke-linecap="round" stroke-linejoin="round" x1="69.433" y1="36.817" x2="69.455" y2="36.86"/>
	
		<line fill="none" stroke="#00AEFF" stroke-width="0.25" stroke-linecap="round" stroke-linejoin="round" x1="65.901" y1="38.485" x2="63.451" y2="40.341"/>
	
		<line fill="none" stroke="#00AEFF" stroke-width="0.25" stroke-linecap="round" stroke-linejoin="round" x1="65.664" y1="38.06" x2="65.901" y2="38.485"/>
	
		<line fill="none" stroke="#00AEFF" stroke-width="0.25" stroke-linecap="round" stroke-linejoin="round" x1="63.209" y1="39.918" x2="62.644" y2="39.239"/>
	
		<line fill="none" stroke="#00AEFF" stroke-width="0.25" stroke-linecap="round" stroke-linejoin="round" x1="82.522" y1="31.036" x2="81.747" y2="30.14"/>
	
		<line fill="none" stroke="#00AEFF" stroke-width="0.25" stroke-linecap="round" stroke-linejoin="round" x1="82.522" y1="31.036" x2="82.502" y2="30.992"/>
	
		<line fill="none" stroke="#00AEFF" stroke-width="0.25" stroke-linecap="round" stroke-linejoin="round" x1="90.087" y1="25.3" x2="82.522" y2="31.036"/>
	
		<line fill="none" stroke="#00AEFF" stroke-width="0.25" stroke-linecap="round" stroke-linejoin="round" x1="62.644" y1="39.239" x2="62.886" y2="39.664"/>
	
		<line fill="none" stroke="#00AEFF" stroke-width="0.25" stroke-linecap="round" stroke-linejoin="round" x1="63.451" y1="40.341" x2="62.886" y2="39.664"/>
	
		<line fill="none" stroke="#00AEFF" stroke-width="0.25" stroke-linecap="round" stroke-linejoin="round" x1="62.644" y1="39.239" x2="65.099" y2="37.382"/>
	
		<line fill="none" stroke="#00AEFF" stroke-width="0.25" stroke-linecap="round" stroke-linejoin="round" x1="65.099" y1="37.382" x2="65.664" y2="38.06"/>
	
		<line fill="none" stroke="#00AEFF" stroke-width="0.25" stroke-linecap="round" stroke-linejoin="round" x1="63.649" y1="43.521" x2="49.324" y2="54.373"/>
	
		<line fill="none" stroke="#00AEFF" stroke-width="0.25" stroke-linecap="round" stroke-linejoin="round" x1="65.212" y1="46.225" x2="58.331" y2="51.446"/>
	
		<line fill="none" stroke="#00AEFF" stroke-width="0.25" stroke-linecap="round" stroke-linejoin="round" x1="63.649" y1="43.521" x2="65.212" y2="46.225"/>
	
		<line fill="none" stroke="#00AEFF" stroke-width="0.25" stroke-linecap="round" stroke-linejoin="round" x1="45.413" y1="49.483" x2="59.664" y2="38.713"/>
	
		<line fill="none" stroke="#00AEFF" stroke-width="0.25" stroke-linecap="round" stroke-linejoin="round" x1="59.664" y1="38.713" x2="63.649" y2="43.521"/>
	
		<line fill="none" stroke="#00AEFF" stroke-width="0.25" stroke-linecap="round" stroke-linejoin="round" x1="69.553" y1="31.236" x2="59.664" y2="38.713"/>
	
		<line fill="none" stroke="#00AEFF" stroke-width="0.25" stroke-linecap="round" stroke-linejoin="round" x1="67.735" y1="34.805" x2="69.433" y2="36.817"/>
	
		<line fill="none" stroke="#00AEFF" stroke-width="0.25" stroke-linecap="round" stroke-linejoin="round" x1="61.782" y1="39.307" x2="67.735" y2="34.805"/>
	
		<line fill="none" stroke="#00AEFF" stroke-width="0.25" stroke-linecap="round" stroke-linejoin="round" x1="63.465" y1="41.335" x2="61.782" y2="39.307"/>
	
		<line fill="none" stroke="#00AEFF" stroke-width="0.25" stroke-linecap="round" stroke-linejoin="round" x1="69.433" y1="36.817" x2="63.465" y2="41.335"/>
	
		<line fill="none" stroke="#00AEFF" stroke-width="0.25" stroke-linecap="round" stroke-linejoin="round" x1="78.267" y1="34.056" x2="78.271" y2="34.06"/>
	
		<line fill="none" stroke="#00AEFF" stroke-width="0.25" stroke-linecap="round" stroke-linejoin="round" x1="62.601" y1="42.256" x2="72.073" y2="35.083"/>
	
		<line fill="none" stroke="#00AEFF" stroke-width="0.25" stroke-linecap="round" stroke-linejoin="round" x1="78.271" y1="34.06" x2="64.302" y2="44.648"/>
	
		<line fill="none" stroke="#00AEFF" stroke-width="0.25" stroke-linecap="round" stroke-linejoin="round" x1="91.351" y1="20.933" x2="72.759" y2="35.012"/>
	
		<line fill="none" stroke="#00AEFF" stroke-width="0.25" stroke-linecap="round" stroke-linejoin="round" x1="72.759" y1="35.012" x2="73.966" y2="37.315"/>
	
		<line fill="none" stroke="#00AEFF" stroke-width="0.25" stroke-linecap="round" stroke-linejoin="round" x1="82.415" y1="30.911" x2="73.966" y2="37.315"/>
	
		<line fill="none" stroke="#00AEFF" stroke-width="0.25" stroke-linecap="round" stroke-linejoin="round" x1="72.759" y1="35.012" x2="69.553" y2="31.236"/>
	
		<line fill="none" stroke="#00AEFF" stroke-width="0.25" stroke-linecap="round" stroke-linejoin="round" x1="69.553" y1="31.236" x2="70.784" y2="33.561"/>
	
		<line fill="none" stroke="#00AEFF" stroke-width="0.25" stroke-linecap="round" stroke-linejoin="round" x1="73.966" y1="37.315" x2="70.784" y2="33.561"/>
	
		<line fill="none" stroke="#00AEFF" stroke-width="0.25" stroke-linecap="round" stroke-linejoin="round" x1="69.553" y1="31.236" x2="88.069" y2="17.239"/>
	
		<line fill="none" stroke="#00AEFF" stroke-width="0.25" stroke-linecap="round" stroke-linejoin="round" x1="84.553" y1="13.918" x2="51.623" y2="38.763"/>
	
		<line fill="none" stroke="#00AEFF" stroke-width="0.25" stroke-linecap="round" stroke-linejoin="round" x1="57.654" y1="42.233" x2="59.578" y2="44.574"/>
	
		<line fill="none" stroke="#00AEFF" stroke-width="0.25" stroke-linecap="round" stroke-linejoin="round" x1="57.275" y1="41.6" x2="59.203" y2="43.944"/>
	
		<line fill="none" stroke="#00AEFF" stroke-width="0.25" stroke-linecap="round" stroke-linejoin="round" x1="50.729" y1="47.472" x2="57.654" y2="42.233"/>
	
		<line fill="none" stroke="#00AEFF" stroke-width="0.25" stroke-linecap="round" stroke-linejoin="round" x1="57.275" y1="41.6" x2="57.654" y2="42.233"/>
	
		<line fill="none" stroke="#00AEFF" stroke-width="0.25" stroke-linecap="round" stroke-linejoin="round" x1="59.203" y1="43.944" x2="59.578" y2="44.574"/>
	
		<line fill="none" stroke="#00AEFF" stroke-width="0.25" stroke-linecap="round" stroke-linejoin="round" x1="59.578" y1="44.574" x2="52.636" y2="49.829"/>
	
		<line fill="none" stroke="#00AEFF" stroke-width="0.25" stroke-linecap="round" stroke-linejoin="round" x1="59.203" y1="43.944" x2="52.243" y2="49.215"/>
	
		<line fill="none" stroke="#00AEFF" stroke-width="0.25" stroke-linecap="round" stroke-linejoin="round" x1="64.901" y1="37.093" x2="65.601" y2="37.928"/>
	
		<line fill="none" stroke="#00AEFF" stroke-width="0.25" stroke-linecap="round" stroke-linejoin="round" x1="64.407" y1="36.208" x2="65.106" y2="37.045"/>
	
		<line fill="none" stroke="#00AEFF" stroke-width="0.25" stroke-linecap="round" stroke-linejoin="round" x1="62.767" y1="38.709" x2="64.901" y2="37.093"/>
	
		<line fill="none" stroke="#00AEFF" stroke-width="0.25" stroke-linecap="round" stroke-linejoin="round" x1="64.407" y1="36.208" x2="64.901" y2="37.093"/>
	
		<line fill="none" stroke="#00AEFF" stroke-width="0.25" stroke-linecap="round" stroke-linejoin="round" x1="62.265" y1="37.829" x2="62.767" y2="38.709"/>
	
		<line fill="none" stroke="#00AEFF" stroke-width="0.25" stroke-linecap="round" stroke-linejoin="round" x1="62.963" y1="38.667" x2="62.265" y2="37.829"/>
	
		<line fill="none" stroke="#00AEFF" stroke-width="0.25" stroke-linecap="round" stroke-linejoin="round" x1="65.106" y1="37.045" x2="65.601" y2="37.928"/>
	
		<line fill="none" stroke="#00AEFF" stroke-width="0.25" stroke-linecap="round" stroke-linejoin="round" x1="65.601" y1="37.928" x2="63.463" y2="39.547"/>
	
		<line fill="none" stroke="#00AEFF" stroke-width="0.25" stroke-linecap="round" stroke-linejoin="round" x1="62.963" y1="38.667" x2="63.463" y2="39.547"/>
	
		<line fill="none" stroke="#00AEFF" stroke-width="0.25" stroke-linecap="round" stroke-linejoin="round" x1="65.106" y1="37.045" x2="62.963" y2="38.667"/>
	
		<line fill="none" stroke="#00AEFF" stroke-width="0.25" stroke-linecap="round" stroke-linejoin="round" x1="48.86" y1="52.049" x2="64.202" y2="40.435"/>
	
		<line fill="none" stroke="#00AEFF" stroke-width="0.25" stroke-linecap="round" stroke-linejoin="round" x1="49.627" y1="53.214" x2="64.894" y2="41.649"/>
	
		<line fill="none" stroke="#00AEFF" stroke-width="0.25" stroke-linecap="round" stroke-linejoin="round" x1="62.767" y1="38.709" x2="47.453" y2="50.292"/>
	
		<line fill="none" stroke="#00AEFF" stroke-width="0.25" stroke-linecap="round" stroke-linejoin="round" x1="64.894" y1="41.649" x2="64.202" y2="40.435"/>
	
		<line fill="none" stroke="#00AEFF" stroke-width="0.25" stroke-linecap="round" stroke-linejoin="round" x1="64.202" y1="40.435" x2="62.767" y2="38.709"/>
	
		<line fill="none" stroke="#00AEFF" stroke-width="0.25" stroke-linecap="round" stroke-linejoin="round" x1="63.463" y1="39.929" x2="62.767" y2="38.709"/>
	
		<line fill="none" stroke="#00AEFF" stroke-width="0.25" stroke-linecap="round" stroke-linejoin="round" x1="64.894" y1="41.649" x2="63.463" y2="39.929"/>
	
		<line fill="none" stroke="#00AEFF" stroke-width="0.25" stroke-linecap="round" stroke-linejoin="round" x1="66.813" y1="29.044" x2="72.935" y2="36.259"/>
	
		<line fill="none" stroke="#00AEFF" stroke-width="0.25" stroke-linecap="round" stroke-linejoin="round" x1="71.246" y1="34.04" x2="72.612" y2="35.651"/>
	
		<line fill="none" stroke="#00AEFF" stroke-width="0.25" stroke-linecap="round" stroke-linejoin="round" x1="66.481" y1="28.424" x2="67.83" y2="30.012"/>
	
		<line fill="none" stroke="#00AEFF" stroke-width="0.25" stroke-linecap="round" stroke-linejoin="round" x1="65.496" y1="30.038" x2="66.813" y2="29.044"/>
	
		<line fill="none" stroke="#00AEFF" stroke-width="0.25" stroke-linecap="round" stroke-linejoin="round" x1="66.481" y1="28.424" x2="66.813" y2="29.044"/>
	
		<line fill="none" stroke="#00AEFF" stroke-width="0.25" stroke-linecap="round" stroke-linejoin="round" x1="65.162" y1="29.421" x2="66.481" y2="28.424"/>
	
		<line fill="none" stroke="#00AEFF" stroke-width="0.25" stroke-linecap="round" stroke-linejoin="round" x1="71.606" y1="37.265" x2="65.496" y2="30.038"/>
	
		<line fill="none" stroke="#00AEFF" stroke-width="0.25" stroke-linecap="round" stroke-linejoin="round" x1="65.162" y1="29.421" x2="65.496" y2="30.038"/>
	
		<line fill="none" stroke="#00AEFF" stroke-width="0.25" stroke-linecap="round" stroke-linejoin="round" x1="71.282" y1="36.66" x2="65.162" y2="29.421"/>
	
		<line fill="none" stroke="#00AEFF" stroke-width="0.25" stroke-linecap="round" stroke-linejoin="round" x1="72.612" y1="35.651" x2="72.935" y2="36.259"/>
	
		<line fill="none" stroke="#00AEFF" stroke-width="0.25" stroke-linecap="round" stroke-linejoin="round" x1="72.935" y1="36.259" x2="71.606" y2="37.265"/>
	
		<line fill="none" stroke="#00AEFF" stroke-width="0.25" stroke-linecap="round" stroke-linejoin="round" x1="71.282" y1="36.66" x2="71.606" y2="37.265"/>
	
		<line fill="none" stroke="#00AEFF" stroke-width="0.25" stroke-linecap="round" stroke-linejoin="round" x1="72.612" y1="35.651" x2="71.282" y2="36.66"/>
	
		<line fill="none" stroke="#00AEFF" stroke-width="0.25" stroke-linecap="round" stroke-linejoin="round" x1="70.784" y1="33.561" x2="89.137" y2="19.675"/>
	
		<line fill="none" stroke="#00AEFF" stroke-width="0.25" stroke-linecap="round" stroke-linejoin="round" x1="59.432" y1="46.467" x2="48.979" y2="54.384"/>
	
		<line fill="none" stroke="#00AEFF" stroke-width="0.25" stroke-linecap="round" stroke-linejoin="round" x1="48.074" y1="53.256" x2="58.516" y2="45.349"/>
	
		<line fill="none" stroke="#00AEFF" stroke-width="0.25" stroke-linecap="round" stroke-linejoin="round" x1="58.516" y1="45.349" x2="59.432" y2="46.467"/>
	
		<line fill="none" stroke="#00AEFF" stroke-width="0.25" stroke-linecap="round" stroke-linejoin="round" x1="59.432" y1="46.467" x2="59.457" y2="46.507"/>
	
		<line fill="none" stroke="#00AEFF" stroke-width="0.25" stroke-linecap="round" stroke-linejoin="round" x1="59.457" y1="46.507" x2="49.007" y2="54.422"/>
	
		<line fill="none" stroke="#00AEFF" stroke-width="0.25" stroke-linecap="round" stroke-linejoin="round" x1="47.348" y1="53.864" x2="58.54" y2="45.391"/>
	
		<line fill="none" stroke="#00AEFF" stroke-width="0.25" stroke-linecap="round" stroke-linejoin="round" x1="67.83" y1="30.012" x2="71.246" y2="34.04"/>
	
		<line fill="none" stroke="#00AEFF" stroke-width="0.25" stroke-linecap="round" stroke-linejoin="round" x1="66.675" y1="27.846" x2="69.553" y2="31.236"/>
	
		<line fill="none" stroke="#00AEFF" stroke-width="0.25" stroke-linecap="round" stroke-linejoin="round" x1="49.225" y1="44.066" x2="67.83" y2="30.012"/>
	
		<line fill="none" stroke="#00AEFF" stroke-width="0.25" stroke-linecap="round" stroke-linejoin="round" x1="66.675" y1="27.846" x2="67.83" y2="30.012"/>
	
		<line fill="none" stroke="#00AEFF" stroke-width="0.25" stroke-linecap="round" stroke-linejoin="round" x1="70.112" y1="31.896" x2="71.246" y2="34.04"/>
	
		<line fill="none" stroke="#00AEFF" stroke-width="0.25" stroke-linecap="round" stroke-linejoin="round" x1="71.246" y1="34.04" x2="52.559" y2="48.183"/>
	
		<line fill="none" stroke="#00AEFF" stroke-width="0.25" stroke-linecap="round" stroke-linejoin="round" x1="70.112" y1="31.896" x2="51.268" y2="46.145"/>
	
		<line fill="none" stroke="#00AEFF" stroke-width="0.25" stroke-linecap="round" stroke-linejoin="round" x1="58.54" y1="45.391" x2="58.528" y2="45.37"/>
	
		<line fill="none" stroke="#00AEFF" stroke-width="0.25" stroke-linecap="round" stroke-linejoin="round" x1="58.54" y1="45.391" x2="59.457" y2="46.507"/>
	
		<line fill="none" stroke="#00AEFF" stroke-width="0.25" stroke-linecap="round" stroke-linejoin="round" x1="64.302" y1="44.648" x2="63.25" y2="45.444"/>
	
		<line fill="none" stroke="#00AEFF" stroke-width="0.25" stroke-linecap="round" stroke-linejoin="round" x1="63.25" y1="45.444" x2="61.38" y2="43.18"/>
	
		<line fill="none" stroke="#00AEFF" stroke-width="0.25" stroke-linecap="round" stroke-linejoin="round" x1="61.38" y1="43.18" x2="62.601" y2="42.256"/>
	
		<line fill="none" stroke="#00AEFF" stroke-width="0.25" stroke-linecap="round" stroke-linejoin="round" x1="72.073" y1="35.083" x2="76.364" y2="31.837"/>
	
		<line fill="none" stroke="#00AEFF" stroke-width="0.25" stroke-linecap="round" stroke-linejoin="round" x1="76.364" y1="31.837" x2="78.267" y2="34.056"/>
	
		<line fill="none" stroke="#00AEFF" stroke-width="0.25" stroke-linecap="round" stroke-linejoin="round" x1="39.229" y1="48.558" x2="87.767" y2="11.93"/>
	
		<line fill="none" stroke="#00AEFF" stroke-width="0.25" stroke-linecap="round" stroke-linejoin="round" x1="89.048" y1="23.833" x2="48.124" y2="54.835"/>
	
		<line fill="none" stroke="#00AEFF" stroke-width="0.25" stroke-linecap="round" stroke-linejoin="round" x1="61.26" y1="41.45" x2="65.212" y2="46.225"/>
	
		<line fill="none" stroke="#00AEFF" stroke-width="0.25" stroke-linecap="round" stroke-linejoin="round" x1="47.163" y1="52.117" x2="61.26" y2="41.45"/>
	
		<line fill="none" stroke="#00AEFF" stroke-width="0.25" stroke-linecap="round" stroke-linejoin="round" x1="59.664" y1="38.713" x2="61.26" y2="41.45"/>
	
		<line fill="none" stroke="#00AEFF" stroke-width="0.25" stroke-linecap="round" stroke-linejoin="round" x1="65.337" y1="37.81" x2="65.901" y2="38.485"/>
	
		<line fill="none" stroke="#00AEFF" stroke-width="0.25" stroke-linecap="round" stroke-linejoin="round" x1="62.886" y1="39.664" x2="65.337" y2="37.81"/>
	
		<line fill="none" stroke="#00AEFF" stroke-width="0.25" stroke-linecap="round" stroke-linejoin="round" x1="65.099" y1="37.382" x2="65.337" y2="37.81"/>
	
		<line fill="none" stroke="#00AEFF" stroke-width="0.25" stroke-linecap="round" stroke-linejoin="round" x1="61.808" y1="39.35" x2="67.761" y2="34.847"/>
	
		<line fill="none" stroke="#00AEFF" stroke-width="0.25" stroke-linecap="round" stroke-linejoin="round" x1="67.761" y1="34.847" x2="67.735" y2="34.805"/>
	
		<line fill="none" stroke="#00AEFF" stroke-width="0.25" stroke-linecap="round" stroke-linejoin="round" x1="67.761" y1="34.847" x2="69.455" y2="36.86"/>
	
		<line fill="none" stroke="#00AEFF" stroke-width="0.25" stroke-linecap="round" stroke-linejoin="round" x1="19.649" y1="99.07" x2="85.512" y2="48.844"/>
	
		<line fill="none" stroke="#00AEFF" stroke-width="0.25" stroke-linecap="round" stroke-linejoin="round" x1="83.312" y1="44.469" x2="85.512" y2="48.844"/>
	
		<line fill="none" stroke="#00AEFF" stroke-width="0.25" stroke-linecap="round" stroke-linejoin="round" x1="64.323" y1="44.688" x2="63.274" y2="45.485"/>
	
		<line fill="none" stroke="#00AEFF" stroke-width="0.25" stroke-linecap="round" stroke-linejoin="round" x1="63.274" y1="45.485" x2="63.25" y2="45.444"/>
	
		<line fill="none" stroke="#00AEFF" stroke-width="0.25" stroke-linecap="round" stroke-linejoin="round" x1="63.274" y1="45.485" x2="61.403" y2="43.221"/>
	
		<line fill="none" stroke="#00AEFF" stroke-width="0.25" stroke-linecap="round" stroke-linejoin="round" x1="61.403" y1="43.221" x2="61.38" y2="43.18"/>
	
		<line fill="none" stroke="#00AEFF" stroke-width="0.25" stroke-linecap="round" stroke-linejoin="round" x1="61.403" y1="43.221" x2="76.386" y2="31.879"/>
	
		<line fill="none" stroke="#00AEFF" stroke-width="0.25" stroke-linecap="round" stroke-linejoin="round" x1="76.386" y1="31.879" x2="76.364" y2="31.837"/>
	
		<line fill="none" stroke="#00AEFF" stroke-width="0.25" stroke-linecap="round" stroke-linejoin="round" x1="76.386" y1="31.879" x2="78.291" y2="34.103"/>
	
		<line fill="none" stroke="#00AEFF" stroke-width="0.25" stroke-linecap="round" stroke-linejoin="round" x1="67.446" y1="48.924" x2="73.231" y2="55.913"/>
	
		<line fill="none" stroke="#00AEFF" stroke-width="0.25" stroke-linecap="round" stroke-linejoin="round" x1="60.542" y1="54.167" x2="67.446" y2="48.924"/>
	
		<line fill="none" stroke="#00AEFF" stroke-width="0.25" stroke-linecap="round" stroke-linejoin="round" x1="65.901" y1="46.237" x2="67.446" y2="48.924"/>
	
		<line fill="none" stroke="#00AEFF" stroke-width="0.25" stroke-linecap="round" stroke-linejoin="round" x1="71.735" y1="53.28" x2="73.231" y2="55.913"/>
	
		<line fill="none" stroke="#00AEFF" stroke-width="0.25" stroke-linecap="round" stroke-linejoin="round" x1="73.231" y1="55.913" x2="58.918" y2="66.821"/>
	
		<line fill="none" stroke="#00AEFF" stroke-width="0.25" stroke-linecap="round" stroke-linejoin="round" x1="60.542" y1="54.167" x2="53.236" y2="59.714"/>
</g>
</svg>
