<?xml version="1.0" encoding="utf-8"?>
<!-- Generator: Adobe Illustrator 16.0.4, SVG Export Plug-In . SVG Version: 6.00 Build 0)  -->
<svg version="1.2" baseProfile="tiny" id="Layer_1" xmlns="http://www.w3.org/2000/svg" xmlns:xlink="http://www.w3.org/1999/xlink"
	 x="0px" y="0px" width="53px" height="53px" viewBox="0 0 53 53" overflow="scroll" xml:space="preserve">
<g>
	
		<line fill="none" stroke="#00AEFF" stroke-width="0.1" stroke-linecap="round" stroke-linejoin="round" x1="44.028" y1="35.147" x2="38.758" y2="29.724"/>
	
		<line fill="none" stroke="#00AEFF" stroke-width="0.1" stroke-linecap="round" stroke-linejoin="round" x1="46.038" y1="33.06" x2="46.054" y2="33.075"/>
	
		<line fill="none" stroke="#00AEFF" stroke-width="0.1" stroke-linecap="round" stroke-linejoin="round" x1="38.911" y1="18.563" x2="49.386" y2="29.304"/>
	
		<line fill="none" stroke="#00AEFF" stroke-width="0.1" stroke-linecap="round" stroke-linejoin="round" x1="49.386" y1="29.304" x2="44.101" y2="34.714"/>
	
		<line fill="none" stroke="#00AEFF" stroke-width="0.1" stroke-linecap="round" stroke-linejoin="round" x1="44.101" y1="34.714" x2="46.038" y2="33.06"/>
	
		<line fill="none" stroke="#00AEFF" stroke-width="0.1" stroke-linecap="round" stroke-linejoin="round" x1="49.548" y1="29.47" x2="46.038" y2="33.06"/>
	
		<line fill="none" stroke="#00AEFF" stroke-width="0.1" stroke-linecap="round" stroke-linejoin="round" x1="44.101" y1="34.714" x2="33.735" y2="24.048"/>
	
		<line fill="none" stroke="#00AEFF" stroke-width="0.1" stroke-linecap="round" stroke-linejoin="round" x1="33.735" y1="24.048" x2="38.911" y2="18.563"/>
	
		<line fill="none" stroke="#00AEFF" stroke-width="0.1" stroke-linecap="round" stroke-linejoin="round" x1="22.556" y1="15.125" x2="32.624" y2="25.494"/>
	
		<line fill="none" stroke="#00AEFF" stroke-width="0.1" stroke-linecap="round" stroke-linejoin="round" x1="31.735" y1="26.165" x2="42.06" y2="36.8"/>
	
		<line fill="none" stroke="#00AEFF" stroke-width="0.1" stroke-linecap="round" stroke-linejoin="round" x1="42.06" y1="36.8" x2="44.014" y2="35.132"/>
	
		<line fill="none" stroke="#00AEFF" stroke-width="0.1" stroke-linecap="round" stroke-linejoin="round" x1="33.792" y1="24.612" x2="38.758" y2="29.724"/>
	
		<line fill="none" stroke="#00AEFF" stroke-width="0.1" stroke-linecap="round" stroke-linejoin="round" x1="31.735" y1="26.165" x2="33.792" y2="24.612"/>
	
		<line fill="none" stroke="#00AEFF" stroke-width="0.1" stroke-linecap="round" stroke-linejoin="round" x1="42.06" y1="36.8" x2="38.448" y2="40.493"/>
	
		<line fill="none" stroke="#00AEFF" stroke-width="0.1" stroke-linecap="round" stroke-linejoin="round" x1="38.448" y1="40.493" x2="40.429" y2="38.794"/>
	
		<line fill="none" stroke="#00AEFF" stroke-width="0.1" stroke-linecap="round" stroke-linejoin="round" x1="44.014" y1="35.132" x2="40.429" y2="38.794"/>
	
		<line fill="none" stroke="#00AEFF" stroke-width="0.1" stroke-linecap="round" stroke-linejoin="round" x1="38.448" y1="40.493" x2="28.198" y2="29.909"/>
	
		<line fill="none" stroke="#00AEFF" stroke-width="0.1" stroke-linecap="round" stroke-linejoin="round" x1="28.198" y1="29.909" x2="31.735" y2="26.165"/>
	
		<line fill="none" stroke="#00AEFF" stroke-width="0.1" stroke-linecap="round" stroke-linejoin="round" x1="38.448" y1="40.493" x2="40.659" y2="42.775"/>
	
		<line fill="none" stroke="#00AEFF" stroke-width="0.1" stroke-linecap="round" stroke-linejoin="round" x1="40.659" y1="42.775" x2="44.321" y2="39.554"/>
	
		<line fill="none" stroke="#00AEFF" stroke-width="0.1" stroke-linecap="round" stroke-linejoin="round" x1="42.56" y1="37.736" x2="44.321" y2="39.554"/>
	
		<line fill="none" stroke="#00AEFF" stroke-width="0.1" stroke-linecap="round" stroke-linejoin="round" x1="44.321" y1="39.554" x2="40.817" y2="43.11"/>
	
		<line fill="none" stroke="#00AEFF" stroke-width="0.1" stroke-linecap="round" stroke-linejoin="round" x1="30.805" y1="27.149" x2="23.981" y2="20.115"/>
	
		<line fill="none" stroke="#00AEFF" stroke-width="0.1" stroke-linecap="round" stroke-linejoin="round" x1="22.521" y1="15.147" x2="32.593" y2="25.518"/>
	
		<line fill="none" stroke="#00AEFF" stroke-width="0.1" stroke-linecap="round" stroke-linejoin="round" x1="42.679" y1="37.618" x2="42.649" y2="37.644"/>
	
		<line fill="none" stroke="#00AEFF" stroke-width="0.1" stroke-linecap="round" stroke-linejoin="round" x1="42.132" y1="37.054" x2="42.679" y2="37.618"/>
	
		<line fill="none" stroke="#00AEFF" stroke-width="0.1" stroke-linecap="round" stroke-linejoin="round" x1="41.813" y1="38.497" x2="41.271" y2="37.935"/>
	
		<line fill="none" stroke="#00AEFF" stroke-width="0.1" stroke-linecap="round" stroke-linejoin="round" x1="42.649" y1="37.644" x2="41.813" y2="38.497"/>
	
		<line fill="none" stroke="#00AEFF" stroke-width="0.1" stroke-linecap="round" stroke-linejoin="round" x1="42.104" y1="37.082" x2="42.649" y2="37.644"/>
	
		<line fill="none" stroke="#00AEFF" stroke-width="0.1" stroke-linecap="round" stroke-linejoin="round" x1="29.049" y1="36.487" x2="25.81" y2="39.878"/>
	
		<line fill="none" stroke="#00AEFF" stroke-width="0.1" stroke-linecap="round" stroke-linejoin="round" x1="5.4" y1="12.028" x2="29.049" y2="36.487"/>
	
		<line fill="none" stroke="#00AEFF" stroke-width="0.1" stroke-linecap="round" stroke-linejoin="round" x1="25.365" y1="39.421" x2="29.049" y2="36.487"/>
	
		<line fill="none" stroke="#00AEFF" stroke-width="0.1" stroke-linecap="round" stroke-linejoin="round" x1="31.284" y1="31.2" x2="33.007" y2="29.392"/>
	
		<line fill="none" stroke="#00AEFF" stroke-width="0.1" stroke-linecap="round" stroke-linejoin="round" x1="30.805" y1="31.573" x2="32.53" y2="29.759"/>
	
		<line fill="none" stroke="#00AEFF" stroke-width="0.1" stroke-linecap="round" stroke-linejoin="round" x1="36.269" y1="36.345" x2="31.284" y2="31.2"/>
	
		<line fill="none" stroke="#00AEFF" stroke-width="0.1" stroke-linecap="round" stroke-linejoin="round" x1="30.805" y1="31.573" x2="31.284" y2="31.2"/>
	
		<line fill="none" stroke="#00AEFF" stroke-width="0.1" stroke-linecap="round" stroke-linejoin="round" x1="35.801" y1="36.731" x2="35.129" y2="36.037"/>
	
		<line fill="none" stroke="#00AEFF" stroke-width="0.1" stroke-linecap="round" stroke-linejoin="round" x1="38.008" y1="34.546" x2="36.269" y2="36.345"/>
	
		<line fill="none" stroke="#00AEFF" stroke-width="0.1" stroke-linecap="round" stroke-linejoin="round" x1="35.801" y1="36.731" x2="36.269" y2="36.345"/>
	
		<line fill="none" stroke="#00AEFF" stroke-width="0.1" stroke-linecap="round" stroke-linejoin="round" x1="37.543" y1="34.929" x2="35.801" y2="36.731"/>
	
		<line fill="none" stroke="#00AEFF" stroke-width="0.1" stroke-linecap="round" stroke-linejoin="round" x1="32.53" y1="29.759" x2="33.007" y2="29.392"/>
	
		<line fill="none" stroke="#00AEFF" stroke-width="0.1" stroke-linecap="round" stroke-linejoin="round" x1="33.007" y1="29.392" x2="38.008" y2="34.546"/>
	
		<line fill="none" stroke="#00AEFF" stroke-width="0.1" stroke-linecap="round" stroke-linejoin="round" x1="37.543" y1="34.929" x2="38.008" y2="34.546"/>
	
		<line fill="none" stroke="#00AEFF" stroke-width="0.1" stroke-linecap="round" stroke-linejoin="round" x1="32.53" y1="29.759" x2="37.543" y2="34.929"/>
	
		<line fill="none" stroke="#00AEFF" stroke-width="0.1" stroke-linecap="round" stroke-linejoin="round" x1="40.202" y1="37.413" x2="29.153" y2="26.021"/>
	
		<line fill="none" stroke="#00AEFF" stroke-width="0.1" stroke-linecap="round" stroke-linejoin="round" x1="41.08" y1="36.669" x2="30.079" y2="25.333"/>
	
		<line fill="none" stroke="#00AEFF" stroke-width="0.1" stroke-linecap="round" stroke-linejoin="round" x1="38.907" y1="38.742" x2="40.202" y2="37.413"/>
	
		<line fill="none" stroke="#00AEFF" stroke-width="0.1" stroke-linecap="round" stroke-linejoin="round" x1="41.08" y1="36.669" x2="40.202" y2="37.413"/>
	
		<line fill="none" stroke="#00AEFF" stroke-width="0.1" stroke-linecap="round" stroke-linejoin="round" x1="39.786" y1="37.993" x2="41.08" y2="36.669"/>
	
		<line fill="none" stroke="#00AEFF" stroke-width="0.1" stroke-linecap="round" stroke-linejoin="round" x1="27.885" y1="27.37" x2="38.907" y2="38.742"/>
	
		<line fill="none" stroke="#00AEFF" stroke-width="0.1" stroke-linecap="round" stroke-linejoin="round" x1="39.786" y1="37.993" x2="38.907" y2="38.742"/>
	
		<line fill="none" stroke="#00AEFF" stroke-width="0.1" stroke-linecap="round" stroke-linejoin="round" x1="36.668" y1="34.776" x2="39.786" y2="37.993"/>
	
		<line fill="none" stroke="#00AEFF" stroke-width="0.1" stroke-linecap="round" stroke-linejoin="round" x1="39.042" y1="39.116" x2="41.874" y2="42.038"/>
	
		<line fill="none" stroke="#00AEFF" stroke-width="0.1" stroke-linecap="round" stroke-linejoin="round" x1="37.185" y1="41.019" x2="39.042" y2="39.116"/>
	
		<line fill="none" stroke="#00AEFF" stroke-width="0.1" stroke-linecap="round" stroke-linejoin="round" x1="34.569" y1="29.322" x2="42.104" y2="37.082"/>
	
		<line fill="none" stroke="#00AEFF" stroke-width="0.1" stroke-linecap="round" stroke-linejoin="round" x1="41.271" y1="37.935" x2="33.75" y2="30.183"/>
	
		<line fill="none" stroke="#00AEFF" stroke-width="0.1" stroke-linecap="round" stroke-linejoin="round" x1="33.75" y1="30.183" x2="34.569" y2="29.322"/>
	
		<line fill="none" stroke="#00AEFF" stroke-width="0.1" stroke-linecap="round" stroke-linejoin="round" x1="34.569" y1="29.322" x2="34.603" y2="29.298"/>
	
		<line fill="none" stroke="#00AEFF" stroke-width="0.1" stroke-linecap="round" stroke-linejoin="round" x1="34.603" y1="29.298" x2="42.132" y2="37.054"/>
	
		<line fill="none" stroke="#00AEFF" stroke-width="0.1" stroke-linecap="round" stroke-linejoin="round" x1="41.843" y1="38.468" x2="33.78" y2="30.159"/>
	
		<line fill="none" stroke="#00AEFF" stroke-width="0.1" stroke-linecap="round" stroke-linejoin="round" x1="33.632" y1="37.919" x2="20.256" y2="24.099"/>
	
		<line fill="none" stroke="#00AEFF" stroke-width="0.1" stroke-linecap="round" stroke-linejoin="round" x1="36.668" y1="34.776" x2="33.632" y2="37.919"/>
	
		<line fill="none" stroke="#00AEFF" stroke-width="0.1" stroke-linecap="round" stroke-linejoin="round" x1="32.077" y1="39.2" x2="33.632" y2="37.919"/>
	
		<line fill="none" stroke="#00AEFF" stroke-width="0.1" stroke-linecap="round" stroke-linejoin="round" x1="35.129" y1="36.037" x2="32.077" y2="39.2"/>
	
		<line fill="none" stroke="#00AEFF" stroke-width="0.1" stroke-linecap="round" stroke-linejoin="round" x1="23.211" y1="20.898" x2="36.668" y2="34.776"/>
	
		<line fill="none" stroke="#00AEFF" stroke-width="0.1" stroke-linecap="round" stroke-linejoin="round" x1="35.129" y1="36.037" x2="36.668" y2="34.776"/>
	
		<line fill="none" stroke="#00AEFF" stroke-width="0.1" stroke-linecap="round" stroke-linejoin="round" x1="21.569" y1="22.042" x2="35.129" y2="36.037"/>
	
		<line fill="none" stroke="#00AEFF" stroke-width="0.1" stroke-linecap="round" stroke-linejoin="round" x1="33.78" y1="30.159" x2="33.765" y2="30.171"/>
	
		<line fill="none" stroke="#00AEFF" stroke-width="0.1" stroke-linecap="round" stroke-linejoin="round" x1="33.78" y1="30.159" x2="34.603" y2="29.298"/>
	
		<line fill="none" stroke="#00AEFF" stroke-width="0.1" stroke-linecap="round" stroke-linejoin="round" x1="32.593" y1="25.518" x2="33.351" y2="26.297"/>
	
		<line fill="none" stroke="#00AEFF" stroke-width="0.1" stroke-linecap="round" stroke-linejoin="round" x1="33.351" y1="26.297" x2="31.687" y2="28.056"/>
	
		<line fill="none" stroke="#00AEFF" stroke-width="0.1" stroke-linecap="round" stroke-linejoin="round" x1="31.687" y1="28.056" x2="30.805" y2="27.149"/>
	
		<line fill="none" stroke="#00AEFF" stroke-width="0.1" stroke-linecap="round" stroke-linejoin="round" x1="38.313" y1="45.649" x2="3.452" y2="9.596"/>
	
		<line fill="none" stroke="#00AEFF" stroke-width="0.1" stroke-linecap="round" stroke-linejoin="round" x1="13.066" y1="7.351" x2="42.56" y2="37.736"/>
	
		<line fill="none" stroke="#00AEFF" stroke-width="0.1" stroke-linecap="round" stroke-linejoin="round" x1="30.28" y1="28.329" x2="33.792" y2="24.612"/>
	
		<line fill="none" stroke="#00AEFF" stroke-width="0.1" stroke-linecap="round" stroke-linejoin="round" x1="40.429" y1="38.794" x2="30.28" y2="28.329"/>
	
		<line fill="none" stroke="#00AEFF" stroke-width="0.1" stroke-linecap="round" stroke-linejoin="round" x1="28.198" y1="29.909" x2="30.28" y2="28.329"/>
	
		<line fill="none" stroke="#00AEFF" stroke-width="0.1" stroke-linecap="round" stroke-linejoin="round" x1="32.624" y1="25.494" x2="33.382" y2="26.274"/>
	
		<line fill="none" stroke="#00AEFF" stroke-width="0.1" stroke-linecap="round" stroke-linejoin="round" x1="33.382" y1="26.274" x2="33.351" y2="26.297"/>
	
		<line fill="none" stroke="#00AEFF" stroke-width="0.1" stroke-linecap="round" stroke-linejoin="round" x1="33.382" y1="26.274" x2="31.718" y2="28.032"/>
	
		<line fill="none" stroke="#00AEFF" stroke-width="0.1" stroke-linecap="round" stroke-linejoin="round" x1="31.718" y1="28.032" x2="31.687" y2="28.056"/>
	
		<line fill="none" stroke="#00AEFF" stroke-width="0.1" stroke-linecap="round" stroke-linejoin="round" x1="31.718" y1="28.032" x2="20.925" y2="16.909"/>
	
		<line fill="none" stroke="#00AEFF" stroke-width="0.1" stroke-linecap="round" stroke-linejoin="round" x1="40.762" y1="27.638" x2="35.776" y2="22.512"/>
	
		<line fill="none" stroke="#00AEFF" stroke-width="0.1" stroke-linecap="round" stroke-linejoin="round" x1="33.735" y1="24.048" x2="35.776" y2="22.512"/>
	
		<line fill="none" stroke="#00AEFF" stroke-width="0.1" stroke-linecap="round" stroke-linejoin="round" x1="40.762" y1="27.638" x2="46.038" y2="33.06"/>
</g>
</svg>
