<?xml version="1.0" encoding="utf-8"?>
<!-- Generator: Adobe Illustrator 16.0.4, SVG Export Plug-In . SVG Version: 6.00 Build 0)  -->
<svg version="1.2" baseProfile="tiny" id="Layer_1" xmlns="http://www.w3.org/2000/svg" xmlns:xlink="http://www.w3.org/1999/xlink"
	 x="0px" y="0px" width="111px" height="111px" viewBox="0 0 111 111" xml:space="preserve">
<g>
	
		<line fill="none" stroke="#FFE000" stroke-width="0.25" stroke-linecap="round" stroke-linejoin="round" x1="53.446" y1="60.285" x2="53.44" y2="60.307"/>
	
		<line fill="none" stroke="#FFE000" stroke-width="0.25" stroke-linecap="round" stroke-linejoin="round" x1="49.635" y1="62.344" x2="50.482" y2="57.621"/>
	<polyline fill="none" stroke="#FFE000" stroke-width="0.25" stroke-linecap="round" stroke-linejoin="round" points="
		63.944,38.708 63.946,38.698 66.215,40.666 64.444,49.623 64.439,49.619 	"/>
	
		<line fill="none" stroke="#FFE000" stroke-width="0.25" stroke-linecap="round" stroke-linejoin="round" x1="37.744" y1="53.617" x2="45.255" y2="60.414"/>
	<polyline fill="none" stroke="#FFE000" stroke-width="0.25" stroke-linecap="round" stroke-linejoin="round" points="
		49.465,47.113 50.34,47.889 50.042,49.579 50.036,49.574 	"/>
	
		<line fill="none" stroke="#FFE000" stroke-width="0.25" stroke-linecap="round" stroke-linejoin="round" x1="45.255" y1="60.414" x2="50.479" y2="57.646"/>
	
		<line fill="none" stroke="#FFE000" stroke-width="0.25" stroke-linecap="round" stroke-linejoin="round" x1="46.33" y1="53.923" x2="50.479" y2="57.646"/>
	
		<line fill="none" stroke="#FFE000" stroke-width="0.25" stroke-linecap="round" stroke-linejoin="round" x1="45.255" y1="60.414" x2="42.872" y2="74.265"/>
	<polyline fill="none" stroke="#FFE000" stroke-width="0.25" stroke-linecap="round" stroke-linejoin="round" points="
		66.888,48.938 69.127,50.898 65.42,68.986 65.416,68.98 	"/>
	
		<line fill="none" stroke="#FFE000" stroke-width="0.25" stroke-linecap="round" stroke-linejoin="round" x1="64.914" y1="47.214" x2="65.713" y2="47.912"/>
	<polyline fill="none" stroke="#FFE000" stroke-width="0.25" stroke-linecap="round" stroke-linejoin="round" points="
		66.824,62.104 73.256,67.813 70.381,81.106 	"/>
	
		<line fill="none" stroke="#FFE000" stroke-width="0.25" stroke-linecap="round" stroke-linejoin="round" x1="45.771" y1="76.933" x2="48.226" y2="63.099"/>
	
		<line fill="none" stroke="#FFE000" stroke-width="0.25" stroke-linecap="round" stroke-linejoin="round" x1="48.226" y1="63.099" x2="53.443" y2="60.307"/>
	
		<line fill="none" stroke="#FFE000" stroke-width="0.25" stroke-linecap="round" stroke-linejoin="round" x1="48.226" y1="63.099" x2="53.566" y2="67.933"/>
	
		<line fill="none" stroke="#FFE000" stroke-width="0.25" stroke-linecap="round" stroke-linejoin="round" x1="53.443" y1="60.307" x2="56.892" y2="63.399"/>
	
		<line fill="none" stroke="#FFE000" stroke-width="0.25" stroke-linecap="round" stroke-linejoin="round" x1="53.566" y1="67.933" x2="50.99" y2="81.74"/>
	
		<line fill="none" stroke="#FFE000" stroke-width="0.25" stroke-linecap="round" stroke-linejoin="round" x1="53.566" y1="67.933" x2="54.134" y2="64.891"/>
	
		<line fill="none" stroke="#FFE000" stroke-width="0.25" stroke-linecap="round" stroke-linejoin="round" x1="54.134" y1="64.891" x2="57.193" y2="63.238"/>
	
		<line fill="none" stroke="#FFE000" stroke-width="0.25" stroke-linecap="round" stroke-linejoin="round" x1="54.134" y1="64.891" x2="63.435" y2="73.273"/>
	
		<line fill="none" stroke="#FFE000" stroke-width="0.25" stroke-linecap="round" stroke-linejoin="round" x1="66.823" y1="62.113" x2="73.252" y2="67.818"/>
	
		<line fill="none" stroke="#FFE000" stroke-width="0.25" stroke-linecap="round" stroke-linejoin="round" x1="45.272" y1="45.614" x2="43.633" y2="55.334"/>
	
		<line fill="none" stroke="#FFE000" stroke-width="0.25" stroke-linecap="round" stroke-linejoin="round" x1="43.633" y1="55.334" x2="48.471" y2="52.802"/>
	
		<line fill="none" stroke="#FFE000" stroke-width="0.25" stroke-linecap="round" stroke-linejoin="round" x1="50.168" y1="43.098" x2="48.471" y2="52.802"/>
	
		<line fill="none" stroke="#FFE000" stroke-width="0.25" stroke-linecap="round" stroke-linejoin="round" x1="43.633" y1="55.334" x2="38.244" y2="50.477"/>
	
		<line fill="none" stroke="#FFE000" stroke-width="0.25" stroke-linecap="round" stroke-linejoin="round" x1="58.465" y1="53.82" x2="58.914" y2="54.217"/>
	
		<line fill="none" stroke="#FFE000" stroke-width="0.25" stroke-linecap="round" stroke-linejoin="round" x1="58.465" y1="53.82" x2="58.385" y2="53.863"/>
	
		<line fill="none" stroke="#FFE000" stroke-width="0.25" stroke-linecap="round" stroke-linejoin="round" x1="48.933" y1="50.158" x2="50.033" y2="49.582"/>
	
		<line fill="none" stroke="#FFE000" stroke-width="0.25" stroke-linecap="round" stroke-linejoin="round" x1="50.334" y1="47.892" x2="50.033" y2="49.582"/>
	
		<line fill="none" stroke="#FFE000" stroke-width="0.25" stroke-linecap="round" stroke-linejoin="round" x1="56.475" y1="67" x2="59.937" y2="48.855"/>
	
		<line fill="none" stroke="#FFE000" stroke-width="0.25" stroke-linecap="round" stroke-linejoin="round" x1="59.937" y1="48.855" x2="64.851" y2="53.184"/>
	
		<line fill="none" stroke="#FFE000" stroke-width="0.25" stroke-linecap="round" stroke-linejoin="round" x1="64.851" y1="53.184" x2="69.121" y2="50.904"/>
	
		<line fill="none" stroke="#FFE000" stroke-width="0.25" stroke-linecap="round" stroke-linejoin="round" x1="64.912" y1="47.223" x2="69.121" y2="50.904"/>
	
		<line fill="none" stroke="#FFE000" stroke-width="0.25" stroke-linecap="round" stroke-linejoin="round" x1="64.851" y1="53.184" x2="61.24" y2="71.296"/>
	
		<line fill="none" stroke="#FFE000" stroke-width="0.25" stroke-linecap="round" stroke-linejoin="round" x1="61.24" y1="71.296" x2="65.414" y2="68.992"/>
	
		<line fill="none" stroke="#FFE000" stroke-width="0.25" stroke-linecap="round" stroke-linejoin="round" x1="69.121" y1="50.904" x2="65.414" y2="68.992"/>
	
		<line fill="none" stroke="#FFE000" stroke-width="0.25" stroke-linecap="round" stroke-linejoin="round" x1="65.711" y1="47.921" x2="66.062" y2="46.163"/>
	
		<line fill="none" stroke="#FFE000" stroke-width="0.25" stroke-linecap="round" stroke-linejoin="round" x1="66.062" y1="46.163" x2="66.98" y2="45.68"/>
	
		<line fill="none" stroke="#FFE000" stroke-width="0.25" stroke-linecap="round" stroke-linejoin="round" x1="66.062" y1="46.163" x2="67.238" y2="47.188"/>
	
		<line fill="none" stroke="#FFE000" stroke-width="0.25" stroke-linecap="round" stroke-linejoin="round" x1="67.238" y1="47.188" x2="66.885" y2="48.948"/>
	
		<line fill="none" stroke="#FFE000" stroke-width="0.25" stroke-linecap="round" stroke-linejoin="round" x1="68.155" y1="46.705" x2="67.578" y2="49.556"/>
	
		<line fill="none" stroke="#FFE000" stroke-width="0.25" stroke-linecap="round" stroke-linejoin="round" x1="59.937" y1="48.855" x2="61.649" y2="39.887"/>
	
		<line fill="none" stroke="#FFE000" stroke-width="0.25" stroke-linecap="round" stroke-linejoin="round" x1="63.918" y1="41.861" x2="62.172" y2="50.826"/>
	
		<line fill="none" stroke="#FFE000" stroke-width="0.25" stroke-linecap="round" stroke-linejoin="round" x1="62.172" y1="50.826" x2="64.438" y2="49.626"/>
	
		<line fill="none" stroke="#FFE000" stroke-width="0.25" stroke-linecap="round" stroke-linejoin="round" x1="66.207" y1="40.67" x2="64.438" y2="49.626"/>
	
		<line fill="none" stroke="#FFE000" stroke-width="0.25" stroke-linecap="round" stroke-linejoin="round" x1="71.406" y1="66.182" x2="71.504" y2="65.726"/>
	
		<line fill="none" stroke="#FFE000" stroke-width="0.25" stroke-linecap="round" stroke-linejoin="round" x1="71.504" y1="65.726" x2="71.129" y2="65.934"/>
	
		<line fill="none" stroke="#FFE000" stroke-width="0.25" stroke-linecap="round" stroke-linejoin="round" x1="71.504" y1="65.726" x2="70.965" y2="65.248"/>
	
		<line fill="none" stroke="#FFE000" stroke-width="0.25" stroke-linecap="round" stroke-linejoin="round" x1="68.526" y1="60.474" x2="68.672" y2="59.77"/>
	
		<line fill="none" stroke="#FFE000" stroke-width="0.25" stroke-linecap="round" stroke-linejoin="round" x1="68.672" y1="59.77" x2="69.283" y2="59.437"/>
	
		<line fill="none" stroke="#FFE000" stroke-width="0.25" stroke-linecap="round" stroke-linejoin="round" x1="68.672" y1="59.77" x2="71.582" y2="62.34"/>
	
		<line fill="none" stroke="#FFE000" stroke-width="0.25" stroke-linecap="round" stroke-linejoin="round" x1="71.582" y1="62.34" x2="72.193" y2="62.006"/>
	
		<line fill="none" stroke="#FFE000" stroke-width="0.25" stroke-linecap="round" stroke-linejoin="round" x1="69.283" y1="59.437" x2="72.193" y2="62.006"/>
	
		<line fill="none" stroke="#FFE000" stroke-width="0.25" stroke-linecap="round" stroke-linejoin="round" x1="71.582" y1="62.34" x2="71.433" y2="63.043"/>
	
		<line fill="none" stroke="#FFE000" stroke-width="0.25" stroke-linecap="round" stroke-linejoin="round" x1="71.433" y1="63.043" x2="72.043" y2="62.709"/>
	
		<line fill="none" stroke="#FFE000" stroke-width="0.25" stroke-linecap="round" stroke-linejoin="round" x1="72.193" y1="62.006" x2="72.043" y2="62.709"/>
	
		<line fill="none" stroke="#FFE000" stroke-width="0.25" stroke-linecap="round" stroke-linejoin="round" x1="71.433" y1="63.043" x2="68.526" y2="60.474"/>
	
		<line fill="none" stroke="#FFE000" stroke-width="0.25" stroke-linecap="round" stroke-linejoin="round" x1="67.975" y1="63.135" x2="68.526" y2="60.474"/>
	
		<line fill="none" stroke="#FFE000" stroke-width="0.25" stroke-linecap="round" stroke-linejoin="round" x1="71.433" y1="63.043" x2="70.869" y2="65.703"/>
	
		<line fill="none" stroke="#FFE000" stroke-width="0.25" stroke-linecap="round" stroke-linejoin="round" x1="57.883" y1="56.494" x2="58.385" y2="53.863"/>
	
		<line fill="none" stroke="#FFE000" stroke-width="0.25" stroke-linecap="round" stroke-linejoin="round" x1="58.385" y1="53.863" x2="58.896" y2="54.315"/>
	
		<line fill="none" stroke="#FFE000" stroke-width="0.25" stroke-linecap="round" stroke-linejoin="round" x1="58.393" y1="56.949" x2="57.883" y2="56.494"/>
	
		<line fill="none" stroke="#FFE000" stroke-width="0.25" stroke-linecap="round" stroke-linejoin="round" x1="60.194" y1="54.08" x2="59.545" y2="53.505"/>
	
		<line fill="none" stroke="#FFE000" stroke-width="0.25" stroke-linecap="round" stroke-linejoin="round" x1="60.703" y1="51.431" x2="60.194" y2="54.08"/>
	
		<line fill="none" stroke="#FFE000" stroke-width="0.25" stroke-linecap="round" stroke-linejoin="round" x1="60.053" y1="50.854" x2="60.703" y2="51.431"/>
	
		<line fill="none" stroke="#FFE000" stroke-width="0.25" stroke-linecap="round" stroke-linejoin="round" x1="59.545" y1="53.505" x2="60.053" y2="50.854"/>
	
		<line fill="none" stroke="#FFE000" stroke-width="0.25" stroke-linecap="round" stroke-linejoin="round" x1="58.53" y1="57.07" x2="58.393" y2="56.949"/>
	
		<line fill="none" stroke="#FFE000" stroke-width="0.25" stroke-linecap="round" stroke-linejoin="round" x1="59.032" y1="54.438" x2="58.53" y2="57.07"/>
	
		<line fill="none" stroke="#FFE000" stroke-width="0.25" stroke-linecap="round" stroke-linejoin="round" x1="58.896" y1="54.315" x2="59.032" y2="54.438"/>
	
		<line fill="none" stroke="#FFE000" stroke-width="0.25" stroke-linecap="round" stroke-linejoin="round" x1="61.949" y1="51.37" x2="61.301" y2="50.797"/>
	
		<line fill="none" stroke="#FFE000" stroke-width="0.25" stroke-linecap="round" stroke-linejoin="round" x1="62.775" y1="47.129" x2="61.949" y2="51.37"/>
	
		<line fill="none" stroke="#FFE000" stroke-width="0.25" stroke-linecap="round" stroke-linejoin="round" x1="62.121" y1="46.555" x2="62.775" y2="47.129"/>
	
		<line fill="none" stroke="#FFE000" stroke-width="0.25" stroke-linecap="round" stroke-linejoin="round" x1="61.301" y1="50.797" x2="62.121" y2="46.555"/>
	
		<line fill="none" stroke="#FFE000" stroke-width="0.25" stroke-linecap="round" stroke-linejoin="round" x1="59.234" y1="74.137" x2="58" y2="73.018"/>
	
		<line fill="none" stroke="#FFE000" stroke-width="0.25" stroke-linecap="round" stroke-linejoin="round" x1="61.412" y1="63.082" x2="59.234" y2="74.137"/>
	
		<line fill="none" stroke="#FFE000" stroke-width="0.25" stroke-linecap="round" stroke-linejoin="round" x1="61.412" y1="63.082" x2="61.336" y2="63.125"/>
	
		<line fill="none" stroke="#FFE000" stroke-width="0.25" stroke-linecap="round" stroke-linejoin="round" x1="60.153" y1="61.957" x2="61.412" y2="63.082"/>
	
		<line fill="none" stroke="#FFE000" stroke-width="0.25" stroke-linecap="round" stroke-linejoin="round" x1="60.153" y1="61.957" x2="60.074" y2="62.002"/>
	
		<line fill="none" stroke="#FFE000" stroke-width="0.25" stroke-linecap="round" stroke-linejoin="round" x1="58" y1="73.018" x2="60.153" y2="61.957"/>
	
		<line fill="none" stroke="#FFE000" stroke-width="0.25" stroke-linecap="round" stroke-linejoin="round" x1="57.92" y1="73.061" x2="58" y2="73.018"/>
	
		<line fill="none" stroke="#FFE000" stroke-width="0.25" stroke-linecap="round" stroke-linejoin="round" x1="59.156" y1="74.181" x2="57.92" y2="73.061"/>
	
		<line fill="none" stroke="#FFE000" stroke-width="0.25" stroke-linecap="round" stroke-linejoin="round" x1="61.336" y1="63.125" x2="59.156" y2="74.181"/>
	
		<line fill="none" stroke="#FFE000" stroke-width="0.25" stroke-linecap="round" stroke-linejoin="round" x1="60.074" y1="62.002" x2="61.336" y2="63.125"/>
	
		<line fill="none" stroke="#FFE000" stroke-width="0.25" stroke-linecap="round" stroke-linejoin="round" x1="57.92" y1="73.061" x2="60.074" y2="62.002"/>
	
		<line fill="none" stroke="#FFE000" stroke-width="0.25" stroke-linecap="round" stroke-linejoin="round" x1="70.08" y1="69.422" x2="67.207" y2="66.858"/>
	
		<line fill="none" stroke="#FFE000" stroke-width="0.25" stroke-linecap="round" stroke-linejoin="round" x1="70.869" y1="65.703" x2="70.08" y2="69.422"/>
	
		<line fill="none" stroke="#FFE000" stroke-width="0.25" stroke-linecap="round" stroke-linejoin="round" x1="67.207" y1="66.858" x2="67.975" y2="63.135"/>
	
		<line fill="none" stroke="#FFE000" stroke-width="0.25" stroke-linecap="round" stroke-linejoin="round" x1="65.342" y1="68.297" x2="68.014" y2="70.686"/>
	
		<line fill="none" stroke="#FFE000" stroke-width="0.25" stroke-linecap="round" stroke-linejoin="round" x1="64.135" y1="68.963" x2="66.807" y2="71.357"/>
	
		<line fill="none" stroke="#FFE000" stroke-width="0.25" stroke-linecap="round" stroke-linejoin="round" x1="63.943" y1="75.141" x2="65.342" y2="68.297"/>
	
		<line fill="none" stroke="#FFE000" stroke-width="0.25" stroke-linecap="round" stroke-linejoin="round" x1="64.135" y1="68.963" x2="65.342" y2="68.297"/>
	
		<line fill="none" stroke="#FFE000" stroke-width="0.25" stroke-linecap="round" stroke-linejoin="round" x1="62.746" y1="75.812" x2="64.135" y2="68.963"/>
	
		<line fill="none" stroke="#FFE000" stroke-width="0.25" stroke-linecap="round" stroke-linejoin="round" x1="72.043" y1="62.709" x2="69.137" y2="60.142"/>
	
		<line fill="none" stroke="#FFE000" stroke-width="0.25" stroke-linecap="round" stroke-linejoin="round" x1="68.526" y1="60.474" x2="69.137" y2="60.142"/>
	
		<line fill="none" stroke="#FFE000" stroke-width="0.25" stroke-linecap="round" stroke-linejoin="round" x1="69.137" y1="60.142" x2="69.283" y2="59.437"/>
	
		<line fill="none" stroke="#FFE000" stroke-width="0.25" stroke-linecap="round" stroke-linejoin="round" x1="67.188" y1="65.23" x2="64.068" y2="80.346"/>
	
		<line fill="none" stroke="#FFE000" stroke-width="0.25" stroke-linecap="round" stroke-linejoin="round" x1="69.508" y1="63.957" x2="66.344" y2="79.061"/>
	
		<line fill="none" stroke="#FFE000" stroke-width="0.25" stroke-linecap="round" stroke-linejoin="round" x1="69.186" y1="67.006" x2="67.188" y2="65.23"/>
	
		<line fill="none" stroke="#FFE000" stroke-width="0.25" stroke-linecap="round" stroke-linejoin="round" x1="69.508" y1="63.957" x2="67.188" y2="65.23"/>
	
		<line fill="none" stroke="#FFE000" stroke-width="0.25" stroke-linecap="round" stroke-linejoin="round" x1="70.965" y1="65.248" x2="69.508" y2="63.957"/>
	
		<line fill="none" stroke="#FFE000" stroke-width="0.25" stroke-linecap="round" stroke-linejoin="round" x1="66.014" y1="82.111" x2="69.186" y2="67.006"/>
	
		<line fill="none" stroke="#FFE000" stroke-width="0.25" stroke-linecap="round" stroke-linejoin="round" x1="71.129" y1="65.934" x2="69.186" y2="67.006"/>
	
		<line fill="none" stroke="#FFE000" stroke-width="0.25" stroke-linecap="round" stroke-linejoin="round" x1="70.578" y1="70.076" x2="71.406" y2="66.182"/>
	
		<line fill="none" stroke="#FFE000" stroke-width="0.25" stroke-linecap="round" stroke-linejoin="round" x1="64.438" y1="49.626" x2="62.201" y2="47.665"/>
	
		<line fill="none" stroke="#FFE000" stroke-width="0.25" stroke-linecap="round" stroke-linejoin="round" x1="62.201" y1="47.665" x2="63.937" y2="38.702"/>
	
		<line fill="none" stroke="#FFE000" stroke-width="0.25" stroke-linecap="round" stroke-linejoin="round" x1="66.599" y1="54.403" x2="65.438" y2="53.381"/>
	
		<line fill="none" stroke="#FFE000" stroke-width="0.25" stroke-linecap="round" stroke-linejoin="round" x1="65.69" y1="54.89" x2="64.529" y2="53.868"/>
	
		<line fill="none" stroke="#FFE000" stroke-width="0.25" stroke-linecap="round" stroke-linejoin="round" x1="67.578" y1="49.556" x2="66.599" y2="54.403"/>
	
		<line fill="none" stroke="#FFE000" stroke-width="0.25" stroke-linecap="round" stroke-linejoin="round" x1="65.69" y1="54.89" x2="66.599" y2="54.403"/>
	
		<line fill="none" stroke="#FFE000" stroke-width="0.25" stroke-linecap="round" stroke-linejoin="round" x1="66.885" y1="48.948" x2="65.69" y2="54.89"/>
	
		<line fill="none" stroke="#FFE000" stroke-width="0.25" stroke-linecap="round" stroke-linejoin="round" x1="64.529" y1="53.868" x2="65.438" y2="53.381"/>
	
		<line fill="none" stroke="#FFE000" stroke-width="0.25" stroke-linecap="round" stroke-linejoin="round" x1="65.438" y1="53.381" x2="66.98" y2="45.68"/>
	
		<line fill="none" stroke="#FFE000" stroke-width="0.25" stroke-linecap="round" stroke-linejoin="round" x1="64.529" y1="53.868" x2="65.711" y2="47.921"/>
	
		<line fill="none" stroke="#FFE000" stroke-width="0.25" stroke-linecap="round" stroke-linejoin="round" x1="65.414" y1="68.992" x2="60.652" y2="64.725"/>
	
		<line fill="none" stroke="#FFE000" stroke-width="0.25" stroke-linecap="round" stroke-linejoin="round" x1="64.209" y1="46.608" x2="64.912" y2="47.223"/>
	
		<line fill="none" stroke="#FFE000" stroke-width="0.25" stroke-linecap="round" stroke-linejoin="round" x1="56.475" y1="67" x2="60.652" y2="64.725"/>
	
		<line fill="none" stroke="#FFE000" stroke-width="0.25" stroke-linecap="round" stroke-linejoin="round" x1="60.652" y1="64.725" x2="64.209" y2="46.608"/>
	
		<line fill="none" stroke="#FFE000" stroke-width="0.25" stroke-linecap="round" stroke-linejoin="round" x1="59.937" y1="48.855" x2="64.209" y2="46.608"/>
	
		<line fill="none" stroke="#FFE000" stroke-width="0.25" stroke-linecap="round" stroke-linejoin="round" x1="59.545" y1="53.505" x2="59.627" y2="53.462"/>
	
		<line fill="none" stroke="#FFE000" stroke-width="0.25" stroke-linecap="round" stroke-linejoin="round" x1="59.627" y1="53.462" x2="60.133" y2="50.813"/>
	
		<line fill="none" stroke="#FFE000" stroke-width="0.25" stroke-linecap="round" stroke-linejoin="round" x1="60.133" y1="50.813" x2="60.053" y2="50.854"/>
	
		<line fill="none" stroke="#FFE000" stroke-width="0.25" stroke-linecap="round" stroke-linejoin="round" x1="60.133" y1="50.813" x2="60.787" y2="51.387"/>
	
		<line fill="none" stroke="#FFE000" stroke-width="0.25" stroke-linecap="round" stroke-linejoin="round" x1="60.787" y1="51.387" x2="60.703" y2="51.431"/>
	
		<line fill="none" stroke="#FFE000" stroke-width="0.25" stroke-linecap="round" stroke-linejoin="round" x1="60.787" y1="51.387" x2="60.276" y2="54.036"/>
	
		<line fill="none" stroke="#FFE000" stroke-width="0.25" stroke-linecap="round" stroke-linejoin="round" x1="60.276" y1="54.036" x2="60.194" y2="54.08"/>
	
		<line fill="none" stroke="#FFE000" stroke-width="0.25" stroke-linecap="round" stroke-linejoin="round" x1="50.033" y1="49.582" x2="45.404" y2="45.463"/>
	
		<line fill="none" stroke="#FFE000" stroke-width="0.25" stroke-linecap="round" stroke-linejoin="round" x1="47.954" y1="50.668" x2="43.321" y2="46.533"/>
	
		<line fill="none" stroke="#FFE000" stroke-width="0.25" stroke-linecap="round" stroke-linejoin="round" x1="60.276" y1="54.036" x2="59.627" y2="53.462"/>
	
		<line fill="none" stroke="#FFE000" stroke-width="0.25" stroke-linecap="round" stroke-linejoin="round" x1="57.883" y1="56.494" x2="57.967" y2="56.451"/>
	
		<line fill="none" stroke="#FFE000" stroke-width="0.25" stroke-linecap="round" stroke-linejoin="round" x1="47.954" y1="50.668" x2="48.933" y2="50.158"/>
	
		<line fill="none" stroke="#FFE000" stroke-width="0.25" stroke-linecap="round" stroke-linejoin="round" x1="48.246" y1="48.976" x2="47.954" y2="50.668"/>
	
		<line fill="none" stroke="#FFE000" stroke-width="0.25" stroke-linecap="round" stroke-linejoin="round" x1="57.967" y1="56.451" x2="58.465" y2="53.82"/>
	
		<line fill="none" stroke="#FFE000" stroke-width="0.25" stroke-linecap="round" stroke-linejoin="round" x1="58.914" y1="54.217" x2="59.114" y2="54.395"/>
	
		<line fill="none" stroke="#FFE000" stroke-width="0.25" stroke-linecap="round" stroke-linejoin="round" x1="59.114" y1="54.395" x2="59.032" y2="54.438"/>
	
		<line fill="none" stroke="#FFE000" stroke-width="0.25" stroke-linecap="round" stroke-linejoin="round" x1="59.114" y1="54.395" x2="58.611" y2="57.027"/>
	
		<line fill="none" stroke="#FFE000" stroke-width="0.25" stroke-linecap="round" stroke-linejoin="round" x1="58.611" y1="57.027" x2="58.53" y2="57.07"/>
	
		<line fill="none" stroke="#FFE000" stroke-width="0.25" stroke-linecap="round" stroke-linejoin="round" x1="58.611" y1="57.027" x2="57.967" y2="56.451"/>
	
		<line fill="none" stroke="#FFE000" stroke-width="0.25" stroke-linecap="round" stroke-linejoin="round" x1="61.301" y1="50.797" x2="61.381" y2="50.753"/>
	
		<line fill="none" stroke="#FFE000" stroke-width="0.25" stroke-linecap="round" stroke-linejoin="round" x1="61.381" y1="50.753" x2="62.205" y2="46.513"/>
	
		<line fill="none" stroke="#FFE000" stroke-width="0.25" stroke-linecap="round" stroke-linejoin="round" x1="62.205" y1="46.513" x2="62.121" y2="46.555"/>
	
		<line fill="none" stroke="#FFE000" stroke-width="0.25" stroke-linecap="round" stroke-linejoin="round" x1="62.205" y1="46.513" x2="62.858" y2="47.085"/>
	
		<line fill="none" stroke="#FFE000" stroke-width="0.25" stroke-linecap="round" stroke-linejoin="round" x1="62.858" y1="47.085" x2="62.775" y2="47.129"/>
	
		<line fill="none" stroke="#FFE000" stroke-width="0.25" stroke-linecap="round" stroke-linejoin="round" x1="62.858" y1="47.085" x2="62.033" y2="51.327"/>
	
		<line fill="none" stroke="#FFE000" stroke-width="0.25" stroke-linecap="round" stroke-linejoin="round" x1="62.033" y1="51.327" x2="61.949" y2="51.37"/>
	
		<line fill="none" stroke="#FFE000" stroke-width="0.25" stroke-linecap="round" stroke-linejoin="round" x1="62.033" y1="51.327" x2="61.381" y2="50.753"/>
	
		<line fill="none" stroke="#FFE000" stroke-width="0.25" stroke-linecap="round" stroke-linejoin="round" x1="48.471" y1="52.802" x2="43.081" y2="47.982"/>
	
		<line fill="none" stroke="#FFE000" stroke-width="0.25" stroke-linecap="round" stroke-linejoin="round" x1="63.965" y1="59.576" x2="66.823" y2="62.113"/>
	
		<line fill="none" stroke="#FFE000" stroke-width="0.25" stroke-linecap="round" stroke-linejoin="round" x1="54.651" y1="106.164" x2="63.965" y2="59.576"/>
	
		<line fill="none" stroke="#FFE000" stroke-width="0.25" stroke-linecap="round" stroke-linejoin="round" x1="57.193" y1="63.238" x2="63.965" y2="59.576"/>
	
		<line fill="none" stroke="#FFE000" stroke-width="0.25" stroke-linecap="round" stroke-linejoin="round" x1="56.11" y1="78.882" x2="50.897" y2="74.119"/>
	
		<line fill="none" stroke="#FFE000" stroke-width="0.25" stroke-linecap="round" stroke-linejoin="round" x1="58.782" y1="65.098" x2="56.11" y2="78.882"/>
	
		<line fill="none" stroke="#FFE000" stroke-width="0.25" stroke-linecap="round" stroke-linejoin="round" x1="56.892" y1="63.399" x2="58.782" y2="65.098"/>
	
		<line fill="none" stroke="#FFE000" stroke-width="0.25" stroke-linecap="round" stroke-linejoin="round" x1="53.566" y1="67.933" x2="58.782" y2="65.098"/>
	
		<line fill="none" stroke="#FFE000" stroke-width="0.25" stroke-linecap="round" stroke-linejoin="round" x1="50.897" y1="74.119" x2="52.124" y2="67.47"/>
	
		<line fill="none" stroke="#FFE000" stroke-width="0.25" stroke-linecap="round" stroke-linejoin="round" x1="53.347" y1="7.241" x2="42.031" y2="73.492"/>
	<polyline fill="none" stroke="#FFE000" stroke-width="0.25" stroke-linecap="round" stroke-linejoin="round" points="50.514,4.836 
		53.354,7.237 42.038,73.496 	"/>
	<polyline fill="none" stroke="#FFE000" stroke-width="0.25" stroke-linecap="round" stroke-linejoin="round" points="
		54.658,106.16 63.972,59.572 66.824,62.104 	"/>
	<polyline fill="none" stroke="#FFE000" stroke-width="0.25" stroke-linecap="round" stroke-linejoin="round" points="
		60.658,64.722 64.217,46.604 64.914,47.214 	"/>
	
		<line fill="none" stroke="#FFE000" stroke-width="0.25" stroke-linecap="round" stroke-linejoin="round" x1="65.713" y1="47.912" x2="66.888" y2="48.938"/>
	
		<line fill="none" stroke="#FFE000" stroke-width="0.25" stroke-linecap="round" stroke-linejoin="round" x1="49.193" y1="64.815" x2="48" y2="71.473"/>
	
		<line fill="none" stroke="#FFE000" stroke-width="0.25" stroke-linecap="round" stroke-linejoin="round" x1="65.416" y1="68.98" x2="60.658" y2="64.722"/>
	
		<line fill="none" stroke="#FFE000" stroke-width="0.25" stroke-linecap="round" stroke-linejoin="round" x1="42.969" y1="50.906" x2="46.33" y2="53.923"/>
	
		<line fill="none" stroke="#FFE000" stroke-width="0.25" stroke-linecap="round" stroke-linejoin="round" x1="50.036" y1="49.574" x2="45.412" y2="45.459"/>
	
		<line fill="none" stroke="#FFE000" stroke-width="0.25" stroke-linecap="round" stroke-linejoin="round" x1="40.661" y1="64.77" x2="42.969" y2="50.906"/>
	
		<line fill="none" stroke="#FFE000" stroke-width="0.25" stroke-linecap="round" stroke-linejoin="round" x1="62.209" y1="47.661" x2="63.944" y2="38.708"/>
	
		<line fill="none" stroke="#FFE000" stroke-width="0.25" stroke-linecap="round" stroke-linejoin="round" x1="64.439" y1="49.619" x2="62.209" y2="47.661"/>
	
		<line fill="none" stroke="#FFE000" stroke-width="0.25" stroke-linecap="round" stroke-linejoin="round" x1="49.192" y1="64.815" x2="49.635" y2="62.344"/>
	
		<line fill="none" stroke="#FFE000" stroke-width="0.25" stroke-linecap="round" stroke-linejoin="round" x1="53.44" y1="60.307" x2="52.122" y2="67.467"/>
</g>
</svg>
