<?xml version="1.0" encoding="utf-8"?>
<!-- Generator: Adobe Illustrator 16.0.4, SVG Export Plug-In . SVG Version: 6.00 Build 0)  -->
<!DOCTYPE svg PUBLIC "-//W3C//DTD SVG 1.1//EN" "http://www.w3.org/Graphics/SVG/1.1/DTD/svg11.dtd">
<svg version="1.1" id="Layer_1" xmlns="http://www.w3.org/2000/svg" xmlns:xlink="http://www.w3.org/1999/xlink" x="0px" y="0px"
	 width="111px" height="111px" viewBox="0 0 111 111" enable-background="new 0 0 111 111" xml:space="preserve">
<g>
	
		<line fill="none" stroke="#FFE000" stroke-width="0.25" stroke-linecap="round" stroke-linejoin="round" x1="30.429" y1="67.053" x2="30.404" y2="67.043"/>
	
		<line fill="none" stroke="#FFE000" stroke-width="0.25" stroke-linecap="round" stroke-linejoin="round" x1="28.672" y1="62.4" x2="33.909" y2="64.09"/>
	
		<line fill="none" stroke="#FFE000" stroke-width="0.25" stroke-linecap="round" stroke-linejoin="round" x1="24.973" y1="45.564" x2="40.427" y2="50.219"/>
	
		<line fill="none" stroke="#FFE000" stroke-width="0.25" stroke-linecap="round" stroke-linejoin="round" x1="40.427" y1="50.219" x2="41.53" y2="53.294"/>
	
		<line fill="none" stroke="#FFE000" stroke-width="0.25" stroke-linecap="round" stroke-linejoin="round" x1="40.427" y1="50.219" x2="31.537" y2="57.719"/>
	
		<line fill="none" stroke="#FFE000" stroke-width="0.25" stroke-linecap="round" stroke-linejoin="round" x1="31.537" y1="57.719" x2="33.887" y2="64.082"/>
	
		<line fill="none" stroke="#FFE000" stroke-width="0.25" stroke-linecap="round" stroke-linejoin="round" x1="38.758" y1="59.937" x2="33.887" y2="64.082"/>
	
		<line fill="none" stroke="#FFE000" stroke-width="0.25" stroke-linecap="round" stroke-linejoin="round" x1="31.537" y1="57.719" x2="16.156" y2="52.875"/>
	
		<line fill="none" stroke="#FFE000" stroke-width="0.25" stroke-linecap="round" stroke-linejoin="round" x1="16.156" y1="52.875" x2="24.973" y2="45.564"/>
	
		<line fill="none" stroke="#FFE000" stroke-width="0.25" stroke-linecap="round" stroke-linejoin="round" x1="69.615" y1="50.162" x2="34.614" y2="40.016"/>
	
		<line fill="none" stroke="#FFE000" stroke-width="0.25" stroke-linecap="round" stroke-linejoin="round" x1="87.33" y1="64.344" x2="40.427" y2="50.219"/>
	
		<line fill="none" stroke="#FFE000" stroke-width="0.25" stroke-linecap="round" stroke-linejoin="round" x1="24.973" y1="45.564" x2="12.994" y2="41.957"/>
	
		<line fill="none" stroke="#FFE000" stroke-width="0.25" stroke-linecap="round" stroke-linejoin="round" x1="12.674" y1="55.761" x2="28.03" y2="60.68"/>
	
		<line fill="none" stroke="#FFE000" stroke-width="0.25" stroke-linecap="round" stroke-linejoin="round" x1="28.03" y1="60.68" x2="30.403" y2="67.045"/>
	
		<line fill="none" stroke="#FFE000" stroke-width="0.25" stroke-linecap="round" stroke-linejoin="round" x1="28.03" y1="60.68" x2="21.709" y2="66.012"/>
	
		<line fill="none" stroke="#FFE000" stroke-width="0.25" stroke-linecap="round" stroke-linejoin="round" x1="30.403" y1="67.045" x2="26.354" y2="70.49"/>
	
		<line fill="none" stroke="#FFE000" stroke-width="0.25" stroke-linecap="round" stroke-linejoin="round" x1="54.756" y1="54.534" x2="48.37" y2="60.012"/>
	
		<line fill="none" stroke="#FFE000" stroke-width="0.25" stroke-linecap="round" stroke-linejoin="round" x1="48.37" y1="60.012" x2="50.479" y2="65.965"/>
	
		<line fill="none" stroke="#FFE000" stroke-width="0.25" stroke-linecap="round" stroke-linejoin="round" x1="48.37" y1="60.012" x2="37.566" y2="56.652"/>
	
		<line fill="none" stroke="#FFE000" stroke-width="0.25" stroke-linecap="round" stroke-linejoin="round" x1="37.566" y1="56.652" x2="39.704" y2="62.542"/>
	
		<line fill="none" stroke="#FFE000" stroke-width="0.25" stroke-linecap="round" stroke-linejoin="round" x1="50.479" y1="65.965" x2="39.704" y2="62.542"/>
	
		<line fill="none" stroke="#FFE000" stroke-width="0.25" stroke-linecap="round" stroke-linejoin="round" x1="37.566" y1="56.652" x2="43.92" y2="51.271"/>
	
		<line fill="none" stroke="#FFE000" stroke-width="0.25" stroke-linecap="round" stroke-linejoin="round" x1="42.641" y1="63.477" x2="43.124" y2="64.816"/>
	
		<line fill="none" stroke="#FFE000" stroke-width="0.25" stroke-linecap="round" stroke-linejoin="round" x1="43.124" y1="64.816" x2="48.521" y2="60.186"/>
	
		<line fill="none" stroke="#FFE000" stroke-width="0.25" stroke-linecap="round" stroke-linejoin="round" x1="42.21" y1="62.284" x2="47.625" y2="57.652"/>
	
		<line fill="none" stroke="#FFE000" stroke-width="0.25" stroke-linecap="round" stroke-linejoin="round" x1="42.21" y1="62.284" x2="42.641" y2="63.477"/>
	
		<line fill="none" stroke="#FFE000" stroke-width="0.25" stroke-linecap="round" stroke-linejoin="round" x1="44.089" y1="62.877" x2="42.21" y2="62.284"/>
	
		<line fill="none" stroke="#FFE000" stroke-width="0.25" stroke-linecap="round" stroke-linejoin="round" x1="50.402" y1="60.77" x2="46.013" y2="64.545"/>
	
		<line fill="none" stroke="#FFE000" stroke-width="0.25" stroke-linecap="round" stroke-linejoin="round" x1="44.089" y1="62.877" x2="44.518" y2="64.072"/>
	
		<line fill="none" stroke="#FFE000" stroke-width="0.25" stroke-linecap="round" stroke-linejoin="round" x1="49.509" y1="58.232" x2="44.089" y2="62.877"/>
	
		<line fill="none" stroke="#FFE000" stroke-width="0.25" stroke-linecap="round" stroke-linejoin="round" x1="47.625" y1="57.652" x2="48.521" y2="60.186"/>
	
		<line fill="none" stroke="#FFE000" stroke-width="0.25" stroke-linecap="round" stroke-linejoin="round" x1="48.521" y1="60.186" x2="50.402" y2="60.77"/>
	
		<line fill="none" stroke="#FFE000" stroke-width="0.25" stroke-linecap="round" stroke-linejoin="round" x1="39.704" y1="62.542" x2="46.012" y2="57.156"/>
	
		<line fill="none" stroke="#FFE000" stroke-width="0.25" stroke-linecap="round" stroke-linejoin="round" x1="43.92" y1="51.271" x2="46.012" y2="57.156"/>
	
		<line fill="none" stroke="#FFE000" stroke-width="0.25" stroke-linecap="round" stroke-linejoin="round" x1="46.012" y1="57.156" x2="56.819" y2="60.485"/>
	
		<line fill="none" stroke="#FFE000" stroke-width="0.25" stroke-linecap="round" stroke-linejoin="round" x1="16.781" y1="51.92" x2="24.103" y2="45.854"/>
	
		<line fill="none" stroke="#FFE000" stroke-width="0.25" stroke-linecap="round" stroke-linejoin="round" x1="90.771" y1="75.098" x2="17.163" y2="52.039"/>
	
		<line fill="none" stroke="#FFE000" stroke-width="0.25" stroke-linecap="round" stroke-linejoin="round" x1="24.105" y1="45.862" x2="98.326" y2="68.271"/>
	<polyline fill="none" stroke="#FFE000" stroke-width="0.25" stroke-linecap="round" stroke-linejoin="round" points="
		93.941,72.244 90.773,75.104 17.156,52.045 	"/>
	
		<line fill="none" stroke="#FFE000" stroke-width="0.25" stroke-linecap="round" stroke-linejoin="round" x1="16.791" y1="51.923" x2="24.105" y2="45.862"/>
	
		<line fill="none" stroke="#FFE000" stroke-width="0.25" stroke-linecap="round" stroke-linejoin="round" x1="20.402" y1="35.896" x2="24.103" y2="45.854"/>
	
		<line fill="none" stroke="#FFE000" stroke-width="0.25" stroke-linecap="round" stroke-linejoin="round" x1="24.103" y1="45.854" x2="54.014" y2="54.886"/>
	<polygon fill="none" stroke="#FFE000" stroke-width="0.25" stroke-linecap="round" stroke-linejoin="round" points="40.961,42.52 
		75.931,52.688 71.684,56.393 36.778,46.023 	"/>
	
		<line fill="none" stroke="#FFE000" stroke-width="0.25" stroke-linecap="round" stroke-linejoin="round" x1="36.775" y1="46.015" x2="40.957" y2="42.512"/>
	
		<line fill="none" stroke="#FFE000" stroke-width="0.25" stroke-linecap="round" stroke-linejoin="round" x1="52.563" y1="50.705" x2="36.775" y2="46.015"/>
	
		<line fill="none" stroke="#FFE000" stroke-width="0.25" stroke-linecap="round" stroke-linejoin="round" x1="34.614" y1="40.016" x2="36.775" y2="46.015"/>
	
		<line fill="none" stroke="#FFE000" stroke-width="0.25" stroke-linecap="round" stroke-linejoin="round" x1="38.827" y1="36.515" x2="40.957" y2="42.512"/>
	
		<line fill="none" stroke="#FFE000" stroke-width="0.25" stroke-linecap="round" stroke-linejoin="round" x1="40.957" y1="42.512" x2="56.776" y2="47.111"/>
	
		<line fill="none" stroke="#FFE000" stroke-width="0.25" stroke-linecap="round" stroke-linejoin="round" x1="18.54" y1="59.136" x2="27.292" y2="51.82"/>
	
		<line fill="none" stroke="#FFE000" stroke-width="0.25" stroke-linecap="round" stroke-linejoin="round" x1="25.928" y1="61.518" x2="18.54" y2="59.136"/>
	
		<line fill="none" stroke="#FFE000" stroke-width="0.25" stroke-linecap="round" stroke-linejoin="round" x1="42.707" y1="56.578" x2="38.758" y2="59.937"/>
	<polyline fill="none" stroke="#FFE000" stroke-width="0.25" stroke-linecap="round" stroke-linejoin="round" points="
		48.526,60.193 50.406,60.779 46.023,64.549 	"/>
	
		<line fill="none" stroke="#FFE000" stroke-width="0.25" stroke-linecap="round" stroke-linejoin="round" x1="43.134" y1="64.82" x2="48.526" y2="60.193"/>
	
		<line fill="none" stroke="#FFE000" stroke-width="0.25" stroke-linecap="round" stroke-linejoin="round" x1="24.973" y1="45.564" x2="27.292" y2="51.82"/>
	
		<line fill="none" stroke="#FFE000" stroke-width="0.25" stroke-linecap="round" stroke-linejoin="round" x1="27.292" y1="51.82" x2="42.707" y2="56.578"/>
	
		<line fill="none" stroke="#FFE000" stroke-width="0.25" stroke-linecap="round" stroke-linejoin="round" x1="41.53" y1="53.294" x2="42.707" y2="56.578"/>
	
		<line fill="none" stroke="#FFE000" stroke-width="0.25" stroke-linecap="round" stroke-linejoin="round" x1="25.928" y1="61.518" x2="28.672" y2="62.4"/>
	
		<line fill="none" stroke="#FFE000" stroke-width="0.25" stroke-linecap="round" stroke-linejoin="round" x1="30.404" y1="67.043" x2="22.461" y2="64.439"/>
</g>
</svg>
