<?xml version="1.0" encoding="utf-8"?>
<!-- Generator: Adobe Illustrator 16.0.4, SVG Export Plug-In . SVG Version: 6.00 Build 0)  -->
<!DOCTYPE svg PUBLIC "-//W3C//DTD SVG 1.1//EN" "http://www.w3.org/Graphics/SVG/1.1/DTD/svg11.dtd">
<svg version="1.1" id="Layer_1" xmlns="http://www.w3.org/2000/svg" xmlns:xlink="http://www.w3.org/1999/xlink" x="0px" y="0px"
	 width="111px" height="111px" viewBox="0 0 111 111" enable-background="new 0 0 111 111" xml:space="preserve">
<g>
	
		<line fill="none" stroke="#FFE000" stroke-width="0.25" stroke-linecap="round" stroke-linejoin="round" x1="51.248" y1="50.587" x2="42.521" y2="59.692"/>
	
		<line fill="none" stroke="#FFE000" stroke-width="0.25" stroke-linecap="round" stroke-linejoin="round" x1="42.521" y1="59.692" x2="46.32" y2="60.054"/>
	
		<line fill="none" stroke="#FFE000" stroke-width="0.25" stroke-linecap="round" stroke-linejoin="round" x1="42.521" y1="59.692" x2="40.452" y2="50.977"/>
	<polyline fill="none" stroke="#FFE000" stroke-width="0.25" stroke-linecap="round" stroke-linejoin="round" points="
		42.012,70.847 42.018,70.843 42.267,71.907 	"/>
	<polyline fill="none" stroke="#FFE000" stroke-width="0.25" stroke-linecap="round" stroke-linejoin="round" points="
		42.288,58.702 42.078,58.921 42.076,58.915 	"/>
	
		<line fill="none" stroke="#FFE000" stroke-width="0.25" stroke-linecap="round" stroke-linejoin="round" x1="40.452" y1="50.977" x2="33.776" y2="58.126"/>
	
		<line fill="none" stroke="#FFE000" stroke-width="0.25" stroke-linecap="round" stroke-linejoin="round" x1="33.776" y1="58.126" x2="42.072" y2="58.92"/>
	
		<line fill="none" stroke="#FFE000" stroke-width="0.25" stroke-linecap="round" stroke-linejoin="round" x1="42.285" y1="58.696" x2="42.072" y2="58.92"/>
	
		<line fill="none" stroke="#FFE000" stroke-width="0.25" stroke-linecap="round" stroke-linejoin="round" x1="41.654" y1="68.712" x2="43.131" y2="67.199"/>
	
		<line fill="none" stroke="#FFE000" stroke-width="0.25" stroke-linecap="round" stroke-linejoin="round" x1="43.131" y1="67.199" x2="43.937" y2="67.267"/>
	
		<line fill="none" stroke="#FFE000" stroke-width="0.25" stroke-linecap="round" stroke-linejoin="round" x1="43.131" y1="67.199" x2="43.338" y2="68.073"/>
	
		<line fill="none" stroke="#FFE000" stroke-width="0.25" stroke-linecap="round" stroke-linejoin="round" x1="43.338" y1="68.073" x2="44.146" y2="68.144"/>
	
		<line fill="none" stroke="#FFE000" stroke-width="0.25" stroke-linecap="round" stroke-linejoin="round" x1="43.937" y1="67.267" x2="44.146" y2="68.144"/>
	
		<line fill="none" stroke="#FFE000" stroke-width="0.25" stroke-linecap="round" stroke-linejoin="round" x1="43.338" y1="68.073" x2="41.861" y2="69.583"/>
	
		<line fill="none" stroke="#FFE000" stroke-width="0.25" stroke-linecap="round" stroke-linejoin="round" x1="41.861" y1="69.583" x2="42.664" y2="69.651"/>
	
		<line fill="none" stroke="#FFE000" stroke-width="0.25" stroke-linecap="round" stroke-linejoin="round" x1="44.146" y1="68.144" x2="42.664" y2="69.651"/>
	
		<line fill="none" stroke="#FFE000" stroke-width="0.25" stroke-linecap="round" stroke-linejoin="round" x1="41.861" y1="69.583" x2="41.654" y2="68.712"/>
	
		<line fill="none" stroke="#FFE000" stroke-width="0.25" stroke-linecap="round" stroke-linejoin="round" x1="43.338" y1="63.133" x2="52.107" y2="54.072"/>
	
		<line fill="none" stroke="#FFE000" stroke-width="0.25" stroke-linecap="round" stroke-linejoin="round" x1="52.107" y1="54.072" x2="53.656" y2="60.349"/>
	
		<line fill="none" stroke="#FFE000" stroke-width="0.25" stroke-linecap="round" stroke-linejoin="round" x1="53.656" y1="60.349" x2="44.812" y2="69.325"/>
	
		<line fill="none" stroke="#FFE000" stroke-width="0.25" stroke-linecap="round" stroke-linejoin="round" x1="44.812" y1="69.325" x2="43.338" y2="63.133"/>
	
		<line fill="none" stroke="#FFE000" stroke-width="0.25" stroke-linecap="round" stroke-linejoin="round" x1="25.686" y1="88.735" x2="44.812" y2="69.325"/>
	
		<line fill="none" stroke="#FFE000" stroke-width="0.25" stroke-linecap="round" stroke-linejoin="round" x1="53.656" y1="60.349" x2="55.606" y2="58.373"/>
	
		<line fill="none" stroke="#FFE000" stroke-width="0.25" stroke-linecap="round" stroke-linejoin="round" x1="58.318" y1="69.271" x2="27.953" y2="99.125"/>
	
		<line fill="none" stroke="#FFE000" stroke-width="0.25" stroke-linecap="round" stroke-linejoin="round" x1="27.023" y1="81.504" x2="37.727" y2="70.485"/>
	
		<line fill="none" stroke="#FFE000" stroke-width="0.25" stroke-linecap="round" stroke-linejoin="round" x1="37.727" y1="70.485" x2="42.012" y2="70.84"/>
	
		<line fill="none" stroke="#FFE000" stroke-width="0.25" stroke-linecap="round" stroke-linejoin="round" x1="37.727" y1="70.485" x2="38.856" y2="75.368"/>
	
		<line fill="none" stroke="#FFE000" stroke-width="0.25" stroke-linecap="round" stroke-linejoin="round" x1="42.012" y1="70.84" x2="42.263" y2="71.911"/>
	
		<line fill="none" stroke="#FFE000" stroke-width="0.25" stroke-linecap="round" stroke-linejoin="round" x1="42.73" y1="71.374" x2="44.8" y2="69.274"/>
	
		<line fill="none" stroke="#FFE000" stroke-width="0.25" stroke-linecap="round" stroke-linejoin="round" x1="42.741" y1="71.427" x2="42.73" y2="71.374"/>
	
		<line fill="none" stroke="#FFE000" stroke-width="0.25" stroke-linecap="round" stroke-linejoin="round" x1="43.345" y1="73.987" x2="42.741" y2="71.427"/>
	
		<line fill="none" stroke="#FFE000" stroke-width="0.25" stroke-linecap="round" stroke-linejoin="round" x1="46.975" y1="70.334" x2="43.345" y2="73.987"/>
	
		<line fill="none" stroke="#FFE000" stroke-width="0.25" stroke-linecap="round" stroke-linejoin="round" x1="46.346" y1="67.705" x2="46.975" y2="70.334"/>
	
		<line fill="none" stroke="#FFE000" stroke-width="0.25" stroke-linecap="round" stroke-linejoin="round" x1="44.8" y1="69.274" x2="46.346" y2="67.705"/>
	
		<line fill="none" stroke="#FFE000" stroke-width="0.25" stroke-linecap="round" stroke-linejoin="round" x1="52.879" y1="69.593" x2="43.663" y2="78.763"/>
	
		<line fill="none" stroke="#FFE000" stroke-width="0.25" stroke-linecap="round" stroke-linejoin="round" x1="52.159" y1="66.653" x2="52.879" y2="69.593"/>
	
		<line fill="none" stroke="#FFE000" stroke-width="0.25" stroke-linecap="round" stroke-linejoin="round" x1="42.981" y1="75.866" x2="52.159" y2="66.653"/>
	
		<line fill="none" stroke="#FFE000" stroke-width="0.25" stroke-linecap="round" stroke-linejoin="round" x1="42.73" y1="71.374" x2="42.808" y2="71.382"/>
	
		<line fill="none" stroke="#FFE000" stroke-width="0.25" stroke-linecap="round" stroke-linejoin="round" x1="42.808" y1="71.382" x2="46.423" y2="67.714"/>
	
		<line fill="none" stroke="#FFE000" stroke-width="0.25" stroke-linecap="round" stroke-linejoin="round" x1="46.423" y1="67.714" x2="46.346" y2="67.705"/>
	
		<line fill="none" stroke="#FFE000" stroke-width="0.25" stroke-linecap="round" stroke-linejoin="round" x1="46.423" y1="67.714" x2="47.052" y2="70.342"/>
	
		<line fill="none" stroke="#FFE000" stroke-width="0.25" stroke-linecap="round" stroke-linejoin="round" x1="47.052" y1="70.342" x2="46.975" y2="70.334"/>
	
		<line fill="none" stroke="#FFE000" stroke-width="0.25" stroke-linecap="round" stroke-linejoin="round" x1="47.052" y1="70.342" x2="43.424" y2="73.997"/>
	
		<line fill="none" stroke="#FFE000" stroke-width="0.25" stroke-linecap="round" stroke-linejoin="round" x1="43.424" y1="73.997" x2="43.345" y2="73.987"/>
	
		<line fill="none" stroke="#FFE000" stroke-width="0.25" stroke-linecap="round" stroke-linejoin="round" x1="43.424" y1="73.997" x2="42.808" y2="71.382"/>
	
		<line fill="none" stroke="#FFE000" stroke-width="0.25" stroke-linecap="round" stroke-linejoin="round" x1="43.059" y1="75.87" x2="52.24" y2="66.66"/>
	
		<line fill="none" stroke="#FFE000" stroke-width="0.25" stroke-linecap="round" stroke-linejoin="round" x1="52.24" y1="66.66" x2="52.159" y2="66.653"/>
	
		<line fill="none" stroke="#FFE000" stroke-width="0.25" stroke-linecap="round" stroke-linejoin="round" x1="52.24" y1="66.66" x2="52.956" y2="69.602"/>
	
		<line fill="none" stroke="#FFE000" stroke-width="0.25" stroke-linecap="round" stroke-linejoin="round" x1="52.956" y1="69.602" x2="52.879" y2="69.593"/>
	
		<line fill="none" stroke="#FFE000" stroke-width="0.25" stroke-linecap="round" stroke-linejoin="round" x1="52.956" y1="69.602" x2="43.741" y2="78.771"/>
	
		<line fill="none" stroke="#FFE000" stroke-width="0.25" stroke-linecap="round" stroke-linejoin="round" x1="42.263" y1="71.911" x2="43.154" y2="75.704"/>
	
		<line fill="none" stroke="#FFE000" stroke-width="0.25" stroke-linecap="round" stroke-linejoin="round" x1="31.248" y1="81.8" x2="42.012" y2="70.84"/>
	
		<line fill="none" stroke="#FFE000" stroke-width="0.25" stroke-linecap="round" stroke-linejoin="round" x1="35.278" y1="89.335" x2="65.587" y2="59.349"/>
	
		<line fill="none" stroke="#FFE000" stroke-width="0.25" stroke-linecap="round" stroke-linejoin="round" x1="50.055" y1="69.772" x2="48.567" y2="63.608"/>
	
		<line fill="none" stroke="#FFE000" stroke-width="0.25" stroke-linecap="round" stroke-linejoin="round" x1="58.961" y1="60.855" x2="50.055" y2="69.772"/>
	
		<line fill="none" stroke="#FFE000" stroke-width="0.25" stroke-linecap="round" stroke-linejoin="round" x1="44.812" y1="69.325" x2="50.055" y2="69.772"/>
	
		<line fill="none" stroke="#FFE000" stroke-width="0.25" stroke-linecap="round" stroke-linejoin="round" x1="53.656" y1="60.349" x2="58.961" y2="60.855"/>
	
		<line fill="none" stroke="#FFE000" stroke-width="0.25" stroke-linecap="round" stroke-linejoin="round" x1="43.338" y1="63.133" x2="48.567" y2="63.608"/>
	
		<line fill="none" stroke="#FFE000" stroke-width="0.25" stroke-linecap="round" stroke-linejoin="round" x1="48.567" y1="63.608" x2="52.815" y2="59.28"/>
	
		<line fill="none" stroke="#FFE000" stroke-width="0.25" stroke-linecap="round" stroke-linejoin="round" x1="42.664" y1="69.651" x2="42.459" y2="68.778"/>
	
		<line fill="none" stroke="#FFE000" stroke-width="0.25" stroke-linecap="round" stroke-linejoin="round" x1="41.654" y1="68.712" x2="42.459" y2="68.778"/>
	
		<line fill="none" stroke="#FFE000" stroke-width="0.25" stroke-linecap="round" stroke-linejoin="round" x1="42.459" y1="68.778" x2="43.937" y2="67.267"/>
	
		<line fill="none" stroke="#FFE000" stroke-width="0.25" stroke-linecap="round" stroke-linejoin="round" x1="42.072" y1="58.92" x2="40.355" y2="51.688"/>
	
		<line fill="none" stroke="#FFE000" stroke-width="0.25" stroke-linecap="round" stroke-linejoin="round" x1="83.949" y1="15.085" x2="42.285" y2="58.696"/>
	<polyline fill="none" stroke="#FFE000" stroke-width="0.25" stroke-linecap="round" stroke-linejoin="round" points="
		83.048,11.874 83.954,15.087 42.288,58.702 	"/>
	
		<line fill="none" stroke="#FFE000" stroke-width="0.25" stroke-linecap="round" stroke-linejoin="round" x1="42.076" y1="58.915" x2="40.363" y2="51.688"/>
	
		<line fill="none" stroke="#FFE000" stroke-width="0.25" stroke-linecap="round" stroke-linejoin="round" x1="31.253" y1="81.801" x2="42.012" y2="70.847"/>
	<polyline fill="none" stroke="#FFE000" stroke-width="0.25" stroke-linecap="round" stroke-linejoin="round" points="
		42.267,71.907 43.161,75.704 32.324,86.58 31.253,81.801 	"/>
	<polyline fill="none" stroke="#FFE000" stroke-width="0.25" stroke-linecap="round" stroke-linejoin="round" points="
		35.287,89.334 65.594,59.351 66.443,62.665 	"/>
	
		<line fill="none" stroke="#FFE000" stroke-width="0.25" stroke-linecap="round" stroke-linejoin="round" x1="47.739" y1="60.188" x2="45.643" y2="51.52"/>
	
		<line fill="none" stroke="#FFE000" stroke-width="0.25" stroke-linecap="round" stroke-linejoin="round" x1="51.967" y1="55.833" x2="47.739" y2="60.188"/>
	
		<line fill="none" stroke="#FFE000" stroke-width="0.25" stroke-linecap="round" stroke-linejoin="round" x1="46.32" y1="60.054" x2="47.739" y2="60.188"/>
	
		<line fill="none" stroke="#FFE000" stroke-width="0.25" stroke-linecap="round" stroke-linejoin="round" x1="57.393" y1="54.611" x2="52.815" y2="59.28"/>
</g>
</svg>
