<?xml version="1.0" encoding="utf-8"?>
<!-- Generator: Adobe Illustrator 16.0.4, SVG Export Plug-In . SVG Version: 6.00 Build 0)  -->
<svg version="1.2" baseProfile="tiny" id="Layer_1" xmlns="http://www.w3.org/2000/svg" xmlns:xlink="http://www.w3.org/1999/xlink"
	 x="0px" y="0px" width="53px" height="53px" viewBox="0 0 53 53" overflow="auto" xml:space="preserve">
<g>
	
		<line fill="none" stroke="#FFE000" stroke-width="0.1" stroke-linecap="round" stroke-linejoin="round" x1="31.891" y1="35.809" x2="31.893" y2="35.82"/>
	
		<line fill="none" stroke="#FFE000" stroke-width="0.1" stroke-linecap="round" stroke-linejoin="round" x1="30.084" y1="37.577" x2="29.8" y2="34.792"/>
	
		<line fill="none" stroke="#FFE000" stroke-width="0.1" stroke-linecap="round" stroke-linejoin="round" x1="22.999" y1="42.742" x2="22.008" y2="34.593"/>
	
		<line fill="none" stroke="#FFE000" stroke-width="0.1" stroke-linecap="round" stroke-linejoin="round" x1="22.008" y1="34.593" x2="23.216" y2="33.451"/>
	
		<line fill="none" stroke="#FFE000" stroke-width="0.1" stroke-linecap="round" stroke-linejoin="round" x1="22.008" y1="34.593" x2="27.316" y2="37.2"/>
	<polyline fill="none" stroke="#FFE000" stroke-width="0.1" stroke-linecap="round" stroke-linejoin="round" points="27.537,29.059 
		28.154,29.354 28.258,30.35 28.254,30.348 	"/>
	
		<line fill="none" stroke="#FFE000" stroke-width="0.1" stroke-linecap="round" stroke-linejoin="round" x1="27.316" y1="37.2" x2="29.802" y2="34.807"/>
	
		<line fill="none" stroke="#FFE000" stroke-width="0.1" stroke-linecap="round" stroke-linejoin="round" x1="26.876" y1="33.384" x2="29.802" y2="34.807"/>
	<polyline fill="none" stroke="#FFE000" stroke-width="0.1" stroke-linecap="round" stroke-linejoin="round" points="26.069,24.689 
		27.749,25.485 27.952,27.438 27.948,27.438 	"/>
	
		<line fill="none" stroke="#FFE000" stroke-width="0.1" stroke-linecap="round" stroke-linejoin="round" x1="27.316" y1="37.2" x2="28.206" y2="45.354"/>
	
		<line fill="none" stroke="#FFE000" stroke-width="0.1" stroke-linecap="round" stroke-linejoin="round" x1="28.206" y1="45.354" x2="22.999" y2="42.742"/>
	
		<line fill="none" stroke="#FFE000" stroke-width="0.1" stroke-linecap="round" stroke-linejoin="round" x1="15.953" y1="38.141" x2="13.416" y2="19.775"/>
	
		<line fill="none" stroke="#FFE000" stroke-width="0.1" stroke-linecap="round" stroke-linejoin="round" x1="16.014" y1="21.014" x2="18.444" y2="39.386"/>
	
		<line fill="none" stroke="#FFE000" stroke-width="0.1" stroke-linecap="round" stroke-linejoin="round" x1="18.444" y1="39.386" x2="15.953" y2="38.141"/>
	
		<line fill="none" stroke="#FFE000" stroke-width="0.1" stroke-linecap="round" stroke-linejoin="round" x1="19.432" y1="46.846" x2="18.444" y2="39.386"/>
	
		<line fill="none" stroke="#FFE000" stroke-width="0.1" stroke-linecap="round" stroke-linejoin="round" x1="18.998" y1="9.864" x2="22.008" y2="34.593"/>
	
		<line fill="none" stroke="#FFE000" stroke-width="0.1" stroke-linecap="round" stroke-linejoin="round" x1="22.999" y1="42.742" x2="23.77" y2="49.061"/>
	
		<line fill="none" stroke="#FFE000" stroke-width="0.1" stroke-linecap="round" stroke-linejoin="round" x1="30.264" y1="46.384" x2="29.413" y2="38.229"/>
	
		<line fill="none" stroke="#FFE000" stroke-width="0.1" stroke-linecap="round" stroke-linejoin="round" x1="29.413" y1="38.229" x2="31.895" y2="35.82"/>
	
		<line fill="none" stroke="#FFE000" stroke-width="0.1" stroke-linecap="round" stroke-linejoin="round" x1="29.413" y1="38.229" x2="33.188" y2="40.081"/>
	
		<line fill="none" stroke="#FFE000" stroke-width="0.1" stroke-linecap="round" stroke-linejoin="round" x1="31.895" y1="35.82" x2="34.325" y2="37.002"/>
	
		<line fill="none" stroke="#FFE000" stroke-width="0.1" stroke-linecap="round" stroke-linejoin="round" x1="33.188" y1="40.081" x2="33.02" y2="38.282"/>
	
		<line fill="none" stroke="#FFE000" stroke-width="0.1" stroke-linecap="round" stroke-linejoin="round" x1="33.02" y1="38.282" x2="34.467" y2="36.861"/>
	
		<line fill="none" stroke="#FFE000" stroke-width="0.1" stroke-linecap="round" stroke-linejoin="round" x1="33.02" y1="38.282" x2="39.584" y2="41.488"/>
	
		<line fill="none" stroke="#FFE000" stroke-width="0.1" stroke-linecap="round" stroke-linejoin="round" x1="21.088" y1="27.039" x2="24.945" y2="28.893"/>
	
		<line fill="none" stroke="#FFE000" stroke-width="0.1" stroke-linecap="round" stroke-linejoin="round" x1="24.945" y1="28.893" x2="27.287" y2="26.692"/>
	
		<line fill="none" stroke="#FFE000" stroke-width="0.1" stroke-linecap="round" stroke-linejoin="round" x1="25.761" y1="25.967" x2="27.287" y2="26.692"/>
	
		<line fill="none" stroke="#FFE000" stroke-width="0.1" stroke-linecap="round" stroke-linejoin="round" x1="24.945" y1="28.893" x2="25.589" y2="34.609"/>
	
		<line fill="none" stroke="#FFE000" stroke-width="0.1" stroke-linecap="round" stroke-linejoin="round" x1="25.589" y1="34.609" x2="27.895" y2="32.41"/>
	
		<line fill="none" stroke="#FFE000" stroke-width="0.1" stroke-linecap="round" stroke-linejoin="round" x1="27.287" y1="26.692" x2="27.895" y2="32.41"/>
	
		<line fill="none" stroke="#FFE000" stroke-width="0.1" stroke-linecap="round" stroke-linejoin="round" x1="25.589" y1="34.609" x2="21.783" y2="32.753"/>
	
		<line fill="none" stroke="#FFE000" stroke-width="0.1" stroke-linecap="round" stroke-linejoin="round" x1="21.138" y1="8.573" x2="23.416" y2="28.158"/>
	
		<line fill="none" stroke="#FFE000" stroke-width="0.1" stroke-linecap="round" stroke-linejoin="round" x1="23.416" y1="28.158" x2="26.166" y2="25.587"/>
	
		<line fill="none" stroke="#FFE000" stroke-width="0.1" stroke-linecap="round" stroke-linejoin="round" x1="24.035" y1="6.01" x2="26.166" y2="25.587"/>
	
		<line fill="none" stroke="#FFE000" stroke-width="0.1" stroke-linecap="round" stroke-linejoin="round" x1="26.738" y1="26.433" x2="27.745" y2="25.489"/>
	
		<line fill="none" stroke="#FFE000" stroke-width="0.1" stroke-linecap="round" stroke-linejoin="round" x1="26.069" y1="24.693" x2="27.745" y2="25.489"/>
	
		<line fill="none" stroke="#FFE000" stroke-width="0.1" stroke-linecap="round" stroke-linejoin="round" x1="27.418" y1="27.939" x2="27.948" y2="27.441"/>
	
		<line fill="none" stroke="#FFE000" stroke-width="0.1" stroke-linecap="round" stroke-linejoin="round" x1="27.745" y1="25.489" x2="27.948" y2="27.441"/>
	
		<line fill="none" stroke="#FFE000" stroke-width="0.1" stroke-linecap="round" stroke-linejoin="round" x1="27.622" y1="29.857" x2="28.15" y2="29.355"/>
	
		<line fill="none" stroke="#FFE000" stroke-width="0.1" stroke-linecap="round" stroke-linejoin="round" x1="27.538" y1="29.062" x2="28.15" y2="29.355"/>
	
		<line fill="none" stroke="#FFE000" stroke-width="0.1" stroke-linecap="round" stroke-linejoin="round" x1="27.729" y1="30.854" x2="28.254" y2="30.354"/>
	
		<line fill="none" stroke="#FFE000" stroke-width="0.1" stroke-linecap="round" stroke-linejoin="round" x1="28.15" y1="29.355" x2="28.254" y2="30.354"/>
	
		<line fill="none" stroke="#FFE000" stroke-width="0.1" stroke-linecap="round" stroke-linejoin="round" x1="34.671" y1="39.09" x2="33.693" y2="28.354"/>
	
		<line fill="none" stroke="#FFE000" stroke-width="0.1" stroke-linecap="round" stroke-linejoin="round" x1="36.494" y1="42.223" x2="35.923" y2="35.67"/>
	
		<line fill="none" stroke="#FFE000" stroke-width="0.1" stroke-linecap="round" stroke-linejoin="round" x1="36.456" y1="42.256" x2="35.885" y2="35.706"/>
	
		<line fill="none" stroke="#FFE000" stroke-width="0.1" stroke-linecap="round" stroke-linejoin="round" x1="28.254" y1="30.354" x2="24.993" y2="28.786"/>
	
		<line fill="none" stroke="#FFE000" stroke-width="0.1" stroke-linecap="round" stroke-linejoin="round" x1="27.262" y1="31.296" x2="23.998" y2="29.723"/>
	
		<line fill="none" stroke="#FFE000" stroke-width="0.1" stroke-linecap="round" stroke-linejoin="round" x1="27.262" y1="31.296" x2="27.729" y2="30.854"/>
	
		<line fill="none" stroke="#FFE000" stroke-width="0.1" stroke-linecap="round" stroke-linejoin="round" x1="27.154" y1="30.3" x2="27.262" y2="31.296"/>
	
		<line fill="none" stroke="#FFE000" stroke-width="0.1" stroke-linecap="round" stroke-linejoin="round" x1="24.883" y1="27.792" x2="27.538" y2="29.062"/>
	
		<line fill="none" stroke="#FFE000" stroke-width="0.1" stroke-linecap="round" stroke-linejoin="round" x1="27.154" y1="30.3" x2="27.622" y2="29.857"/>
	
		<line fill="none" stroke="#FFE000" stroke-width="0.1" stroke-linecap="round" stroke-linejoin="round" x1="23.884" y1="28.729" x2="27.154" y2="30.3"/>
	
		<line fill="none" stroke="#FFE000" stroke-width="0.1" stroke-linecap="round" stroke-linejoin="round" x1="23.998" y1="29.723" x2="24.993" y2="28.786"/>
	
		<line fill="none" stroke="#FFE000" stroke-width="0.1" stroke-linecap="round" stroke-linejoin="round" x1="24.993" y1="28.786" x2="24.883" y2="27.792"/>
	
		<line fill="none" stroke="#FFE000" stroke-width="0.1" stroke-linecap="round" stroke-linejoin="round" x1="23.884" y1="28.729" x2="24.883" y2="27.792"/>
	
		<line fill="none" stroke="#FFE000" stroke-width="0.1" stroke-linecap="round" stroke-linejoin="round" x1="27.948" y1="27.441" x2="24.666" y2="25.877"/>
	
		<line fill="none" stroke="#FFE000" stroke-width="0.1" stroke-linecap="round" stroke-linejoin="round" x1="26.949" y1="28.385" x2="23.663" y2="26.812"/>
	
		<line fill="none" stroke="#FFE000" stroke-width="0.1" stroke-linecap="round" stroke-linejoin="round" x1="26.949" y1="28.385" x2="27.418" y2="27.939"/>
	
		<line fill="none" stroke="#FFE000" stroke-width="0.1" stroke-linecap="round" stroke-linejoin="round" x1="26.738" y1="26.433" x2="26.949" y2="28.385"/>
	
		<line fill="none" stroke="#FFE000" stroke-width="0.1" stroke-linecap="round" stroke-linejoin="round" x1="24.446" y1="23.926" x2="26.069" y2="24.693"/>
	
		<line fill="none" stroke="#FFE000" stroke-width="0.1" stroke-linecap="round" stroke-linejoin="round" x1="23.663" y1="26.812" x2="24.666" y2="25.877"/>
	
		<line fill="none" stroke="#FFE000" stroke-width="0.1" stroke-linecap="round" stroke-linejoin="round" x1="24.666" y1="25.877" x2="24.446" y2="23.926"/>
	
		<line fill="none" stroke="#FFE000" stroke-width="0.1" stroke-linecap="round" stroke-linejoin="round" x1="26.166" y1="25.587" x2="23.845" y2="24.483"/>
	
		<line fill="none" stroke="#FFE000" stroke-width="0.1" stroke-linecap="round" stroke-linejoin="round" x1="27.895" y1="32.41" x2="24.096" y2="30.573"/>
	
		<line fill="none" stroke="#FFE000" stroke-width="0.1" stroke-linecap="round" stroke-linejoin="round" x1="23.438" y1="24.859" x2="25.761" y2="25.967"/>
	
		<line fill="none" stroke="#FFE000" stroke-width="0.1" stroke-linecap="round" stroke-linejoin="round" x1="21.783" y1="32.753" x2="24.096" y2="30.573"/>
	
		<line fill="none" stroke="#FFE000" stroke-width="0.1" stroke-linecap="round" stroke-linejoin="round" x1="24.096" y1="30.573" x2="23.438" y2="24.859"/>
	
		<line fill="none" stroke="#FFE000" stroke-width="0.1" stroke-linecap="round" stroke-linejoin="round" x1="34.467" y1="36.861" x2="37.678" y2="33.719"/>
	
		<line fill="none" stroke="#FFE000" stroke-width="0.1" stroke-linecap="round" stroke-linejoin="round" x1="35.659" y1="37.65" x2="36.378" y2="45.814"/>
	
		<line fill="none" stroke="#FFE000" stroke-width="0.1" stroke-linecap="round" stroke-linejoin="round" x1="34.325" y1="37.002" x2="35.659" y2="37.65"/>
	
		<line fill="none" stroke="#FFE000" stroke-width="0.1" stroke-linecap="round" stroke-linejoin="round" x1="33.188" y1="40.081" x2="35.659" y2="37.65"/>
	
		<line fill="none" stroke="#FFE000" stroke-width="0.1" stroke-linecap="round" stroke-linejoin="round" x1="32.686" y1="43.98" x2="32.305" y2="40.052"/>
	
		<line fill="none" stroke="#FFE000" stroke-width="0.1" stroke-linecap="round" stroke-linejoin="round" x1="27.635" y1="45.258" x2="23.313" y2="43.089"/>
	
		<line fill="none" stroke="#FFE000" stroke-width="0.1" stroke-linecap="round" stroke-linejoin="round" x1="23.302" y1="6.063" x2="27.611" y2="45.057"/>
	
		<line fill="none" stroke="#FFE000" stroke-width="0.1" stroke-linecap="round" stroke-linejoin="round" x1="23.316" y1="43.085" x2="18.578" y2="3.939"/>
	<polyline fill="none" stroke="#FFE000" stroke-width="0.1" stroke-linecap="round" stroke-linejoin="round" points="21.324,5.171 
		23.305,6.06 27.615,45.059 	"/>
	
		<line fill="none" stroke="#FFE000" stroke-width="0.1" stroke-linecap="round" stroke-linejoin="round" x1="27.633" y1="45.252" x2="23.316" y2="43.085"/>
	
		<line fill="none" stroke="#FFE000" stroke-width="0.1" stroke-linecap="round" stroke-linejoin="round" x1="19.432" y1="46.846" x2="23.313" y2="43.089"/>
	
		<line fill="none" stroke="#FFE000" stroke-width="0.1" stroke-linecap="round" stroke-linejoin="round" x1="23.313" y1="43.089" x2="21.402" y2="27.312"/>
	<polygon fill="none" stroke="#FFE000" stroke-width="0.1" stroke-linecap="round" stroke-linejoin="round" points="18.313,35.919 
		15.899,17.556 18.493,18.775 20.801,37.15 	"/>
	
		<line fill="none" stroke="#FFE000" stroke-width="0.1" stroke-linecap="round" stroke-linejoin="round" x1="20.797" y1="37.152" x2="18.31" y2="35.922"/>
	
		<line fill="none" stroke="#FFE000" stroke-width="0.1" stroke-linecap="round" stroke-linejoin="round" x1="19.752" y1="28.844" x2="20.797" y2="37.152"/>
	
		<line fill="none" stroke="#FFE000" stroke-width="0.1" stroke-linecap="round" stroke-linejoin="round" x1="18.444" y1="39.386" x2="20.797" y2="37.152"/>
	
		<line fill="none" stroke="#FFE000" stroke-width="0.1" stroke-linecap="round" stroke-linejoin="round" x1="15.953" y1="38.141" x2="18.31" y2="35.922"/>
	
		<line fill="none" stroke="#FFE000" stroke-width="0.1" stroke-linecap="round" stroke-linejoin="round" x1="18.31" y1="35.922" x2="17.219" y2="27.615"/>
	
		<line fill="none" stroke="#FFE000" stroke-width="0.1" stroke-linecap="round" stroke-linejoin="round" x1="30.635" y1="42.963" x2="25.438" y2="40.383"/>
	
		<line fill="none" stroke="#FFE000" stroke-width="0.1" stroke-linecap="round" stroke-linejoin="round" x1="30.234" y1="39.036" x2="30.635" y2="42.963"/>
	<polyline fill="none" stroke="#FFE000" stroke-width="0.1" stroke-linecap="round" stroke-linejoin="round" points="24.67,25.874 
		24.45,23.922 26.069,24.689 	"/>
	
		<line fill="none" stroke="#FFE000" stroke-width="0.1" stroke-linecap="round" stroke-linejoin="round" x1="27.948" y1="27.438" x2="24.67" y2="25.874"/>
	
		<line fill="none" stroke="#FFE000" stroke-width="0.1" stroke-linecap="round" stroke-linejoin="round" x1="24.503" y1="32.232" x2="26.876" y2="33.384"/>
	<polyline fill="none" stroke="#FFE000" stroke-width="0.1" stroke-linecap="round" stroke-linejoin="round" points="24.997,28.783 
		24.886,27.789 27.537,29.059 	"/>
	
		<line fill="none" stroke="#FFE000" stroke-width="0.1" stroke-linecap="round" stroke-linejoin="round" x1="28.254" y1="30.348" x2="24.997" y2="28.783"/>
	
		<line fill="none" stroke="#FFE000" stroke-width="0.1" stroke-linecap="round" stroke-linejoin="round" x1="22.999" y1="42.742" x2="25.438" y2="40.383"/>
	
		<line fill="none" stroke="#FFE000" stroke-width="0.1" stroke-linecap="round" stroke-linejoin="round" x1="25.438" y1="40.383" x2="24.503" y2="32.232"/>
	
		<line fill="none" stroke="#FFE000" stroke-width="0.1" stroke-linecap="round" stroke-linejoin="round" x1="23.216" y1="33.451" x2="24.503" y2="32.232"/>
	
		<line fill="none" stroke="#FFE000" stroke-width="0.1" stroke-linecap="round" stroke-linejoin="round" x1="30.232" y1="39.036" x2="30.084" y2="37.577"/>
	
		<line fill="none" stroke="#FFE000" stroke-width="0.1" stroke-linecap="round" stroke-linejoin="round" x1="31.893" y1="35.82" x2="32.305" y2="40.053"/>
</g>
</svg>
