<?xml version="1.0" encoding="utf-8"?>
<!-- Generator: Adobe Illustrator 16.0.4, SVG Export Plug-In . SVG Version: 6.00 Build 0)  -->
<svg version="1.2" baseProfile="tiny" id="Layer_1" xmlns="http://www.w3.org/2000/svg" xmlns:xlink="http://www.w3.org/1999/xlink"
	 x="0px" y="0px" width="53px" height="53px" viewBox="0 0 53 53" overflow="visible" xml:space="preserve">
<g>
	<polyline fill="none" stroke="#FFE000" stroke-width="0.1" stroke-linecap="round" stroke-linejoin="round" points="42.823,7.463 
		43.415,9.416 34.688,18.586 34.687,18.582 	"/>
	<polyline fill="none" stroke="#FFE000" stroke-width="0.1" stroke-linecap="round" stroke-linejoin="round" points="37.763,22.704 
		38.515,25.279 33.894,29.981 	"/>
	<polyline fill="none" stroke="#FFE000" stroke-width="0.1" stroke-linecap="round" stroke-linejoin="round" points="38.003,15.094 
		39.671,20.751 33.167,27.435 	"/>
	
		<line fill="none" stroke="#FFE000" stroke-width="0.1" stroke-linecap="round" stroke-linejoin="round" x1="30.876" y1="9.188" x2="31.757" y2="12.239"/>
	
		<line fill="none" stroke="#FFE000" stroke-width="0.1" stroke-linecap="round" stroke-linejoin="round" x1="28.177" y1="13.667" x2="29.614" y2="12.104"/>
	
		<line fill="none" stroke="#FFE000" stroke-width="0.1" stroke-linecap="round" stroke-linejoin="round" x1="29.614" y1="12.104" x2="31.992" y2="12.254"/>
	
		<line fill="none" stroke="#FFE000" stroke-width="0.1" stroke-linecap="round" stroke-linejoin="round" x1="29.614" y1="12.104" x2="31.976" y2="20.357"/>
	
		<line fill="none" stroke="#FFE000" stroke-width="0.1" stroke-linecap="round" stroke-linejoin="round" x1="31.976" y1="20.357" x2="39.665" y2="20.75"/>
	
		<line fill="none" stroke="#FFE000" stroke-width="0.1" stroke-linecap="round" stroke-linejoin="round" x1="38.001" y1="15.099" x2="39.665" y2="20.75"/>
	
		<line fill="none" stroke="#FFE000" stroke-width="0.1" stroke-linecap="round" stroke-linejoin="round" x1="31.976" y1="20.357" x2="9.585" y2="43.962"/>
	
		<line fill="none" stroke="#FFE000" stroke-width="0.1" stroke-linecap="round" stroke-linejoin="round" x1="39.665" y1="20.75" x2="33.167" y2="27.431"/>
	
		<line fill="none" stroke="#FFE000" stroke-width="0.1" stroke-linecap="round" stroke-linejoin="round" x1="35.395" y1="25.14" x2="38.509" y2="25.278"/>
	
		<line fill="none" stroke="#FFE000" stroke-width="0.1" stroke-linecap="round" stroke-linejoin="round" x1="37.759" y1="22.709" x2="38.509" y2="25.278"/>
	
		<line fill="none" stroke="#FFE000" stroke-width="0.1" stroke-linecap="round" stroke-linejoin="round" x1="38.509" y1="25.278" x2="33.892" y2="29.977"/>
	
		<line fill="none" stroke="#FFE000" stroke-width="0.1" stroke-linecap="round" stroke-linejoin="round" x1="30.208" y1="14.179" x2="38.812" y2="4.889"/>
	
		<line fill="none" stroke="#FFE000" stroke-width="0.1" stroke-linecap="round" stroke-linejoin="round" x1="40.097" y1="9.19" x2="31.419" y2="18.409"/>
	
		<line fill="none" stroke="#FFE000" stroke-width="0.1" stroke-linecap="round" stroke-linejoin="round" x1="31.419" y1="18.409" x2="34.681" y2="18.586"/>
	
		<line fill="none" stroke="#FFE000" stroke-width="0.1" stroke-linecap="round" stroke-linejoin="round" x1="43.408" y1="9.417" x2="34.681" y2="18.586"/>
	
		<line fill="none" stroke="#FFE000" stroke-width="0.1" stroke-linecap="round" stroke-linejoin="round" x1="39.188" y1="19.13" x2="39.409" y2="18.9"/>
	
		<line fill="none" stroke="#FFE000" stroke-width="0.1" stroke-linecap="round" stroke-linejoin="round" x1="39.409" y1="18.9" x2="39.115" y2="18.884"/>
	
		<line fill="none" stroke="#FFE000" stroke-width="0.1" stroke-linecap="round" stroke-linejoin="round" x1="39.409" y1="18.9" x2="39.27" y2="18.426"/>
	
		<line fill="none" stroke="#FFE000" stroke-width="0.1" stroke-linecap="round" stroke-linejoin="round" x1="39.585" y1="14.765" x2="39.925" y2="14.407"/>
	
		<line fill="none" stroke="#FFE000" stroke-width="0.1" stroke-linecap="round" stroke-linejoin="round" x1="39.925" y1="14.407" x2="40.403" y2="14.436"/>
	
		<line fill="none" stroke="#FFE000" stroke-width="0.1" stroke-linecap="round" stroke-linejoin="round" x1="39.925" y1="14.407" x2="40.683" y2="16.96"/>
	
		<line fill="none" stroke="#FFE000" stroke-width="0.1" stroke-linecap="round" stroke-linejoin="round" x1="40.683" y1="16.96" x2="41.161" y2="16.987"/>
	
		<line fill="none" stroke="#FFE000" stroke-width="0.1" stroke-linecap="round" stroke-linejoin="round" x1="40.403" y1="14.436" x2="41.161" y2="16.987"/>
	
		<line fill="none" stroke="#FFE000" stroke-width="0.1" stroke-linecap="round" stroke-linejoin="round" x1="40.683" y1="16.96" x2="40.341" y2="17.315"/>
	
		<line fill="none" stroke="#FFE000" stroke-width="0.1" stroke-linecap="round" stroke-linejoin="round" x1="40.341" y1="17.315" x2="40.818" y2="17.342"/>
	
		<line fill="none" stroke="#FFE000" stroke-width="0.1" stroke-linecap="round" stroke-linejoin="round" x1="41.161" y1="16.987" x2="40.818" y2="17.342"/>
	
		<line fill="none" stroke="#FFE000" stroke-width="0.1" stroke-linecap="round" stroke-linejoin="round" x1="40.341" y1="17.315" x2="39.585" y2="14.765"/>
	
		<line fill="none" stroke="#FFE000" stroke-width="0.1" stroke-linecap="round" stroke-linejoin="round" x1="25.9" y1="26.761" x2="33.06" y2="27.06"/>
	
		<line fill="none" stroke="#FFE000" stroke-width="0.1" stroke-linecap="round" stroke-linejoin="round" x1="25.9" y1="26.761" x2="27.472" y2="32.423"/>
	
		<line fill="none" stroke="#FFE000" stroke-width="0.1" stroke-linecap="round" stroke-linejoin="round" x1="27.472" y1="32.423" x2="34.659" y2="32.667"/>
	
		<line fill="none" stroke="#FFE000" stroke-width="0.1" stroke-linecap="round" stroke-linejoin="round" x1="33.06" y1="27.06" x2="34.659" y2="32.667"/>
	
		<line fill="none" stroke="#FFE000" stroke-width="0.1" stroke-linecap="round" stroke-linejoin="round" x1="27.472" y1="32.423" x2="12.326" y2="48.035"/>
	
		<line fill="none" stroke="#FFE000" stroke-width="0.1" stroke-linecap="round" stroke-linejoin="round" x1="34.659" y1="32.667" x2="19.317" y2="48.111"/>
	
		<line fill="none" stroke="#FFE000" stroke-width="0.1" stroke-linecap="round" stroke-linejoin="round" x1="38.298" y1="16.111" x2="39.585" y2="14.765"/>
	
		<line fill="none" stroke="#FFE000" stroke-width="0.1" stroke-linecap="round" stroke-linejoin="round" x1="40.341" y1="17.315" x2="39.048" y2="18.655"/>
	
		<line fill="none" stroke="#FFE000" stroke-width="0.1" stroke-linecap="round" stroke-linejoin="round" x1="27.83" y1="20.746" x2="21.036" y2="27.995"/>
	
		<line fill="none" stroke="#FFE000" stroke-width="0.1" stroke-linecap="round" stroke-linejoin="round" x1="27.203" y1="18.521" x2="27.83" y2="20.746"/>
	
		<line fill="none" stroke="#FFE000" stroke-width="0.1" stroke-linecap="round" stroke-linejoin="round" x1="29.218" y1="19.333" x2="28.907" y2="18.234"/>
	
		<line fill="none" stroke="#FFE000" stroke-width="0.1" stroke-linecap="round" stroke-linejoin="round" x1="29.218" y1="19.333" x2="29.157" y2="19.33"/>
	
		<line fill="none" stroke="#FFE000" stroke-width="0.1" stroke-linecap="round" stroke-linejoin="round" x1="34.501" y1="13.698" x2="29.218" y2="19.333"/>
	
		<line fill="none" stroke="#FFE000" stroke-width="0.1" stroke-linecap="round" stroke-linejoin="round" x1="34.501" y1="13.698" x2="34.44" y2="13.694"/>
	
		<line fill="none" stroke="#FFE000" stroke-width="0.1" stroke-linecap="round" stroke-linejoin="round" x1="34.179" y1="12.586" x2="34.501" y2="13.698"/>
	
		<line fill="none" stroke="#FFE000" stroke-width="0.1" stroke-linecap="round" stroke-linejoin="round" x1="34.179" y1="12.586" x2="34.116" y2="12.582"/>
	
		<line fill="none" stroke="#FFE000" stroke-width="0.1" stroke-linecap="round" stroke-linejoin="round" x1="28.907" y1="18.234" x2="34.179" y2="12.586"/>
	
		<line fill="none" stroke="#FFE000" stroke-width="0.1" stroke-linecap="round" stroke-linejoin="round" x1="28.847" y1="18.229" x2="28.907" y2="18.234"/>
	
		<line fill="none" stroke="#FFE000" stroke-width="0.1" stroke-linecap="round" stroke-linejoin="round" x1="29.157" y1="19.33" x2="28.847" y2="18.229"/>
	
		<line fill="none" stroke="#FFE000" stroke-width="0.1" stroke-linecap="round" stroke-linejoin="round" x1="34.44" y1="13.694" x2="29.157" y2="19.33"/>
	
		<line fill="none" stroke="#FFE000" stroke-width="0.1" stroke-linecap="round" stroke-linejoin="round" x1="34.116" y1="12.582" x2="34.44" y2="13.694"/>
	
		<line fill="none" stroke="#FFE000" stroke-width="0.1" stroke-linecap="round" stroke-linejoin="round" x1="28.847" y1="18.229" x2="34.116" y2="12.582"/>
	
		<line fill="none" stroke="#FFE000" stroke-width="0.1" stroke-linecap="round" stroke-linejoin="round" x1="37.237" y1="20.531" x2="36.497" y2="17.996"/>
	
		<line fill="none" stroke="#FFE000" stroke-width="0.1" stroke-linecap="round" stroke-linejoin="round" x1="39.048" y1="18.655" x2="37.237" y2="20.531"/>
	
		<line fill="none" stroke="#FFE000" stroke-width="0.1" stroke-linecap="round" stroke-linejoin="round" x1="36.497" y1="17.996" x2="38.298" y2="16.111"/>
	
		<line fill="none" stroke="#FFE000" stroke-width="0.1" stroke-linecap="round" stroke-linejoin="round" x1="17.882" y1="42.683" x2="33.06" y2="27.06"/>
	
		<line fill="none" stroke="#FFE000" stroke-width="0.1" stroke-linecap="round" stroke-linejoin="round" x1="32.261" y1="23.972" x2="31.591" y2="21.628"/>
	
		<line fill="none" stroke="#FFE000" stroke-width="0.1" stroke-linecap="round" stroke-linejoin="round" x1="31.319" y1="23.928" x2="30.651" y2="21.581"/>
	
		<line fill="none" stroke="#FFE000" stroke-width="0.1" stroke-linecap="round" stroke-linejoin="round" x1="35.577" y1="20.517" x2="32.261" y2="23.972"/>
	
		<line fill="none" stroke="#FFE000" stroke-width="0.1" stroke-linecap="round" stroke-linejoin="round" x1="31.319" y1="23.928" x2="32.261" y2="23.972"/>
	
		<line fill="none" stroke="#FFE000" stroke-width="0.1" stroke-linecap="round" stroke-linejoin="round" x1="34.632" y1="20.468" x2="34.181" y2="20.937"/>
	
		<line fill="none" stroke="#FFE000" stroke-width="0.1" stroke-linecap="round" stroke-linejoin="round" x1="34.892" y1="18.157" x2="35.577" y2="20.517"/>
	
		<line fill="none" stroke="#FFE000" stroke-width="0.1" stroke-linecap="round" stroke-linejoin="round" x1="34.632" y1="20.468" x2="35.577" y2="20.517"/>
	
		<line fill="none" stroke="#FFE000" stroke-width="0.1" stroke-linecap="round" stroke-linejoin="round" x1="33.948" y1="18.105" x2="34.632" y2="20.468"/>
	
		<line fill="none" stroke="#FFE000" stroke-width="0.1" stroke-linecap="round" stroke-linejoin="round" x1="30.651" y1="21.581" x2="31.591" y2="21.628"/>
	
		<line fill="none" stroke="#FFE000" stroke-width="0.1" stroke-linecap="round" stroke-linejoin="round" x1="31.591" y1="21.628" x2="34.892" y2="18.157"/>
	
		<line fill="none" stroke="#FFE000" stroke-width="0.1" stroke-linecap="round" stroke-linejoin="round" x1="33.948" y1="18.105" x2="34.892" y2="18.157"/>
	
		<line fill="none" stroke="#FFE000" stroke-width="0.1" stroke-linecap="round" stroke-linejoin="round" x1="30.651" y1="21.581" x2="33.948" y2="18.105"/>
	
		<line fill="none" stroke="#FFE000" stroke-width="0.1" stroke-linecap="round" stroke-linejoin="round" x1="40.818" y1="17.342" x2="40.061" y2="14.793"/>
	
		<line fill="none" stroke="#FFE000" stroke-width="0.1" stroke-linecap="round" stroke-linejoin="round" x1="39.585" y1="14.765" x2="40.061" y2="14.793"/>
	
		<line fill="none" stroke="#FFE000" stroke-width="0.1" stroke-linecap="round" stroke-linejoin="round" x1="40.061" y1="14.793" x2="40.403" y2="14.436"/>
	
		<line fill="none" stroke="#FFE000" stroke-width="0.1" stroke-linecap="round" stroke-linejoin="round" x1="29.263" y1="27.474" x2="29.027" y2="26.632"/>
	
		<line fill="none" stroke="#FFE000" stroke-width="0.1" stroke-linecap="round" stroke-linejoin="round" x1="27.978" y1="27.421" x2="27.742" y2="26.578"/>
	
		<line fill="none" stroke="#FFE000" stroke-width="0.1" stroke-linecap="round" stroke-linejoin="round" x1="30.263" y1="26.431" x2="29.263" y2="27.474"/>
	
		<line fill="none" stroke="#FFE000" stroke-width="0.1" stroke-linecap="round" stroke-linejoin="round" x1="27.978" y1="27.421" x2="29.263" y2="27.474"/>
	
		<line fill="none" stroke="#FFE000" stroke-width="0.1" stroke-linecap="round" stroke-linejoin="round" x1="28.977" y1="26.377" x2="30.263" y2="26.431"/>
	
		<line fill="none" stroke="#FFE000" stroke-width="0.1" stroke-linecap="round" stroke-linejoin="round" x1="28.739" y1="25.534" x2="28.977" y2="26.377"/>
	
		<line fill="none" stroke="#FFE000" stroke-width="0.1" stroke-linecap="round" stroke-linejoin="round" x1="27.742" y1="26.578" x2="29.027" y2="26.632"/>
	
		<line fill="none" stroke="#FFE000" stroke-width="0.1" stroke-linecap="round" stroke-linejoin="round" x1="29.027" y1="26.632" x2="30.025" y2="25.589"/>
	
		<line fill="none" stroke="#FFE000" stroke-width="0.1" stroke-linecap="round" stroke-linejoin="round" x1="28.739" y1="25.534" x2="30.025" y2="25.589"/>
	
		<line fill="none" stroke="#FFE000" stroke-width="0.1" stroke-linecap="round" stroke-linejoin="round" x1="27.742" y1="26.578" x2="28.739" y2="25.534"/>
	
		<line fill="none" stroke="#FFE000" stroke-width="0.1" stroke-linecap="round" stroke-linejoin="round" x1="37.08" y1="17.044" x2="29.774" y2="24.698"/>
	
		<line fill="none" stroke="#FFE000" stroke-width="0.1" stroke-linecap="round" stroke-linejoin="round" x1="38.892" y1="17.146" x2="31.563" y2="24.779"/>
	
		<line fill="none" stroke="#FFE000" stroke-width="0.1" stroke-linecap="round" stroke-linejoin="round" x1="37.595" y1="18.802" x2="37.08" y2="17.044"/>
	
		<line fill="none" stroke="#FFE000" stroke-width="0.1" stroke-linecap="round" stroke-linejoin="round" x1="38.892" y1="17.146" x2="37.08" y2="17.044"/>
	
		<line fill="none" stroke="#FFE000" stroke-width="0.1" stroke-linecap="round" stroke-linejoin="round" x1="39.27" y1="18.426" x2="38.892" y2="17.146"/>
	
		<line fill="none" stroke="#FFE000" stroke-width="0.1" stroke-linecap="round" stroke-linejoin="round" x1="30.263" y1="26.431" x2="37.595" y2="18.802"/>
	
		<line fill="none" stroke="#FFE000" stroke-width="0.1" stroke-linecap="round" stroke-linejoin="round" x1="39.115" y1="18.884" x2="37.595" y2="18.802"/>
	
		<line fill="none" stroke="#FFE000" stroke-width="0.1" stroke-linecap="round" stroke-linejoin="round" x1="37.288" y1="21.094" x2="39.188" y2="19.13"/>
	
		<line fill="none" stroke="#FFE000" stroke-width="0.1" stroke-linecap="round" stroke-linejoin="round" x1="31.563" y1="24.779" x2="29.774" y2="24.698"/>
	
		<line fill="none" stroke="#FFE000" stroke-width="0.1" stroke-linecap="round" stroke-linejoin="round" x1="29.774" y1="24.698" x2="30.263" y2="26.431"/>
	
		<line fill="none" stroke="#FFE000" stroke-width="0.1" stroke-linecap="round" stroke-linejoin="round" x1="32.056" y1="26.508" x2="30.263" y2="26.431"/>
	
		<line fill="none" stroke="#FFE000" stroke-width="0.1" stroke-linecap="round" stroke-linejoin="round" x1="31.563" y1="24.779" x2="32.056" y2="26.508"/>
	
		<line fill="none" stroke="#FFE000" stroke-width="0.1" stroke-linecap="round" stroke-linejoin="round" x1="30.892" y1="36.06" x2="28.829" y2="28.692"/>
	
		<line fill="none" stroke="#FFE000" stroke-width="0.1" stroke-linecap="round" stroke-linejoin="round" x1="28.407" y1="30.281" x2="27.954" y2="28.657"/>
	
		<line fill="none" stroke="#FFE000" stroke-width="0.1" stroke-linecap="round" stroke-linejoin="round" x1="29.444" y1="28.054" x2="31.519" y2="35.429"/>
	
		<line fill="none" stroke="#FFE000" stroke-width="0.1" stroke-linecap="round" stroke-linejoin="round" x1="28.57" y1="28.015" x2="30.638" y2="35.403"/>
	
		<line fill="none" stroke="#FFE000" stroke-width="0.1" stroke-linecap="round" stroke-linejoin="round" x1="27.954" y1="28.657" x2="28.829" y2="28.692"/>
	
		<line fill="none" stroke="#FFE000" stroke-width="0.1" stroke-linecap="round" stroke-linejoin="round" x1="28.829" y1="28.692" x2="29.444" y2="28.054"/>
	
		<line fill="none" stroke="#FFE000" stroke-width="0.1" stroke-linecap="round" stroke-linejoin="round" x1="28.57" y1="28.015" x2="29.444" y2="28.054"/>
	
		<line fill="none" stroke="#FFE000" stroke-width="0.1" stroke-linecap="round" stroke-linejoin="round" x1="27.954" y1="28.657" x2="28.57" y2="28.015"/>
	
		<line fill="none" stroke="#FFE000" stroke-width="0.1" stroke-linecap="round" stroke-linejoin="round" x1="34.681" y1="18.586" x2="33.464" y2="14.375"/>
	
		<line fill="none" stroke="#FFE000" stroke-width="0.1" stroke-linecap="round" stroke-linejoin="round" x1="27.263" y1="18.524" x2="27.89" y2="20.75"/>
	
		<line fill="none" stroke="#FFE000" stroke-width="0.1" stroke-linecap="round" stroke-linejoin="round" x1="27.89" y1="20.75" x2="27.83" y2="20.746"/>
	
		<line fill="none" stroke="#FFE000" stroke-width="0.1" stroke-linecap="round" stroke-linejoin="round" x1="27.89" y1="20.75" x2="21.097" y2="27.997"/>
	
		<line fill="none" stroke="#FFE000" stroke-width="0.1" stroke-linecap="round" stroke-linejoin="round" x1="30.208" y1="14.179" x2="33.464" y2="14.375"/>
	
		<line fill="none" stroke="#FFE000" stroke-width="0.1" stroke-linecap="round" stroke-linejoin="round" x1="33.464" y1="14.375" x2="42.113" y2="5.134"/>
	
		<line fill="none" stroke="#FFE000" stroke-width="0.1" stroke-linecap="round" stroke-linejoin="round" x1="29.554" y1="34.39" x2="28.407" y2="30.281"/>
	
		<line fill="none" stroke="#FFE000" stroke-width="0.1" stroke-linecap="round" stroke-linejoin="round" x1="26.487" y1="34.296" x2="25.349" y2="30.171"/>
	
		<line fill="none" stroke="#FFE000" stroke-width="0.1" stroke-linecap="round" stroke-linejoin="round" x1="33.892" y1="29.977" x2="29.554" y2="34.39"/>
	
		<line fill="none" stroke="#FFE000" stroke-width="0.1" stroke-linecap="round" stroke-linejoin="round" x1="37.288" y1="21.094" x2="37.759" y2="22.709"/>
	
		<line fill="none" stroke="#FFE000" stroke-width="0.1" stroke-linecap="round" stroke-linejoin="round" x1="34.181" y1="20.937" x2="35.395" y2="25.14"/>
	
		<line fill="none" stroke="#FFE000" stroke-width="0.1" stroke-linecap="round" stroke-linejoin="round" x1="25.349" y1="30.171" x2="28.407" y2="30.281"/>
	
		<line fill="none" stroke="#FFE000" stroke-width="0.1" stroke-linecap="round" stroke-linejoin="round" x1="28.407" y1="30.281" x2="37.288" y2="21.094"/>
	
		<line fill="none" stroke="#FFE000" stroke-width="0.1" stroke-linecap="round" stroke-linejoin="round" x1="34.181" y1="20.937" x2="37.288" y2="21.094"/>
	
		<line fill="none" stroke="#FFE000" stroke-width="0.1" stroke-linecap="round" stroke-linejoin="round" x1="25.349" y1="30.171" x2="34.181" y2="20.937"/>
	
		<line fill="none" stroke="#FFE000" stroke-width="0.1" stroke-linecap="round" stroke-linejoin="round" x1="33.167" y1="27.431" x2="16.966" y2="44.085"/>
	
		<line fill="none" stroke="#FFE000" stroke-width="0.1" stroke-linecap="round" stroke-linejoin="round" x1="37.259" y1="12.585" x2="38.001" y2="15.099"/>
	
		<line fill="none" stroke="#FFE000" stroke-width="0.1" stroke-linecap="round" stroke-linejoin="round" x1="14.917" y1="36.29" x2="37.259" y2="12.585"/>
	
		<line fill="none" stroke="#FFE000" stroke-width="0.1" stroke-linecap="round" stroke-linejoin="round" x1="31.992" y1="12.254" x2="37.259" y2="12.585"/>
	
		<line fill="none" stroke="#FFE000" stroke-width="0.1" stroke-linecap="round" stroke-linejoin="round" x1="32.24" y1="13.913" x2="25.679" y2="20.958"/>
	
		<line fill="none" stroke="#FFE000" stroke-width="0.1" stroke-linecap="round" stroke-linejoin="round" x1="31.757" y1="12.239" x2="32.24" y2="13.913"/>
	
		<line fill="none" stroke="#FFE000" stroke-width="0.1" stroke-linecap="round" stroke-linejoin="round" x1="28.177" y1="13.667" x2="32.24" y2="13.913"/>
	<polyline fill="none" stroke="#FFE000" stroke-width="0.1" stroke-linecap="round" stroke-linejoin="round" points="14.923,36.29 
		37.265,12.586 38.003,15.094 	"/>
	<polyline fill="none" stroke="#FFE000" stroke-width="0.1" stroke-linecap="round" stroke-linejoin="round" points="33.167,27.435 
		16.971,44.083 14.923,36.29 	"/>
	<polyline fill="none" stroke="#FFE000" stroke-width="0.1" stroke-linecap="round" stroke-linejoin="round" points="28.415,30.28 
		37.294,21.094 37.763,22.704 	"/>
	<polyline fill="none" stroke="#FFE000" stroke-width="0.1" stroke-linecap="round" stroke-linejoin="round" points="33.894,29.981 
		29.561,34.39 28.415,30.28 	"/>
	<polyline fill="none" stroke="#FFE000" stroke-width="0.1" stroke-linecap="round" stroke-linejoin="round" points="33.468,14.375 
		42.119,5.135 42.302,5.741 	"/>
	
		<line fill="none" stroke="#FFE000" stroke-width="0.1" stroke-linecap="round" stroke-linejoin="round" x1="34.687" y1="18.582" x2="33.468" y2="14.375"/>
	
		<line fill="none" stroke="#FFE000" stroke-width="0.1" stroke-linecap="round" stroke-linejoin="round" x1="30.876" y1="9.188" x2="27.507" y2="12.872"/>
</g>
</svg>
