<?xml version="1.0" encoding="utf-8"?>
<!-- Generator: Adobe Illustrator 16.0.4, SVG Export Plug-In . SVG Version: 6.00 Build 0)  -->
<!DOCTYPE svg PUBLIC "-//W3C//DTD SVG 1.1//EN" "http://www.w3.org/Graphics/SVG/1.1/DTD/svg11.dtd">
<svg version="1.1" id="Layer_1" xmlns="http://www.w3.org/2000/svg" xmlns:xlink="http://www.w3.org/1999/xlink" x="0px" y="0px"
	 width="253px" height="240px" viewBox="0 0 253 240" enable-background="new 0 0 253 240" xml:space="preserve">
<g>
	<path d="M7.912,16.297c0.136-0.709,0.077-1.241-0.177-1.595s-0.772-0.743-1.552-1.166c-1.439-0.587-2.487-1.287-3.142-2.1
		c-0.655-0.812-0.854-1.867-0.596-3.164c0.258-1.289,0.87-2.286,1.837-2.992C5.249,4.575,6.398,4.222,7.73,4.222
		c1.418,0,2.514,0.429,3.287,1.288c0.773,0.858,0.999,2.024,0.677,3.498l-0.021,0.054H8.717C8.86,8.33,8.796,7.747,8.524,7.312
		C8.251,6.878,7.826,6.661,7.246,6.661c-0.387,0-0.756,0.154-1.106,0.463c-0.352,0.309-0.57,0.682-0.656,1.12
		C5.348,8.919,5.423,9.422,5.709,9.752s0.917,0.736,1.891,1.217c1.325,0.552,2.281,1.235,2.868,2.052
		c0.587,0.816,0.745,1.901,0.473,3.255c-0.272,1.339-0.885,2.347-1.837,3.024c-0.953,0.677-2.102,1.015-3.448,1.015
		c-1.39,0-2.551-0.388-3.486-1.166c-0.935-0.777-1.223-1.982-0.865-3.615l0.021-0.054H4.28c-0.187,0.91-0.084,1.536,0.306,1.88
		c0.39,0.344,0.908,0.516,1.552,0.516c0.372,0,0.737-0.152,1.096-0.457C7.593,17.115,7.818,16.741,7.912,16.297z"/>
	<path d="M11.8,20.089l3.126-15.641h4.2c1.461,0,2.639,0.638,3.534,1.912c0.895,1.275,1.156,2.84,0.784,4.694l-0.526,2.632
		c-0.416,2.062-1.169,3.646-2.261,4.748c-1.092,1.103-2.412,1.654-3.958,1.654L11.8,20.089L11.8,20.089z M17.472,6.887L15.324,17.65
		h1.687c0.716,0,1.312-0.348,1.789-1.043c0.476-0.695,0.839-1.67,1.09-2.925l0.537-2.656c0.243-1.269,0.186-2.276-0.172-3.022
		s-0.953-1.118-1.783-1.118h-1V6.887z"/>
	<path d="M31.061,16.297c0.136-0.709,0.077-1.241-0.177-1.595c-0.254-0.354-0.772-0.743-1.552-1.166
		c-1.439-0.587-2.487-1.287-3.142-2.1c-0.655-0.812-0.854-1.867-0.596-3.164c0.258-1.289,0.87-2.286,1.837-2.992
		c0.967-0.705,2.116-1.058,3.448-1.058c1.418,0,2.514,0.429,3.287,1.288c0.773,0.858,0.999,2.024,0.677,3.498l-0.021,0.054h-2.954
		c0.143-0.732,0.079-1.315-0.193-1.75c-0.272-0.434-0.698-0.651-1.278-0.651c-0.387,0-0.756,0.154-1.106,0.463
		c-0.351,0.309-0.569,0.682-0.655,1.12c-0.136,0.675-0.061,1.178,0.226,1.508c0.286,0.33,0.917,0.736,1.891,1.217
		c1.325,0.552,2.281,1.235,2.868,2.052c0.587,0.816,0.745,1.901,0.473,3.255c-0.272,1.339-0.885,2.347-1.837,3.024
		c-0.953,0.677-2.102,1.015-3.448,1.015c-1.39,0-2.551-0.388-3.486-1.166c-0.935-0.777-1.223-1.982-0.865-3.615l0.021-0.054h2.954
		c-0.187,0.91-0.084,1.536,0.306,1.88c0.39,0.344,0.908,0.516,1.552,0.516c0.372,0,0.737-0.152,1.096-0.457
		C30.742,17.115,30.968,16.741,31.061,16.297z"/>
</g>
<g>
	<path d="M43.2,13.901v6.188h-2.18V4.448h5.135c1.461,0,2.606,0.434,3.438,1.302c0.831,0.868,1.246,2.01,1.246,3.424
		c0,1.422-0.416,2.565-1.246,3.43c-0.831,0.865-1.977,1.297-3.438,1.297H43.2z M43.2,12.247h2.954c0.823,0,1.446-0.289,1.869-0.868
		c0.422-0.579,0.634-1.306,0.634-2.183c0-0.891-0.209-1.629-0.628-2.215c-0.419-0.586-1.044-0.879-1.875-0.879H43.2V12.247z"/>
	<path d="M62.891,4.448v10.839c0,1.619-0.464,2.861-1.391,3.728c-0.928,0.867-2.14,1.3-3.636,1.3c-1.476,0-2.668-0.433-3.577-1.3
		c-0.91-0.866-1.364-2.109-1.364-3.728V4.448h2.159v10.839c0,1.117,0.25,1.959,0.752,2.524c0.501,0.566,1.178,0.849,2.03,0.849
		c0.888,0,1.586-0.272,2.095-0.816c0.508-0.544,0.763-1.396,0.763-2.557V4.448H62.891z"/>
	<path d="M67.821,13.343v6.746H65.64V4.459h4.866c1.482,0,2.628,0.383,3.438,1.149c0.809,0.766,1.214,1.864,1.214,3.295
		c0,0.816-0.188,1.528-0.564,2.137c-0.376,0.609-0.918,1.084-1.627,1.428c0.78,0.265,1.344,0.715,1.692,1.349
		c0.347,0.634,0.521,1.417,0.521,2.349v1.365c0,0.479,0.048,0.926,0.145,1.338c0.097,0.412,0.263,0.736,0.5,0.973v0.247H73.58
		c-0.244-0.237-0.399-0.594-0.467-1.07c-0.068-0.477-0.102-0.981-0.102-1.512v-1.324c0-0.875-0.199-1.567-0.596-2.077
		c-0.397-0.51-0.944-0.764-1.638-0.764L67.821,13.343L67.821,13.343z M67.821,11.688h2.578c0.881,0,1.531-0.238,1.95-0.716
		c0.419-0.477,0.628-1.153,0.628-2.029c0-0.897-0.204-1.593-0.612-2.088c-0.408-0.495-1.028-0.743-1.858-0.743h-2.686V11.688z"/>
	<path d="M80.304,13.901v6.188h-2.181V4.448h5.135c1.461,0,2.606,0.434,3.438,1.302c0.831,0.868,1.246,2.01,1.246,3.424
		c0,1.422-0.416,2.565-1.246,3.43c-0.831,0.865-1.977,1.297-3.438,1.297H80.304z M80.304,12.247h2.954
		c0.823,0,1.446-0.289,1.869-0.868c0.422-0.579,0.634-1.306,0.634-2.183c0-0.891-0.209-1.629-0.628-2.215
		c-0.419-0.586-1.044-0.879-1.875-0.879h-2.954V12.247z"/>
	<path d="M100.241,14.428c0,1.855-0.48,3.3-1.439,4.334c-0.96,1.035-2.245,1.552-3.856,1.552c-1.59,0-2.854-0.517-3.792-1.552
		c-0.938-1.035-1.407-2.479-1.407-4.334v-4.297c0-1.848,0.471-3.294,1.413-4.34c0.941-1.045,2.204-1.568,3.787-1.568
		c1.604,0,2.888,0.523,3.851,1.568c0.963,1.046,1.445,2.492,1.445,4.34v4.297H100.241z M98.071,10.099
		c0-1.36-0.272-2.394-0.816-3.099s-1.314-1.058-2.31-1.058c-0.981,0-1.733,0.353-2.256,1.058c-0.523,0.706-0.784,1.739-0.784,3.099
		v4.329c0,1.375,0.263,2.417,0.79,3.126c0.527,0.709,1.276,1.063,2.25,1.063c1.002,0,1.774-0.353,2.315-1.058
		c0.541-0.705,0.811-1.749,0.811-3.131V10.099z"/>
	<path d="M109.899,16.146c0-0.737-0.209-1.343-0.623-1.815c-0.416-0.473-1.143-0.888-2.182-1.246
		c-1.489-0.451-2.631-1.039-3.426-1.765s-1.193-1.686-1.193-2.88c0-1.23,0.442-2.241,1.327-3.031
		c0.884-0.79,2.021-1.186,3.411-1.186c1.445,0,2.611,0.457,3.496,1.37c0.885,0.913,1.312,2.014,1.283,3.303l-0.021,0.064h-2.094
		c0-0.913-0.235-1.655-0.704-2.226c-0.47-0.571-1.13-0.857-1.981-0.857c-0.811,0-1.435,0.238-1.875,0.714
		c-0.44,0.477-0.66,1.083-0.66,1.821c0,0.666,0.236,1.227,0.709,1.681c0.473,0.455,1.252,0.869,2.342,1.241
		c1.424,0.445,2.51,1.051,3.254,1.817c0.745,0.768,1.117,1.76,1.117,2.979c0,1.283-0.439,2.302-1.32,3.054
		c-0.881,0.753-2.038,1.129-3.471,1.129c-1.396,0-2.615-0.414-3.657-1.241c-1.042-0.827-1.546-1.993-1.509-3.497l0.021-0.064h2.094
		c0,1.07,0.281,1.863,0.844,2.377c0.562,0.514,1.298,0.771,2.207,0.771c0.816,0,1.456-0.227,1.918-0.682
		C109.667,17.523,109.899,16.913,109.899,16.146z"/>
	<path d="M122.401,12.816h-5.8v5.618h6.724v1.654h-8.905V4.448h8.84v1.654h-6.66v5.06h5.8L122.401,12.816L122.401,12.816z"/>
	<path d="M133.35,13.128h-5.812v6.961h-2.18V4.448h8.926v1.654h-6.746v5.371h5.812V13.128z"/>
	<path d="M146.023,4.448v10.839c0,1.619-0.465,2.861-1.393,3.728c-0.926,0.867-2.139,1.3-3.635,1.3c-1.477,0-2.668-0.433-3.578-1.3
		c-0.908-0.866-1.363-2.109-1.363-3.728V4.448h2.158v10.839c0,1.117,0.252,1.959,0.752,2.524c0.502,0.566,1.178,0.849,2.031,0.849
		c0.887,0,1.586-0.272,2.094-0.816c0.51-0.544,0.764-1.396,0.764-2.557V4.448H146.023z"/>
	<path d="M150.954,18.435h6.103v1.654h-8.281V4.448h2.18L150.954,18.435L150.954,18.435z"/>
	<path d="M161.171,18.435h6.103v1.654h-8.281V4.448h2.18L161.171,18.435L161.171,18.435z"/>
	<path d="M171.038,12.043h0.063l3.201-7.595h2.416l-4.598,10.012v5.629h-2.17V14.32l-4.543-9.872h2.438L171.038,12.043z"/>
</g>
<g>
	<path d="M4.141,51.087h-2.17V35.446h2.17V51.087z"/>
	<path d="M17.214,48.863c-0.358,0.63-0.94,1.196-1.746,1.697c-0.806,0.501-1.835,0.752-3.088,0.752c-1.64,0-2.961-0.498-3.964-1.493
		c-1.003-0.995-1.504-2.413-1.504-4.254v-4.641c0-1.812,0.476-3.215,1.429-4.211c0.952-0.995,2.216-1.493,3.792-1.493
		c1.597,0,2.818,0.403,3.663,1.208c0.845,0.806,1.296,1.937,1.354,3.389l-0.021,0.064h-2.062c-0.036-0.981-0.292-1.728-0.768-2.24
		c-0.477-0.512-1.187-0.768-2.132-0.768c-0.953,0-1.705,0.343-2.256,1.028c-0.552,0.685-0.827,1.68-0.827,2.986v4.67
		c0,1.334,0.295,2.351,0.886,3.051c0.591,0.699,1.395,1.049,2.412,1.049c0.745,0,1.323-0.127,1.735-0.381
		c0.412-0.254,0.718-0.578,0.918-0.972v-3.556H12.36V43.17h4.855L17.214,48.863L17.214,48.863z"/>
	<path d="M30.545,51.087h-2.17l-5.93-11.634l-0.064,0.021v11.612H20.2v-15.64h2.181l5.93,11.602l0.064-0.021v-11.58h2.17V51.087z"/>
	<path d="M43.554,45.426c0,1.855-0.48,3.3-1.439,4.334c-0.96,1.035-2.245,1.552-3.856,1.552c-1.59,0-2.854-0.517-3.792-1.552
		c-0.938-1.035-1.407-2.479-1.407-4.334v-4.297c0-1.848,0.471-3.294,1.413-4.34c0.941-1.045,2.204-1.568,3.787-1.568
		c1.604,0,2.888,0.523,3.851,1.568c0.963,1.046,1.445,2.492,1.445,4.34v4.297H43.554z M41.384,41.097
		c0-1.36-0.272-2.394-0.816-3.099s-1.314-1.058-2.31-1.058c-0.981,0-1.733,0.353-2.256,1.058c-0.523,0.706-0.784,1.739-0.784,3.099
		v4.329c0,1.375,0.263,2.417,0.79,3.126c0.527,0.709,1.276,1.063,2.25,1.063c1.002,0,1.774-0.353,2.315-1.058
		c0.541-0.705,0.811-1.749,0.811-3.131V41.097z"/>
	<path d="M48.238,44.341v6.746h-2.181v-15.63h4.866c1.482,0,2.628,0.383,3.438,1.149c0.809,0.766,1.214,1.864,1.214,3.295
		c0,0.816-0.188,1.528-0.564,2.137c-0.376,0.609-0.918,1.084-1.627,1.428c0.78,0.265,1.344,0.715,1.692,1.349
		c0.347,0.634,0.521,1.417,0.521,2.349v1.365c0,0.48,0.048,0.926,0.145,1.338c0.097,0.412,0.263,0.736,0.5,0.973v0.247h-2.245
		c-0.244-0.237-0.399-0.594-0.467-1.07c-0.068-0.477-0.102-0.981-0.102-1.512v-1.324c0-0.875-0.199-1.567-0.596-2.077
		s-0.944-0.764-1.638-0.764L48.238,44.341L48.238,44.341z M48.238,42.687h2.578c0.881,0,1.531-0.238,1.95-0.716
		c0.419-0.477,0.628-1.153,0.628-2.029c0-0.897-0.204-1.593-0.612-2.088c-0.408-0.495-1.028-0.743-1.858-0.743h-2.686V42.687z"/>
	<path d="M66.521,43.814H60.72v5.618h6.725v1.654H58.54v-15.64h8.841V37.1h-6.66v5.06h5.801L66.521,43.814L66.521,43.814z"/>
	<path d="M76.629,47.145c0-0.737-0.208-1.343-0.623-1.815c-0.416-0.473-1.143-0.888-2.181-1.246
		c-1.49-0.451-2.632-1.039-3.427-1.765s-1.192-1.686-1.192-2.88c0-1.23,0.442-2.241,1.327-3.031c0.884-0.79,2.021-1.186,3.411-1.186
		c1.446,0,2.612,0.457,3.497,1.37c0.884,0.913,1.312,2.014,1.284,3.303l-0.021,0.064h-2.095c0-0.913-0.235-1.655-0.704-2.226
		c-0.469-0.571-1.13-0.857-1.982-0.857c-0.81,0-1.434,0.238-1.875,0.714c-0.44,0.477-0.661,1.083-0.661,1.821
		c0,0.666,0.236,1.227,0.709,1.681c0.473,0.455,1.253,0.869,2.342,1.241c1.425,0.445,2.51,1.051,3.255,1.817
		c0.745,0.768,1.117,1.76,1.117,2.979c0,1.283-0.44,2.302-1.321,3.054c-0.881,0.753-2.038,1.129-3.47,1.129
		c-1.396,0-2.616-0.414-3.658-1.241c-1.042-0.827-1.545-1.993-1.509-3.497l0.021-0.064h2.095c0,1.07,0.281,1.863,0.843,2.377
		c0.562,0.514,1.298,0.771,2.208,0.771c0.816,0,1.456-0.227,1.917-0.682C76.398,48.521,76.629,47.911,76.629,47.145z"/>
	<path d="M94.999,37.101h-4.018v13.986H88.8V37.101h-3.996v-1.654h10.194L94.999,37.101L94.999,37.101z"/>
	<path d="M107.223,51.087h-2.17V44.18h-5.994v6.907h-2.181V35.446h2.181v7.079h5.994v-7.079h2.17V51.087z"/>
	<path d="M118.245,43.814h-5.801v5.618h6.725v1.654h-8.906v-15.64h8.841V37.1h-6.661v5.06h5.801L118.245,43.814L118.245,43.814z"/>
	<path d="M135.046,37.101h-4.019v13.986h-2.182V37.101h-3.996v-1.654h10.195L135.046,37.101L135.046,37.101z"/>
	<path d="M139.105,44.341v6.746h-2.182v-15.63h4.867c1.482,0,2.627,0.383,3.438,1.149c0.81,0.766,1.213,1.864,1.213,3.295
		c0,0.816-0.188,1.528-0.562,2.137c-0.377,0.608-0.92,1.084-1.629,1.428c0.781,0.265,1.347,0.715,1.692,1.349
		c0.347,0.634,0.521,1.417,0.521,2.349v1.365c0,0.48,0.05,0.926,0.146,1.338c0.097,0.412,0.263,0.736,0.498,0.973v0.247h-2.244
		c-0.243-0.237-0.399-0.594-0.467-1.07c-0.067-0.477-0.104-0.981-0.104-1.512v-1.324c0-0.875-0.197-1.567-0.596-2.077
		c-0.396-0.509-0.943-0.764-1.639-0.764L139.105,44.341L139.105,44.341z M139.105,42.687h2.578c0.881,0,1.531-0.238,1.949-0.716
		c0.42-0.477,0.629-1.153,0.629-2.029c0-0.897-0.205-1.593-0.613-2.088c-0.407-0.495-1.026-0.743-1.856-0.743h-2.687V42.687z"/>
	<path d="M156.52,47.134h-4.984l-1.139,3.953h-2.213l4.812-15.641h2.104l4.771,15.641h-2.213L156.52,47.134z M152.04,45.404h3.983
		l-1.955-6.832h-0.063L152.04,45.404z"/>
	<path d="M161.622,51.087V35.446h4.297c1.66,0,3.017,0.627,4.063,1.88c1.052,1.253,1.574,2.865,1.574,4.834v2.224
		c0,1.977-0.522,3.588-1.574,4.834c-1.049,1.246-2.403,1.869-4.063,1.869H161.622z M163.802,37.101v12.332h2.041
		c1.097,0,1.962-0.47,2.595-1.41c0.635-0.939,0.951-2.156,0.951-3.648v-2.249c0-1.478-0.316-2.685-0.951-3.621
		c-0.633-0.936-1.498-1.404-2.595-1.404H163.802z"/>
	<path d="M176.339,51.087h-2.17V35.446h2.17V51.087z"/>
	<path d="M188.343,37.101h-4.018v13.986h-2.183V37.101h-3.996v-1.654h10.195L188.343,37.101L188.343,37.101z"/>
	<path d="M192.542,51.087h-2.17V35.446h2.17V51.087z"/>
	<path d="M205.689,45.426c0,1.855-0.479,3.3-1.438,4.334c-0.959,1.035-2.244,1.552-3.854,1.552c-1.59,0-2.854-0.517-3.793-1.552
		c-0.938-1.035-1.406-2.479-1.406-4.334v-4.297c0-1.848,0.471-3.294,1.412-4.34c0.94-1.045,2.203-1.568,3.787-1.568
		c1.604,0,2.887,0.523,3.85,1.568c0.965,1.046,1.445,2.492,1.445,4.34v4.297H205.689z M203.521,41.097
		c0-1.36-0.271-2.394-0.816-3.099c-0.543-0.705-1.314-1.058-2.309-1.058c-0.982,0-1.734,0.353-2.256,1.058
		c-0.523,0.706-0.785,1.739-0.785,3.099v4.329c0,1.375,0.264,2.417,0.789,3.126c0.526,0.709,1.276,1.063,2.252,1.063
		c1.002,0,1.772-0.353,2.313-1.058s0.812-1.749,0.812-3.131V41.097z"/>
	<path d="M218.538,51.087h-2.17l-5.931-11.634l-0.063,0.021v11.612h-2.181v-15.64h2.181l5.931,11.602l0.063-0.021v-11.58h2.17
		V51.087z"/>
	<path d="M228.898,47.134h-4.983l-1.14,3.953h-2.213l4.812-15.641h2.105l4.77,15.641h-2.213L228.898,47.134z M224.419,45.404h3.985
		l-1.954-6.832h-0.063L224.419,45.404z"/>
	<path d="M236.184,49.433h6.102v1.654h-8.283V35.446h2.182V49.433L236.184,49.433z"/>
</g>
<g>
	<path d="M1.821,82.085V66.444h4.361c1.475,0,2.626,0.351,3.454,1.053c0.827,0.702,1.241,1.755,1.241,3.158
		c0,0.745-0.188,1.402-0.564,1.971s-0.897,0.987-1.563,1.251c0.845,0.187,1.495,0.628,1.95,1.327
		c0.455,0.698,0.682,1.517,0.682,2.455c0,1.439-0.407,2.537-1.219,3.292c-0.813,0.756-1.936,1.133-3.368,1.133L1.821,82.085
		L1.821,82.085z M4.001,73.223h2.396c0.716,0,1.278-0.218,1.687-0.652c0.408-0.436,0.612-1.063,0.612-1.883
		c0-0.863-0.213-1.51-0.639-1.941C7.631,68.315,7.006,68.1,6.182,68.1H4.001V73.223z M4.001,74.791v5.64h2.793
		c0.773,0,1.37-0.238,1.789-0.714c0.419-0.476,0.628-1.158,0.628-2.046c0-0.881-0.179-1.581-0.537-2.1
		c-0.358-0.519-0.91-0.779-1.654-0.779L4.001,74.791L4.001,74.791z"/>
	<path d="M23.832,76.424c0,1.855-0.48,3.3-1.439,4.334c-0.96,1.035-2.245,1.552-3.856,1.552c-1.59,0-2.854-0.517-3.792-1.552
		c-0.938-1.035-1.407-2.479-1.407-4.334v-4.297c0-1.848,0.471-3.294,1.413-4.34c0.941-1.045,2.204-1.568,3.787-1.568
		c1.604,0,2.888,0.523,3.851,1.568c0.963,1.046,1.445,2.492,1.445,4.34v4.297H23.832z M21.662,72.095
		c0-1.36-0.272-2.394-0.816-3.099c-0.544-0.705-1.314-1.058-2.31-1.058c-0.981,0-1.733,0.353-2.256,1.058
		c-0.523,0.706-0.784,1.739-0.784,3.099v4.329c0,1.375,0.263,2.417,0.79,3.126c0.527,0.709,1.276,1.063,2.25,1.063
		c1.002,0,1.774-0.354,2.315-1.058c0.541-0.705,0.811-1.749,0.811-3.131V72.095z"/>
	<path d="M36.045,66.444v10.839c0,1.619-0.464,2.861-1.391,3.728c-0.928,0.867-2.14,1.3-3.636,1.3c-1.476,0-2.668-0.433-3.577-1.3
		c-0.91-0.866-1.364-2.109-1.364-3.728V66.444h2.159v10.839c0,1.117,0.25,1.959,0.752,2.524c0.501,0.566,1.178,0.849,2.03,0.849
		c0.888,0,1.586-0.272,2.095-0.816c0.508-0.544,0.763-1.396,0.763-2.557V66.444H36.045z"/>
	<path d="M49.14,82.085h-2.17l-5.93-11.634l-0.064,0.021v11.612h-2.181v-15.64h2.181l5.93,11.602l0.064-0.021v-11.58h2.17V82.085z"
		/>
	<path d="M52.191,82.085V66.444h4.297c1.661,0,3.017,0.627,4.066,1.88c1.049,1.253,1.574,2.865,1.574,4.834v2.224
		c0,1.977-0.525,3.588-1.574,4.834c-1.049,1.246-2.405,1.869-4.066,1.869H52.191z M54.372,68.099v12.332h2.041
		c1.096,0,1.96-0.47,2.594-1.41c0.634-0.939,0.951-2.156,0.951-3.648v-2.249c0-1.478-0.317-2.685-0.951-3.621
		c-0.634-0.936-1.499-1.404-2.594-1.404H54.372z"/>
	<path d="M71.5,78.132h-4.984l-1.139,3.953h-2.213l4.812-15.641h2.105l4.77,15.641h-2.213L71.5,78.132z M67.021,76.402h3.985
		l-1.955-6.832h-0.064L67.021,76.402z"/>
	<path d="M78.784,75.339v6.746h-2.181v-15.63h4.866c1.482,0,2.628,0.383,3.438,1.149c0.809,0.766,1.214,1.864,1.214,3.295
		c0,0.816-0.188,1.528-0.564,2.137c-0.376,0.609-0.918,1.084-1.627,1.428c0.78,0.265,1.344,0.715,1.692,1.349
		c0.347,0.634,0.521,1.417,0.521,2.349v1.365c0,0.48,0.048,0.926,0.145,1.338c0.097,0.412,0.263,0.736,0.5,0.973v0.247h-2.245
		c-0.244-0.237-0.399-0.594-0.467-1.07c-0.068-0.477-0.102-0.981-0.102-1.512v-1.324c0-0.875-0.199-1.567-0.596-2.077
		c-0.397-0.51-0.944-0.764-1.638-0.764L78.784,75.339L78.784,75.339z M78.784,73.685h2.578c0.881,0,1.531-0.238,1.95-0.716
		c0.419-0.477,0.628-1.153,0.628-2.029c0-0.897-0.204-1.593-0.612-2.088c-0.408-0.495-1.028-0.743-1.858-0.743h-2.686V73.685z"/>
	<path d="M91.406,82.085h-2.17V66.444h2.17V82.085z"/>
	<path d="M102.578,74.812h-5.801v5.618h6.725v1.654h-8.905v-15.64h8.841v1.654h-6.66v5.06h5.801L102.578,74.812L102.578,74.812z"/>
	<path d="M112.686,78.143c0-0.737-0.208-1.343-0.623-1.815c-0.416-0.473-1.143-0.888-2.181-1.246
		c-1.489-0.451-2.632-1.039-3.427-1.765s-1.192-1.686-1.192-2.88c0-1.23,0.442-2.241,1.327-3.031c0.884-0.79,2.021-1.187,3.41-1.187
		c1.446,0,2.612,0.457,3.497,1.37c0.884,0.913,1.312,2.014,1.283,3.303l-0.021,0.064h-2.095c0-0.913-0.235-1.655-0.703-2.226
		c-0.47-0.571-1.131-0.857-1.982-0.857c-0.81,0-1.434,0.238-1.875,0.714c-0.439,0.477-0.66,1.083-0.66,1.821
		c0,0.666,0.236,1.227,0.709,1.681c0.473,0.455,1.253,0.869,2.342,1.241c1.425,0.445,2.51,1.051,3.255,1.817
		c0.745,0.768,1.117,1.76,1.117,2.979c0,1.283-0.44,2.302-1.321,3.054c-0.881,0.753-2.037,1.129-3.47,1.129
		c-1.396,0-2.616-0.414-3.657-1.241c-1.043-0.827-1.546-1.993-1.51-3.497l0.021-0.064h2.095c0,1.07,0.28,1.863,0.843,2.377
		c0.562,0.514,1.299,0.771,2.208,0.771c0.816,0,1.456-0.227,1.917-0.682C112.455,79.52,112.686,78.909,112.686,78.143z"/>
	<path d="M131.958,76.424c0,1.855-0.479,3.3-1.438,4.334c-0.961,1.035-2.246,1.552-3.857,1.552c-1.59,0-2.854-0.517-3.791-1.552
		c-0.939-1.035-1.408-2.479-1.408-4.334v-4.297c0-1.848,0.471-3.294,1.414-4.34c0.941-1.045,2.203-1.568,3.785-1.568
		c1.605,0,2.889,0.523,3.852,1.568c0.963,1.046,1.445,2.492,1.445,4.34L131.958,76.424L131.958,76.424z M129.788,72.095
		c0-1.36-0.272-2.394-0.815-3.099c-0.546-0.705-1.314-1.058-2.312-1.058c-0.98,0-1.732,0.353-2.256,1.058
		c-0.521,0.706-0.783,1.739-0.783,3.099v4.329c0,1.375,0.264,2.417,0.789,3.126c0.527,0.709,1.277,1.063,2.25,1.063
		c1.004,0,1.774-0.354,2.315-1.058c0.539-0.705,0.812-1.749,0.812-3.131V72.095L129.788,72.095z"/>
	<path d="M142.452,75.124h-5.812v6.961h-2.182V66.444h8.928v1.654h-6.746v5.371h5.812V75.124L142.452,75.124z"/>
	<path d="M157.318,78.132h-4.983l-1.14,3.953h-2.213l4.812-15.641h2.105l4.77,15.641h-2.213L157.318,78.132z M152.841,76.402h3.984
		l-1.955-6.832h-0.063L152.841,76.402z"/>
	<path d="M164.604,75.339v6.746h-2.181v-15.63h4.865c1.481,0,2.629,0.383,3.438,1.149c0.811,0.766,1.215,1.864,1.215,3.295
		c0,0.816-0.189,1.528-0.564,2.137c-0.377,0.608-0.918,1.084-1.627,1.428c0.779,0.265,1.344,0.715,1.691,1.349
		c0.348,0.634,0.521,1.417,0.521,2.349v1.365c0,0.48,0.047,0.926,0.146,1.338c0.096,0.412,0.264,0.736,0.5,0.973v0.247h-2.246
		c-0.242-0.237-0.398-0.594-0.467-1.07c-0.068-0.477-0.103-0.981-0.103-1.512v-1.324c0-0.875-0.199-1.567-0.599-2.077
		c-0.396-0.509-0.942-0.764-1.637-0.764L164.604,75.339L164.604,75.339z M164.604,73.685h2.578c0.881,0,1.53-0.238,1.948-0.716
		c0.42-0.477,0.629-1.153,0.629-2.029c0-0.897-0.202-1.593-0.61-2.088s-1.027-0.743-1.859-0.743h-2.686V73.685L164.604,73.685z"/>
	<path d="M183.124,68.099h-4.019v13.986h-2.18V68.099h-3.996v-1.654h10.193L183.124,68.099L183.124,68.099z"/>
</g>
<g>
	<path d="M8.932,109.13H3.948l-1.139,3.953H0.596l4.812-15.641h2.105l4.77,15.641H10.07L8.932,109.13z M4.453,107.4h3.985
		l-1.955-6.832H6.418L4.453,107.4z"/>
	<path d="M24.379,113.083h-2.17l-5.93-11.634l-0.064,0.021v11.612h-2.181v-15.64h2.181l5.93,11.602l0.064-0.021v-11.58h2.17V113.083
		z"/>
	<path d="M27.43,113.083V97.442h4.297c1.661,0,3.017,0.627,4.066,1.88c1.049,1.253,1.574,2.865,1.574,4.834v2.224
		c0,1.977-0.525,3.588-1.574,4.834s-2.405,1.869-4.066,1.869H27.43z M29.611,99.097v12.332h2.041c1.096,0,1.96-0.47,2.594-1.409
		c0.634-0.939,0.951-2.156,0.951-3.648v-2.249c0-1.478-0.317-2.685-0.951-3.621c-0.634-0.936-1.499-1.404-2.594-1.404L29.611,99.097
		L29.611,99.097z"/>
	<path d="M44.618,113.083V97.442h4.297c1.661,0,3.017,0.627,4.066,1.88c1.049,1.253,1.574,2.865,1.574,4.834v2.224
		c0,1.977-0.525,3.588-1.574,4.834s-2.405,1.869-4.066,1.869H44.618z M46.798,99.097v12.332h2.041c1.096,0,1.96-0.47,2.594-1.409
		c0.634-0.939,0.951-2.156,0.951-3.648v-2.249c0-1.478-0.317-2.685-0.951-3.621c-0.634-0.936-1.499-1.404-2.594-1.404L46.798,99.097
		L46.798,99.097z"/>
	<path d="M64.996,105.811h-5.801v5.618h6.725v1.654h-8.905V97.442h8.841v1.654h-6.66v5.06h5.801L64.996,105.811L64.996,105.811z"/>
	<path d="M75.104,109.141c0-0.737-0.208-1.343-0.623-1.815c-0.416-0.473-1.143-0.888-2.181-1.246
		c-1.49-0.451-2.632-1.039-3.427-1.765s-1.192-1.686-1.192-2.88c0-1.23,0.442-2.241,1.327-3.031c0.884-0.79,2.021-1.186,3.411-1.186
		c1.446,0,2.612,0.457,3.497,1.37c0.884,0.913,1.312,2.014,1.284,3.303l-0.021,0.064h-2.095c0-0.913-0.235-1.655-0.704-2.226
		c-0.469-0.571-1.13-0.857-1.982-0.857c-0.81,0-1.434,0.238-1.875,0.714c-0.44,0.477-0.661,1.083-0.661,1.821
		c0,0.666,0.236,1.227,0.709,1.681c0.473,0.455,1.253,0.869,2.342,1.241c1.425,0.445,2.51,1.051,3.255,1.817
		c0.745,0.768,1.117,1.761,1.117,2.979c0,1.283-0.44,2.302-1.321,3.055c-0.881,0.752-2.038,1.129-3.47,1.129
		c-1.396,0-2.616-0.414-3.658-1.24c-1.042-0.828-1.545-1.993-1.509-3.497l0.021-0.064h2.095c0,1.07,0.281,1.862,0.843,2.377
		c0.562,0.514,1.298,0.771,2.208,0.771c0.816,0,1.456-0.227,1.917-0.682S75.104,109.907,75.104,109.141z"/>
	<path d="M81.947,113.083h-2.17V97.442h2.17V113.083z"/>
	<path d="M95.02,110.859c-0.358,0.631-0.94,1.196-1.746,1.697c-0.806,0.502-1.835,0.752-3.088,0.752
		c-1.64,0-2.961-0.498-3.964-1.493s-1.504-2.413-1.504-4.254v-4.641c0-1.812,0.476-3.215,1.429-4.211
		c0.952-0.995,2.216-1.493,3.792-1.493c1.597,0,2.818,0.403,3.663,1.208c0.845,0.806,1.296,1.936,1.354,3.389l-0.021,0.064h-2.062
		c-0.036-0.981-0.292-1.728-0.768-2.24c-0.477-0.512-1.187-0.768-2.132-0.768c-0.953,0-1.705,0.343-2.256,1.028
		c-0.552,0.685-0.827,1.68-0.827,2.986v4.67c0,1.334,0.295,2.353,0.886,3.051c0.591,0.699,1.395,1.049,2.412,1.049
		c0.745,0,1.323-0.127,1.735-0.381c0.412-0.254,0.718-0.578,0.918-0.973v-3.556h-2.675v-1.579h4.855L95.02,110.859L95.02,110.859z"
		/>
	<path d="M108.351,113.083h-2.17l-5.93-11.634l-0.064,0.021v11.612h-2.181v-15.64h2.181l5.93,11.602l0.064-0.021v-11.58h2.17
		V113.083z"/>
	<path d="M113.55,113.083h-2.191v-2.181h2.191V113.083z"/>
	<path d="M131.866,108.593h0.063l2.105-11.15h2.137l-3.158,15.641h-2.008l-2.654-11.107h-0.063l-2.674,11.107h-2.01l-3.146-15.641
		h2.137l2.117,11.15h0.064l2.664-11.15h1.729L131.866,108.593z"/>
	<path d="M146.175,105.811h-5.801v5.618h6.726v1.654h-8.906V97.442h8.842v1.654h-6.66v5.06h5.801L146.175,105.811L146.175,105.811z"
		/>
	<path d="M163.63,97.442v10.839c0,1.619-0.463,2.861-1.392,3.728c-0.928,0.867-2.139,1.3-3.637,1.3c-1.475,0-2.668-0.434-3.576-1.3
		c-0.909-0.866-1.364-2.108-1.364-3.728V97.442h2.159v10.839c0,1.117,0.25,1.959,0.753,2.524c0.5,0.565,1.178,0.849,2.028,0.849
		c0.89,0,1.586-0.271,2.097-0.816c0.508-0.544,0.762-1.396,0.762-2.557V97.442H163.63z"/>
	<path d="M173.534,109.141c0-0.737-0.207-1.343-0.623-1.815c-0.414-0.473-1.144-0.888-2.181-1.246
		c-1.489-0.451-2.633-1.039-3.428-1.765s-1.191-1.686-1.191-2.88c0-1.23,0.441-2.241,1.326-3.031c0.886-0.79,2.021-1.186,3.41-1.186
		c1.447,0,2.613,0.457,3.498,1.37c0.883,0.913,1.312,2.014,1.283,3.303l-0.021,0.064h-2.096c0-0.913-0.234-1.655-0.703-2.226
		s-1.129-0.857-1.981-0.857c-0.81,0-1.435,0.238-1.873,0.714c-0.44,0.477-0.662,1.083-0.662,1.821c0,0.666,0.235,1.227,0.709,1.681
		c0.474,0.455,1.254,0.869,2.343,1.241c1.426,0.445,2.51,1.051,3.256,1.817c0.744,0.768,1.116,1.761,1.116,2.979
		c0,1.283-0.44,2.302-1.321,3.055c-0.881,0.752-2.037,1.129-3.47,1.129c-1.396,0-2.614-0.414-3.657-1.24
		c-1.041-0.828-1.545-1.993-1.511-3.497l0.021-0.064h2.097c0,1.07,0.281,1.862,0.844,2.377c0.562,0.514,1.298,0.771,2.207,0.771
		c0.816,0,1.455-0.227,1.918-0.682C173.305,110.518,173.534,109.907,173.534,109.141z"/>
	<path d="M186.038,105.811h-5.802v5.618h6.726v1.654h-8.903V97.442h8.84v1.654h-6.66v5.06h5.801L186.038,105.811L186.038,105.811z"
		/>
</g>
<g>
	<path d="M9.802,136.809H4.001v5.618h6.725v1.654H1.821v-15.642h8.841v1.654h-6.66v5.061h5.801v1.654H9.802z"/>
	<path d="M17.182,134.542h0.064l2.793-6.103h2.567l-4.071,7.746l4.243,7.896h-2.61l-2.89-6.252h-0.064l-2.879,6.252h-2.578
		l4.168-7.896l-4.061-7.746h2.546L17.182,134.542z"/>
	<path d="M26.882,137.895v6.188h-2.181v-15.643h5.135c1.461,0,2.606,0.436,3.438,1.304c0.831,0.868,1.246,2.009,1.246,3.424
		c0,1.422-0.416,2.565-1.246,3.431c-0.831,0.863-1.977,1.297-3.438,1.297H26.882z M26.882,136.239h2.954
		c0.823,0,1.446-0.289,1.869-0.868c0.422-0.578,0.634-1.307,0.634-2.184c0-0.891-0.209-1.629-0.628-2.215s-1.044-0.879-1.875-0.879
		h-2.954V136.239z"/>
	<path d="M44.843,136.809h-5.801v5.618h6.725v1.654h-8.905v-15.642h8.841v1.654h-6.66v5.061h5.801v1.654H44.843z"/>
	<path d="M49.978,137.335v6.746h-2.181v-15.63h4.866c1.482,0,2.628,0.383,3.438,1.148c0.809,0.766,1.214,1.863,1.214,3.295
		c0,0.816-0.188,1.528-0.564,2.138c-0.376,0.608-0.918,1.084-1.627,1.428c0.78,0.265,1.344,0.715,1.692,1.349
		c0.347,0.635,0.521,1.418,0.521,2.35v1.365c0,0.479,0.048,0.927,0.145,1.338c0.097,0.412,0.263,0.736,0.5,0.974v0.247h-2.245
		c-0.244-0.236-0.399-0.594-0.467-1.07c-0.068-0.478-0.102-0.98-0.102-1.512v-1.323c0-0.876-0.199-1.567-0.596-2.077
		c-0.397-0.509-0.944-0.764-1.638-0.764L49.978,137.335L49.978,137.335z M49.978,135.682h2.578c0.881,0,1.531-0.238,1.95-0.717
		c0.419-0.477,0.628-1.152,0.628-2.027c0-0.897-0.204-1.594-0.612-2.088c-0.408-0.496-1.028-0.744-1.858-0.744h-2.686V135.682z"/>
	<path d="M62.6,144.081h-2.17v-15.642h2.17V144.081z"/>
	<path d="M68.541,128.439l3.652,12.763h0.064l3.663-12.763h2.814v15.642h-2.159v-6.005l0.193-6.016l-0.064-0.012l-3.76,12.031
		h-1.439l-3.749-12.021l-0.064,0.012l0.204,6.005v6.005h-2.159v-15.641H68.541z"/>
	<path d="M89.703,136.809h-5.801v5.618h6.725v1.654h-8.905v-15.642h8.841v1.654h-6.66v5.061h5.801L89.703,136.809L89.703,136.809z"
		/>
	<path d="M103.001,144.081h-2.17l-5.93-11.634l-0.064,0.021v11.612h-2.181v-15.641h2.181l5.93,11.603l0.064-0.021v-11.58h2.17
		V144.081z"/>
	<path d="M114.822,130.095h-4.018v13.986h-2.181v-13.986h-3.996v-1.653h10.194L114.822,130.095L114.822,130.095z"/>
	<path d="M122.978,140.128h-4.984l-1.139,3.953h-2.213l4.813-15.642h2.105l4.77,15.642h-2.213L122.978,140.128z M118.497,138.398
		h3.986l-1.955-6.832h-0.064L118.497,138.398z"/>
	<path d="M130.262,142.427h6.102v1.654h-8.283v-15.642h2.182V142.427L130.262,142.427z"/>
	<path d="M145.268,137.895v6.188h-2.181v-15.643h5.136c1.461,0,2.604,0.436,3.438,1.304c0.83,0.868,1.246,2.009,1.246,3.424
		c0,1.422-0.416,2.565-1.246,3.431c-0.832,0.863-1.977,1.297-3.438,1.297H145.268z M145.268,136.239h2.955
		c0.821,0,1.444-0.289,1.868-0.868c0.423-0.578,0.634-1.307,0.634-2.184c0-0.891-0.209-1.629-0.629-2.215
		c-0.419-0.586-1.044-0.879-1.873-0.879h-2.955V136.239z"/>
	<path d="M157.427,137.335v6.746h-2.18v-15.63h4.864c1.482,0,2.63,0.383,3.438,1.148c0.812,0.766,1.216,1.863,1.216,3.295
		c0,0.816-0.189,1.528-0.564,2.138c-0.377,0.608-0.918,1.084-1.627,1.428c0.779,0.265,1.344,0.715,1.691,1.349
		c0.348,0.635,0.521,1.418,0.521,2.35v1.365c0,0.479,0.047,0.927,0.146,1.338c0.096,0.412,0.264,0.736,0.5,0.974v0.247h-2.246
		c-0.242-0.236-0.398-0.594-0.468-1.07c-0.067-0.478-0.102-0.98-0.102-1.512v-1.323c0-0.876-0.199-1.567-0.599-2.077
		c-0.396-0.509-0.942-0.764-1.637-0.764L157.427,137.335L157.427,137.335z M157.427,135.682h2.578c0.882,0,1.531-0.238,1.949-0.717
		c0.42-0.477,0.629-1.152,0.629-2.027c0-0.897-0.203-1.594-0.61-2.088c-0.408-0.496-1.027-0.744-1.859-0.744h-2.686L157.427,135.682
		L157.427,135.682z"/>
	<path d="M177.688,138.42c0,1.854-0.479,3.3-1.439,4.335c-0.959,1.034-2.244,1.552-3.855,1.552c-1.59,0-2.854-0.518-3.793-1.552
		c-0.938-1.035-1.406-2.479-1.406-4.335v-4.297c0-1.848,0.472-3.294,1.412-4.34c0.941-1.047,2.203-1.568,3.787-1.568
		c1.604,0,2.887,0.521,3.851,1.568c0.965,1.046,1.444,2.492,1.444,4.34V138.42L177.688,138.42z M175.518,134.091
		c0-1.36-0.271-2.394-0.816-3.1c-0.543-0.705-1.314-1.058-2.309-1.058c-0.982,0-1.734,0.353-2.256,1.058
		c-0.523,0.706-0.785,1.739-0.785,3.1v4.329c0,1.375,0.264,2.417,0.789,3.126c0.526,0.709,1.276,1.063,2.252,1.063
		c1.002,0,1.772-0.354,2.313-1.059s0.812-1.75,0.812-3.132V134.091z"/>
	<path d="M189.438,139.333l0.033,0.063c-0.008,1.562-0.424,2.771-1.246,3.625c-0.824,0.856-1.988,1.285-3.492,1.285
		c-1.53,0-2.756-0.517-3.674-1.548c-0.916-1.03-1.375-2.471-1.375-4.317v-4.34c0-1.849,0.453-3.291,1.359-4.33
		c0.906-1.037,2.115-1.558,3.625-1.558c1.533,0,2.711,0.419,3.535,1.257c0.822,0.838,1.246,2.062,1.268,3.674l-0.033,0.064h-2.062
		c-0.021-1.146-0.246-1.989-0.676-2.529c-0.431-0.541-1.107-0.812-2.031-0.812c-0.896,0-1.59,0.362-2.084,1.087
		s-0.739,1.758-0.739,3.1v4.379c0,1.362,0.252,2.406,0.756,3.131c0.506,0.726,1.217,1.088,2.133,1.088
		c0.901,0,1.562-0.264,1.981-0.791c0.418-0.524,0.636-1.368,0.65-2.528H189.438z"/>
	<path d="M199.814,136.809h-5.801v5.618h6.726v1.654h-8.904v-15.642h8.84v1.654h-6.659v5.061h5.801v1.654H199.814z"/>
	<path d="M209.925,140.139c0-0.736-0.209-1.343-0.623-1.814c-0.415-0.473-1.143-0.889-2.182-1.246
		c-1.488-0.45-2.632-1.039-3.427-1.766s-1.192-1.687-1.192-2.881c0-1.229,0.442-2.24,1.326-3.031
		c0.885-0.789,2.021-1.186,3.412-1.186c1.444,0,2.61,0.456,3.495,1.37c0.886,0.912,1.312,2.015,1.283,3.304l-0.021,0.063h-2.095
		c0-0.912-0.233-1.654-0.704-2.226c-0.47-0.572-1.13-0.857-1.979-0.857c-0.812,0-1.437,0.238-1.875,0.714
		c-0.441,0.478-0.66,1.084-0.66,1.821c0,0.666,0.235,1.227,0.709,1.681c0.473,0.455,1.252,0.869,2.342,1.241
		c1.424,0.443,2.51,1.051,3.254,1.816c0.746,0.769,1.117,1.762,1.117,2.979c0,1.283-0.439,2.302-1.32,3.055s-2.037,1.13-3.471,1.13
		c-1.396,0-2.615-0.414-3.658-1.242c-1.041-0.825-1.545-1.991-1.508-3.496l0.021-0.063h2.095c0,1.07,0.28,1.862,0.844,2.377
		c0.562,0.515,1.299,0.771,2.207,0.771c0.815,0,1.455-0.228,1.918-0.683C209.691,141.516,209.925,140.905,209.925,140.139z"/>
	<path d="M221.602,140.139c0-0.736-0.207-1.343-0.623-1.814c-0.414-0.473-1.144-0.889-2.181-1.246
		c-1.489-0.45-2.633-1.039-3.428-1.766s-1.19-1.687-1.19-2.881c0-1.229,0.44-2.24,1.325-3.031c0.886-0.789,2.021-1.186,3.41-1.186
		c1.446,0,2.612,0.456,3.498,1.37c0.883,0.912,1.312,2.015,1.282,3.304l-0.021,0.063h-2.096c0-0.912-0.233-1.654-0.703-2.226
		c-0.469-0.572-1.129-0.857-1.981-0.857c-0.81,0-1.435,0.238-1.873,0.714c-0.441,0.478-0.662,1.084-0.662,1.821
		c0,0.666,0.236,1.227,0.709,1.681c0.473,0.455,1.254,0.869,2.342,1.241c1.426,0.443,2.51,1.051,3.256,1.816
		c0.744,0.769,1.117,1.762,1.117,2.979c0,1.283-0.441,2.302-1.322,3.055s-2.037,1.13-3.469,1.13c-1.396,0-2.615-0.414-3.658-1.242
		c-1.041-0.825-1.545-1.991-1.51-3.496l0.021-0.063h2.096c0,1.07,0.281,1.862,0.844,2.377c0.561,0.515,1.297,0.771,2.207,0.771
		c0.816,0,1.455-0.228,1.918-0.683C221.37,141.516,221.602,140.905,221.602,140.139z"/>
	<path d="M234.104,136.809h-5.801v5.618h6.725v1.654h-8.903v-15.642h8.84v1.654h-6.659v5.061h5.801v1.654H234.104z"/>
	<path d="M244.214,140.139c0-0.736-0.209-1.343-0.623-1.814c-0.416-0.473-1.143-0.889-2.182-1.246
		c-1.488-0.45-2.632-1.039-3.427-1.766s-1.192-1.687-1.192-2.881c0-1.229,0.442-2.24,1.326-3.031
		c0.885-0.789,2.021-1.186,3.411-1.186c1.445,0,2.611,0.456,3.496,1.37c0.886,0.912,1.312,2.015,1.283,3.304l-0.021,0.063h-2.095
		c0-0.912-0.233-1.654-0.705-2.226c-0.469-0.572-1.129-0.857-1.979-0.857c-0.812,0-1.437,0.238-1.875,0.714
		c-0.44,0.478-0.659,1.084-0.659,1.821c0,0.666,0.235,1.227,0.709,1.681c0.473,0.455,1.252,0.869,2.342,1.241
		c1.424,0.443,2.51,1.051,3.254,1.816c0.746,0.769,1.117,1.762,1.117,2.979c0,1.283-0.439,2.302-1.32,3.055s-2.037,1.13-3.471,1.13
		c-1.396,0-2.615-0.414-3.658-1.242c-1.041-0.825-1.545-1.991-1.508-3.496l0.021-0.063h2.095c0,1.07,0.28,1.862,0.844,2.377
		c0.562,0.515,1.299,0.771,2.207,0.771c0.815,0,1.455-0.228,1.918-0.683C243.98,141.516,244.214,140.905,244.214,140.139z"/>
</g>
<g>
	<path d="M10.876,161.093H6.859v13.986H4.678v-13.986H0.682v-1.653h10.194V161.093z"/>
	<path d="M22.428,169.418c0,1.854-0.48,3.3-1.439,4.335c-0.96,1.034-2.245,1.552-3.856,1.552c-1.59,0-2.854-0.518-3.792-1.552
		c-0.938-1.035-1.407-2.479-1.407-4.335v-4.297c0-1.848,0.471-3.294,1.413-4.34c0.941-1.047,2.204-1.568,3.787-1.568
		c1.604,0,2.888,0.521,3.851,1.568c0.963,1.046,1.445,2.492,1.445,4.34v4.297H22.428z M20.258,165.089c0-1.36-0.272-2.394-0.816-3.1
		c-0.544-0.705-1.314-1.058-2.31-1.058c-0.981,0-1.733,0.353-2.256,1.058c-0.523,0.706-0.784,1.739-0.784,3.1v4.329
		c0,1.375,0.263,2.417,0.79,3.126c0.527,0.709,1.276,1.063,2.25,1.063c1.002,0,1.774-0.354,2.315-1.059
		c0.541-0.706,0.811-1.75,0.811-3.132V165.089z"/>
	<path d="M38.971,170.331l0.032,0.063c-0.007,1.562-0.423,2.771-1.246,3.625c-0.824,0.856-1.987,1.284-3.491,1.284
		c-1.533,0-2.757-0.516-3.674-1.547c-0.917-1.03-1.375-2.471-1.375-4.317v-4.34c0-1.849,0.453-3.291,1.359-4.33
		c0.906-1.037,2.114-1.558,3.625-1.558c1.532,0,2.71,0.419,3.534,1.257c0.823,0.838,1.246,2.062,1.268,3.674l-0.032,0.064h-2.062
		c-0.021-1.146-0.247-1.989-0.677-2.53c-0.43-0.54-1.106-0.811-2.03-0.811c-0.896,0-1.59,0.362-2.084,1.087
		c-0.494,0.725-0.741,1.758-0.741,3.099v4.38c0,1.362,0.252,2.406,0.757,3.131c0.505,0.726,1.215,1.088,2.132,1.088
		c0.902,0,1.563-0.264,1.982-0.791c0.419-0.524,0.635-1.368,0.65-2.528H38.971z"/>
	<path d="M43.547,168.333v6.746h-2.181v-15.63h4.866c1.482,0,2.628,0.383,3.438,1.148c0.809,0.766,1.214,1.863,1.214,3.295
		c0,0.816-0.188,1.528-0.564,2.137c-0.376,0.609-0.918,1.085-1.627,1.429c0.78,0.265,1.344,0.715,1.692,1.349
		c0.347,0.635,0.521,1.418,0.521,2.35v1.365c0,0.479,0.048,0.927,0.145,1.338c0.097,0.412,0.263,0.736,0.5,0.974v0.247h-2.245
		c-0.244-0.236-0.399-0.594-0.467-1.07c-0.068-0.478-0.102-0.98-0.102-1.512v-1.323c0-0.876-0.199-1.567-0.596-2.077
		c-0.397-0.509-0.944-0.764-1.638-0.764L43.547,168.333L43.547,168.333z M43.547,166.68h2.578c0.881,0,1.531-0.238,1.95-0.717
		c0.419-0.477,0.628-1.152,0.628-2.027c0-0.897-0.204-1.594-0.612-2.088c-0.408-0.496-1.028-0.744-1.858-0.744h-2.686V166.68z"/>
	<path d="M61.831,167.807H56.03v5.618h6.725v1.654H53.85v-15.642h8.841v1.654h-6.66v5.061h5.801L61.831,167.807L61.831,167.807z"/>
	<path d="M71.896,171.126h-4.984l-1.139,3.953H63.56l4.812-15.642h2.105l4.77,15.642h-2.213L71.896,171.126z M67.417,169.396h3.985
		l-1.955-6.832h-0.064L67.417,169.396z"/>
	<path d="M84.69,161.093h-4.018v13.986h-2.181v-13.986h-3.996v-1.653H84.69V161.093z"/>
	<path d="M94.552,167.807h-5.801v5.618h6.725v1.654H86.57v-15.642h8.841v1.654h-6.66v5.061h5.801V167.807z"/>
	<path d="M109.409,171.126h-4.984l-1.139,3.953h-2.213l4.812-15.642h2.105l4.769,15.642h-2.212L109.409,171.126z M104.928,169.396
		h3.986l-1.955-6.832h-0.064L104.928,169.396z"/>
	<path d="M116.691,173.425h6.101v1.654h-8.282v-15.642h2.181V173.425z"/>
	<path d="M126.907,173.425h6.102v1.654h-8.283v-15.642h2.182L126.907,173.425L126.907,173.425z"/>
	<path d="M144.104,159.438v10.84c0,1.617-0.463,2.861-1.392,3.728c-0.928,0.867-2.139,1.3-3.637,1.3c-1.476,0-2.668-0.434-3.576-1.3
		c-0.91-0.866-1.365-2.108-1.365-3.728v-10.84h2.16v10.84c0,1.117,0.25,1.959,0.752,2.523c0.5,0.565,1.179,0.85,2.029,0.85
		c0.889,0,1.586-0.272,2.096-0.816c0.509-0.544,0.763-1.396,0.763-2.557v-10.84H144.104z"/>
	<path d="M149.034,168.333v6.746h-2.183v-15.63h4.867c1.482,0,2.627,0.383,3.438,1.148c0.809,0.766,1.213,1.863,1.213,3.295
		c0,0.816-0.188,1.528-0.562,2.137c-0.377,0.609-0.92,1.085-1.629,1.429c0.78,0.265,1.346,0.715,1.692,1.349
		c0.346,0.635,0.521,1.418,0.521,2.35v1.365c0,0.479,0.049,0.927,0.146,1.338c0.096,0.412,0.262,0.736,0.498,0.974v0.247h-2.244
		c-0.244-0.236-0.399-0.594-0.467-1.07c-0.068-0.478-0.104-0.98-0.104-1.512v-1.323c0-0.876-0.197-1.567-0.596-2.077
		c-0.396-0.509-0.943-0.764-1.639-0.764L149.034,168.333L149.034,168.333z M149.034,166.68h2.577c0.882,0,1.531-0.238,1.949-0.717
		c0.42-0.477,0.629-1.152,0.629-2.027c0-0.897-0.205-1.594-0.612-2.088c-0.408-0.496-1.027-0.744-1.856-0.744h-2.687V166.68z"/>
	<path d="M161.654,175.079h-2.17v-15.642h2.17V175.079z"/>
	<path d="M175.189,175.079h-2.17l-5.93-11.634l-0.064,0.021v11.612h-2.18v-15.641h2.18l5.931,11.602l0.063-0.021v-11.58h2.17
		V175.079z"/>
	<path d="M188.124,172.855c-0.356,0.629-0.938,1.195-1.744,1.696c-0.808,0.501-1.836,0.753-3.09,0.753
		c-1.64,0-2.961-0.498-3.963-1.494c-1.004-0.994-1.504-2.412-1.504-4.254v-4.641c0-1.812,0.477-3.216,1.428-4.211
		c0.953-0.995,2.217-1.493,3.793-1.493c1.597,0,2.817,0.403,3.662,1.208c0.846,0.807,1.297,1.936,1.354,3.391l-0.021,0.063h-2.062
		c-0.035-0.979-0.291-1.728-0.768-2.239c-0.477-0.513-1.188-0.769-2.133-0.769c-0.951,0-1.703,0.343-2.256,1.026
		c-0.551,0.687-0.826,1.682-0.826,2.986v4.67c0,1.334,0.295,2.352,0.887,3.051c0.59,0.699,1.395,1.049,2.41,1.049
		c0.746,0,1.324-0.127,1.736-0.381c0.41-0.254,0.717-0.578,0.918-0.973v-3.556h-2.676v-1.579h4.854V172.855z"/>
	<path d="M203.014,171.126h-4.984l-1.139,3.953h-2.214l4.812-15.642h2.105l4.77,15.642h-2.213L203.014,171.126z M198.534,169.396
		h3.983l-1.955-6.832h-0.063L198.534,169.396z"/>
	<path d="M218.46,175.079h-2.17l-5.931-11.634l-0.063,0.021v11.612h-2.18v-15.641h2.18l5.931,11.602l0.063-0.021v-11.58h2.17
		V175.079z"/>
	<path d="M221.512,175.079v-15.642h4.297c1.662,0,3.018,0.627,4.065,1.881c1.048,1.252,1.574,2.863,1.574,4.834v2.224
		c0,1.978-0.525,3.588-1.574,4.834s-2.403,1.869-4.065,1.869H221.512z M223.691,161.093v12.332h2.041
		c1.097,0,1.961-0.47,2.595-1.409c0.635-0.939,0.95-2.156,0.95-3.647v-2.249c0-1.479-0.315-2.686-0.95-3.621
		c-0.634-0.938-1.498-1.404-2.595-1.404L223.691,161.093L223.691,161.093z"/>
</g>
<g>
	<path d="M11.07,201.329l0.032,0.063c-0.007,1.562-0.423,2.771-1.246,3.625c-0.824,0.856-1.987,1.284-3.491,1.284
		c-1.533,0-2.757-0.516-3.674-1.547c-0.917-1.03-1.375-2.471-1.375-4.317v-4.34c0-1.849,0.453-3.291,1.359-4.33
		c0.906-1.037,2.114-1.558,3.625-1.558c1.532,0,2.71,0.419,3.534,1.257c0.823,0.838,1.246,2.062,1.268,3.674l-0.032,0.064H9.007
		c-0.021-1.146-0.247-1.989-0.677-2.53c-0.43-0.54-1.106-0.811-2.03-0.811c-0.896,0-1.59,0.362-2.084,1.087
		c-0.494,0.725-0.741,1.758-0.741,3.099v4.38c0,1.362,0.252,2.406,0.757,3.131c0.505,0.726,1.215,1.088,2.132,1.088
		c0.902,0,1.563-0.264,1.982-0.791c0.419-0.524,0.635-1.368,0.65-2.528H11.07z"/>
	<path d="M23.81,206.077h-2.17v-6.907h-5.994v6.907h-2.181v-15.642h2.181v7.08h5.994v-7.08h2.17V206.077z"/>
	<path d="M34.16,202.124h-4.984l-1.139,3.953h-2.213l4.812-15.642h2.105l4.77,15.642h-2.213L34.16,202.124z M29.68,200.395h3.985
		l-1.955-6.832h-0.064L29.68,200.395z"/>
	<path d="M41.443,204.423h6.102v1.654h-8.282v-15.642h2.181L41.443,204.423L41.443,204.423z"/>
	<path d="M51.659,204.423h6.102v1.654h-8.282v-15.642h2.181L51.659,204.423L51.659,204.423z"/>
	<path d="M67.675,198.805h-5.801v5.618h6.725v1.654h-8.905v-15.642h8.841v1.654h-6.66v5.061h5.801L67.675,198.805L67.675,198.805z"
		/>
	<path d="M80.974,206.077h-2.17l-5.93-11.634l-0.064,0.021v11.612h-2.181v-15.641h2.181l5.93,11.602l0.064-0.021v-11.58h2.17
		V206.077z"/>
	<path d="M93.908,203.854c-0.358,0.631-0.94,1.196-1.746,1.697c-0.806,0.501-1.835,0.752-3.088,0.752
		c-1.64,0-2.961-0.498-3.964-1.492c-1.003-0.996-1.504-2.414-1.504-4.254v-4.642c0-1.812,0.476-3.216,1.429-4.211
		c0.952-0.995,2.216-1.493,3.792-1.493c1.597,0,2.818,0.403,3.663,1.208c0.845,0.808,1.296,1.937,1.354,3.39l-0.021,0.064h-2.062
		c-0.036-0.98-0.292-1.729-0.768-2.239c-0.477-0.513-1.187-0.769-2.132-0.769c-0.953,0-1.705,0.343-2.256,1.027
		c-0.552,0.686-0.827,1.681-0.827,2.985v4.67c0,1.334,0.295,2.353,0.886,3.052c0.591,0.698,1.395,1.049,2.412,1.049
		c0.745,0,1.323-0.127,1.735-0.383c0.412-0.254,0.718-0.578,0.918-0.972v-3.556h-2.675v-1.579h4.855L93.908,203.854L93.908,203.854z
		"/>
	<path d="M99.214,206.077h-2.17v-15.642h2.17V206.077z"/>
	<path d="M112.75,206.077h-2.17l-5.93-11.634l-0.064,0.021v11.612h-2.181v-15.641h2.181l5.93,11.602l0.064-0.021v-11.58h2.17
		V206.077z"/>
	<path d="M125.683,203.854c-0.357,0.631-0.939,1.196-1.744,1.697c-0.807,0.501-1.836,0.752-3.09,0.752
		c-1.639,0-2.961-0.498-3.963-1.492c-1.003-0.996-1.504-2.414-1.504-4.254v-4.642c0-1.812,0.477-3.216,1.429-4.211
		c0.953-0.995,2.216-1.493,3.792-1.493c1.596,0,2.818,0.403,3.662,1.208c0.846,0.808,1.297,1.937,1.354,3.39l-0.021,0.064h-2.062
		c-0.035-0.98-0.291-1.729-0.768-2.239c-0.477-0.513-1.188-0.769-2.133-0.769c-0.951,0-1.703,0.343-2.256,1.027
		c-0.551,0.686-0.826,1.681-0.826,2.985v4.67c0,1.334,0.295,2.353,0.887,3.052c0.59,0.698,1.395,1.049,2.41,1.049
		c0.746,0,1.324-0.127,1.736-0.383c0.41-0.254,0.717-0.578,0.918-0.972v-3.556h-2.676v-1.579h4.855V203.854L125.683,203.854z"/>
	<path d="M143.419,200.416c0,1.854-0.479,3.3-1.438,4.335c-0.961,1.034-2.246,1.552-3.857,1.552c-1.59,0-2.854-0.518-3.791-1.552
		c-0.939-1.035-1.408-2.479-1.408-4.335v-4.297c0-1.848,0.471-3.294,1.414-4.34c0.941-1.047,2.203-1.568,3.785-1.568
		c1.605,0,2.889,0.521,3.852,1.568c0.963,1.046,1.445,2.492,1.445,4.34L143.419,200.416L143.419,200.416z M141.249,196.087
		c0-1.36-0.272-2.394-0.815-3.101c-0.545-0.704-1.314-1.057-2.312-1.057c-0.979,0-1.731,0.353-2.256,1.057
		c-0.521,0.707-0.783,1.74-0.783,3.101v4.329c0,1.375,0.265,2.417,0.789,3.126c0.526,0.709,1.276,1.063,2.25,1.063
		c1.004,0,1.774-0.354,2.315-1.059c0.539-0.706,0.812-1.75,0.812-3.132V196.087z"/>
	<path d="M145.921,206.077v-15.642h4.361c1.477,0,2.627,0.352,3.454,1.054c0.826,0.702,1.24,1.755,1.24,3.157
		c0,0.746-0.188,1.402-0.563,1.972c-0.375,0.569-0.896,0.987-1.562,1.252c0.844,0.187,1.494,0.629,1.948,1.325
		c0.455,0.699,0.683,1.518,0.683,2.455c0,1.439-0.406,2.537-1.219,3.293s-1.937,1.134-3.367,1.134H145.921L145.921,206.077z
		 M148.104,197.215h2.395c0.717,0,1.279-0.218,1.688-0.652c0.408-0.436,0.611-1.062,0.611-1.883c0-0.863-0.213-1.51-0.639-1.94
		s-1.051-0.647-1.875-0.647h-2.18V197.215z M148.104,198.783v5.64h2.793c0.772,0,1.369-0.237,1.789-0.715
		c0.418-0.476,0.627-1.158,0.627-2.046c0-0.881-0.179-1.581-0.537-2.102c-0.357-0.519-0.908-0.777-1.654-0.777H148.104z"/>
	<path d="M163.452,190.438h2.17v11.16c0,1.439-0.394,2.584-1.183,3.434c-0.787,0.848-1.797,1.271-3.028,1.271
		c-1.324,0-2.375-0.385-3.152-1.154c-0.776-0.771-1.149-1.899-1.123-3.39l0.033-0.063h2.095c0,0.988,0.19,1.728,0.575,2.219
		c0.384,0.49,0.906,0.734,1.572,0.734c0.588,0,1.073-0.274,1.461-0.826c0.387-0.553,0.58-1.293,0.58-2.225V190.438z"/>
	<path d="M176.579,198.805h-5.802v5.618h6.726v1.654H168.6v-15.642h8.84v1.654h-6.66v5.061h5.801L176.579,198.805L176.579,198.805z"
		/>
	<path d="M188.782,201.329l0.032,0.063c-0.008,1.562-0.424,2.771-1.246,3.625c-0.823,0.856-1.987,1.284-3.491,1.284
		c-1.531,0-2.757-0.516-3.675-1.547c-0.916-1.03-1.375-2.471-1.375-4.317v-4.34c0-1.849,0.453-3.291,1.359-4.33
		c0.906-1.037,2.115-1.558,3.625-1.558c1.533,0,2.711,0.419,3.535,1.257c0.822,0.838,1.246,2.062,1.268,3.674l-0.032,0.064h-2.062
		c-0.021-1.146-0.246-1.989-0.677-2.53c-0.43-0.54-1.106-0.811-2.03-0.811c-0.896,0-1.591,0.362-2.084,1.087
		c-0.494,0.725-0.74,1.758-0.74,3.099v4.38c0,1.362,0.252,2.406,0.756,3.131c0.506,0.726,1.217,1.088,2.133,1.088
		c0.902,0,1.562-0.264,1.982-0.791c0.418-0.524,0.635-1.368,0.649-2.528H188.782z"/>
	<path d="M199.971,192.091h-4.019v13.986h-2.183v-13.986h-3.996v-1.653h10.195v1.653H199.971z"/>
	<path d="M208.852,202.135c0-0.736-0.209-1.343-0.623-1.814c-0.416-0.473-1.144-0.889-2.183-1.246
		c-1.487-0.45-2.631-1.039-3.426-1.766s-1.193-1.687-1.193-2.881c0-1.229,0.443-2.24,1.326-3.031
		c0.886-0.789,2.021-1.186,3.412-1.186c1.444,0,2.61,0.456,3.496,1.37c0.885,0.912,1.312,2.014,1.282,3.303l-0.021,0.064h-2.094
		c0-0.912-0.233-1.654-0.705-2.226c-0.469-0.572-1.129-0.857-1.979-0.857c-0.812,0-1.437,0.238-1.875,0.714
		c-0.441,0.478-0.66,1.084-0.66,1.821c0,0.666,0.236,1.227,0.709,1.681c0.473,0.455,1.252,0.869,2.342,1.241
		c1.424,0.443,2.51,1.051,3.254,1.816c0.746,0.769,1.117,1.762,1.117,2.979c0,1.282-0.439,2.302-1.32,3.055
		s-2.037,1.129-3.471,1.129c-1.396,0-2.615-0.413-3.658-1.241c-1.041-0.826-1.545-1.992-1.508-3.496l0.021-0.063h2.094
		c0,1.069,0.281,1.862,0.844,2.377s1.299,0.771,2.207,0.771c0.816,0,1.455-0.228,1.918-0.683
		C208.618,203.512,208.852,202.9,208.852,202.135z"/>
	<path d="M215.091,205.818l-1.362,3.17h-1.302l0.636-3.244v-1.967h2.028V205.818z"/>
</g>
<g>
	<g>
		<path d="M4.141,237.089h-2.17v-15.641h2.17V237.089z"/>
		<path d="M10.082,221.448l3.652,12.762h0.064l3.663-12.762h2.814v15.641h-2.159v-6.005l0.193-6.016l-0.064-0.012l-3.76,12.031
			h-1.439l-3.749-12.021l-0.064,0.012l0.204,6.005v6.005H7.278v-15.641L10.082,221.448L10.082,221.448z"/>
		<path d="M30.572,233.136h-4.984l-1.139,3.953h-2.213l4.812-15.641h2.105l4.77,15.641H31.71L30.572,233.136z M26.092,231.406h3.985
			l-1.955-6.832h-0.064L26.092,231.406z"/>
		<path d="M45.447,234.865c-0.358,0.63-0.94,1.195-1.746,1.697c-0.806,0.5-1.835,0.752-3.088,0.752c-1.64,0-2.961-0.498-3.964-1.493
			s-1.504-2.413-1.504-4.255v-4.641c0-1.812,0.476-3.216,1.429-4.211c0.952-0.994,2.216-1.492,3.792-1.492
			c1.597,0,2.818,0.402,3.663,1.207c0.845,0.807,1.296,1.937,1.354,3.391l-0.021,0.063H43.3c-0.036-0.979-0.292-1.728-0.768-2.239
			c-0.477-0.513-1.187-0.769-2.132-0.769c-0.953,0-1.705,0.343-2.256,1.026c-0.552,0.687-0.827,1.682-0.827,2.986v4.67
			c0,1.334,0.295,2.353,0.886,3.051c0.591,0.699,1.395,1.05,2.412,1.05c0.745,0,1.323-0.127,1.735-0.382
			c0.412-0.254,0.718-0.578,0.918-0.973v-3.556h-2.675v-1.579h4.855v5.695H45.447z"/>
		<path d="M56.415,229.816h-5.801v5.617h6.725v1.654h-8.905v-15.641h8.841v1.654h-6.66v5.06h5.801L56.415,229.816L56.415,229.816z"
			/>
		<path d="M66.523,233.146c0-0.737-0.208-1.344-0.623-1.815c-0.416-0.474-1.143-0.888-2.181-1.246
			c-1.49-0.45-2.632-1.039-3.427-1.765c-0.795-0.728-1.192-1.688-1.192-2.881c0-1.23,0.442-2.241,1.327-3.031
			c0.884-0.79,2.021-1.186,3.411-1.186c1.446,0,2.612,0.455,3.497,1.369c0.884,0.912,1.312,2.014,1.284,3.303l-0.021,0.064h-2.095
			c0-0.912-0.235-1.654-0.704-2.227c-0.469-0.57-1.13-0.856-1.982-0.856c-0.81,0-1.434,0.238-1.875,0.714
			c-0.44,0.477-0.661,1.084-0.661,1.821c0,0.666,0.236,1.228,0.709,1.681c0.473,0.455,1.253,0.869,2.342,1.241
			c1.425,0.444,2.51,1.051,3.255,1.817c0.745,0.768,1.117,1.761,1.117,2.979c0,1.283-0.44,2.303-1.321,3.055
			c-0.881,0.754-2.038,1.129-3.47,1.129c-1.396,0-2.616-0.412-3.658-1.24c-1.042-0.826-1.545-1.992-1.509-3.496l0.021-0.064h2.095
			c0,1.07,0.281,1.862,0.843,2.377c0.562,0.514,1.298,0.771,2.208,0.771c0.816,0,1.456-0.229,1.917-0.684
			C66.292,234.523,66.523,233.913,66.523,233.146z"/>
		<path d="M72.764,236.831L71.4,240h-1.3l0.634-3.244v-1.966h2.03V236.831z"/>
		<path d="M87.212,233.136h-4.984l-1.139,3.953h-2.213l4.812-15.641h2.105l4.77,15.641H88.35L87.212,233.136z M82.733,231.406h3.985
			l-1.955-6.832h-0.064L82.733,231.406z"/>
		<path d="M102.66,237.089h-2.17l-5.93-11.634l-0.064,0.021v11.611h-2.181v-15.641h2.181l5.93,11.602l0.064-0.021v-11.579h2.17
			V237.089z"/>
		<path d="M105.71,237.089v-15.641h4.297c1.661,0,3.017,0.627,4.065,1.88c1.05,1.253,1.574,2.863,1.574,4.834v2.224
			c0,1.978-0.524,3.589-1.574,4.834c-1.049,1.246-2.404,1.869-4.065,1.869H105.71z M107.891,223.104v12.332h2.041
			c1.096,0,1.961-0.471,2.595-1.41c0.633-0.939,0.95-2.155,0.95-3.647v-2.249c0-1.479-0.317-2.686-0.95-3.621
			c-0.634-0.937-1.499-1.404-2.595-1.404H107.891L107.891,223.104z"/>
		<path d="M130.052,233.146c0-0.737-0.206-1.344-0.622-1.815c-0.414-0.474-1.144-0.888-2.181-1.246
			c-1.49-0.45-2.633-1.039-3.428-1.765c-0.795-0.728-1.191-1.688-1.191-2.881c0-1.23,0.441-2.241,1.326-3.031
			c0.885-0.79,2.021-1.186,3.41-1.186c1.446,0,2.612,0.455,3.497,1.369c0.884,0.912,1.312,2.014,1.283,3.303l-0.021,0.064h-2.097
			c0-0.912-0.233-1.654-0.702-2.227c-0.47-0.571-1.129-0.856-1.981-0.856c-0.81,0-1.435,0.238-1.874,0.714
			c-0.441,0.477-0.662,1.084-0.662,1.821c0,0.666,0.236,1.228,0.709,1.681c0.473,0.455,1.254,0.869,2.342,1.241
			c1.426,0.444,2.51,1.051,3.256,1.817c0.744,0.768,1.117,1.761,1.117,2.979c0,1.283-0.441,2.303-1.322,3.055
			c-0.881,0.754-2.037,1.129-3.469,1.129c-1.396,0-2.615-0.412-3.658-1.24c-1.041-0.826-1.545-1.992-1.51-3.496l0.021-0.064h2.096
			c0,1.07,0.281,1.862,0.844,2.377c0.561,0.514,1.297,0.771,2.208,0.771c0.815,0,1.455-0.229,1.918-0.684
			C129.82,234.523,130.052,233.913,130.052,233.146z"/>
		<path d="M136.755,230.9v6.188h-2.18v-15.641h5.135c1.461,0,2.604,0.435,3.438,1.303c0.83,0.868,1.246,2.009,1.246,3.424
			c0,1.423-0.416,2.565-1.246,3.431c-0.832,0.863-1.978,1.297-3.438,1.297h-2.955V230.9z M136.755,229.247h2.955
			c0.822,0,1.444-0.289,1.869-0.868c0.422-0.578,0.633-1.306,0.633-2.184c0-0.891-0.209-1.629-0.629-2.215
			c-0.418-0.586-1.043-0.879-1.873-0.879h-2.955V229.247z"/>
		<path d="M152.372,233.136h-4.983l-1.14,3.953h-2.213l4.812-15.641h2.105l4.77,15.641h-2.213L152.372,233.136z M147.895,231.406
			h3.983l-1.955-6.832h-0.063L147.895,231.406z"/>
		<path d="M166.613,232.341l0.031,0.064c-0.006,1.562-0.422,2.77-1.246,3.625c-0.821,0.855-1.985,1.284-3.489,1.284
			c-1.533,0-2.759-0.517-3.675-1.547c-0.918-1.031-1.375-2.472-1.375-4.318v-4.34c0-1.849,0.453-3.291,1.359-4.329
			c0.904-1.038,2.113-1.558,3.625-1.558c1.531,0,2.711,0.418,3.533,1.256c0.824,0.838,1.246,2.062,1.268,3.674l-0.031,0.064h-2.062
			c-0.021-1.146-0.247-1.988-0.678-2.529s-1.104-0.812-2.028-0.812c-0.896,0-1.591,0.362-2.084,1.087
			c-0.494,0.725-0.742,1.758-0.742,3.1v4.379c0,1.363,0.254,2.406,0.758,3.132c0.506,0.725,1.215,1.087,2.133,1.087
			c0.902,0,1.562-0.264,1.982-0.79c0.418-0.524,0.635-1.369,0.647-2.529H166.613z"/>
		<path d="M176.991,229.816h-5.802v5.617h6.726v1.654h-8.906v-15.641h8.843v1.654h-6.66v5.06h5.801L176.991,229.816L176.991,229.816
			z"/>
		<path d="M187.1,233.146c0-0.737-0.207-1.344-0.623-1.815c-0.414-0.474-1.144-0.888-2.181-1.246
			c-1.489-0.45-2.633-1.039-3.428-1.765c-0.795-0.728-1.19-1.688-1.19-2.881c0-1.23,0.44-2.241,1.325-3.031
			c0.886-0.79,2.021-1.186,3.41-1.186c1.446,0,2.612,0.455,3.498,1.369c0.883,0.912,1.312,2.014,1.282,3.303l-0.021,0.064h-2.096
			c0-0.912-0.233-1.654-0.703-2.227c-0.469-0.571-1.129-0.856-1.981-0.856c-0.81,0-1.435,0.238-1.873,0.714
			c-0.441,0.477-0.662,1.084-0.662,1.821c0,0.666,0.236,1.228,0.709,1.681c0.473,0.455,1.254,0.869,2.342,1.241
			c1.426,0.444,2.51,1.051,3.256,1.817c0.744,0.768,1.117,1.761,1.117,2.979c0,1.283-0.441,2.303-1.322,3.055
			c-0.881,0.754-2.037,1.129-3.469,1.129c-1.396,0-2.615-0.412-3.658-1.24c-1.041-0.826-1.545-1.992-1.51-3.496l0.021-0.064h2.096
			c0,1.07,0.281,1.862,0.844,2.377c0.561,0.514,1.297,0.771,2.207,0.771c0.816,0,1.455-0.229,1.918-0.684
			C186.868,234.523,187.1,233.913,187.1,233.146z"/>
		<path d="M193.771,237.089h-2.191v-2.181h2.191V237.089z"/>
	</g>
</g>
</svg>
