<?xml version="1.0" encoding="utf-8"?>
<!-- Generator: Adobe Illustrator 15.0.0, SVG Export Plug-In . SVG Version: 6.00 Build 0)  -->
<!DOCTYPE svg PUBLIC "-//W3C//DTD SVG 1.1//EN" "http://www.w3.org/Graphics/SVG/1.1/DTD/svg11.dtd">
<svg version="1.1" id="Layer_1" xmlns="http://www.w3.org/2000/svg" xmlns:xlink="http://www.w3.org/1999/xlink" x="0px" y="0px"
	 width="111px" height="111px" viewBox="0 0 111 111" enable-background="new 0 0 111 111" xml:space="preserve">
<g>
	
		<line fill="none" stroke="#893044" stroke-width="0.25" stroke-linecap="round" stroke-linejoin="round" x1="23.954" y1="74.264" x2="32.559" y2="72.484"/>
	
		<line fill="none" stroke="#893044" stroke-width="0.25" stroke-linecap="round" stroke-linejoin="round" x1="31.9" y1="72.107" x2="20.209" y2="74.541"/>
	
		<line fill="none" stroke="#893044" stroke-width="0.25" stroke-linecap="round" stroke-linejoin="round" x1="17.655" y1="81.811" x2="6.009" y2="84.047"/>
	
		<line fill="none" stroke="#893044" stroke-width="0.25" stroke-linecap="round" stroke-linejoin="round" x1="5.13" y1="74.869" x2="17.655" y2="81.811"/>
	
		<line fill="none" stroke="#893044" stroke-width="0.25" stroke-linecap="round" stroke-linejoin="round" x1="11.03" y1="58.447" x2="23.377" y2="65.516"/>
	
		<line fill="none" stroke="#893044" stroke-width="0.25" stroke-linecap="round" stroke-linejoin="round" x1="23.377" y1="65.516" x2="17.655" y2="81.811"/>
	
		<line fill="none" stroke="#893044" stroke-width="0.25" stroke-linecap="round" stroke-linejoin="round" x1="15.063" y1="64.973" x2="10.781" y2="65.973"/>
	
		<line fill="none" stroke="#893044" stroke-width="0.25" stroke-linecap="round" stroke-linejoin="round" x1="10.781" y1="65.973" x2="12.716" y2="67.066"/>
	
		<line fill="none" stroke="#893044" stroke-width="0.25" stroke-linecap="round" stroke-linejoin="round" x1="21.642" y1="73.836" x2="20.363" y2="74.104"/>
	
		<line fill="none" stroke="#893044" stroke-width="0.25" stroke-linecap="round" stroke-linejoin="round" x1="17.009" y1="66.08" x2="12.716" y2="67.066"/>
	<polyline fill="none" stroke="#893044" stroke-width="0.25" stroke-linecap="round" stroke-linejoin="round" points="21.67,70.379 
		22.952,70.102 21.642,73.836 	"/>
	<polyline fill="none" stroke="#893044" stroke-width="0.25" stroke-linecap="round" stroke-linejoin="round" points="
		53.646,71.012 25.294,76.699 27.723,69.723 	"/>
	
		<line fill="none" stroke="#893044" stroke-width="0.25" stroke-linecap="round" stroke-linejoin="round" x1="15.063" y1="64.973" x2="17.009" y2="66.08"/>
	
		<line fill="none" stroke="#893044" stroke-width="0.25" stroke-linecap="round" stroke-linejoin="round" x1="10.781" y1="65.973" x2="11.618" y2="63.637"/>
	<polyline fill="none" stroke="#893044" stroke-width="0.25" stroke-linecap="round" stroke-linejoin="round" points="24.003,67.4 
		17.609,68.826 20.066,61.879 26.474,60.355 	"/>
	
		<line fill="none" stroke="#893044" stroke-width="0.25" stroke-linecap="round" stroke-linejoin="round" x1="11.618" y1="63.637" x2="15.901" y2="62.614"/>
	
		<line fill="none" stroke="#893044" stroke-width="0.25" stroke-linecap="round" stroke-linejoin="round" x1="15.901" y1="62.614" x2="17.845" y2="63.725"/>
	
		<line fill="none" stroke="#893044" stroke-width="0.25" stroke-linecap="round" stroke-linejoin="round" x1="15.901" y1="62.614" x2="15.063" y2="64.973"/>
	
		<line fill="none" stroke="#893044" stroke-width="0.25" stroke-linecap="round" stroke-linejoin="round" x1="17.845" y1="63.725" x2="17.009" y2="66.08"/>
	
		<line fill="none" stroke="#893044" stroke-width="0.25" stroke-linecap="round" stroke-linejoin="round" x1="31.916" y1="72.117" x2="20.205" y2="74.553"/>
	
		<line fill="none" stroke="#893044" stroke-width="0.25" stroke-linecap="round" stroke-linejoin="round" x1="23.954" y1="74.264" x2="23.302" y2="73.898"/>
	<polyline fill="none" stroke="#893044" stroke-width="0.25" stroke-linecap="round" stroke-linejoin="round" points="
		17.027,66.092 12.733,67.076 12.739,67.062 	"/>
	<polyline fill="none" stroke="#893044" stroke-width="0.25" stroke-linecap="round" stroke-linejoin="round" points="17.839,63.74 
		17.862,63.734 17.027,66.092 	"/>
	
		<line fill="none" stroke="#893044" stroke-width="0.25" stroke-linecap="round" stroke-linejoin="round" x1="61.562" y1="59.197" x2="23.946" y2="67.566"/>
	
		<line fill="none" stroke="#893044" stroke-width="0.25" stroke-linecap="round" stroke-linejoin="round" x1="23.946" y1="67.566" x2="34.534" y2="73.611"/>
	
		<line fill="none" stroke="#893044" stroke-width="0.25" stroke-linecap="round" stroke-linejoin="round" x1="21.625" y1="73.826" x2="20.367" y2="74.09"/>
	<polyline fill="none" stroke="#893044" stroke-width="0.25" stroke-linecap="round" stroke-linejoin="round" points="
		21.676,70.365 22.936,70.092 21.625,73.826 	"/>
	
		<line fill="none" stroke="#893044" stroke-width="0.25" stroke-linecap="round" stroke-linejoin="round" x1="23.946" y1="67.566" x2="28.698" y2="54.006"/>
	
		<line fill="none" stroke="#893044" stroke-width="0.25" stroke-linecap="round" stroke-linejoin="round" x1="0" y1="70.836" x2="23.377" y2="65.516"/>
	
		<line fill="none" stroke="#893044" stroke-width="0.25" stroke-linecap="round" stroke-linejoin="round" x1="11.618" y1="63.637" x2="13.549" y2="64.732"/>
	
		<line fill="none" stroke="#893044" stroke-width="0.25" stroke-linecap="round" stroke-linejoin="round" x1="12.716" y1="67.066" x2="13.549" y2="64.732"/>
	
		<line fill="none" stroke="#893044" stroke-width="0.25" stroke-linecap="round" stroke-linejoin="round" x1="13.549" y1="64.732" x2="17.845" y2="63.725"/>
	<polyline fill="none" stroke="#893044" stroke-width="0.25" stroke-linecap="round" stroke-linejoin="round" points="
		20.363,74.104 3.177,77.695 4.465,74.115 21.67,70.379 	"/>
	<polyline fill="none" stroke="#893044" stroke-width="0.25" stroke-linecap="round" stroke-linejoin="round" points="
		27.723,69.723 27.969,69.012 56.372,62.846 54.105,69.631 	"/>
	
		<line fill="none" stroke="#893044" stroke-width="0.25" stroke-linecap="round" stroke-linejoin="round" x1="28.323" y1="66.438" x2="24.003" y2="67.4"/>
	<polyline fill="none" stroke="#893044" stroke-width="0.25" stroke-linecap="round" stroke-linejoin="round" points="
		26.474,60.355 30.8,59.324 28.323,66.438 	"/>
	
		<line fill="none" stroke="#893044" stroke-width="0.25" stroke-linecap="round" stroke-linejoin="round" x1="16.191" y1="65.729" x2="5.111" y2="68.287"/>
	
		<line fill="none" stroke="#893044" stroke-width="0.25" stroke-linecap="round" stroke-linejoin="round" x1="73.43" y1="63.48" x2="31.916" y2="72.117"/>
	<polyline fill="none" stroke="#893044" stroke-width="0.25" stroke-linecap="round" stroke-linejoin="round" points="
		20.205,74.553 5.608,77.59 14.689,52.252 110.571,26.953 107.485,36.896 	"/>
	<polyline fill="none" stroke="#893044" stroke-width="0.25" stroke-linecap="round" stroke-linejoin="round" points="
		12.739,67.062 13.565,64.742 17.839,63.74 	"/>
	<polyline fill="none" stroke="#893044" stroke-width="0.25" stroke-linecap="round" stroke-linejoin="round" points="20.367,74.09 
		3.162,77.686 4.45,74.104 21.676,70.365 	"/>
	
		<line fill="none" stroke="#893044" stroke-width="0.25" stroke-linecap="round" stroke-linejoin="round" x1="19.025" y1="57.744" x2="16.191" y2="65.729"/>
	
		<line fill="none" stroke="#893044" stroke-width="0.25" stroke-linecap="round" stroke-linejoin="round" x1="31.989" y1="67.293" x2="19.996" y2="69.922"/>
	
		<line fill="none" stroke="#893044" stroke-width="0.25" stroke-linecap="round" stroke-linejoin="round" x1="19.996" y1="69.922" x2="22.753" y2="71.482"/>
	
		<line fill="none" stroke="#893044" stroke-width="0.25" stroke-linecap="round" stroke-linejoin="round" x1="34.792" y1="68.906" x2="22.753" y2="71.482"/>
	
		<line fill="none" stroke="#893044" stroke-width="0.25" stroke-linecap="round" stroke-linejoin="round" x1="31.989" y1="67.293" x2="34.792" y2="68.906"/>
	
		<line fill="none" stroke="#893044" stroke-width="0.25" stroke-linecap="round" stroke-linejoin="round" x1="19.996" y1="69.922" x2="22.693" y2="62.265"/>
	
		<line fill="none" stroke="#893044" stroke-width="0.25" stroke-linecap="round" stroke-linejoin="round" x1="22.693" y1="62.265" x2="25.431" y2="63.84"/>
	
		<line fill="none" stroke="#893044" stroke-width="0.25" stroke-linecap="round" stroke-linejoin="round" x1="22.753" y1="71.482" x2="25.431" y2="63.84"/>
	
		<line fill="none" stroke="#893044" stroke-width="0.25" stroke-linecap="round" stroke-linejoin="round" x1="22.693" y1="62.265" x2="34.709" y2="59.434"/>
	
		<line fill="none" stroke="#893044" stroke-width="0.25" stroke-linecap="round" stroke-linejoin="round" x1="25.431" y1="63.84" x2="37.493" y2="61.062"/>
	
		<line fill="none" stroke="#893044" stroke-width="0.25" stroke-linecap="round" stroke-linejoin="round" x1="34.709" y1="59.434" x2="31.989" y2="67.293"/>
	
		<line fill="none" stroke="#893044" stroke-width="0.25" stroke-linecap="round" stroke-linejoin="round" x1="53.018" y1="62.754" x2="25.901" y2="68.689"/>
	
		<line fill="none" stroke="#893044" stroke-width="0.25" stroke-linecap="round" stroke-linejoin="round" x1="25.901" y1="68.689" x2="20.729" y2="65.736"/>
	
		<line fill="none" stroke="#893044" stroke-width="0.25" stroke-linecap="round" stroke-linejoin="round" x1="47.662" y1="59.583" x2="20.729" y2="65.736"/>
	
		<line fill="none" stroke="#893044" stroke-width="0.25" stroke-linecap="round" stroke-linejoin="round" x1="25.901" y1="68.689" x2="23.954" y2="74.264"/>
	
		<line fill="none" stroke="#893044" stroke-width="0.25" stroke-linecap="round" stroke-linejoin="round" x1="23.302" y1="73.898" x2="18.759" y2="71.33"/>
	
		<line fill="none" stroke="#893044" stroke-width="0.25" stroke-linecap="round" stroke-linejoin="round" x1="20.729" y1="65.736" x2="18.759" y2="71.33"/>
	
		<line fill="none" stroke="#893044" stroke-width="0.25" stroke-linecap="round" stroke-linejoin="round" x1="18.759" y1="71.33" x2="45.652" y2="65.512"/>
	
		<line fill="none" stroke="#893044" stroke-width="0.25" stroke-linecap="round" stroke-linejoin="round" x1="24.269" y1="61.893" x2="33.261" y2="67.078"/>
	
		<line fill="none" stroke="#893044" stroke-width="0.25" stroke-linecap="round" stroke-linejoin="round" x1="73.435" y1="63.467" x2="31.9" y2="72.107"/>
	
		<line fill="none" stroke="#893044" stroke-width="0.25" stroke-linecap="round" stroke-linejoin="round" x1="20.209" y1="74.541" x2="5.592" y2="77.582"/>
	
		<line fill="none" stroke="#893044" stroke-width="0.25" stroke-linecap="round" stroke-linejoin="round" x1="5.592" y1="77.582" x2="14.673" y2="52.243"/>
</g>
</svg>
