<?xml version="1.0" encoding="utf-8"?>
<!-- Generator: Adobe Illustrator 16.0.4, SVG Export Plug-In . SVG Version: 6.00 Build 0)  -->
<!DOCTYPE svg PUBLIC "-//W3C//DTD SVG 1.1//EN" "http://www.w3.org/Graphics/SVG/1.1/DTD/svg11.dtd">
<svg version="1.1" id="Layer_1" xmlns="http://www.w3.org/2000/svg" xmlns:xlink="http://www.w3.org/1999/xlink" x="0px" y="0px"
	 width="282px" height="49px" viewBox="0 0 282 49" enable-background="new 0 0 282 49" xml:space="preserve">
<rect y="12.25" fill="none" width="282" height="24.5"/>
<g enable-background="new    ">
	<path d="M18.46,16.312c-2.34-0.39-4.204-0.585-5.59-0.585c-1.387,0-2.438,0.325-3.153,0.975c-0.715,0.65-1.072,1.56-1.072,2.73
		c0,0.737,0.211,1.284,0.634,1.642c0.422,0.357,1.44,0.861,3.055,1.511c1.613,0.65,2.729,1.343,3.348,2.08
		c0.617,0.737,0.926,1.82,0.926,3.25c0,2.448-0.742,4.344-2.227,5.688s-3.493,2.015-6.028,2.015c-0.975,0-2.015-0.093-3.12-0.276
		s-1.961-0.374-2.567-0.568l-0.942-0.293l0.585-2.632c2.491,0.411,4.518,0.617,6.077,0.617c3.012,0,4.518-1.376,4.518-4.128
		c0-0.758-0.206-1.315-0.617-1.674c-0.412-0.357-1.393-0.85-2.941-1.479c-1.549-0.628-2.665-1.327-3.348-2.096
		c-0.682-0.769-1.023-1.857-1.023-3.266c0-2.145,0.693-3.878,2.08-5.2c1.386-1.321,3.25-1.982,5.59-1.982
		c0.975,0,1.999,0.087,3.071,0.26s1.901,0.347,2.486,0.52l0.91,0.292L18.46,16.312z"/>
	<path d="M23.53,27.947c-0.195,0.867-0.293,1.669-0.293,2.405c0,1.408,1.105,2.112,3.315,2.112c1.494,0,2.583-0.347,3.266-1.04
		s1.208-1.82,1.576-3.38l3.478-15.048h3.641l-3.478,15.048c-0.607,2.644-1.599,4.566-2.974,5.769
		c-1.377,1.202-3.213,1.804-5.509,1.804c-4.615,0-6.923-1.625-6.923-4.875c0-0.91,0.13-2.015,0.39-3.314l3.348-14.431h3.641
		L23.53,27.947z"/>
	<path d="M46.637,28.37h-3.672l-1.593,6.89h-3.64l5.167-22.263h6.663c2.188,0,3.78,0.466,4.777,1.397
		c0.996,0.932,1.495,2.417,1.495,4.453c0,2.99-0.812,5.325-2.438,7.003C51.772,27.53,49.519,28.37,46.637,28.37z M47.157,25.217
		c1.581,0,2.806-0.573,3.672-1.722c0.867-1.148,1.301-2.686,1.301-4.615c0-0.932-0.223-1.62-0.667-2.064
		c-0.444-0.444-1.175-0.666-2.193-0.666h-3.51l-2.08,9.067H47.157z"/>
	<path d="M55.51,35.26l5.135-22.263h12.772l-0.748,3.153h-9.132l-1.431,6.305h7.346l-0.748,3.185h-7.312l-1.495,6.468h9.165
		l-0.747,3.152H55.51z"/>
	<path d="M83.524,12.997c2.166,0,3.77,0.466,4.81,1.397c1.04,0.932,1.561,2.454,1.561,4.566c0,2.113-0.515,3.879-1.544,5.297
		c-1.029,1.419-2.28,2.378-3.754,2.876l2.08,8.125h-3.607l-1.82-7.638h-4.095l-1.755,7.638h-3.64l5.167-22.263H83.524z
		 M84.922,22.942c0.823-1.04,1.235-2.215,1.235-3.526c0-1.311-0.217-2.188-0.65-2.632c-0.434-0.444-1.181-0.667-2.242-0.667h-3.445
		l-1.95,8.385h3.737C82.993,24.502,84.099,23.982,84.922,22.942z"/>
	<path d="M97.89,35.26h-7.897l5.167-22.263h7.053c4.55,0,6.825,2.232,6.825,6.695c0,3.835-0.889,7.312-2.665,10.433
		c-0.867,1.538-2.037,2.778-3.511,3.721S99.73,35.26,97.89,35.26z M103.658,27.59c0.53-1.3,0.937-2.633,1.219-3.998
		c0.281-1.365,0.422-2.67,0.422-3.917c0-1.246-0.309-2.145-0.926-2.697s-1.576-0.829-2.876-0.829H98.02l-3.641,15.958h3.868
		c1.17,0,2.231-0.428,3.185-1.284C102.385,29.968,103.127,28.89,103.658,27.59z"/>
	<path d="M114.789,27.947c-0.195,0.867-0.293,1.669-0.293,2.405c0,1.408,1.105,2.112,3.315,2.112c1.494,0,2.583-0.347,3.266-1.04
		s1.208-1.82,1.576-3.38l3.478-15.048h3.641l-3.478,15.048c-0.607,2.644-1.599,4.566-2.974,5.769
		c-1.377,1.202-3.213,1.804-5.509,1.804c-4.615,0-6.923-1.625-6.923-4.875c0-0.91,0.13-2.015,0.39-3.314l3.348-14.431h3.641
		L114.789,27.947z"/>
	<path d="M137.896,28.37h-3.672l-1.593,6.89h-3.64l5.167-22.263h6.663c2.188,0,3.78,0.466,4.777,1.397
		c0.996,0.932,1.495,2.417,1.495,4.453c0,2.99-0.812,5.325-2.438,7.003C143.031,27.53,140.777,28.37,137.896,28.37z M138.416,25.217
		c1.581,0,2.806-0.573,3.672-1.722c0.867-1.148,1.301-2.686,1.301-4.615c0-0.932-0.223-1.62-0.667-2.064
		c-0.444-0.444-1.175-0.666-2.193-0.666h-3.51l-2.08,9.067H138.416z"/>
	<path d="M146.769,35.26l5.135-22.263h12.772l-0.748,3.153h-9.132l-1.431,6.305h7.346l-0.748,3.185h-7.312l-1.495,6.468h9.165
		l-0.747,3.152H146.769z"/>
	<path d="M174.783,12.997c2.166,0,3.77,0.466,4.81,1.397c1.04,0.932,1.561,2.454,1.561,4.566c0,2.113-0.515,3.879-1.544,5.297
		c-1.029,1.419-2.28,2.378-3.754,2.876l2.08,8.125h-3.607l-1.82-7.638h-4.095l-1.755,7.638h-3.64l5.167-22.263H174.783z
		 M176.181,22.942c0.823-1.04,1.235-2.215,1.235-3.526c0-1.311-0.217-2.188-0.65-2.632c-0.434-0.444-1.181-0.667-2.242-0.667h-3.445
		l-1.95,8.385h3.737C174.252,24.502,175.357,23.982,176.181,22.942z"/>
	<path d="M197.436,16.312c-2.34-0.39-4.204-0.585-5.59-0.585c-1.387,0-2.438,0.325-3.152,0.975s-1.073,1.56-1.073,2.73
		c0,0.737,0.212,1.284,0.634,1.642c0.423,0.357,1.441,0.861,3.056,1.511c1.613,0.65,2.729,1.343,3.348,2.08
		c0.617,0.737,0.926,1.82,0.926,3.25c0,2.448-0.742,4.344-2.227,5.688s-3.493,2.015-6.028,2.015c-0.975,0-2.015-0.093-3.12-0.276
		c-1.104-0.184-1.961-0.374-2.567-0.568l-0.942-0.293l0.585-2.632c2.491,0.411,4.518,0.617,6.077,0.617
		c3.012,0,4.518-1.376,4.518-4.128c0-0.758-0.206-1.315-0.617-1.674c-0.412-0.357-1.393-0.85-2.941-1.479
		c-1.55-0.628-2.665-1.327-3.348-2.096c-0.683-0.769-1.023-1.857-1.023-3.266c0-2.145,0.693-3.878,2.08-5.2
		c1.386-1.321,3.25-1.982,5.59-1.982c0.975,0,1.999,0.087,3.071,0.26s1.901,0.347,2.486,0.52l0.91,0.292L197.436,16.312z"/>
	<path d="M199.841,16.15l0.747-3.153h14.365l-0.748,3.153h-5.395l-4.42,19.11h-3.607l4.388-19.11H199.841z"/>
	<path d="M217.488,27.947c-0.195,0.867-0.293,1.669-0.293,2.405c0,1.408,1.105,2.112,3.315,2.112c1.494,0,2.583-0.347,3.266-1.04
		s1.208-1.82,1.576-3.38l3.478-15.048h3.641l-3.478,15.048c-0.607,2.644-1.599,4.566-2.974,5.769
		c-1.377,1.202-3.213,1.804-5.509,1.804c-4.615,0-6.923-1.625-6.923-4.875c0-0.91,0.13-2.015,0.39-3.314l3.348-14.431h3.641
		L217.488,27.947z"/>
	<path d="M239.588,35.26h-7.897l5.167-22.263h7.053c4.55,0,6.825,2.232,6.825,6.695c0,3.835-0.889,7.312-2.665,10.433
		c-0.867,1.538-2.037,2.778-3.511,3.721S241.429,35.26,239.588,35.26z M245.356,27.59c0.53-1.3,0.937-2.633,1.219-3.998
		c0.281-1.365,0.422-2.67,0.422-3.917c0-1.246-0.309-2.145-0.926-2.697s-1.576-0.829-2.876-0.829h-3.478l-3.641,15.958h3.868
		c1.17,0,2.231-0.428,3.185-1.284C244.083,29.968,244.825,28.89,245.356,27.59z"/>
	<path d="M251.385,35.26l5.167-22.263h3.607l-5.135,22.263H251.385z"/>
	<path d="M273.745,33.7c-1.647,1.278-3.641,1.917-5.98,1.917s-4.095-0.541-5.265-1.625c-1.17-1.083-1.755-2.784-1.755-5.103
		c0-2.816,0.438-5.492,1.316-8.027c0.877-2.535,2.149-4.528,3.818-5.98c1.668-1.495,3.705-2.243,6.11-2.243
		c4.723,0,7.085,2.243,7.085,6.728c0,2.947-0.45,5.721-1.35,8.32C276.827,30.287,275.5,32.292,273.745,33.7z M264.482,28.094
		c0,1.723,0.281,2.882,0.845,3.478s1.495,0.894,2.795,0.894s2.405-0.4,3.315-1.202c1.213-1.084,2.166-2.741,2.859-4.973
		s1.04-4.431,1.04-6.598c0-1.386-0.281-2.383-0.845-2.99c-0.563-0.606-1.49-0.91-2.778-0.91c-1.29,0-2.335,0.357-3.137,1.072
		c-1.257,1.149-2.254,2.876-2.99,5.184C264.851,24.356,264.482,26.371,264.482,28.094z"/>
</g>
</svg>
