<?xml version="1.0" encoding="utf-8"?>
<!-- Generator: Adobe Illustrator 16.0.4, SVG Export Plug-In . SVG Version: 6.00 Build 0)  -->
<!DOCTYPE svg PUBLIC "-//W3C//DTD SVG 1.1//EN" "http://www.w3.org/Graphics/SVG/1.1/DTD/svg11.dtd">
<svg version="1.1" id="Layer_1" xmlns="http://www.w3.org/2000/svg" xmlns:xlink="http://www.w3.org/1999/xlink" x="0px" y="0px"
	 width="150px" height="150px" viewBox="0 0 150 150" enable-background="new 0 0 150 150" xml:space="preserve">
<g>
	<path fill="none" stroke="#FFF100" stroke-width="0.25" stroke-linecap="round" stroke-linejoin="round" d="M90.797,64.919
		l-6.186,1.188 M101.093,62.94l-7.556,1.452 M87.596,66.708l26.022-4.899 M84.102,75.648l3.494-8.94 M80.705,62.285l6.891,4.423
		 M61.511,59.448l-3.595,8.677 M44.292,63.447l17.218-3.999 M55.393,55.602l6.118,3.847 M40.807,71.607l3.486-8.16 M38.418,59.875
		l5.874,3.572 M51.722,64.325l6.194,3.8 M57.916,68.125l-6.699,1.364 M49.288,66.753l-0.839,1.99 M48.011,65.978l-0.843,1.99
		 M42.461,68.223l6.827-1.47 M48.011,65.978l1.277,0.775 M41.207,67.471l6.805-1.493 M41.633,70.164l0.828-1.941 M41.207,67.471
		l1.254,0.752 M40.374,69.413l0.833-1.942 M47.168,67.968l1.28,0.775 M48.449,68.743l-6.816,1.421 M40.374,69.413l1.259,0.751
		 M47.168,67.968l-6.794,1.445 M113.968,54.925l-6.312,16.941 M112.246,53.744l-6.408,17.107 M112.128,55.311l1.84-0.386
		 M112.246,53.744l1.722,1.181 M110.408,54.135l1.838-0.391 M105.773,72.298l6.354-16.987 M110.408,54.135l1.72,1.176
		 M104.014,71.151l6.396-17.017 M105.838,70.852l1.607,1.049 M104.014,71.151l1.603,1.044 M105.838,70.852l-1.824,0.3
		 M39.629,66.206l-1.611,3.745 M32.261,67.868l7.369-1.662 M36.492,64.321l3.138,1.885 M30.675,71.509l1.586-3.641 M29.184,66.045
		l3.077,1.823 M73.525,73.675l18.299-3.171 M82.802,74.834l12.565-2.06 M75.009,69.963l-1.484,3.712 M76.52,75.529l-2.995-1.854
		 M78.415,72.094l-1.467,3.702 M93.342,66.567l-18.333,3.396 M78.415,72.094l-3.406-2.131 M96.868,68.851l-18.453,3.243
		 M95.367,72.774l-3.543-2.271 M91.824,70.504l0.781-2.029 M96.868,68.851l-3.526-2.283 M95.367,72.774l1.501-3.924 M96.096,66.058
		l-0.736,1.925 M93.537,64.393l-0.745,1.928 M93.342,66.567l2.754-0.51 M93.537,64.393l2.559,1.665 M90.797,64.919l2.74-0.526
		 M92.605,68.475l0.735-1.907 M90.797,64.919l2.545,1.648 M90.055,66.832l0.742-1.913 M92.792,66.32l2.565,1.662 M95.357,67.982
		l-2.752,0.492 M90.055,66.832l2.553,1.643 M92.792,66.32l-2.737,0.512 M68.115,66.48l-2.104,5.173 M67.24,65.934l-2.111,5.178
		 M67.385,66.628l0.73-0.147 M67.24,65.934l0.875,0.547 M65.284,71.789l2.101-5.161 M66.511,66.083l0.874,0.545 M65.129,71.111
		l0.882,0.542 M66.011,71.653l-0.728,0.136 M64.404,71.247l0.88,0.542 M86.443,67.28l-2.039,5.208 M84.611,66.106l-2.053,5.217
		 M78.232,68.816l8.211-1.536 M84.611,66.106l1.832,1.174 M76.428,67.68l8.184-1.573 M76.215,73.888l2.018-5.071 M76.428,67.68
		l1.805,1.137 M74.398,72.759l2.029-5.079 M82.559,71.323l1.848,1.165 M84.404,72.488l-8.189,1.399 M74.398,72.759l1.816,1.129
		 M82.559,71.323l-8.16,1.436 M134.789,35.44l-4.1,11.344 M89.475,45.214l46.072-11.873 M84.809,56.989l4.666-11.775 M75.893,36.043
		l13.582,9.171 M115.784,36.107l14.905,10.677 M130.689,46.784L84.809,56.989 M71,47.963l13.809,9.026 M133.475,45.396l-2.994,8.332
		 M128.822,46.44l4.652-1.045 M125.834,54.668l2.988-8.228 M74.079,64.534l-2.132,5.299 M66.511,66.083l7.568-1.549 M64.404,71.247
		l2.107-5.164 M57.926,68.131l-6.698,1.363 M51.725,87.379l1.572-3.811l3.362-0.502 M42.561,105.553l-7.321,0.516l0.653-1.557
		l7.33-0.562L42.561,105.553z M74.533,75.578L62.83,77.521l0.966-2.375l11.722-2.042 M33.279,69.398l-1.45,0.317l0.359-0.825
		l1.45-0.321L33.279,69.398z M12.08,120.463l4.947-11.417l65.907-4.159 M21.953,120.326l-8.257,0.119 M54.131,119.87l-8.692,0.124
		 M19.023,127.212l2.93-6.886l23.485-0.332l-1.94,4.765 M21.269,124.668l3.032-7.141l31.09-0.799 M69.582,70.634l0.621-1.539
		l2.91-0.557 M84.117,75.648l3.488-8.935l26.008-4.895 M74.411,75.885l-9.93,1.641l6.825-16.811l65.369-14.374l-2.356,6.61
		 M110.615,69.907l-28.237,4.662 M64.571,81.895l-7.902,1.18 M64.037,83.249l-1.867,4.614l-7.885,1.021l-3.347,0.431l2.37-5.737
		l3.361-0.503 M107.283,67.028L83.436,71.22l3.479-8.861l23.939-4.861L107.283,67.028z M40.821,71.604l3.481-8.149l17.22-4
		l-3.596,8.676 M71.947,69.833l-7.543,1.414 M42.571,105.557l-7.322,0.517l0.655-1.556l7.33-0.562L42.571,105.557z M41.213,106.092
		l-3.088,0.213l3.704-8.871l3.111-0.315L41.213,106.092z M46.018,105.762l-1.672,0.114l3.75-9.082l1.684-0.174L46.018,105.762z
		 M79.031,66.498l2.945-0.572l-1.867,4.721 M80.109,70.646l-2.939,0.528 M79.613,72.841l0.188-0.472l19.326-3.363l-1.715,4.505
		 M74.53,75.587l-11.689,1.942l0.967-2.378l11.706-2.036 M30.689,71.507l1.582-3.633l7.369-1.662l-1.61,3.743 M138.232,40.889
		L138.232,40.889L138.232,40.889h0.002v0.001h0.002v0.002l0.002-0.002v0.002h0.001v0.001v-0.001l0.001-0.002h-0.001l-0.001-0.001
		v0.001v-0.001v-0.001l-0.002-0.002l0,0l-0.002-0.002l0,0h-0.002v-0.001 M138.229,40.883L138.229,40.883h-0.002v0.001
		L138.229,40.883L138.229,40.883l0.002,0.003h0.002l0,0l0,0l0.002,0.002v0.001h-0.002 M138.232,40.883L138.232,40.883
		L138.232,40.883h-0.002l-0.002-0.002v-0.002h-0.002v0.003h0.002l0.002,0.001l-0.004-0.001 M138.243,40.853L138.243,40.853
		L138.243,40.853l-0.002-0.001V40.85h-0.001l-0.004-0.002l-0.004-0.003v0.001v-0.001v0.001l0,0l0.004,0.003l0.002,0.003
		l-0.002-0.002v-0.001l-0.004-0.001v-0.001v0.001v0.001l0,0l0.004,0.003l0.002,0.002h0.002v0.001h0.001l0.001,0.002l0.001,0.001
		l-0.001-0.001 M138.24,40.85L138.24,40.85L138.24,40.85l0.002,0.002h0.001 M138.24,40.849L138.24,40.849L138.24,40.849
		L138.24,40.849 M138.24,40.849L138.24,40.849L138.24,40.849z M138.24,40.849L138.24,40.849L138.24,40.849 M138.241,40.857
		L138.241,40.857L138.241,40.857l0.001,0.002h0.001h0.003h0.001h-0.001l0.001-0.002l0,0v0.002h0.002v-0.002h-0.002h0.002h-0.002
		v-0.001v-0.002v-0.001l-0.001-0.002h-0.003l-0.001-0.002l-0.001-0.001h-0.001v-0.001 M138.234,40.862l-0.004-0.002v0.001V40.86
		v0.001L138.234,40.862l0.002,0.004l0.002,0.001v0.001h0.001v0.001h0.001h0.001v-0.001v0.001h0.001h0.001v-0.001h-0.001
		 M138.238,40.864L138.238,40.864L138.238,40.864L138.238,40.864l-0.002-0.001v-0.001l-0.002-0.001l-0.002-0.002v-0.002
		l-0.002,0.002v0.001l0.004,0.002l0,0 M138.242,40.868L138.242,40.868L138.242,40.868l-0.001-0.002v-0.002h-0.001v-0.001h-0.002
		v0.001l0,0 M62.16,87.855l-3.037,0.395 M61.527,82.341l0.792-0.118 M72.326,61.88h-0.002v0.001V61.88l0.002-0.002v-0.001h0.001
		v0.001l0.002,0.003v0.001h0.001v-0.001 M72.324,61.881L72.324,61.881l0.003,0.001l-0.001-0.002 M72.323,61.882L72.323,61.882
		L72.323,61.882l-0.001,0.001L72.323,61.882L72.323,61.882 M72.333,61.881L72.333,61.881L72.333,61.881L72.333,61.881l0.002,0.001
		l0.001,0.001v0.001v0.002v0.001h0.001h0.001v0.001l-0.001,0.002h-0.001h-0.001l0.001-0.002h-0.001h-0.001h-0.001h-0.001v-0.001
		H72.33h-0.002h0.002v-0.001l0,0l0,0v-0.002l-0.002-0.001l-0.003-0.001 M72.353,61.854L72.353,61.854L72.353,61.854L72.353,61.854
		L72.353,61.854l0.001,0.002h0.001l0.001,0.001h0.001v0.001v0.002l0,0v0.001l0,0l0.002,0.001h-0.002v0.001v-0.001l0,0
		 M72.354,61.855L72.354,61.855L72.354,61.855 M72.353,61.86L72.353,61.86L72.353,61.86L72.353,61.86l-0.003-0.001l-0.001-0.003
		l-0.004-0.001l-0.001-0.002h0.001l0,0l0,0h0.001l0.002,0.002l0,0l0.001,0.001l-0.001-0.001l-0.003-0.002v-0.002V61.85v0.001
		l0.003,0.002l0.003,0.002 M72.357,61.861L72.357,61.861L72.357,61.861L72.357,61.861L72.357,61.861L72.357,61.861h-0.002v0.001
		h-0.001l-0.001-0.001V61.86 M72.355,61.856L72.355,61.856 M72.354,61.855L72.354,61.855 M72.354,61.855L72.354,61.855
		 M72.355,61.856L72.355,61.856 M72.349,61.864L72.349,61.864v-0.002v-0.001v0.001h0.001L72.349,61.864L72.349,61.864l0.001,0.002
		h0.001v0.002l0,0H72.35 M72.346,61.866L72.346,61.866L72.346,61.866l-0.002-0.001l-0.001-0.001l-0.004-0.003h0.002h-0.002V61.86
		v0.001h0.002h0.002l0.002,0.003v-0.002l-0.002-0.001L72.34,61.86l0.001-0.001v-0.002v0.002l0.002,0.001v0.001h0.003v0.001h0.002
		 M72.35,61.868L72.35,61.868L72.35,61.868L72.35,61.868L72.35,61.868h-0.003l0,0h-0.001l0.001-0.002 M72.346,61.868L72.346,61.868
		L72.346,61.868 M127.329,45.373l19.095-4.366 M123.791,55.081l3.538-9.708 M119.001,39.421l8.328,5.952 M56.659,83.066l5.659-0.846
		 M53.297,83.568L53.297,83.568 M50.927,89.309L50.927,89.309 M62.159,87.855l-7.885,1.021 M62.159,87.855L62.159,87.855
		 M54.274,88.877l-3.347,0.432 M62.16,87.855l-7.863,1.02 M64.026,83.242l-1.867,4.613 M56.683,83.064l7.893-1.18 M50.927,89.309
		l2.371-5.738 M56.659,83.066l-3.362,0.502 M62.159,87.855l1.866-4.613 M50.927,89.309l3.347-0.432 M53.297,83.568l-2.37,5.74
		 M66.02,96.947l-2.343,5.88 M62.16,87.855l7.887-1.019 M54.297,88.875l4.825-0.625 M48.093,103.993l6.204-15.118 M46.26,84.199
		l8.037,4.676 M55.165,97.98l8.512,4.847 M63.677,102.827l-15.583,1.166 M39.887,99.436l8.207,4.559 M45.428,119.986l-1.943,4.771
		 M40.027,117.116l-3.141,7.614 M40.027,117.116l5.401,2.87 M16.873,117.714l7.416-0.19 M19.01,127.212l2.934-6.89 M16.873,117.714
		l5.071,2.608 M15.203,121.591l1.67-3.877 M38.813,125.73l1.686,0.875 M24.289,117.521l31.104-0.802 M21.254,124.668l3.035-7.146
		 M16.67,113.562l7.619,3.959 M17.017,109.041l65.92-4.16 M12.067,120.463l4.949-11.422 M5.053,102.747l11.963,6.294
		 M54.134,119.865l-40.436,0.574 M70.193,69.088l2.925-0.561 M69.566,70.637l0.626-1.549 M68.919,68.295l1.273,0.793 M60.886,72.82
		l15.915-2.932 M56.683,83.064l4.204-10.245"/>
</g>
<path fill="none" stroke="#FFF100" stroke-width="0.125" stroke-linecap="round" stroke-linejoin="round" d="M53.013,68.003
	l7.859,4.782 M61.513,82.286l-4.844,0.725 M56.079,82.661l0.59,0.35 M136.635,46.338l-2.357,6.61 M104.723,53.348l31.912-7.01
	 M71.279,60.69l9.755-2.142 M124.991,37.924l11.644,8.414 M64.457,77.475l6.822-16.784 M57.04,51.652l14.24,9.038 M74.397,75.833
	l-9.94,1.642 M110.596,69.864l-28.248,4.66 M52.163,70.035l12.294,7.439 M48.682,93.087l-4.436,10.71 M39.329,94.17l9.353-1.083
	 M43.694,90.245l4.988,2.842 M38.717,95.623l0.612-1.453 M32.104,90.111l7.225,4.059 M36.738,99.652l7.508,4.145 M41.144,104.033
	l-3.105,0.238 M44.247,103.797l-1.444,0.109 M38.871,98.926l-2.631,6.268 M12.801,101.457l26.07-2.531 M30.351,94.202l8.52,4.724
	 M10.324,107.089l2.477-5.632 M4.894,97.25l7.907,4.207 M27.647,100.518l7.33,3.986 M36.24,105.191l-25.916,1.896 M4.448,104.014
	l5.876,3.075 M44.917,97.034l-3.725,8.961 M41.803,95.284l-3.765,8.987 M41.808,97.352l3.109-0.316 M41.803,95.284l3.115,1.75
	 M38.717,95.623l3.086-0.339 M38.105,106.205l3.703-8.854 M38.717,95.623l3.091,1.729 M34.977,104.504l3.74-8.881 M38.038,104.271
	l3.154,1.724 M41.192,105.995l-3.087,0.21 M34.977,104.504l3.128,1.701 M38.038,104.271l-3.061,0.231 M49.756,96.541l-3.762,9.124
	 M46.603,94.755l-3.8,9.151 M48.071,96.711l1.685-0.17 M46.603,94.755l3.153,1.786 M44.933,94.938l1.67-0.184 M44.322,105.779
	l3.749-9.068 M44.933,94.938l3.139,1.772 M41.144,104.033l3.789-9.096 M42.803,103.906l3.192,1.759 M45.995,105.665l-1.672,0.114
	 M41.144,104.033l3.179,1.746 M42.803,103.906l-1.659,0.127 M104.723,53.348l-3.649,9.572 M86.884,62.333l23.933-4.855
	 M104.723,53.348l6.094,4.13 M81.034,58.549l23.688-5.201 M83.404,71.179l3.479-8.846 M81.034,58.549l5.85,3.784 M77.484,67.445
	l3.55-8.896 M101.072,62.92l6.178,4.074 M107.25,66.994L96.848,68.82 M77.484,67.445l5.92,3.733"/>
<g>
	<path fill="none" stroke="#FFF100" stroke-width="0.5" stroke-linecap="round" stroke-linejoin="round" d="M82.926,104.812
		l-5.599,14.633 M129.878,55.219l-4.637,0.92 M147.391,46.873l-6.324,1.34l2.603-7.387L150,39.364L147.391,46.873z M64.585,81.848
		L64.585,81.848 M47.162,112.15l8.252,4.482 M77.122,71.265l3.573-8.986 M102.695,66.681l7.291,4.787 M75.387,75.41l-0.855,0.142
		 M13.63,120.661l3.105-7.183 M43.841,120.275l8.343,4.42 M13.63,120.661l7.686,3.905 M43.841,120.275l-30.211,0.386 M68.856,96.623
		l-5.881,14.837 M28.178,127.302l-3.41-0.052l1.203-2.855l3.42,0.013L28.178,127.302z M29.64,125.617l-11.835-0.098l1.206-2.821
		l11.868-0.046L29.64,125.617z M68.856,96.623l14.069,8.189 M13.767,120.352l-1.618,0.021l0.002-0.005 M36.791,99.671l32.066-3.048
		 M77.122,71.265l6.968,4.358 M43.534,124.658l-1.143,2.808 M102.695,66.681l-25.573,4.584 M55.412,116.643h0.014l-3.229,8.061
		 M0,114.209l5.133-11.529 M52.197,124.702l-30.872-0.132l0.003-0.004 M62.976,111.46l14.352,7.985 M113.564,61.816l0.018-0.004
		l-3.584,9.662 M13.769,120.348l-1.63,0.021 M109.998,71.475L84.1,75.632l0.004-0.012 M76.943,75.768l-0.432-0.264 M77.327,119.445
		l-23.171,0.328 M0,114.209l12.139,6.159 M64.595,81.855l-0.014,0.002 M62.976,111.46L0,114.209 M64.595,81.855l-0.547,1.355
		 M105.441,69.513l-4.734,0.799l0.492-1.296l4.734-0.817L105.441,69.513z M73.116,68.513l-0.626,1.561 M102.07,72.464l-10.787,1.739
		l0.861-2.234l10.797-1.816L102.07,72.464z M71.838,67.712l-0.63,1.563 M55.412,55.604l-3.667,8.711 M71.838,67.712l1.278,0.801
		 M68.925,68.28l2.914-0.568 M40.888,125.648l-0.706,1.723 M107.404,71.881l0.158,0.104 M77.167,71.156l-4.35,0.78l1.847-4.604
		l4.359-0.847 M68.297,69.827l0.628-1.547 M97.384,73.49l-0.35,0.915 M71.208,69.275l1.281,0.798 M97.034,74.405l-19.255,3.04
		l1.828-4.625 M75.512,73.093l0.871-0.152l-0.985,2.476 M72.49,70.073l-2.92,0.544 M75.397,75.416l-0.869,0.143 M41.782,70.751
		l-3.693,0.76l0.472-1.101l3.698-0.776L41.782,70.751z M41.61,69.22l-2.358,0.5l0.48-1.117l2.359-0.509L41.61,69.22z M42.007,67.721
		l-2.385,0.52l0.483-1.126l2.388-0.529L42.007,67.721z M68.297,69.827l1.273,0.79 M38.069,69.938l-7.335,1.557l0.004-0.009
		 M71.208,69.275l-2.912,0.552 M76.796,69.87l-4.303,10.799 M68.671,64.774l-4.426,10.878 M38.457,59.872l16.955-4.268
		 M68.671,64.774l8.125,5.096 M115.732,36.144L71,47.979 M107.562,71.985l-1.826,0.293 M48.737,78.318l4.312-10.303 M64.246,75.652
		l8.247,5.017 M36.534,64.311l1.923-4.438 M72.493,80.669l-7.908,1.179 M105.577,72.175l0.159,0.104 M48.737,78.318l7.374,4.357
		 M64.246,75.652l-15.509,2.666 M134.23,52.963l-4.93,13.827 M51.241,69.471l-10.396,2.115 M120.671,34.836l-7.752,20.757
		 M130.412,53.736l-0.534,1.482 M38.059,69.932l2.785,1.654 M51.745,64.315L34.909,68.06 M120.671,34.836l4.283,3.101
		 M115.732,36.144l4.938-1.308 M57.069,51.663L71,47.979 M135.473,33.381l-0.757,2.095 M120.863,22.534l-5.131,13.609
		 M55.412,55.604l1.657-3.941 M49.915,68.667l1.83-4.352 M112.919,55.593l16.383,11.197 M36.534,64.311l-1.625,3.75 M82.355,74.538
		l-7.943,1.312 M146.337,41.034l-3.569,10.201 M137.811,34.695l-3.693,10.288 M32.137,125.577l8.75,0.071 M137.811,34.695
		l8.526,6.339 M118.945,39.451l18.863-4.756 M129.302,66.79l-18.727,3.091 M120.863,22.534l14.607,10.847 M134.116,44.983
		l8.651,6.252 M142.768,51.235l-19.035,3.854 M115.298,49.224l8.435,5.865 M134.116,44.983l-18.818,4.24 M62.33,82.188l2.255-0.34
		 M49.915,68.667l2.283,1.382 M80.695,62.278l-30.781,6.389 M112.919,55.593l-6.544,1.357 M29.233,66.034l7.301-1.724
		 M64.585,81.848L64.585,81.848 M41.331,88.884L36.79,99.671 M75.887,36.076l44.977-13.542 M31.444,127.24l0.693-1.663
		 M41.331,88.884l2.408,1.375 M64.585,81.848l-0.548,1.356 M32.16,90.128l9.171-1.244 M27.635,69.678l1.598-3.644 M34.909,68.061
		l3.15,1.871 M64.035,83.204l0.55-1.356 M30.41,94.221l1.75-4.093 M38.059,69.932l-7.336,1.558 M27.635,69.678l3.088,1.812
		 M107.613,71.848l-0.051,0.138 M70.05,86.796l-4.023,10.095 M61.733,81.829l-6.546,16.093 M36.791,99.671l-9.083,0.861
		 M34.909,68.061l-7.273,1.617 M61.733,81.829l8.317,4.967 M46.291,84.159l15.442-2.33 M30.41,94.221l-2.703,6.312 M40.182,127.371
		l-8.738-0.131 M39.924,99.372l6.367-15.213 M71,47.979l4.889-11.902 M4.977,97.266l25.433-3.045 M113.568,61.806l-3.582,9.662
		 M43.52,124.658l-1.14,2.8 M106.375,56.95l-3.68,9.73 M2.44,102.936l2.537-5.67 M76.943,75.768l5.846-0.957 M106.375,56.95
		l7.193,4.855 M80.695,62.278l25.68-5.328 M2.44,102.936l2.09,1.096 M27.707,100.532L2.44,102.936 M13.962,124.537l1.31-3.04
		 M40.537,126.503l1.843,0.955 M125.241,56.139l0.53-1.464 M36.928,124.633l1.927,0.999 M42.38,127.458l-23.306-0.351
		 M13.962,124.537l5.111,2.57 M21.316,124.566l-7.354-0.029 M55.414,116.634l-3.229,8.062 M47.162,112.15l-3.321,8.125
		 M121.018,51.305l12.432-2.675l1.982,1.419l-12.464,2.618L121.018,51.305z"/>
</g>
<g>
	<g enable-background="new    ">
		<path fill="#231F20" d="M50.937,37.297c-0.639-0.794-1.468-1.191-2.487-1.191c-0.328,0-0.661,0.064-0.997,0.194
			c-0.337,0.129-0.639,0.319-0.907,0.569c-0.268,0.251-0.488,0.566-0.661,0.946c-0.173,0.38-0.259,0.82-0.259,1.32
			c0,0.657,0.181,1.188,0.544,1.594c0.362,0.405,0.846,0.79,1.451,1.152c0.379,0.242,0.764,0.51,1.152,0.803
			c0.389,0.294,0.738,0.635,1.049,1.023s0.561,0.829,0.751,1.321s0.285,1.058,0.285,1.696c0,0.984-0.16,1.849-0.479,2.591
			c-0.32,0.743-0.751,1.364-1.295,1.865s-1.17,0.881-1.878,1.14c-0.708,0.259-1.459,0.389-2.254,0.389
			c-1.019,0-1.956-0.186-2.811-0.557s-1.515-0.851-1.981-1.438L42,48.539c0.345,0.449,0.777,0.812,1.295,1.088
			c0.518,0.276,1.07,0.415,1.658,0.415c0.829,0,1.516-0.25,2.06-0.751s0.816-1.218,0.816-2.15c0-0.656-0.177-1.218-0.531-1.684
			c-0.354-0.467-0.902-0.924-1.645-1.373c-0.38-0.225-0.751-0.479-1.114-0.765c-0.362-0.284-0.682-0.612-0.958-0.984
			c-0.276-0.371-0.497-0.794-0.66-1.269c-0.165-0.476-0.246-1.032-0.246-1.671c0-0.881,0.151-1.685,0.453-2.409
			c0.302-0.726,0.712-1.348,1.23-1.865c0.518-0.519,1.131-0.92,1.839-1.205c0.708-0.284,1.477-0.427,2.305-0.427
			c0.933,0,1.77,0.151,2.513,0.453c0.743,0.303,1.338,0.722,1.788,1.256L50.937,37.297z"/>
	</g>
	<g enable-background="new    ">
		<path fill="#231F20" d="M66.375,45.768c-0.173,0.968-0.41,1.874-0.712,2.72c-0.302,0.847-0.712,1.58-1.23,2.202
			s-1.157,1.114-1.917,1.477S60.84,52.71,59.77,52.71c-0.864,0-1.606-0.126-2.228-0.376c-0.622-0.25-1.14-0.6-1.555-1.049
			c-0.414-0.449-0.721-0.972-0.919-1.567c-0.199-0.596-0.298-1.247-0.298-1.956c0-0.293,0.013-0.604,0.039-0.932
			s0.073-0.683,0.142-1.062l2.073-11.838h2.953L57.93,45.482c-0.052,0.294-0.095,0.592-0.129,0.894
			c-0.035,0.303-0.052,0.601-0.052,0.895c0,0.742,0.16,1.372,0.479,1.891c0.319,0.518,0.911,0.777,1.774,0.777
			c0.57,0,1.049-0.121,1.438-0.363c0.389-0.241,0.712-0.569,0.971-0.984c0.259-0.414,0.471-0.889,0.635-1.425
			c0.164-0.535,0.298-1.096,0.401-1.684l2.046-11.553h2.953L66.375,45.768z"/>
		<path fill="#231F20" d="M81.011,38.385c0,1.036-0.142,1.952-0.427,2.746s-0.688,1.464-1.205,2.008s-1.14,0.958-1.865,1.243
			c-0.725,0.285-1.528,0.428-2.409,0.428h-2.228l-1.321,7.46h-2.901l3.186-18.34h4.663c0.604,0,1.178,0.086,1.723,0.259
			c0.543,0.173,1.023,0.44,1.438,0.803c0.414,0.363,0.742,0.825,0.984,1.386C80.891,36.938,81.011,37.607,81.011,38.385z
			 M78.162,38.8c0-0.726-0.178-1.3-0.531-1.723c-0.354-0.424-0.895-0.635-1.619-0.635h-1.71l-1.01,5.958h1.839
			c0.932,0,1.67-0.319,2.215-0.959C77.89,40.803,78.162,39.922,78.162,38.8z"/>
		<path fill="#231F20" d="M91.891,36.52h-5.077l-0.907,5.052h4.845l-0.415,2.461h-4.818l-0.984,5.595h5.544l-0.44,2.643h-8.393
			l3.186-18.34h7.928L91.891,36.52z"/>
		<path fill="#231F20" d="M105.023,38.333c0,1.468-0.35,2.686-1.049,3.652c-0.699,0.968-1.619,1.606-2.759,1.917l2.254,8.367h-3.083
			l-1.916-7.875h-1.814l-1.398,7.875h-2.85l3.187-18.34h4.714c1.52,0,2.686,0.362,3.498,1.088
			C104.617,35.742,105.023,36.848,105.023,38.333z M102.123,38.706c0-0.832-0.225-1.427-0.674-1.782s-1.002-0.533-1.658-0.533
			h-1.762l-1.01,5.802h1.813c0.933,0,1.714-0.308,2.345-0.923C101.807,40.653,102.123,39.799,102.123,38.706z"/>
		<path fill="#231F20" d="M109.894,46.415h-4.378l0.363-2.279h4.43L109.894,46.415z"/>
	</g>
	<g enable-background="new    ">
		<path fill="#231F20" d="M52.62,71.388c0,1.45-0.173,2.854-0.518,4.209c-0.346,1.356-0.881,2.561-1.606,3.614
			c-0.725,1.053-1.645,1.895-2.759,2.525c-1.114,0.631-2.431,0.945-3.95,0.945h-4.637l3.186-18.34h4.43
			c1.036,0,1.925,0.173,2.668,0.518c0.742,0.346,1.347,0.829,1.813,1.451c0.466,0.621,0.812,1.364,1.036,2.228
			C52.507,69.401,52.62,70.352,52.62,71.388z M49.615,71.62c0-1.433-0.264-2.577-0.79-3.432c-0.527-0.855-1.334-1.282-2.422-1.282
			h-1.58l-2.254,13.211h1.606c0.829,0,1.58-0.237,2.253-0.713c0.674-0.475,1.248-1.104,1.723-1.891
			c0.475-0.785,0.837-1.692,1.088-2.72S49.615,72.709,49.615,71.62z"/>
		<path fill="#231F20" d="M65.934,76.18c-0.173,0.968-0.41,1.874-0.712,2.72c-0.302,0.847-0.712,1.58-1.23,2.202
			s-1.157,1.114-1.917,1.477s-1.675,0.544-2.746,0.544c-0.864,0-1.606-0.126-2.228-0.376c-0.622-0.25-1.14-0.6-1.555-1.049
			c-0.414-0.449-0.721-0.972-0.919-1.567c-0.199-0.596-0.298-1.247-0.298-1.956c0-0.293,0.013-0.604,0.039-0.932
			s0.073-0.683,0.142-1.062l2.073-11.838h2.953l-2.046,11.553c-0.052,0.294-0.095,0.592-0.129,0.894
			c-0.035,0.303-0.052,0.601-0.052,0.895c0,0.742,0.16,1.372,0.479,1.891c0.319,0.518,0.911,0.777,1.774,0.777
			c0.57,0,1.049-0.121,1.438-0.363c0.389-0.241,0.712-0.569,0.971-0.984c0.259-0.414,0.471-0.889,0.635-1.425
			c0.164-0.535,0.298-1.096,0.401-1.684l2.046-11.553h2.953L65.934,76.18z"/>
	</g>
	<g enable-background="new    ">
		<path fill="#231F20" d="M82.02,68.797c0,1.036-0.142,1.952-0.427,2.746s-0.687,1.464-1.204,2.008
			c-0.519,0.544-1.141,0.958-1.865,1.243c-0.726,0.285-1.529,0.428-2.409,0.428h-2.228l-1.321,7.46h-2.901l3.186-18.34h4.663
			c0.604,0,1.179,0.086,1.723,0.259s1.023,0.44,1.438,0.803c0.414,0.363,0.742,0.825,0.984,1.386
			C81.899,67.351,82.02,68.02,82.02,68.797z M79.171,69.212c0-0.726-0.177-1.3-0.531-1.723c-0.354-0.424-0.894-0.635-1.619-0.635
			h-1.709l-1.01,5.958h1.84c0.932,0,1.67-0.319,2.215-0.959C78.898,71.215,79.171,70.334,79.171,69.212z"/>
		<path fill="#231F20" d="M92.9,66.932h-5.078l-0.906,5.052h4.844l-0.414,2.461h-4.818l-0.984,5.595h5.543l-0.439,2.643h-8.393
			l3.186-18.34h7.927L92.9,66.932z"/>
		<path fill="#231F20" d="M106.033,68.745c0,1.468-0.35,2.686-1.049,3.652c-0.699,0.968-1.619,1.606-2.76,1.917l2.254,8.367h-3.082
			l-1.917-7.875h-1.813l-1.398,7.875h-2.85l3.186-18.34h4.715c1.52,0,2.686,0.362,3.497,1.088
			C105.627,66.154,106.033,67.26,106.033,68.745z M103.132,69.118c0-0.832-0.225-1.427-0.673-1.782
			c-0.449-0.355-1.002-0.533-1.658-0.533h-1.762l-1.01,5.802h1.812c0.933,0,1.714-0.308,2.345-0.923
			C102.816,71.065,103.132,70.211,103.132,69.118z"/>
		<path fill="#231F20" d="M110.902,76.827h-4.377l0.362-2.279h4.43L110.902,76.827z"/>
	</g>
	<g enable-background="new    ">
		<path fill="#231F20" d="M49.77,98.404c-0.639-0.794-1.468-1.191-2.487-1.191c-0.328,0-0.661,0.064-0.997,0.194
			c-0.337,0.129-0.639,0.319-0.907,0.569c-0.268,0.251-0.488,0.566-0.661,0.946c-0.173,0.38-0.259,0.82-0.259,1.32
			c0,0.657,0.181,1.188,0.544,1.594c0.362,0.405,0.846,0.79,1.451,1.152c0.379,0.242,0.764,0.51,1.152,0.803
			c0.389,0.294,0.738,0.635,1.049,1.023s0.561,0.829,0.751,1.321s0.285,1.058,0.285,1.696c0,0.984-0.16,1.849-0.479,2.591
			c-0.32,0.743-0.751,1.364-1.295,1.865s-1.17,0.881-1.878,1.14c-0.708,0.259-1.459,0.389-2.254,0.389
			c-1.019,0-1.956-0.186-2.811-0.557s-1.515-0.851-1.981-1.438l1.839-2.176c0.345,0.449,0.777,0.812,1.295,1.088
			c0.518,0.276,1.07,0.415,1.658,0.415c0.829,0,1.516-0.25,2.06-0.751s0.816-1.218,0.816-2.15c0-0.656-0.177-1.218-0.531-1.684
			c-0.354-0.467-0.902-0.924-1.645-1.373c-0.38-0.225-0.751-0.479-1.114-0.765c-0.362-0.284-0.682-0.612-0.958-0.984
			c-0.276-0.371-0.497-0.794-0.66-1.269c-0.165-0.476-0.246-1.032-0.246-1.671c0-0.881,0.151-1.685,0.453-2.409
			c0.302-0.726,0.712-1.348,1.23-1.865c0.518-0.519,1.131-0.92,1.839-1.205c0.708-0.284,1.477-0.427,2.305-0.427
			c0.933,0,1.77,0.151,2.513,0.453c0.743,0.303,1.338,0.722,1.788,1.256L49.77,98.404z"/>
		<path fill="#231F20" d="M61.971,97.55h-3.419l-2.746,15.827h-2.953l2.771-15.827h-3.445l0.44-2.513h9.792L61.971,97.55z"/>
		<path fill="#231F20" d="M73.342,106.875c-0.173,0.968-0.41,1.874-0.712,2.72c-0.302,0.847-0.712,1.58-1.23,2.202
			s-1.157,1.114-1.917,1.477s-1.675,0.544-2.746,0.544c-0.864,0-1.606-0.126-2.228-0.376c-0.622-0.25-1.14-0.6-1.555-1.049
			c-0.414-0.449-0.721-0.972-0.919-1.567c-0.199-0.596-0.298-1.247-0.298-1.956c0-0.293,0.013-0.604,0.039-0.932
			s0.073-0.683,0.142-1.062l2.073-11.838h2.953l-2.046,11.553c-0.052,0.294-0.095,0.592-0.129,0.894
			c-0.035,0.303-0.052,0.601-0.052,0.895c0,0.742,0.16,1.372,0.479,1.891c0.319,0.518,0.911,0.777,1.774,0.777
			c0.57,0,1.049-0.121,1.438-0.363c0.389-0.241,0.712-0.569,0.971-0.984c0.259-0.414,0.471-0.889,0.635-1.425
			c0.164-0.535,0.298-1.096,0.401-1.684l2.046-11.553h2.953L73.342,106.875z"/>
		<path fill="#231F20" d="M89.092,102.083c0,1.45-0.173,2.854-0.518,4.209c-0.346,1.356-0.881,2.561-1.607,3.614
			c-0.725,1.053-1.645,1.895-2.758,2.525c-1.114,0.631-2.432,0.945-3.951,0.945h-4.637l3.187-18.34h4.43
			c1.036,0,1.925,0.173,2.668,0.518c0.742,0.346,1.347,0.829,1.813,1.451c0.467,0.621,0.812,1.364,1.036,2.228
			C88.979,100.097,89.092,101.047,89.092,102.083z M86.087,102.315c0-1.433-0.264-2.577-0.79-3.432
			c-0.527-0.855-1.334-1.282-2.422-1.282h-1.58l-2.254,13.211h1.605c0.829,0,1.58-0.237,2.254-0.713
			c0.674-0.475,1.248-1.104,1.723-1.891c0.475-0.785,0.838-1.692,1.088-2.72S86.087,103.404,86.087,102.315z"/>
		<path fill="#231F20" d="M93.107,113.377h-2.979l3.187-18.34h2.979L93.107,113.377z"/>
		<path fill="#231F20" d="M110.98,101.487c0,1.485-0.194,2.966-0.583,4.442c-0.388,1.477-0.937,2.798-1.645,3.963
			c-0.708,1.166-1.567,2.111-2.577,2.837c-1.011,0.726-2.146,1.088-3.406,1.088c-0.864,0-1.633-0.164-2.307-0.492
			c-0.673-0.328-1.238-0.79-1.696-1.386s-0.808-1.312-1.05-2.15c-0.241-0.837-0.361-1.766-0.361-2.784
			c0-1.485,0.185-2.967,0.557-4.443c0.371-1.477,0.906-2.806,1.605-3.989c0.699-1.183,1.559-2.141,2.578-2.875
			c1.019-0.733,2.166-1.101,3.445-1.101c0.897,0,1.688,0.168,2.369,0.505c0.683,0.337,1.252,0.808,1.711,1.412
			c0.457,0.604,0.798,1.33,1.022,2.176S110.98,100.468,110.98,101.487z M107.846,101.928c0-0.57-0.035-1.131-0.104-1.685
			c-0.068-0.552-0.193-1.04-0.375-1.463s-0.441-0.769-0.777-1.036c-0.337-0.268-0.764-0.402-1.282-0.402
			c-0.777,0-1.468,0.32-2.072,0.959s-1.114,1.438-1.528,2.396c-0.414,0.958-0.73,1.994-0.945,3.108
			c-0.217,1.113-0.324,2.154-0.324,3.121c0,0.57,0.043,1.105,0.129,1.606c0.087,0.501,0.234,0.937,0.441,1.308
			c0.207,0.372,0.479,0.665,0.815,0.881s0.747,0.324,1.23,0.324c0.742,0,1.411-0.289,2.008-0.868
			c0.596-0.578,1.101-1.316,1.515-2.215c0.415-0.897,0.73-1.882,0.946-2.953C107.738,103.939,107.846,102.912,107.846,101.928z"/>
	</g>
</g>
</svg>
