<?xml version="1.0" encoding="utf-8"?>
<!-- Generator: Adobe Illustrator 16.0.4, SVG Export Plug-In . SVG Version: 6.00 Build 0)  -->
<!DOCTYPE svg PUBLIC "-//W3C//DTD SVG 1.1//EN" "http://www.w3.org/Graphics/SVG/1.1/DTD/svg11.dtd">
<svg version="1.1" id="Layer_1" xmlns="http://www.w3.org/2000/svg" xmlns:xlink="http://www.w3.org/1999/xlink" x="0px" y="0px"
	 width="166px" height="117px" viewBox="0 0 166 117" enable-background="new 0 0 166 117" xml:space="preserve">
<g>
	<g>
		<path fill="none" stroke="#FFF100" stroke-width="0.25" stroke-linecap="round" stroke-linejoin="round" d="M100.46,47.357
			l-6.837,1.313 M111.841,45.171l-8.352,1.604 M96.922,49.335l28.763-5.416 M93.061,59.217l3.861-9.881 M89.307,44.446l7.615,4.889
			 M68.091,41.311l-3.974,9.59 M49.06,45.731l19.031-4.42 M61.328,37.06l6.763,4.251 M45.207,54.751l3.853-9.02 M42.567,41.783
			l6.492,3.949 M57.271,46.701l6.847,4.2 M64.117,50.901l-7.404,1.508 M54.581,49.385l-0.928,2.199 M53.17,48.528l-0.932,2.2
			 M47.035,51.01l7.546-1.625 M53.17,48.528l1.411,0.857 M45.648,50.178l7.521-1.65 M46.12,53.155l0.915-2.146 M45.648,50.178
			l1.387,0.832 M44.729,52.325l0.92-2.146 M52.238,50.728l1.415,0.856 M53.653,51.584l-7.533,1.571 M44.729,52.325l1.392,0.831
			 M52.238,50.728l-7.51,1.597 M126.071,36.312l-6.977,18.725 M124.167,35.006l-7.082,18.909 M124.037,36.737l2.034-0.425
			 M124.167,35.006l1.904,1.306 M122.137,35.438l2.03-0.433 M117.014,55.514l7.023-18.776 M122.137,35.438l1.9,1.299
			 M115.067,54.246l7.069-18.808 M117.085,53.915l1.776,1.159 M115.067,54.246l1.771,1.154 M117.085,53.915l-2.018,0.331
			 M43.905,48.781l-1.78,4.139 M35.761,50.618l8.145-1.837 M40.438,46.697l3.468,2.083 M34.008,54.642l1.753-4.024 M32.359,48.603
			l3.401,2.016 M81.369,57.035l20.226-3.504 M91.623,58.317l13.889-2.277 M83.01,52.933l-1.641,4.103 M84.678,59.085l-3.309-2.05
			 M86.774,55.289l-1.621,4.091 M103.273,49.18L83.01,52.933 M86.774,55.289l-3.765-2.356 M107.171,51.703l-20.396,3.585
			 M105.512,56.04l-3.917-2.509 M101.595,53.531l0.865-2.243 M107.171,51.703l-3.897-2.523 M105.512,56.04l1.659-4.337
			 M106.316,48.616l-0.814,2.128 M103.489,46.775l-0.824,2.132 M103.273,49.18l3.043-0.564 M103.489,46.775l2.827,1.841
			 M100.46,47.357l3.029-0.582 M102.46,51.288l0.813-2.108 M100.46,47.357l2.813,1.823 M99.639,49.472l0.821-2.115 M102.665,48.907
			l2.837,1.837 M105.502,50.744l-3.042,0.544 M99.639,49.472l2.821,1.816 M102.665,48.907l-3.026,0.565 M75.39,49.084l-2.325,5.717
			 M74.423,48.479l-2.333,5.723 M74.583,49.247l0.807-0.163 M74.423,48.479l0.967,0.604 M72.261,54.951l2.322-5.704 M73.617,48.644
			l0.966,0.603 M72.09,54.202l0.975,0.599 M73.064,54.801l-0.804,0.149 M71.288,54.352l0.973,0.599 M95.648,49.968l-2.253,5.757
			 M93.623,48.67l-2.269,5.766 M86.572,51.666l9.076-1.698 M93.623,48.67l2.025,1.297 M84.578,50.409l9.045-1.739 M84.343,57.271
			l2.229-5.604 M84.578,50.409l1.994,1.257 M82.335,56.023l2.243-5.614 M91.354,54.437l2.041,1.288 M93.396,55.725l-9.053,1.546
			 M82.335,56.023l2.008,1.247 M91.354,54.437l-9.02,1.587 M149.083,14.776l-4.53,12.538 M98.997,25.578l50.925-13.123
			 M93.841,38.593l5.156-13.015 M83.987,15.442l15.01,10.136 M128.078,15.513l16.475,11.801 M144.553,27.314L93.841,38.593
			 M78.578,28.616l15.263,9.977 M147.631,25.778l-3.31,9.21 M142.489,26.934l5.142-1.155 M139.187,36.027l3.303-9.094
			 M81.982,46.932l-2.356,5.856 M73.617,48.644l8.365-1.712 M71.288,54.352l2.329-5.708 M64.128,50.908l-7.403,1.506 M57.274,72.183
			l1.737-4.211l3.716-0.557 M47.146,92.27l-8.092,0.569l0.722-1.721l8.103-0.619L47.146,92.27z M82.484,59.14l-12.936,2.147
			l1.068-2.624l12.954-2.257 M36.886,52.31l-1.603,0.35l0.396-0.912l1.603-0.355L36.886,52.31z M13.455,108.749l5.468-12.618
			l72.846-4.597 M24.368,108.599l-9.127,0.132 M59.934,108.095l-9.607,0.137 M21.13,116.21l3.238-7.611l25.958-0.367l-2.145,5.267
			 M23.611,113.396l3.351-7.89l34.363-0.886 M77.012,53.674l0.687-1.701l3.217-0.616 M93.077,59.217l3.856-9.874l28.746-5.411
			 M82.349,59.479L71.374,61.29l7.543-18.58l72.252-15.887l-2.604,7.306 M122.365,52.871l-31.211,5.153 M71.474,66.119l-8.734,1.304
			 M70.883,67.617l-2.063,5.101l-8.716,1.128l-3.699,0.477l2.62-6.343l3.715-0.557 M118.682,49.689l-26.358,4.633l3.845-9.794
			l26.46-5.374L118.682,49.689z M45.223,54.747l3.848-9.008l19.032-4.42l-3.975,9.589 M79.626,52.789l-8.338,1.563 M47.157,92.274
			l-8.094,0.569l0.725-1.718l8.102-0.621L47.157,92.274z M45.656,92.864L42.243,93.1l4.094-9.805l3.438-0.35L45.656,92.864z
			 M50.966,92.5l-1.849,0.127l4.145-10.039l1.861-0.191L50.966,92.5z M87.456,49.104l3.257-0.633l-2.064,5.218 M88.648,53.688
			l-3.25,0.584 M88.101,56.114l0.206-0.522l21.361-3.717l-1.896,4.979 M82.48,59.149l-12.92,2.146l1.069-2.627l12.938-2.251
			 M34.023,54.64l1.748-4.015l8.146-1.837l-1.78,4.138 M152.89,20.798L152.89,20.798L152.89,20.798h0.003l0.001,0.001h0.001V20.8
			l0.002-0.001V20.8h0.001v0.001V20.8l0.001-0.001h-0.001l-0.001-0.001v0.001v-0.001v-0.001l-0.002-0.001v-0.001l-0.001-0.001
			h-0.001h-0.002v-0.001 M152.885,20.791L152.885,20.791h-0.002v0.001L152.885,20.791v0.001l0.002,0.001h0.002h0.001v0.001
			l0.001,0.001v0.001h-0.001 M152.891,20.791L152.891,20.791l-0.001,0.001l-0.001-0.001l-0.003-0.003v-0.001h-0.001v0.003h0.001
			l0.001,0.001l-0.002-0.001 M152.902,20.758L152.902,20.758l-0.001-0.001H152.9v-0.001h-0.002l-0.004-0.002l-0.004-0.004v0.001
			v-0.001l-0.001,0.001h0.001l0.004,0.004l0.003,0.002l-0.003-0.001v-0.001l-0.004-0.001l-0.001-0.001v0.001v0.001h0.001
			l0.004,0.002l0.003,0.002h0.001v0.001h0.002l0.001,0.002l0.001,0.001l-0.001-0.001 M152.898,20.755l0.002-0.001v0.001l0.001,0.001
			h0.001 M152.898,20.754L152.898,20.754L152.898,20.754L152.898,20.754 M152.898,20.754v-0.001V20.754z M152.898,20.754
			L152.898,20.754v-0.001 M152.9,20.763L152.9,20.763L152.9,20.763l0.001,0.001h0.001h0.002h0.001h-0.001l0.001-0.001h0.001v0.001
			h0.002v-0.001h-0.002h0.002h-0.002l-0.001-0.001V20.76v-0.001l-0.001-0.002h-0.002l-0.001-0.001l-0.001-0.001h-0.002v-0.001
			 M152.893,20.769l-0.004-0.002v0.001v-0.001v0.001l0.004,0.003l0.002,0.002l0.002,0.001v0.001h0.001v0.001h0.001h0.002v-0.001
			v0.001h0.001h0.001v-0.001h-0.001 M152.897,20.771L152.897,20.771L152.897,20.771L152.897,20.771l-0.003-0.001v-0.001
			l-0.002-0.001l-0.003-0.002v-0.001l-0.001,0.001v0.001l0.004,0.002h0.001 M152.901,20.775L152.901,20.775L152.901,20.775
			l-0.001-0.002v-0.001h-0.002V20.77h-0.001l-0.001,0.001h0.001 M68.808,72.71l-3.356,0.435 M68.108,66.613l0.875-0.132
			 M80.044,43.998h-0.002V44v-0.001l0.002-0.001v-0.001h0.001v0.001L80.048,44L80.049,44h0.001V44 M80.042,44L80.042,44L80.045,44
			l-0.001-0.002 M80.041,44L80.041,44v0.001H80.04h0.001V44 M80.052,44L80.052,44L80.052,44L80.052,44L80.054,44l0.002,0.001v0.001
			v0.002v0.001h0.001h0.001v0.001l-0.001,0.001h-0.001h-0.002l0.002-0.001h-0.002h-0.001h-0.001H80.05v-0.001h-0.002h-0.002h0.002
			v-0.001h0.001h-0.001v-0.002l-0.003-0.001L80.041,44 M80.074,43.97L80.074,43.97L80.074,43.97L80.074,43.97L80.074,43.97
			l0.001,0.001h0.001l0.002,0.001h0.001v0.001l0.001,0.001h-0.001v0.002h0.001l0.002,0.001H80.08v0.001v-0.001h-0.001
			 M80.075,43.972L80.075,43.972L80.075,43.972 M80.074,43.978L80.074,43.978v-0.002h-0.001h-0.002l-0.002-0.003l-0.004-0.001
			l-0.002-0.001h0.002v-0.001v0.001h0.001l0.003,0.001h0.001l0.001,0.001l-0.001-0.001l-0.004-0.002l0.001-0.001l-0.001-0.001
			l0.001,0.001l0.004,0.002l0.003,0.001 M80.079,43.979L80.079,43.979v0.001V43.979L80.079,43.979L80.079,43.979h-0.003v0.001
			h-0.001l-0.001-0.001v-0.001 M80.076,43.973L80.076,43.973 M80.075,43.972L80.075,43.972 M80.075,43.972L80.075,43.972
			 M80.076,43.973L80.076,43.973 M80.07,43.981L80.07,43.981l-0.001-0.001l0.001-0.001v0.001h0.001L80.07,43.981L80.07,43.981
			l0.001,0.002h0.002v0.001v0.001h-0.002 M80.066,43.984L80.066,43.984l-0.001-0.001h-0.002l-0.001-0.001l-0.005-0.003h0.002h-0.002
			v-0.001v0.001h0.002h0.003l0.003,0.003V43.98l-0.003-0.001l-0.003-0.001l0.002-0.002v-0.001v0.001l0.002,0.002v0.001h0.003
			l0.001,0.001h0.002 M80.071,43.986L80.071,43.986L80.071,43.986l-0.002-0.001v0.001h-0.002l-0.001-0.001h-0.001l0.001-0.001
			 M80.066,43.985L80.066,43.985L80.066,43.985 M140.839,25.754l21.104-4.826 M136.928,36.484l3.911-10.73 M131.634,19.176
			l9.205,6.578 M62.728,67.415l6.255-0.934 M59.012,67.972L59.012,67.972 M56.393,74.314L56.393,74.314 M68.807,72.71l-8.715,1.129
			 M68.807,72.71L68.807,72.71 M60.092,73.839l-3.699,0.476 M68.808,72.71l-8.69,1.126 M70.871,67.609l-2.063,5.101 M62.754,67.413
			l8.724-1.302 M56.393,74.314l2.62-6.343 M62.728,67.415l-3.716,0.557 M68.807,72.71l2.062-5.101 M56.393,74.314l3.699-0.476
			 M59.012,67.972l-2.619,6.343 M73.074,82.759l-2.59,6.498 M68.808,72.71l8.718-1.126 M60.118,73.836l5.333-0.691 M53.261,90.546
			l6.857-16.71 M51.234,68.668l8.884,5.168 M61.076,83.9l9.408,5.356 M70.484,89.257l-17.224,1.289 M44.189,85.507l9.071,5.039
			 M50.314,108.224l-2.147,5.274 M44.345,105.051l-3.472,8.416 M44.345,105.051l5.97,3.173 M18.753,105.711l8.197-0.212
			 M21.115,116.21l3.243-7.616 M18.753,105.711l5.605,2.883 M16.907,109.996l1.846-4.285 M43.003,114.572l1.863,0.968
			 M26.95,105.499l34.379-0.886 M23.596,113.396l3.354-7.897 M18.529,101.122l8.421,4.377 M18.912,96.125l72.859-4.599
			 M13.441,108.749l5.471-12.624 M5.688,89.169l13.224,6.956 M59.938,108.089l-44.693,0.635 M77.687,51.966l3.233-0.62
			 M76.994,53.677l0.692-1.711 M76.279,51.089l1.407,0.876 M67.4,56.091l17.59-3.24 M62.754,67.413L67.4,56.091"/>
	</g>
	<path fill="none" stroke="#FFF100" stroke-width="0.125" stroke-linecap="round" stroke-linejoin="round" d="M58.698,50.766
		l8.687,5.286 M68.093,66.554l-5.354,0.8 M62.086,66.968l0.653,0.386 M151.123,26.82l-2.606,7.306 M115.851,34.568l35.272-7.748
		 M78.888,42.685l10.782-2.368 M138.254,17.52l12.869,9.3 M71.347,61.235l7.541-18.551 M63.148,32.694l15.739,9.99 M82.333,59.421
		l-10.986,1.814 M122.343,52.823l-31.222,5.151 M57.758,53.013l13.589,8.222 M53.911,78.491l-4.902,11.837 M43.573,79.688
		l10.338-1.196 M48.397,75.35l5.514,3.142 M42.896,81.294l0.677-1.606 M35.588,75.202l7.985,4.485 M40.71,85.748l8.299,4.58
		 M45.579,90.59l-3.433,0.264 M49.009,90.328l-1.596,0.122 M43.067,84.945l-2.908,6.926 M14.252,87.743l28.815-2.798 M33.65,79.724
		l9.417,5.222 M11.515,93.967l2.737-6.224 M5.513,83.093l8.739,4.65 M30.661,86.703l8.102,4.407 M40.159,91.871l-28.645,2.096
		 M5.021,90.566l6.494,3.4 M49.75,82.854l-4.117,9.904 M46.308,80.919l-4.161,9.935 M46.313,83.204l3.437-0.35 M46.308,80.919
		l3.442,1.936 M42.896,81.294l3.411-0.375 M42.221,92.991l4.093-9.787 M42.896,81.294l3.417,1.91 M38.763,91.11l4.134-9.816
		 M42.146,90.854l3.486,1.905 M45.633,92.759l-3.412,0.232 M38.763,91.11l3.458,1.881 M42.146,90.854l-3.384,0.257 M55.099,82.309
		L50.94,92.394 M51.613,80.334l-4.2,10.116 M53.236,82.497l1.862-0.188 M51.613,80.334l3.485,1.975 M49.767,80.538l1.847-0.204
		 M49.093,92.521l4.144-10.023 M49.767,80.538l3.47,1.959 M45.579,90.59l4.188-10.052 M47.413,90.45l3.527,1.943 M50.94,92.394
		l-1.848,0.127 M45.579,90.59l3.514,1.931 M47.413,90.45l-1.834,0.14 M115.851,34.568l-4.033,10.58 M96.135,44.499l26.453-5.367
		 M115.851,34.568l6.737,4.564 M89.67,40.317l26.181-5.749 M92.29,54.277l3.845-9.778 M89.67,40.317l6.465,4.182 M85.746,50.15
		l3.924-9.833 M111.817,45.148l6.828,4.503 M118.646,49.651l-11.498,2.019 M85.746,50.15l6.544,4.127"/>
	<g>
		<path fill="none" stroke="#FFF100" stroke-width="0.5" stroke-linecap="round" stroke-linejoin="round" d="M91.76,91.451
			l-6.188,16.175 M143.656,36.637l-5.125,1.017 M163.013,27.412l-6.991,1.481l2.876-8.164l6.999-1.617L163.013,27.412z
			 M71.488,66.069L71.488,66.069 M52.231,99.562l9.12,4.955 M85.346,54.372l3.95-9.932 M113.61,49.305l8.061,5.291 M83.428,58.953
			l-0.945,0.157 M15.169,108.969l3.432-7.939 M48.561,108.542l9.222,4.886 M15.169,108.969l8.495,4.316 M48.561,108.542
			l-33.392,0.427 M76.21,82.399l-6.5,16.399 M31.248,116.309l-3.77-0.058l1.33-3.157l3.78,0.014L31.248,116.309z M32.864,114.447
			l-13.081-0.108l1.333-3.118l13.118-0.05L32.864,114.447z M76.21,82.399l15.55,9.052 M15.319,108.625l-1.788,0.025l0.003-0.005
			 M40.768,85.769l35.442-3.369 M85.346,54.372l7.7,4.817 M48.221,113.387l-1.264,3.103 M113.61,49.305l-28.265,5.066
			 M61.35,104.525h0.016l-3.569,8.91 M0.104,101.837l5.673-12.743 M57.796,113.436l-34.122-0.145l0.004-0.006 M69.71,98.799
			l15.862,8.827 M125.626,43.928l0.019-0.004l-3.962,10.68 M15.322,108.62l-1.802,0.025 M121.683,54.604l-28.625,4.595l0.005-0.014
			 M85.147,59.349l-0.476-0.292 M85.572,107.626l-25.61,0.362 M0.104,101.837l13.417,6.809 M71.5,66.077l-0.016,0.003 M69.71,98.799
			l-69.606,3.038 M71.5,66.077l-0.605,1.499 M116.646,52.435l-5.232,0.884l0.543-1.432l5.234-0.903L116.646,52.435z M80.918,51.33
			l-0.692,1.726 M112.92,55.697l-11.923,1.923l0.953-2.471l11.934-2.007L112.92,55.697z M79.506,50.444l-0.696,1.729 M61.35,37.063
			l-4.054,9.628 M79.506,50.444l1.412,0.885 M76.285,51.073l3.221-0.628 M45.296,114.481l-0.779,1.904 M118.817,55.053l0.175,0.115
			 M85.395,54.251l-4.808,0.862l2.042-5.088l4.818-0.936 M75.591,52.783l0.694-1.71 M107.74,56.831l-0.386,1.012 M78.81,52.173
			l1.416,0.882 M107.354,57.843l-21.283,3.359l2.021-5.111 M83.565,56.392l0.963-0.168l-1.089,2.736 M80.226,53.055l-3.228,0.601
			 M83.439,58.96l-0.961,0.158 M46.284,53.804l-4.081,0.84l0.521-1.216l4.087-0.857L46.284,53.804z M46.095,52.111l-2.606,0.552
			l0.53-1.234l2.607-0.562L46.095,52.111z M46.533,50.455l-2.637,0.574l0.534-1.244l2.64-0.585L46.533,50.455z M75.591,52.783
			l1.407,0.873 M42.181,52.905l-8.107,1.721l0.004-0.01 M78.81,52.173l-3.219,0.61 M84.984,52.831l-4.756,11.935 M76.005,47.198
			l-4.892,12.023 M42.609,41.779l18.74-4.716 M76.005,47.198l8.979,5.632 M128.021,15.552L78.578,28.634 M118.992,55.168
			l-2.02,0.324 M53.972,62.167l4.766-11.386 M71.113,59.222l9.115,5.544 M40.484,46.686l2.125-4.907 M80.229,64.766l-8.74,1.304
			 M116.797,55.378l0.176,0.114 M53.972,62.167l8.15,4.818 M71.113,59.222l-17.142,2.945 M148.467,34.143l-5.448,15.283
			 M56.739,52.389l-11.491,2.338 M133.479,14.108l-8.568,22.942 M144.246,34.998l-0.59,1.639 M42.17,52.898l3.078,1.829
			 M57.296,46.691L38.688,50.83 M133.479,14.108l4.734,3.426 M128.021,15.552l5.458-1.444 M63.182,32.707l15.396-4.073
			 M149.839,12.499l-0.836,2.315 M133.692,0.511l-5.671,15.042 M61.35,37.063l1.832-4.356 M55.273,51.5l2.022-4.81 M124.911,37.05
			l18.107,12.375 M40.484,46.686l-1.797,4.145 M91.13,57.99l-8.779,1.449 M161.848,20.958l-3.945,11.275 M152.423,13.952
			l-4.083,11.371 M35.624,114.401l9.672,0.08 M152.423,13.952l9.425,7.006 M131.573,19.208l20.85-5.257 M143.019,49.426
			l-20.698,3.416 M133.692,0.511l16.146,11.988 M148.34,25.323l9.562,6.911 M157.902,32.233l-21.041,4.259 M127.541,30.009
			l9.32,6.483 M148.34,25.323l-20.799,4.687 M68.996,66.442l2.492-0.373 M55.273,51.5l2.523,1.528 M89.296,44.439L55.273,51.5
			 M124.911,37.05l-7.232,1.5 M32.415,48.59l8.069-1.904 M71.488,66.069L71.488,66.069 M45.786,73.846l-5.019,11.923 M83.98,15.478
			l49.712-14.967 M34.858,116.241l0.766-1.84 M45.786,73.846l2.661,1.52 M71.488,66.069l-0.605,1.499 M35.649,75.221l10.137-1.375
			 M30.648,52.618l1.767-4.028 M38.688,50.83l3.482,2.068 M70.881,67.568l0.607-1.499 M33.715,79.744l1.935-4.523 M42.17,52.898
			l-8.108,1.721 M30.648,52.618l3.413,2.002 M119.048,55.016l-0.056,0.152 M77.529,71.538l-4.447,11.156 M68.336,66.049
			l-7.235,17.786 M40.768,85.769l-10.04,0.952 M38.688,50.83l-8.039,1.788 M68.336,66.049l9.193,5.489 M51.269,68.624l17.067-2.575
			 M33.715,79.744l-2.987,6.977 M44.517,116.386l-9.658-0.145 M44.231,85.438l7.037-16.813 M78.578,28.634l5.402-13.156
			 M5.604,83.11l28.11-3.366 M125.63,43.917l-3.959,10.679 M48.205,113.387l-1.26,3.095 M117.679,38.55l-4.068,10.755 M2.801,89.376
			l2.804-6.266 M85.147,59.349l6.462-1.058 M117.679,38.55l7.951,5.367 M89.296,44.439l28.383-5.89 M2.801,89.376l2.311,1.211
			 M30.728,86.721L2.801,89.376 M15.536,113.252l1.447-3.359 M44.908,115.426l2.037,1.056 M138.531,37.653l0.587-1.618
			 M40.919,113.358l2.13,1.104 M46.945,116.481l-25.76-0.388 M15.536,113.252l5.649,2.842 M23.664,113.285l-8.128-0.033
			 M61.352,104.518l-3.569,8.91 M52.231,99.562l-3.671,8.979 M133.862,32.311l13.74-2.958l2.192,1.569l-13.777,2.894L133.862,32.311
			z"/>
	</g>
	
		<text transform="matrix(1 0 0 1 42.7812 35.2324)" fill="#231F20" font-family="'AvenirNextCondensed-DemiBoldItalic'" font-size="28.6315">S</text>
	
		<text transform="matrix(1 0 0 1 57.0684 35.2324)" fill="#231F20" font-family="'AvenirNextCondensed-DemiBoldItalic'" font-size="28.6315">UPER-</text>
	
		<text transform="matrix(1 0 0 1 40.5479 68.8467)" fill="#231F20" font-family="'AvenirNextCondensed-DemiBoldItalic'" font-size="28.6315">DU</text>
	
		<text transform="matrix(1 0 0 1 74.2754 68.8467)" fill="#231F20" font-family="'AvenirNextCondensed-DemiBoldItalic'" font-size="28.6315">PER-</text>
	
		<text transform="matrix(1 0 0 1 41.4922 102.7734)" fill="#231F20" font-family="'AvenirNextCondensed-DemiBoldItalic'" font-size="28.6315">STUDIO</text>
</g>
</svg>
