<?xml version="1.0" encoding="utf-8"?>
<!-- Generator: Adobe Illustrator 16.0.4, SVG Export Plug-In . SVG Version: 6.00 Build 0)  -->
<!DOCTYPE svg PUBLIC "-//W3C//DTD SVG 1.1//EN" "http://www.w3.org/Graphics/SVG/1.1/DTD/svg11.dtd">
<svg version="1.1" id="Layer_1" xmlns="http://www.w3.org/2000/svg" xmlns:xlink="http://www.w3.org/1999/xlink" x="0px" y="0px"
	 width="195px" height="23px" viewBox="0 0 195 23" enable-background="new 0 0 195 23" xml:space="preserve">
<g>
	<path d="M10.52,11.121c-1.44-0.24-2.587-0.36-3.44-0.36c-0.854,0-1.5,0.2-1.94,0.6s-0.66,0.959-0.66,1.68
		c0,0.453,0.13,0.789,0.39,1.01c0.26,0.221,0.887,0.529,1.88,0.93c0.993,0.401,1.68,0.826,2.06,1.279c0.38,0.455,0.57,1.121,0.57,2
		c0,1.508-0.457,2.674-1.37,3.502C7.097,22.588,5.86,23,4.3,23c-0.6,0-1.24-0.057-1.92-0.17c-0.68-0.113-1.207-0.229-1.58-0.35
		L0.22,22.3l0.36-1.618c1.533,0.252,2.78,0.379,3.74,0.379c1.853,0,2.78-0.847,2.78-2.539c0-0.467-0.127-0.812-0.38-1.031
		c-0.253-0.219-0.857-0.523-1.81-0.91c-0.954-0.387-1.64-0.816-2.06-1.289s-0.63-1.145-0.63-2.01c0-1.32,0.426-2.387,1.28-3.201
		c0.854-0.813,2-1.22,3.44-1.22c0.6,0,1.23,0.053,1.89,0.16C9.49,9.126,10,9.233,10.36,9.34l0.56,0.18L10.52,11.121z"/>
	<path d="M15.22,18.281c-0.12,0.533-0.18,1.027-0.18,1.479c0,0.865,0.68,1.3,2.04,1.3c0.92,0,1.59-0.213,2.01-0.642
		c0.42-0.426,0.743-1.119,0.97-2.08L22.2,9.08h2.24l-2.14,9.26c-0.374,1.627-0.983,2.811-1.83,3.551
		C19.623,22.631,18.493,23,17.08,23c-2.84,0-4.26-1-4.26-3c0-0.559,0.08-1.24,0.24-2.039l2.06-8.88h2.24L15.22,18.281z"/>
	<path d="M31.02,18.541h-2.26l-0.98,4.24h-2.24L28.72,9.08h4.1c1.346,0,2.326,0.287,2.94,0.86c0.613,0.573,0.92,1.487,0.92,2.74
		c0,1.842-0.5,3.276-1.5,4.311C34.18,18.023,32.793,18.541,31.02,18.541z M31.34,16.6c0.973,0,1.727-0.352,2.26-1.059
		c0.533-0.707,0.8-1.654,0.8-2.84c0-0.574-0.137-0.997-0.41-1.271c-0.273-0.273-0.724-0.41-1.35-0.41h-2.16L29.2,16.6H31.34z"/>
	<path d="M38.08,22.781L41.24,9.08h7.86l-0.46,1.94h-5.62l-0.88,3.88h4.52l-0.46,1.961h-4.5l-0.92,3.979h5.64l-0.46,1.941H38.08z"/>
	<path d="M56.9,9.081c1.333,0,2.32,0.287,2.96,0.86c0.64,0.573,0.96,1.51,0.96,2.809c0,1.301-0.317,2.387-0.95,3.26
		c-0.633,0.875-1.403,1.465-2.31,1.771l1.28,5h-2.22L55.5,18.08h-2.52l-1.08,4.701h-2.24L52.84,9.08L56.9,9.081L56.9,9.081z
		 M57.76,15.201c0.506-0.641,0.76-1.363,0.76-2.17s-0.133-1.347-0.4-1.621C57.853,11.137,57.393,11,56.74,11h-2.12l-1.2,5.159h2.3
		C56.573,16.16,57.253,15.84,57.76,15.201z"/>
	<path d="M67.339,22.781h-4.86l3.18-13.701H70c2.8,0,4.2,1.374,4.2,4.121c0,2.359-0.547,4.5-1.64,6.42
		c-0.533,0.947-1.253,1.709-2.16,2.289C69.493,22.49,68.473,22.781,67.339,22.781z M70.89,18.061
		c0.327-0.801,0.577-1.619,0.75-2.461c0.173-0.84,0.26-1.643,0.26-2.408c0-0.768-0.19-1.32-0.57-1.66
		c-0.38-0.34-0.97-0.51-1.77-0.51h-2.14l-2.24,9.819h2.38c0.72,0,1.373-0.262,1.96-0.789C70.106,19.523,70.562,18.861,70.89,18.061z
		"/>
	<path d="M79.339,18.281c-0.12,0.533-0.18,1.027-0.18,1.479c0,0.865,0.68,1.3,2.04,1.3c0.92,0,1.59-0.213,2.01-0.642
		c0.42-0.426,0.743-1.119,0.97-2.08l2.14-9.259h2.239l-2.139,9.259c-0.374,1.627-0.983,2.812-1.83,3.552
		C83.742,22.63,82.612,23,81.199,23c-2.84,0-4.26-1-4.26-3c0-0.559,0.08-1.24,0.24-2.039l2.06-8.88h2.24L79.339,18.281z"/>
	<path d="M95.14,18.541h-2.26l-0.98,4.24h-2.24L92.84,9.08h4.1c1.347,0,2.328,0.287,2.94,0.86c0.613,0.573,0.92,1.487,0.92,2.74
		c0,1.842-0.5,3.276-1.5,4.311C98.3,18.023,96.913,18.541,95.14,18.541z M95.46,16.6c0.973,0,1.727-0.352,2.26-1.059
		c0.533-0.707,0.799-1.654,0.799-2.84c0-0.574-0.137-0.997-0.41-1.271c-0.272-0.273-0.722-0.41-1.35-0.41H94.6l-1.28,5.58H95.46
		L95.46,16.6z"/>
	<path d="M102.18,22.781l3.159-13.701h7.86l-0.461,1.94h-5.619l-0.881,3.878h4.521l-0.461,1.961h-4.5l-0.92,3.979h5.641
		l-0.459,1.941L102.18,22.781L102.18,22.781z"/>
	<path d="M120.999,9.081c1.333,0,2.319,0.287,2.96,0.86c0.641,0.573,0.96,1.51,0.96,2.809c0,1.301-0.315,2.387-0.948,3.26
		c-0.635,0.875-1.404,1.465-2.312,1.771l1.28,5h-2.221L119.6,18.08h-2.521l-1.08,4.701h-2.239l3.181-13.701L120.999,9.081
		L120.999,9.081z M121.859,15.201c0.507-0.641,0.76-1.363,0.76-2.17s-0.133-1.347-0.398-1.621c-0.269-0.273-0.729-0.41-1.381-0.41
		h-2.119l-1.201,5.159h2.301C120.673,16.16,121.354,15.84,121.859,15.201z"/>
	<path d="M136.539,11.121c-1.439-0.24-2.587-0.36-3.439-0.36c-0.854,0-1.5,0.2-1.939,0.6s-0.66,0.959-0.66,1.68
		c0,0.453,0.13,0.789,0.391,1.01c0.26,0.221,0.887,0.529,1.879,0.93c0.994,0.401,1.681,0.826,2.062,1.279
		c0.38,0.455,0.569,1.121,0.569,2c0,1.508-0.457,2.674-1.371,3.502C133.117,22.588,131.881,23,130.32,23
		c-0.6,0-1.239-0.057-1.92-0.17c-0.68-0.113-1.207-0.229-1.58-0.35l-0.58-0.181l0.359-1.618c1.533,0.252,2.78,0.379,3.74,0.379
		c1.854,0,2.78-0.847,2.78-2.539c0-0.467-0.127-0.812-0.381-1.031c-0.253-0.219-0.856-0.523-1.81-0.91
		c-0.955-0.387-1.641-0.816-2.061-1.289c-0.421-0.473-0.631-1.145-0.631-2.01c0-1.32,0.427-2.387,1.279-3.201
		c0.854-0.813,2-1.22,3.44-1.22c0.601,0,1.229,0.053,1.89,0.16c0.66,0.106,1.17,0.213,1.53,0.32l0.56,0.18L136.539,11.121z"/>
	<path d="M139.619,11.021l0.46-1.94h8.84l-0.46,1.94h-3.32l-2.72,11.76h-2.22l2.699-11.76H139.619z"/>
	<path d="M152.079,18.281c-0.12,0.533-0.181,1.027-0.181,1.479c0,0.865,0.681,1.3,2.041,1.3c0.92,0,1.59-0.213,2.01-0.642
		c0.42-0.426,0.742-1.119,0.97-2.08l2.14-9.259h2.24l-2.14,9.259c-0.374,1.627-0.983,2.812-1.83,3.552
		c-0.847,0.739-1.976,1.109-3.39,1.109c-2.842,0-4.262-1-4.262-3c0-0.559,0.08-1.24,0.24-2.039l2.061-8.88h2.239L152.079,18.281z"/>
	<path d="M167.277,22.781h-4.858L165.6,9.08h4.34c2.799,0,4.199,1.374,4.199,4.121c0,2.359-0.547,4.5-1.64,6.42
		c-0.534,0.947-1.254,1.709-2.16,2.289C169.432,22.49,168.412,22.781,167.277,22.781z M170.828,18.061
		c0.326-0.801,0.576-1.619,0.75-2.461c0.174-0.84,0.261-1.643,0.261-2.408c0-0.768-0.19-1.32-0.569-1.66
		c-0.381-0.34-0.971-0.51-1.771-0.51h-2.142l-2.239,9.819h2.381c0.72,0,1.373-0.262,1.96-0.789
		C170.045,19.523,170.502,18.861,170.828,18.061z"/>
	<path d="M176.139,22.781l3.18-13.701h2.221l-3.16,13.701H176.139z"/>
	<path d="M191.499,21.82c-1.015,0.787-2.24,1.18-3.681,1.18c-1.439,0-2.521-0.332-3.239-1c-0.72-0.666-1.08-1.713-1.08-3.139
		c0-1.734,0.271-3.381,0.81-4.941c0.541-1.559,1.323-2.786,2.352-3.679c1.025-0.92,2.279-1.38,3.76-1.38
		c2.906,0,4.359,1.38,4.359,4.139c0,1.814-0.276,3.521-0.829,5.121C193.396,19.721,192.579,20.955,191.499,21.82z M185.799,18.371
		c0,1.061,0.174,1.773,0.521,2.141c0.346,0.365,0.92,0.549,1.72,0.549s1.479-0.246,2.04-0.74c0.746-0.665,1.333-1.686,1.76-3.061
		c0.428-1.373,0.641-2.727,0.641-4.059c0-0.854-0.174-1.467-0.521-1.84s-0.917-0.56-1.71-0.56c-0.794,0-1.438,0.22-1.93,0.66
		c-0.773,0.707-1.389,1.77-1.842,3.189C186.025,16.068,185.799,17.311,185.799,18.371z"/>
</g>
</svg>
