<?xml version="1.0" encoding="utf-8"?>
<!-- Generator: Adobe Illustrator 16.0.4, SVG Export Plug-In . SVG Version: 6.00 Build 0)  -->
<!DOCTYPE svg PUBLIC "-//W3C//DTD SVG 1.1//EN" "http://www.w3.org/Graphics/SVG/1.1/DTD/svg11.dtd">
<svg version="1.1" id="Layer_1" xmlns="http://www.w3.org/2000/svg" xmlns:xlink="http://www.w3.org/1999/xlink" x="0px" y="0px"
	 width="358.042px" height="388.208px" viewBox="0 0 358.042 388.208" enable-background="new 0 0 358.042 388.208"
	 xml:space="preserve">
<g>
	<path d="M104.919,68.165c-5.76-0.96-10.348-1.44-13.76-1.44c-3.414,0-6,0.8-7.76,2.4c-1.76,1.6-2.64,3.84-2.64,6.72
		c0,1.813,0.52,3.16,1.56,4.04c1.04,0.88,3.546,2.12,7.52,3.72c3.973,1.6,6.72,3.308,8.24,5.12c1.52,1.814,2.28,4.48,2.28,8
		c0,6.027-1.827,10.694-5.48,14c-3.654,3.308-8.6,4.96-14.84,4.96c-2.4,0-4.96-0.228-7.68-0.68c-2.72-0.453-4.827-0.92-6.32-1.4
		l-2.32-0.72l1.44-6.479c6.132,1.014,11.12,1.52,14.96,1.52c7.413,0,11.12-3.386,11.12-10.16c0-1.866-0.507-3.24-1.52-4.12
		c-1.014-0.88-3.428-2.092-7.24-3.64c-3.814-1.546-6.56-3.267-8.24-5.16c-1.68-1.893-2.52-4.573-2.52-8.04
		c0-5.28,1.706-9.546,5.12-12.8c3.413-3.253,8-4.88,13.76-4.88c2.4,0,4.92,0.214,7.56,0.64c2.64,0.428,4.68,0.854,6.12,1.28
		l2.24,0.72L104.919,68.165z"/>
	<path d="M118.199,96.805c-0.48,2.134-0.72,4.107-0.72,5.92c0,3.468,2.72,5.2,8.16,5.2c3.68,0,6.36-0.853,8.04-2.56
		c1.68-1.707,2.972-4.48,3.88-8.32l8.56-37.04h8.96l-8.56,37.04c-1.494,6.507-3.934,11.24-7.32,14.2
		c-3.388,2.96-7.908,4.44-13.56,4.44c-11.36,0-17.04-4-17.04-12c0-2.24,0.32-4.96,0.96-8.16l8.24-35.52h8.96L118.199,96.805z"/>
	<path d="M173.479,97.845h-9.04l-3.92,16.96h-8.96l12.72-54.8h16.4c5.386,0,9.306,1.147,11.76,3.44
		c2.453,2.293,3.68,5.947,3.68,10.96c0,7.36-2,13.107-6,17.24S180.571,97.845,173.479,97.845z M174.758,90.084
		c3.893,0,6.906-1.412,9.041-4.24c2.133-2.826,3.199-6.612,3.199-11.36c0-2.292-0.547-3.986-1.64-5.08
		c-1.094-1.093-2.894-1.64-5.399-1.64h-8.641l-5.12,22.32H174.758z"/>
	<path d="M195.318,114.805l12.641-54.8h31.439l-1.84,7.76h-22.48l-3.52,15.52h18.08l-1.84,7.84h-18l-3.68,15.92h22.56l-1.841,7.76
		H195.318z"/>
	<path d="M264.278,60.005c5.333,0,9.28,1.147,11.841,3.44c2.56,2.293,3.84,6.04,3.84,11.24c0,5.2-1.269,9.548-3.801,13.04
		c-2.533,3.494-5.613,5.854-9.24,7.08l5.121,20h-8.881l-4.479-18.8h-10.08l-4.32,18.8h-8.96l12.721-54.8H264.278z M267.718,84.485
		c2.025-2.56,3.039-5.453,3.039-8.68c0-3.226-0.533-5.386-1.6-6.48c-1.066-1.092-2.906-1.64-5.52-1.64h-8.48l-4.8,20.64h9.2
		C262.971,88.325,265.691,87.045,267.718,84.485z"/>
	<path d="M279.238,97.445l2-7.84h20l-1.92,7.84H279.238z"/>
	<path d="M78.679,216.805h-19.44l12.72-54.8h17.36c11.2,0,16.8,5.494,16.8,16.48c0,9.44-2.188,18-6.56,25.68
		c-2.134,3.789-5.014,6.84-8.64,9.16C87.292,215.645,83.211,216.805,78.679,216.805z M92.879,197.924
		c1.306-3.199,2.306-6.479,3-9.839c0.692-3.36,1.04-6.572,1.04-9.64c0-3.066-0.76-5.28-2.28-6.64c-1.52-1.36-3.88-2.04-7.08-2.04
		h-8.56l-8.96,39.28h9.52c2.88,0,5.493-1.053,7.84-3.16S91.572,201.125,92.879,197.924z"/>
	<path d="M119.718,198.805c-0.48,2.134-0.72,4.107-0.72,5.92c0,3.468,2.72,5.199,8.16,5.199c3.68,0,6.36-0.852,8.04-2.559
		c1.68-1.707,2.972-4.48,3.88-8.32l8.56-37.041h8.96l-8.56,37.041c-1.494,6.506-3.934,11.24-7.32,14.199
		c-3.388,2.961-7.908,4.44-13.56,4.44c-11.36,0-17.04-4-17.04-12c0-2.24,0.32-4.96,0.96-8.16l8.24-35.52h8.96L119.718,198.805z"/>
	<path d="M174.998,199.844h-9.04l-3.92,16.961h-8.96l12.72-54.8h16.401c5.385,0,9.305,1.147,11.76,3.44
		c2.453,2.293,3.68,5.947,3.68,10.96c0,7.36-2,13.106-6,17.24C187.638,197.778,182.089,199.844,174.998,199.844z M176.277,192.084
		c3.893,0,6.906-1.412,9.04-4.24c2.134-2.826,3.2-6.612,3.2-11.36c0-2.292-0.547-3.986-1.641-5.08
		c-1.094-1.093-2.894-1.64-5.399-1.64h-8.64l-5.12,22.32H176.277z"/>
	<path d="M198.357,216.805l12.641-54.8h31.439l-1.84,7.76h-22.48l-3.52,15.52h18.08l-1.84,7.84h-18l-3.68,15.92h22.559l-1.84,7.76
		H198.357z"/>
	<path d="M267.317,162.005c5.333,0,9.28,1.147,11.841,3.44c2.559,2.293,3.84,6.04,3.84,11.24c0,5.2-1.269,9.548-3.801,13.04
		c-2.533,3.494-5.613,5.854-9.24,7.08l5.121,20h-8.881l-4.48-18.801h-10.079l-4.32,18.801h-8.96l12.721-54.8H267.317z
		 M270.757,186.485c2.025-2.56,3.039-5.453,3.039-8.68c0-3.226-0.533-5.386-1.6-6.48c-1.066-1.092-2.906-1.64-5.52-1.64h-8.48
		l-4.8,20.64h9.2C266.009,190.325,268.73,189.045,270.757,186.485z"/>
	<path d="M282.277,199.445l2-7.84h20l-1.92,7.84H282.277z"/>
	<path d="M102.599,272.165c-5.76-0.959-10.348-1.439-13.76-1.439c-3.414,0-6,0.8-7.76,2.4c-1.76,1.6-2.64,3.84-2.64,6.719
		c0,1.814,0.52,3.16,1.56,4.041c1.04,0.88,3.546,2.119,7.52,3.72c3.973,1.601,6.72,3.308,8.24,5.12c1.52,1.814,2.28,4.48,2.28,8
		c0,6.027-1.827,10.693-5.48,14c-3.654,3.309-8.6,4.96-14.84,4.96c-2.4,0-4.96-0.228-7.68-0.681c-2.72-0.453-4.827-0.92-6.32-1.399
		l-2.32-0.72l1.44-6.48c6.132,1.014,11.12,1.52,14.96,1.52c7.413,0,11.12-3.385,11.12-10.159c0-1.866-0.507-3.24-1.52-4.12
		c-1.014-0.88-3.428-2.092-7.24-3.641c-3.814-1.545-6.56-3.267-8.24-5.16c-1.68-1.893-2.52-4.572-2.52-8.039
		c0-5.28,1.706-9.547,5.12-12.801c3.413-3.252,8-4.879,13.76-4.879c2.4,0,4.92,0.213,7.56,0.64c2.64,0.428,4.68,0.854,6.12,1.28
		l2.24,0.72L102.599,272.165z"/>
	<path d="M108.519,271.765l1.84-7.761h35.36l-1.84,7.761h-13.28l-10.88,47.04h-8.88l10.8-47.04H108.519z"/>
	<path d="M151.958,300.805c-0.48,2.134-0.72,4.107-0.72,5.92c0,3.468,2.72,5.199,8.16,5.199c3.68,0,6.36-0.852,8.04-2.559
		s2.972-4.48,3.88-8.32l8.561-37.041h8.959l-8.56,37.041c-1.494,6.506-3.934,11.24-7.32,14.199c-3.388,2.961-7.908,4.44-13.56,4.44
		c-11.36,0-17.04-4-17.04-12c0-2.24,0.32-4.96,0.96-8.16l8.24-35.521h8.96L151.958,300.805z"/>
	<path d="M204.598,318.805h-19.44l12.721-54.801h17.359c11.2,0,16.801,5.494,16.801,16.48c0,9.439-2.188,18-6.561,25.68
		c-2.134,3.789-5.014,6.84-8.641,9.16S209.13,318.805,204.598,318.805z M218.798,299.924c1.306-3.199,2.306-6.479,3-9.84
		c0.691-3.359,1.039-6.571,1.039-9.64c0-3.065-0.76-5.28-2.279-6.64c-1.52-1.36-3.88-2.04-7.08-2.04h-8.561l-8.959,39.28h9.52
		c2.88,0,5.493-1.053,7.84-3.16C215.666,305.778,217.492,303.125,218.798,299.924z"/>
	<path d="M232.837,318.805l12.72-54.801h8.88l-12.641,54.801H232.837z"/>
	<path d="M287.078,314.965c-4.055,3.146-8.961,4.72-14.721,4.72s-10.08-1.333-12.96-4c-2.88-2.666-4.319-6.853-4.319-12.56
		c0-6.933,1.08-13.521,3.239-19.76c2.16-6.24,5.292-11.146,9.399-14.721c4.106-3.68,9.121-5.52,15.041-5.52
		c11.625,0,17.439,5.52,17.439,16.56c0,7.254-1.107,14.08-3.32,20.479S291.396,311.499,287.078,314.965z M264.277,301.165
		c0,4.24,0.691,7.094,2.08,8.561c1.387,1.468,3.68,2.199,6.88,2.199s5.921-0.985,8.16-2.959c2.985-2.668,5.333-6.748,7.04-12.24
		s2.561-10.906,2.561-16.24c0-3.412-0.694-5.865-2.08-7.359c-1.387-1.492-3.668-2.24-6.84-2.24c-3.175,0-5.748,0.88-7.721,2.64
		c-3.094,2.827-5.547,7.08-7.359,12.761C265.183,291.965,264.277,296.924,264.277,301.165z"/>
</g>
</svg>
